<svg width="24" height="24" viewBox="0 0 24 24" fill="none" xmlns="http://www.w3.org/2000/svg">
<path d="M18.5722 5.80219C16.7569 4.00462 14.3047 2.99739 11.75 3.00001H11.6497C9.08125 3.02643 6.62699 4.06532 4.82015 5.89094C3.01331 7.71656 1.99986 10.1814 2 12.75C2 16.7813 4.49187 20.1619 8.5025 21.5784C8.95485 21.7379 9.43885 21.7866 9.91391 21.7204C10.389 21.6543 10.8412 21.4752 11.2328 21.1981C11.6243 20.9211 11.9437 20.5542 12.1642 20.1282C12.3847 19.7023 12.4999 19.2297 12.5 18.75C12.5 18.3522 12.658 17.9707 12.9393 17.6893C13.2206 17.408 13.6022 17.25 14 17.25H18.3322C19.0127 17.2533 19.6739 17.0237 20.2059 16.5995C20.738 16.1752 21.1089 15.5817 21.2572 14.9175C21.4248 14.1794 21.5063 13.4244 21.5 12.6675C21.4904 11.3864 21.2267 10.1199 20.7242 8.94141C20.2216 7.76294 19.4901 6.69592 18.5722 5.80219ZM19.7909 14.5875C19.7164 14.9184 19.5313 15.214 19.266 15.4253C19.0008 15.6367 18.6714 15.7512 18.3322 15.75H14C13.2043 15.75 12.4413 16.0661 11.8787 16.6287C11.3161 17.1913 11 17.9544 11 18.75C10.9997 18.9896 10.9419 19.2256 10.8316 19.4383C10.7213 19.651 10.5617 19.8342 10.3661 19.9725C10.1705 20.1109 9.94456 20.2003 9.70726 20.2334C9.46997 20.2666 9.2282 20.2423 9.00219 20.1628C5.60844 18.9656 3.5 16.125 3.5 12.75C3.49988 10.5767 4.35736 8.49108 5.88613 6.94633C7.4149 5.40158 9.49147 4.52248 11.6647 4.50001H11.7491C13.9224 4.50845 16.0053 5.37073 17.5486 6.90091C19.0919 8.43109 19.972 10.5065 19.9991 12.6797C20.0046 13.3214 19.9361 13.9616 19.7947 14.5875H19.7909ZM12.875 7.87501C12.875 8.09751 12.809 8.31502 12.6854 8.50002C12.5618 8.68503 12.3861 8.82922 12.1805 8.91437C11.975 8.99952 11.7488 9.0218 11.5305 8.97839C11.3123 8.93498 11.1118 8.82783 10.9545 8.6705C10.7972 8.51317 10.69 8.31271 10.6466 8.09448C10.6032 7.87625 10.6255 7.65005 10.7106 7.44449C10.7958 7.23892 10.94 7.06322 11.125 6.9396C11.31 6.81599 11.5275 6.75001 11.75 6.75001C12.0484 6.75001 12.3345 6.86853 12.5455 7.07951C12.7565 7.29049 12.875 7.57664 12.875 7.87501ZM8.75 10.125C8.75 10.3475 8.68402 10.565 8.5604 10.75C8.43679 10.935 8.26109 11.0792 8.05552 11.1644C7.84995 11.2495 7.62375 11.2718 7.40552 11.2284C7.18729 11.185 6.98684 11.0778 6.8295 10.9205C6.67217 10.7632 6.56502 10.5627 6.52162 10.3445C6.47821 10.1263 6.50049 9.90005 6.58564 9.69449C6.67078 9.48892 6.81498 9.31322 6.99998 9.1896C7.18499 9.06599 7.4025 9.00001 7.625 9.00001C7.92337 9.00001 8.20952 9.11853 8.42049 9.32951C8.63147 9.54049 8.75 9.82664 8.75 10.125ZM8.75 15.375C8.75 15.5975 8.68402 15.815 8.5604 16C8.43679 16.185 8.26109 16.3292 8.05552 16.4144C7.84995 16.4995 7.62375 16.5218 7.40552 16.4784C7.18729 16.435 6.98684 16.3278 6.8295 16.1705C6.67217 16.0132 6.56502 15.8127 6.52162 15.5945C6.47821 15.3763 6.50049 15.1501 6.58564 14.9445C6.67078 14.7389 6.81498 14.5632 6.99998 14.4396C7.18499 14.316 7.4025 14.25 7.625 14.25C7.92337 14.25 8.20952 14.3685 8.42049 14.5795C8.63147 14.7905 8.75 15.0766 8.75 15.375ZM17 10.125C17 10.3475 16.934 10.565 16.8104 10.75C16.6868 10.935 16.5111 11.0792 16.3055 11.1644C16.0999 11.2495 15.8738 11.2718 15.6555 11.2284C15.4373 11.185 15.2368 11.0778 15.0795 10.9205C14.9222 10.7632 14.815 10.5627 14.7716 10.3445C14.7282 10.1263 14.7505 9.90005 14.8356 9.69449C14.9208 9.48892 15.065 9.31322 15.25 9.1896C15.435 9.06599 15.6525 9.00001 15.875 9.00001C16.1734 9.00001 16.4595 9.11853 16.6705 9.32951C16.8815 9.54049 17 9.82664 17 10.125Z" fill="black"/>
</svg>
