<svg width="24" height="24" viewBox="0 0 24 24" fill="none" xmlns="http://www.w3.org/2000/svg">
<path d="M20 7.5H16.25C16.25 6.30653 15.7759 5.16193 14.932 4.31802C14.0881 3.47411 12.9435 3 11.75 3C10.5565 3 9.41193 3.47411 8.56802 4.31802C7.72411 5.16193 7.25 6.30653 7.25 7.5H3.5C3.10218 7.5 2.72064 7.65804 2.43934 7.93934C2.15804 8.22064 2 8.60218 2 9V20.25C2 20.6478 2.15804 21.0294 2.43934 21.3107C2.72064 21.592 3.10218 21.75 3.5 21.75H20C20.3978 21.75 20.7794 21.592 21.0607 21.3107C21.342 21.0294 21.5 20.6478 21.5 20.25V9C21.5 8.60218 21.342 8.22064 21.0607 7.93934C20.7794 7.65804 20.3978 7.5 20 7.5ZM11.75 4.5C12.5456 4.5 13.3087 4.81607 13.8713 5.37868C14.4339 5.94129 14.75 6.70435 14.75 7.5H8.75C8.75 6.70435 9.06607 5.94129 9.62868 5.37868C10.1913 4.81607 10.9544 4.5 11.75 4.5ZM20 20.25H3.5V9H7.25V10.5C7.25 10.6989 7.32902 10.8897 7.46967 11.0303C7.61032 11.171 7.80109 11.25 8 11.25C8.19891 11.25 8.38968 11.171 8.53033 11.0303C8.67098 10.8897 8.75 10.6989 8.75 10.5V9H14.75V10.5C14.75 10.6989 14.829 10.8897 14.9697 11.0303C15.1103 11.171 15.3011 11.25 15.5 11.25C15.6989 11.25 15.8897 11.171 16.0303 11.0303C16.171 10.8897 16.25 10.6989 16.25 10.5V9H20V20.25Z" fill="black"/>
</svg>
