<svg width="24" height="24" viewBox="0 0 24 24" fill="none" xmlns="http://www.w3.org/2000/svg">
<path d="M20.2492 11.75C20.0419 11.7505 19.835 11.7677 19.6305 11.8016L19.0849 10.3822C19.4668 10.2945 19.8574 10.2502 20.2492 10.25C20.4481 10.25 20.6389 10.171 20.7796 10.0303C20.9202 9.88968 20.9992 9.69891 20.9992 9.5C20.9992 9.30109 20.9202 9.11032 20.7796 8.96967C20.6389 8.82902 20.4481 8.75 20.2492 8.75H18.4567L17.1995 5.48094C17.1451 5.33936 17.0491 5.21761 16.9241 5.13175C16.799 5.04589 16.6509 4.99995 16.4992 5H13.4992C13.3003 5 13.1096 5.07902 12.9689 5.21967C12.8283 5.36032 12.7492 5.55109 12.7492 5.75C12.7492 5.94891 12.8283 6.13968 12.9689 6.28033C13.1096 6.42098 13.3003 6.5 13.4992 6.5H15.9845L16.8499 8.75H14.2492C12.5149 8.75 11.1086 9.15406 10.1833 9.91813C9.96555 10.0938 9.70302 10.205 9.42536 10.2393C9.1477 10.2736 8.86599 10.2296 8.61205 10.1122C7.62017 9.66125 2.91767 7.74969 2.5033 7.5875L1.96798 7.3775C1.81882 7.31229 1.66088 7.26933 1.49923 7.25C1.32438 7.25042 1.15517 7.31192 1.02085 7.42388C0.886537 7.53583 0.795557 7.69119 0.763643 7.86311C0.731728 8.03502 0.760884 8.21269 0.846071 8.36539C0.931257 8.51809 1.06712 8.63622 1.23017 8.69937C1.2733 8.71625 5.65423 10.415 7.99236 11.4772C8.50235 11.7092 9.06691 11.7945 9.62267 11.7234C10.1784 11.6524 10.7034 11.4278 11.1386 11.075C11.5942 10.7 12.5045 10.25 14.2502 10.25H16.0145C14.9197 11.1289 14.1274 12.3284 13.7486 13.6803C13.6579 13.9908 13.4684 14.2632 13.2088 14.4562C12.9493 14.6492 12.6339 14.7524 12.3105 14.75H7.42423C7.23837 13.8395 6.72104 13.0304 5.97254 12.4796C5.22404 11.9288 4.29769 11.6756 3.37309 11.769C2.44849 11.8624 1.5915 12.2958 0.968282 12.9851C0.34506 13.6745 0 14.5707 0 15.5C0 16.4293 0.34506 17.3255 0.968282 18.0149C1.5915 18.7042 2.44849 19.1376 3.37309 19.231C4.29769 19.3244 5.22404 19.0712 5.97254 18.5204C6.72104 17.9696 7.23837 17.1605 7.42423 16.25H12.3105C12.961 16.2514 13.5942 16.0408 14.1142 15.65C14.6343 15.2592 15.0128 14.7096 15.1924 14.0844C15.3794 13.4193 15.6959 12.7978 16.1237 12.2553C16.5515 11.7128 17.0821 11.2601 17.6852 10.9231L18.2308 12.3416C17.4706 12.8281 16.9115 13.5725 16.6559 14.4381C16.4003 15.3037 16.4655 16.2324 16.8394 17.0538C17.2134 17.8752 17.8711 18.5342 18.6917 18.9098C19.5124 19.2854 20.441 19.3525 21.3071 19.0986C22.1732 18.8448 22.9187 18.2871 23.4067 17.5279C23.8948 16.7688 24.0927 15.859 23.9641 14.9657C23.8355 14.0724 23.3891 13.2554 22.7067 12.6647C22.0243 12.074 21.1518 11.7492 20.2492 11.75ZM3.74923 16.25H5.86986C5.69294 16.7504 5.34481 17.1722 4.887 17.4407C4.42919 17.7093 3.89118 17.8073 3.36806 17.7176C2.84494 17.6278 2.37039 17.356 2.02828 16.9502C1.68617 16.5444 1.49854 16.0308 1.49854 15.5C1.49854 14.9692 1.68617 14.4556 2.02828 14.0498C2.37039 13.644 2.84494 13.3722 3.36806 13.2824C3.89118 13.1927 4.42919 13.2907 4.887 13.5593C5.34481 13.8278 5.69294 14.2496 5.86986 14.75H3.74923C3.55032 14.75 3.35956 14.829 3.2189 14.9697C3.07825 15.1103 2.99923 15.3011 2.99923 15.5C2.99923 15.6989 3.07825 15.8897 3.2189 16.0303C3.35956 16.171 3.55032 16.25 3.74923 16.25ZM20.2492 17.75C19.7896 17.7494 19.3413 17.6081 18.9644 17.3451C18.5875 17.0821 18.3002 16.71 18.1411 16.2788C17.982 15.8476 17.9588 15.3781 18.0746 14.9333C18.1903 14.4885 18.4395 14.0899 18.7886 13.7909L19.5489 15.7691C19.6203 15.9548 19.7625 16.1046 19.9443 16.1855C20.1261 16.2663 20.3326 16.2717 20.5183 16.2003C20.704 16.129 20.8538 15.9867 20.9347 15.8049C21.0156 15.6231 21.0209 15.4167 20.9495 15.2309L20.1883 13.25H20.2492C20.846 13.25 21.4183 13.4871 21.8402 13.909C22.2622 14.331 22.4992 14.9033 22.4992 15.5C22.4992 16.0967 22.2622 16.669 21.8402 17.091C21.4183 17.5129 20.846 17.75 20.2492 17.75Z" fill="#1F1F1F"/>
</svg>
