<svg width="24" height="24" viewBox="0 0 24 24" fill="none" xmlns="http://www.w3.org/2000/svg">
<path d="M16.75 6.875C16.75 7.0975 16.684 7.31501 16.5604 7.50002C16.4368 7.68502 16.2611 7.82922 16.0555 7.91436C15.85 7.99951 15.6238 8.02179 15.4055 7.97838C15.1873 7.93498 14.9868 7.82783 14.8295 7.6705C14.6722 7.51316 14.565 7.31271 14.5216 7.09448C14.4782 6.87625 14.5005 6.65005 14.5856 6.44448C14.6708 6.23891 14.815 6.06321 15 5.9396C15.185 5.81598 15.4025 5.75 15.625 5.75C15.9234 5.75 16.2095 5.86853 16.4205 6.0795C16.6315 6.29048 16.75 6.57663 16.75 6.875ZM22.75 8C22.7501 8.12351 22.7197 8.24512 22.6614 8.35405C22.6032 8.46297 22.519 8.55583 22.4163 8.62438L20.5 9.90125V11.75C20.4973 14.335 19.4692 16.8134 17.6413 18.6413C15.8134 20.4692 13.335 21.4973 10.75 21.5H2.5C2.2174 21.5 1.94055 21.4202 1.70134 21.2697C1.46213 21.1192 1.27029 20.9043 1.14792 20.6495C1.02555 20.3948 0.977629 20.1107 1.00968 19.8299C1.04173 19.5491 1.15244 19.2831 1.32906 19.0625L1.33844 19.0513L9.25 9.55906V7.70844C9.25 4.57531 11.7616 2.015 14.8478 2H14.875C16.0699 1.99964 17.2339 2.37982 18.1982 3.08542C19.1626 3.79102 19.8772 4.78538 20.2384 5.92438L22.4163 7.37563C22.519 7.44417 22.6032 7.53703 22.6614 7.64595C22.7197 7.75488 22.7501 7.87649 22.75 8ZM20.6481 8L19.1781 7.01938C19.0248 6.91739 18.9143 6.76256 18.8678 6.58438C18.6375 5.70086 18.1205 4.91873 17.398 4.36056C16.6754 3.80239 15.788 3.49973 14.875 3.5H14.8544C12.5913 3.51125 10.75 5.39844 10.75 7.70844V9.83C10.7503 10.0057 10.6889 10.1759 10.5766 10.3109L2.5 20H5.02188L11.6725 12.02C11.7348 11.9421 11.8121 11.8775 11.8997 11.8299C11.9873 11.7822 12.0835 11.7525 12.1827 11.7425C12.282 11.7325 12.3822 11.7424 12.4775 11.7716C12.5729 11.8007 12.6615 11.8487 12.7381 11.9125C12.8147 11.9763 12.8778 12.0548 12.9238 12.1433C12.9697 12.2319 12.9975 12.3287 13.0055 12.4281C13.0136 12.5275 13.0018 12.6275 12.9707 12.7223C12.9397 12.817 12.89 12.9046 12.8247 12.98L6.97656 20H10.75C12.9373 19.9975 15.0343 19.1275 16.5809 17.5809C18.1275 16.0343 18.9975 13.9373 19 11.75V9.5C18.9999 9.37649 19.0303 9.25488 19.0886 9.14595C19.1468 9.03703 19.231 8.94417 19.3338 8.87562L20.6481 8Z" fill="black"/>
</svg>
