<svg width="24" height="24" viewBox="0 0 24 24" fill="none" xmlns="http://www.w3.org/2000/svg">
<path d="M23.4264 18.1706C23.3652 18.0434 23.2692 17.936 23.1496 17.8609C23.0301 17.7858 22.8917 17.7459 22.7505 17.7459H13.7505V15.4959H20.5005C20.6457 15.4959 20.7879 15.4537 20.9096 15.3745C21.0314 15.2952 21.1275 15.1823 21.1863 15.0494C21.245 14.9166 21.264 14.7695 21.2408 14.6261C21.2175 14.4827 21.1532 14.3491 21.0555 14.2416L13.7505 6.20626V2.74594C13.7496 2.59135 13.701 2.44079 13.6114 2.31487C13.5217 2.18896 13.3953 2.09383 13.2494 2.04252C13.1036 1.99121 12.9455 1.98621 12.7967 2.02822C12.6479 2.07023 12.5157 2.15719 12.4183 2.27719L2.66828 14.2772C2.58014 14.3873 2.52482 14.52 2.50868 14.6601C2.49253 14.8002 2.51621 14.942 2.57699 15.0692C2.63778 15.1965 2.73321 15.304 2.85233 15.3795C2.97146 15.455 3.10945 15.4953 3.25047 15.4959H12.2505V17.7459H1.75047C1.60913 17.7459 1.47064 17.7857 1.35097 17.8609C1.23129 17.9361 1.1353 18.0436 1.07406 18.171C1.01282 18.2984 0.988819 18.4405 1.00483 18.5809C1.02083 18.7213 1.07619 18.8544 1.16453 18.9647L3.93953 22.4334C4.07975 22.6093 4.25788 22.7513 4.46064 22.8487C4.66339 22.9461 4.88553 22.9964 5.11047 22.9959H19.3905C19.6154 22.9964 19.8375 22.9461 20.0403 22.8487C20.2431 22.7513 20.4212 22.6093 20.5614 22.4334L23.3364 18.9647C23.4247 18.8543 23.4801 18.7211 23.496 18.5806C23.5119 18.4402 23.4878 18.298 23.4264 18.1706ZM18.8055 13.9959H13.7505V8.43563L18.8055 13.9959ZM4.82641 13.9959L12.2505 4.85813V13.9959H4.82641ZM19.3905 21.4959H5.11047L3.31047 19.2459H21.1905L19.3905 21.4959Z" fill="#1F1F1F"/>
</svg>
