<svg width="24" height="24" viewBox="0 0 24 24" fill="none" xmlns="http://www.w3.org/2000/svg">
<path d="M22.5 9.50001H19.8103L15.75 5.4397C15.6112 5.2998 15.446 5.18889 15.264 5.11341C15.082 5.03792 14.8867 4.99938 14.6897 5.00001H4.15125C3.90487 5.00046 3.66239 5.0616 3.44525 5.17802C3.22811 5.29444 3.04299 5.46256 2.90625 5.66751L0.125625 9.83376C0.0439236 9.95723 0.000244554 10.102 0 10.25L0 14.75C0 15.1478 0.158035 15.5294 0.43934 15.8107C0.720644 16.092 1.10218 16.25 1.5 16.25H3.09375C3.25898 16.8953 3.63428 17.4673 4.16048 17.8757C4.68669 18.2842 5.33387 18.5059 6 18.5059C6.66613 18.5059 7.31331 18.2842 7.83952 17.8757C8.36572 17.4673 8.74102 16.8953 8.90625 16.25H15.0938C15.259 16.8953 15.6343 17.4673 16.1605 17.8757C16.6867 18.2842 17.3339 18.5059 18 18.5059C18.6661 18.5059 19.3133 18.2842 19.8395 17.8757C20.3657 17.4673 20.741 16.8953 20.9062 16.25H22.5C22.8978 16.25 23.2794 16.092 23.5607 15.8107C23.842 15.5294 24 15.1478 24 14.75V11C24 10.6022 23.842 10.2207 23.5607 9.93935C23.2794 9.65804 22.8978 9.50001 22.5 9.50001ZM4.15125 6.50001H14.6897L17.6897 9.50001H2.15625L4.15125 6.50001ZM6 17C5.70333 17 5.41332 16.912 5.16665 16.7472C4.91997 16.5824 4.72771 16.3481 4.61418 16.074C4.50065 15.7999 4.47094 15.4983 4.52882 15.2074C4.5867 14.9164 4.72956 14.6491 4.93934 14.4393C5.14912 14.2296 5.41639 14.0867 5.70736 14.0288C5.99834 13.971 6.29994 14.0007 6.57403 14.1142C6.84811 14.2277 7.08238 14.42 7.2472 14.6667C7.41203 14.9133 7.5 15.2033 7.5 15.5C7.5 15.8978 7.34196 16.2794 7.06066 16.5607C6.77936 16.842 6.39782 17 6 17ZM18 17C17.7033 17 17.4133 16.912 17.1666 16.7472C16.92 16.5824 16.7277 16.3481 16.6142 16.074C16.5006 15.7999 16.4709 15.4983 16.5288 15.2074C16.5867 14.9164 16.7296 14.6491 16.9393 14.4393C17.1491 14.2296 17.4164 14.0867 17.7074 14.0288C17.9983 13.971 18.2999 14.0007 18.574 14.1142C18.8481 14.2277 19.0824 14.42 19.2472 14.6667C19.412 14.9133 19.5 15.2033 19.5 15.5C19.5 15.8978 19.342 16.2794 19.0607 16.5607C18.7794 16.842 18.3978 17 18 17ZM22.5 14.75H20.9062C20.741 14.1047 20.3657 13.5327 19.8395 13.1243C19.3133 12.7158 18.6661 12.4941 18 12.4941C17.3339 12.4941 16.6867 12.7158 16.1605 13.1243C15.6343 13.5327 15.259 14.1047 15.0938 14.75H8.90625C8.74102 14.1047 8.36572 13.5327 7.83952 13.1243C7.31331 12.7158 6.66613 12.4941 6 12.4941C5.33387 12.4941 4.68669 12.7158 4.16048 13.1243C3.63428 13.5327 3.25898 14.1047 3.09375 14.75H1.5V11H22.5V14.75Z" fill="#1F1F1F"/>
</svg>
