<svg width="24" height="24" viewBox="0 0 24 24" fill="none" xmlns="http://www.w3.org/2000/svg">
<path d="M8.75 13.1243C8.75 13.3468 8.68402 13.5643 8.5604 13.7493C8.43679 13.9343 8.26109 14.0785 8.05552 14.1637C7.84995 14.2488 7.62375 14.2711 7.40552 14.2277C7.18729 14.1843 6.98684 14.0771 6.8295 13.9198C6.67217 13.7625 6.56502 13.562 6.52162 13.3438C6.47821 13.1256 6.50049 12.8994 6.58564 12.6938C6.67078 12.4882 6.81498 12.3125 6.99998 12.1889C7.18499 12.0653 7.4025 11.9993 7.625 11.9993C7.92337 11.9993 8.20952 12.1178 8.4205 12.3288C8.63147 12.5398 8.75 12.8259 8.75 13.1243ZM15.875 11.9993C15.6525 11.9993 15.435 12.0653 15.25 12.1889C15.065 12.3125 14.9208 12.4882 14.8356 12.6938C14.7505 12.8994 14.7282 13.1256 14.7716 13.3438C14.815 13.562 14.9222 13.7625 15.0795 13.9198C15.2368 14.0771 15.4373 14.1843 15.6555 14.2277C15.8738 14.2711 16.1 14.2488 16.3055 14.1637C16.5111 14.0785 16.6868 13.9343 16.8104 13.7493C16.934 13.5643 17 13.3468 17 13.1243C17 12.8259 16.8815 12.5398 16.6705 12.3288C16.4595 12.1178 16.1734 11.9993 15.875 11.9993ZM21.5 4.49931V12.7493C21.5 17.7115 17.1266 21.7493 11.75 21.7493C6.37344 21.7493 2 17.7115 2 12.7493V4.49931C2.00014 4.20273 2.08819 3.91286 2.25302 3.66631C2.41785 3.41977 2.65207 3.22762 2.92607 3.11414C3.20007 3.00067 3.50156 2.97096 3.79244 3.02878C4.08332 3.08661 4.35054 3.22935 4.56031 3.43899C4.57344 3.45212 4.58469 3.46431 4.59594 3.47743L6.21875 5.34306C7.87807 4.30345 9.79659 3.75208 11.7547 3.75208C13.7128 3.75208 15.6313 4.30345 17.2906 5.34306L18.9041 3.47743C18.9153 3.46431 18.9266 3.45212 18.9397 3.43899C19.1495 3.22935 19.4167 3.08661 19.7076 3.02878C19.9984 2.97096 20.2999 3.00067 20.5739 3.11414C20.8479 3.22762 21.0822 3.41977 21.247 3.66631C21.4118 3.91286 21.4999 4.20273 21.5 4.49931ZM20 4.49931L17.9788 6.82431C17.8551 6.96735 17.682 7.05841 17.4941 7.07927C17.3062 7.10013 17.1173 7.04925 16.9653 6.93681C16.5078 6.59845 16.0168 6.30788 15.5 6.06962V8.24931C15.5 8.44822 15.421 8.63898 15.2803 8.77964C15.1397 8.92029 14.9489 8.99931 14.75 8.99931C14.5511 8.99931 14.3603 8.92029 14.2197 8.77964C14.079 8.63898 14 8.44822 14 8.24931V5.53524C13.508 5.40867 13.0062 5.32338 12.5 5.28024V8.24931C12.5 8.44822 12.421 8.63898 12.2803 8.77964C12.1397 8.92029 11.9489 8.99931 11.75 8.99931C11.5511 8.99931 11.3603 8.92029 11.2197 8.77964C11.079 8.63898 11 8.44822 11 8.24931V5.28024C10.4938 5.32338 9.99204 5.40867 9.5 5.53524V8.24931C9.5 8.44822 9.42098 8.63898 9.28033 8.77964C9.13968 8.92029 8.94891 8.99931 8.75 8.99931C8.55109 8.99931 8.36032 8.92029 8.21967 8.77964C8.07902 8.63898 8 8.44822 8 8.24931V6.06962C7.48323 6.30788 6.99223 6.59845 6.53469 6.93681C6.38302 7.04958 6.19437 7.10093 6.00647 7.08059C5.81857 7.06026 5.64528 6.96973 5.52125 6.82712L3.5 4.49931V12.7493C3.5 16.6549 6.80094 19.8743 11 20.2184V18.3096L9.71937 17.029C9.64975 16.9593 9.59454 16.8766 9.55688 16.7856C9.51923 16.6946 9.49987 16.597 9.49991 16.4985C9.49996 16.4 9.5194 16.3025 9.55714 16.2115C9.59487 16.1205 9.65016 16.0378 9.71984 15.9682C9.86057 15.8276 10.0514 15.7487 10.2503 15.7488C10.3488 15.7488 10.4464 15.7682 10.5374 15.806C10.6283 15.8437 10.711 15.899 10.7806 15.9687L11.75 16.9381L12.7194 15.9687C12.789 15.899 12.8717 15.8437 12.9626 15.806C13.0536 15.7682 13.1512 15.7488 13.2497 15.7488C13.3482 15.7487 13.4457 15.7681 13.5367 15.8057C13.6278 15.8434 13.7105 15.8986 13.7802 15.9682C13.8498 16.0378 13.9051 16.1205 13.9429 16.2115C13.9806 16.3025 14 16.4 14.0001 16.4985C14.0001 16.597 13.9808 16.6946 13.9431 16.7856C13.9055 16.8766 13.8502 16.9593 13.7806 17.029L12.5 18.3096V20.2184C16.6991 19.8724 20 16.6559 20 12.7493V4.49931Z" fill="black"/>
</svg>
