<svg width="24" height="24" viewBox="0 0 24 24" fill="none" xmlns="http://www.w3.org/2000/svg">
<path d="M19.75 8C19.9489 8 20.1397 7.92098 20.2803 7.78033C20.421 7.63968 20.5 7.44891 20.5 7.25C20.4985 5.85807 19.9449 4.52358 18.9607 3.53933C17.9764 2.55509 16.6419 2.00149 15.25 2H8.5C8.10218 2 7.72064 2.15804 7.43934 2.43934C7.15804 2.72064 7 3.10218 7 3.5V8C7 8.59674 6.76295 9.16903 6.34099 9.59099C5.91903 10.0129 5.34674 10.25 4.75 10.25C4.55109 10.25 4.36032 10.329 4.21967 10.4697C4.07902 10.6103 4 10.8011 4 11C4 11.1989 4.07902 11.3897 4.21967 11.5303C4.36032 11.671 4.55109 11.75 4.75 11.75C5.74456 11.75 6.69839 11.3549 7.40165 10.6517C8.10491 9.94839 8.5 8.99456 8.5 8H11.5V10.3081C11.501 10.6456 11.4256 10.979 11.2794 11.2832C11.1333 11.5875 10.9203 11.8547 10.6562 12.065L9.15625 13.2641C8.71629 13.6145 8.36126 14.0599 8.11774 14.5669C7.87422 15.0739 7.7485 15.6294 7.75 16.1919V21.5C7.75 21.8978 7.90804 22.2794 8.18934 22.5607C8.47064 22.842 8.85218 23 9.25 23H19C19.3978 23 19.7794 22.842 20.0607 22.5607C20.342 22.2794 20.5 21.8978 20.5 21.5V20.3253C20.5012 16.0129 19.4043 11.7712 17.3125 8H19.75ZM8.5 3.5H15.25C16.1141 3.50123 16.9514 3.80026 17.6208 4.34671C18.2902 4.89315 18.7508 5.65362 18.925 6.5H8.5V3.5ZM19 20.3253V21.5H9.25V16.1919C9.24905 15.8544 9.32445 15.521 9.47057 15.2168C9.61668 14.9125 9.82973 14.6453 10.0938 14.435L11.5938 13.2359C12.0337 12.8855 12.3887 12.4401 12.6323 11.9331C12.8758 11.4261 13.0015 10.8706 13 10.3081V8H15.58C17.819 11.7213 19.0013 15.9824 19 20.3253Z" fill="black"/>
</svg>
