<svg width="24" height="24" viewBox="0 0 24 24" fill="none" xmlns="http://www.w3.org/2000/svg">
<path d="M21.9742 12.4742L20.4348 4.22421C20.3972 4.02312 20.3188 3.83184 20.2045 3.66214C20.0903 3.49245 19.9425 3.34793 19.7703 3.23746C19.5981 3.12699 19.4051 3.05292 19.2032 3.01979C19.0013 2.98667 18.7948 2.99519 18.5963 3.04484L18.5673 3.05328L13.6435 4.50546H9.35916L4.43541 3.05796L4.40634 3.04952C4.20787 2.99988 4.00135 2.99136 3.79946 3.02448C3.59758 3.05761 3.4046 3.13168 3.2324 3.24215C3.06021 3.35261 2.91242 3.49714 2.79815 3.66683C2.68387 3.83653 2.60552 4.0278 2.56791 4.2289L1.02853 12.4742C0.962703 12.8044 1.01157 13.1472 1.16704 13.4459C1.32251 13.7446 1.57528 13.9812 1.88353 14.1167C2.08094 14.2072 2.29542 14.2546 2.51259 14.2555C2.77253 14.2553 3.02767 14.1854 3.25134 14.053V18.0055C3.25134 19 3.64643 19.9539 4.34969 20.6571C5.05295 21.3604 6.00678 21.7555 7.00134 21.7555H16.0013C16.9959 21.7555 17.9497 21.3604 18.653 20.6571C19.3563 19.9539 19.7513 19 19.7513 18.0055V14.0539C19.9748 14.1861 20.2295 14.256 20.4892 14.2564C20.7066 14.2558 20.9213 14.2088 21.1192 14.1186C21.4278 13.983 21.6808 13.7461 21.8363 13.447C21.9918 13.1479 22.0404 12.8047 21.9742 12.4742ZM2.50134 12.7555L4.04166 4.50546L7.98572 5.66515L2.50134 12.7555ZM16.0013 20.2555H12.2513V19.0658L13.532 17.7861C13.6727 17.6454 13.7518 17.4545 13.7518 17.2555C13.7518 17.0564 13.6727 16.8656 13.532 16.7248C13.3912 16.5841 13.2004 16.505 13.0013 16.505C12.8023 16.505 12.6114 16.5841 12.4707 16.7248L11.5013 17.6952L10.532 16.7248C10.3912 16.5841 10.2004 16.505 10.0013 16.505C9.80232 16.505 9.61145 16.5841 9.47072 16.7248C9.32999 16.8656 9.25093 17.0564 9.25093 17.2555C9.25093 17.4545 9.32999 17.6454 9.47072 17.7861L10.7513 19.0658V20.2555H7.00134C6.40461 20.2555 5.83231 20.0184 5.41035 19.5965C4.9884 19.1745 4.75134 18.6022 4.75134 18.0055V12.297L9.61884 6.00546H13.3829L18.2513 12.297V18.0055C18.2513 18.6022 18.0143 19.1745 17.5923 19.5965C17.1704 20.0184 16.5981 20.2555 16.0013 20.2555ZM20.5013 12.7555L15.017 5.66515L18.961 4.50546L20.5013 12.7555ZM9.25134 13.8805C9.25134 14.103 9.18536 14.3205 9.06175 14.5055C8.93813 14.6905 8.76243 14.8347 8.55686 14.9198C8.3513 15.005 8.12509 15.0273 7.90687 14.9838C7.68864 14.9404 7.48818 14.8333 7.33085 14.676C7.17351 14.5186 7.06637 14.3182 7.02296 14.0999C6.97955 13.8817 7.00183 13.6555 7.08698 13.4499C7.17213 13.2444 7.31632 13.0687 7.50133 12.9451C7.68633 12.8214 7.90384 12.7555 8.12634 12.7555C8.42471 12.7555 8.71086 12.874 8.92184 13.085C9.13282 13.2959 9.25134 13.5821 9.25134 13.8805ZM16.0013 13.8805C16.0013 14.103 15.9354 14.3205 15.8117 14.5055C15.6881 14.6905 15.5124 14.8347 15.3069 14.9198C15.1013 15.005 14.8751 15.0273 14.6569 14.9838C14.4386 14.9404 14.2382 14.8333 14.0808 14.676C13.9235 14.5186 13.8164 14.3182 13.773 14.0999C13.7296 13.8817 13.7518 13.6555 13.837 13.4499C13.9221 13.2444 14.0663 13.0687 14.2513 12.9451C14.4363 12.8214 14.6538 12.7555 14.8763 12.7555C15.1747 12.7555 15.4609 12.874 15.6718 13.085C15.8828 13.2959 16.0013 13.5821 16.0013 13.8805Z" fill="black"/>
</svg>
