<svg width="24" height="24" viewBox="0 0 24 24" fill="none" xmlns="http://www.w3.org/2000/svg">
<path d="M20.25 12.4988C20.1229 12.4989 19.9978 12.5313 19.8866 12.5929C19.7754 12.6546 19.6818 12.7435 19.6144 12.8513C19.2229 13.4803 18.7904 14.0829 18.3197 14.6551L16.7175 6.22413C16.6698 5.96959 16.5571 5.73172 16.3902 5.53369C16.2233 5.33565 16.008 5.18419 15.7653 5.09405C15.5225 5.00391 15.2605 4.97815 15.0048 5.01929C14.7492 5.06043 14.5085 5.16707 14.3063 5.32881L14.2941 5.33819L12 7.24881L9.70594 5.33819L9.69375 5.32881C9.49164 5.16708 9.25111 5.06041 8.99555 5.01916C8.74 4.97792 8.47813 5.00351 8.23539 5.09345C7.99266 5.18339 7.77734 5.33461 7.61036 5.53242C7.44338 5.73022 7.33043 5.96787 7.2825 6.22225L5.68031 14.6551C5.20943 14.0827 4.77692 13.4798 4.38562 12.8504C4.31813 12.7427 4.22439 12.654 4.11321 12.5925C4.00203 12.531 3.87705 12.4988 3.75 12.4988C2.75544 12.4988 1.80161 12.8939 1.09835 13.5972C0.395088 14.3004 0 15.2543 0 16.2488C0 17.2434 0.395088 18.1972 1.09835 18.9005C1.80161 19.6037 2.75544 19.9988 3.75 19.9988H20.25C21.2446 19.9988 22.1984 19.6037 22.9016 18.9005C23.6049 18.1972 24 17.2434 24 16.2488C24 15.2543 23.6049 14.3004 22.9016 13.5972C22.1984 12.8939 21.2446 12.4988 20.25 12.4988ZM8.75719 6.49881L11.0512 8.41131L11.0625 8.42069C11.328 8.63499 11.6588 8.75188 12 8.75188C12.3412 8.75188 12.672 8.63499 12.9375 8.42069L12.9487 8.41131L15.2428 6.49881L16.5253 13.2488H7.47469L8.75719 6.49881ZM3.75 18.4988C3.18701 18.4988 2.64448 18.2877 2.22952 17.9072C1.81455 17.5267 1.55731 17.0045 1.50857 16.4436C1.45983 15.8827 1.62313 15.324 1.96624 14.8776C2.30934 14.4312 2.80733 14.1297 3.36188 14.0326C4.8075 16.2329 6.34969 17.6223 7.725 18.4988H3.75ZM12 18.4988C11.9691 18.4988 9.61031 18.4613 6.95062 16.0051L7.18875 14.7488H16.8103L17.0484 16.0004C16.2862 16.7172 15.4221 17.3174 14.4844 17.7816C13.0406 18.4773 12.0056 18.4988 12 18.4988ZM20.25 18.4988H16.275C17.6503 17.6223 19.1925 16.2329 20.6381 14.0326C21.1927 14.1297 21.6907 14.4312 22.0338 14.8776C22.3769 15.324 22.5402 15.8827 22.4914 16.4436C22.4427 17.0045 22.1854 17.5267 21.7705 17.9072C21.3555 18.2877 20.813 18.4988 20.25 18.4988Z" fill="#1F1F1F"/>
</svg>
