<svg width="24" height="24" viewBox="0 0 24 24" fill="none" xmlns="http://www.w3.org/2000/svg">
<path d="M16.7534 5.87466C16.7534 6.09717 16.6875 6.31467 16.5638 6.49968C16.4402 6.68468 16.2645 6.82888 16.059 6.91403C15.8534 6.99918 15.6272 7.02145 15.409 6.97805C15.1907 6.93464 14.9903 6.82749 14.8329 6.67016C14.6756 6.51282 14.5685 6.31237 14.5251 6.09414C14.4817 5.87591 14.5039 5.64971 14.5891 5.44414C14.6742 5.23858 14.8184 5.06288 15.0034 4.93926C15.1884 4.81564 15.4059 4.74966 15.6284 4.74966C15.9268 4.74966 16.213 4.86819 16.4239 5.07917C16.6349 5.29015 16.7534 5.57629 16.7534 5.87466ZM21.3209 12.2159C19.505 15.4878 16.1234 17.2559 11.2672 17.4753L9.20469 22.295C9.14673 22.4303 9.05021 22.5456 8.92718 22.6264C8.80415 22.7073 8.66004 22.7501 8.51282 22.7497H8.46501C8.31046 22.74 8.16269 22.6827 8.042 22.5857C7.92131 22.4886 7.83361 22.3566 7.79094 22.2078L6.40344 17.3487L1.54719 15.9584C1.39792 15.9165 1.2653 15.8293 1.16761 15.7089C1.06991 15.5885 1.01193 15.4408 1.00165 15.2861C0.991371 15.1314 1.02929 14.9773 1.1102 14.845C1.19111 14.7127 1.31103 14.6088 1.45344 14.5475L6.27313 12.485C6.49344 7.6306 8.26157 4.24997 11.5316 2.4331C13.8519 1.14497 16.4759 0.9481 18.2703 1.00997C20.0178 1.06997 21.6453 1.41029 21.9134 1.57247C22.0229 1.637 22.1142 1.7283 22.1788 1.83779C22.3372 2.10497 22.6784 3.73247 22.7413 5.47997C22.805 7.2706 22.6091 9.8956 21.3209 12.2159ZM16.1478 14.9347C15.2812 14.6043 14.5266 14.0341 13.9721 13.2907C13.4176 12.5472 13.0862 11.6613 13.0166 10.7365C12.092 10.667 11.2062 10.3358 10.463 9.78144C9.71972 9.2271 9.14964 8.47263 8.81938 7.60622C8.16626 9.0931 7.81313 10.8928 7.76001 13.0053C7.75668 13.1491 7.71205 13.289 7.63143 13.4082C7.55081 13.5274 7.4376 13.6209 7.30532 13.6775L3.98751 15.0968L7.21719 16.0212C7.33973 16.0563 7.4513 16.1221 7.54135 16.2123C7.63141 16.3026 7.69698 16.4142 7.73188 16.5368L8.65438 19.7656L10.0756 16.4468C10.1324 16.3147 10.2259 16.2017 10.3451 16.1213C10.4643 16.0408 10.6041 15.9963 10.7478 15.9931C12.8584 15.9425 14.6584 15.5897 16.1478 14.9347ZM20.9178 2.83435C19.5913 2.5531 14.9084 1.8031 11.5147 4.21716C10.953 4.61795 10.4484 5.09324 10.0147 5.62997C9.97916 6.11973 10.0509 6.61134 10.225 7.0705C10.399 7.52966 10.6712 7.94531 11.0224 8.28845C11.3737 8.63158 11.7956 8.89393 12.2587 9.0572C12.7218 9.22046 13.215 9.28071 13.7038 9.23372C13.8139 9.22312 13.925 9.23701 14.0291 9.27439C14.1332 9.31177 14.2278 9.37172 14.306 9.44994C14.3842 9.52816 14.4441 9.62272 14.4815 9.72684C14.5189 9.83095 14.5328 9.94205 14.5222 10.0522C14.4753 10.5411 14.5357 11.0344 14.6992 11.4976C14.8627 11.9609 15.1253 12.3828 15.4688 12.734C15.8122 13.0852 16.2282 13.3572 16.6876 13.531C17.147 13.7048 17.6389 13.7762 18.1288 13.7403C18.6635 13.3065 19.1366 12.8019 19.535 12.2403C21.9491 8.84935 21.1991 4.16279 20.9178 2.83435Z" fill="black"/>
</svg>
