<svg width="24" height="24" viewBox="0 0 24 24" fill="none" xmlns="http://www.w3.org/2000/svg">
<path d="M16.7488 10.75H14.4988C14.2998 10.75 14.1091 10.671 13.9684 10.5303C13.8278 10.3897 13.7488 10.1989 13.7488 10C13.7488 9.80109 13.8278 9.61032 13.9684 9.46967C14.1091 9.32902 14.2998 9.25 14.4988 9.25H16.7488C16.9477 9.25 17.1384 9.32902 17.2791 9.46967C17.4197 9.61032 17.4988 9.80109 17.4988 10C17.4988 10.1989 17.4197 10.3897 17.2791 10.5303C17.1384 10.671 16.9477 10.75 16.7488 10.75ZM9.99875 9.25H9.24875V8.5C9.24875 8.30109 9.16973 8.11032 9.02908 7.96967C8.88843 7.82902 8.69766 7.75 8.49875 7.75C8.29984 7.75 8.10907 7.82902 7.96842 7.96967C7.82777 8.11032 7.74875 8.30109 7.74875 8.5V9.25H6.99875C6.79984 9.25 6.60907 9.32902 6.46842 9.46967C6.32777 9.61032 6.24875 9.80109 6.24875 10C6.24875 10.1989 6.32777 10.3897 6.46842 10.5303C6.60907 10.671 6.79984 10.75 6.99875 10.75H7.74875V11.5C7.74875 11.6989 7.82777 11.8897 7.96842 12.0303C8.10907 12.171 8.29984 12.25 8.49875 12.25C8.69766 12.25 8.88843 12.171 9.02908 12.0303C9.16973 11.8897 9.24875 11.6989 9.24875 11.5V10.75H9.99875C10.1977 10.75 10.3884 10.671 10.5291 10.5303C10.6697 10.3897 10.7488 10.1989 10.7488 10C10.7488 9.80109 10.6697 9.61032 10.5291 9.46967C10.3884 9.32902 10.1977 9.25 9.99875 9.25ZM22.8875 19.0609C22.6048 19.4646 22.2372 19.8014 21.8105 20.0478C21.3837 20.2942 20.9082 20.4441 20.4173 20.4871C19.9264 20.5301 19.4321 20.4651 18.969 20.2966C18.5059 20.1281 18.0854 19.8603 17.7369 19.5119C17.7256 19.5006 17.7144 19.4894 17.7041 19.4772L13.9813 15.25H10.5125L6.79344 19.4772L6.76063 19.5119C6.12707 20.1441 5.26877 20.4994 4.37375 20.5C3.88104 20.4998 3.39434 20.3918 2.94784 20.1834C2.50135 19.9751 2.10589 19.6715 1.78924 19.294C1.47259 18.9165 1.24244 18.4742 1.11494 17.9983C0.987451 17.5224 0.965711 17.0243 1.05125 16.5391C1.0508 16.5347 1.0508 16.5303 1.05125 16.5259L2.58594 8.6425C2.81434 7.34225 3.49368 6.16409 4.50459 5.31504C5.51549 4.46599 6.79328 4.00037 8.11344 4H16.3738C17.6899 4.0021 18.9638 4.46506 19.9742 5.30849C20.9846 6.15193 21.6678 7.32258 21.905 8.61719C21.905 8.62281 21.905 8.62844 21.905 8.63406L23.4397 16.525C23.4401 16.5294 23.4401 16.5338 23.4397 16.5381C23.5191 16.9743 23.5112 17.4218 23.4164 17.8549C23.3216 18.2879 23.1419 18.6979 22.8875 19.0609ZM16.3738 13.75C17.4678 13.75 18.517 13.3154 19.2906 12.5418C20.0642 11.7682 20.4988 10.719 20.4988 9.625C20.4988 8.53098 20.0642 7.48177 19.2906 6.70818C18.517 5.9346 17.4678 5.5 16.3738 5.5H8.11344C7.14496 5.50087 6.2078 5.84325 5.46685 6.46691C4.7259 7.09057 4.22862 7.95556 4.0625 8.90969V8.92188L2.52688 16.8053C2.459 17.1961 2.51683 17.5984 2.69204 17.9543C2.86726 18.3102 3.15084 18.6014 3.50199 18.7859C3.85313 18.9704 4.25376 19.0389 4.64625 18.9813C5.03874 18.9238 5.40286 18.7432 5.68625 18.4656L9.61625 14.0041C9.68662 13.9242 9.77317 13.8603 9.87016 13.8165C9.96714 13.7727 10.0723 13.75 10.1788 13.75H16.3738ZM21.9706 16.8053L21.1513 12.5866C20.6473 13.4003 19.9441 14.072 19.108 14.5381C18.272 15.0042 17.3309 15.2492 16.3738 15.25H15.98L18.8113 18.4666C19.0247 18.6742 19.2844 18.8283 19.5689 18.9161C19.8535 19.0039 20.1548 19.023 20.4481 18.9719C20.9368 18.8856 21.3714 18.6091 21.6566 18.203C21.9418 17.7969 22.0544 17.2943 21.9697 16.8053H21.9706Z" fill="black"/>
</svg>
