<svg width="24" height="24" viewBox="0 0 24 24" fill="none" xmlns="http://www.w3.org/2000/svg">
<path d="M23.25 11.75H22.5V8.75C22.5 8.35218 22.342 7.97064 22.0607 7.68934C21.7794 7.40804 21.3978 7.25 21 7.25H19.5V6.5C19.5 6.10218 19.342 5.72064 19.0607 5.43934C18.7794 5.15804 18.3978 5 18 5H15.75C15.3522 5 14.9706 5.15804 14.6893 5.43934C14.408 5.72064 14.25 6.10218 14.25 6.5V11.75H9.75V6.5C9.75 6.10218 9.59196 5.72064 9.31066 5.43934C9.02936 5.15804 8.64782 5 8.25 5H6C5.60218 5 5.22064 5.15804 4.93934 5.43934C4.65804 5.72064 4.5 6.10218 4.5 6.5V7.25H3C2.60218 7.25 2.22064 7.40804 1.93934 7.68934C1.65804 7.97064 1.5 8.35218 1.5 8.75V11.75H0.75C0.551088 11.75 0.360322 11.829 0.21967 11.9697C0.0790176 12.1103 0 12.3011 0 12.5C0 12.6989 0.0790176 12.8897 0.21967 13.0303C0.360322 13.171 0.551088 13.25 0.75 13.25H1.5V16.25C1.5 16.6478 1.65804 17.0294 1.93934 17.3107C2.22064 17.592 2.60218 17.75 3 17.75H4.5V18.5C4.5 18.8978 4.65804 19.2794 4.93934 19.5607C5.22064 19.842 5.60218 20 6 20H8.25C8.64782 20 9.02936 19.842 9.31066 19.5607C9.59196 19.2794 9.75 18.8978 9.75 18.5V13.25H14.25V18.5C14.25 18.8978 14.408 19.2794 14.6893 19.5607C14.9706 19.842 15.3522 20 15.75 20H18C18.3978 20 18.7794 19.842 19.0607 19.5607C19.342 19.2794 19.5 18.8978 19.5 18.5V17.75H21C21.3978 17.75 21.7794 17.592 22.0607 17.3107C22.342 17.0294 22.5 16.6478 22.5 16.25V13.25H23.25C23.4489 13.25 23.6397 13.171 23.7803 13.0303C23.921 12.8897 24 12.6989 24 12.5C24 12.3011 23.921 12.1103 23.7803 11.9697C23.6397 11.829 23.4489 11.75 23.25 11.75ZM3 16.25V8.75H4.5V16.25H3ZM8.25 18.5H6V6.5H8.25V18.5ZM18 18.5H15.75V6.5H18V16.9831C18 16.9888 18 16.9944 18 17C18 17.0056 18 17.0112 18 17.0169V18.5ZM21 16.25H19.5V8.75H21V16.25Z" fill="black"/>
</svg>
