<svg width="24" height="24" viewBox="0 0 24 24" fill="none" xmlns="http://www.w3.org/2000/svg">
<path d="M20.4062 15.643L15.625 14.5658L5.28063 4.21956C5.20898 4.14794 5.12356 4.09158 5.02954 4.05388C4.93551 4.01618 4.83482 3.99791 4.73354 4.00019C4.63226 4.00247 4.5325 4.02524 4.44026 4.06713C4.34802 4.10902 4.26523 4.16917 4.19687 4.24393C2.13531 6.49768 1 9.34393 1 12.2502V19.0002C1 19.398 1.15804 19.7795 1.43934 20.0608C1.72064 20.3421 2.10218 20.5002 2.5 20.5002H5.5C5.89782 20.5002 6.27936 20.3421 6.56066 20.0608C6.84196 19.7795 7 19.398 7 19.0002V14.4121C7.23344 14.548 7.46312 14.6933 7.68812 14.8471C9.39061 16.0155 10.7125 17.6581 11.4897 19.5711C11.602 19.8472 11.7945 20.0833 12.0423 20.249C12.2901 20.4146 12.5819 20.5021 12.88 20.5002H21.25C21.6478 20.5002 22.0294 20.3421 22.3107 20.0608C22.592 19.7795 22.75 19.398 22.75 19.0002V18.5567C22.7517 17.8762 22.52 17.2157 22.0934 16.6854C21.6669 16.1551 21.0713 15.7872 20.4062 15.643ZM5.5 19.0002H2.5V13.0274C3.52755 13.1 4.5386 13.325 5.5 13.6949V19.0002ZM21.25 19.0002H12.8762C11.9886 16.8188 10.4804 14.9458 8.53844 13.6133C6.76134 12.3848 4.68325 11.6634 2.52719 11.5264C2.6963 9.45128 3.48583 7.475 4.79312 5.85456L14.7194 15.7808C14.8198 15.8809 14.9466 15.9505 15.085 15.9814L20.0763 17.1064C20.4091 17.1772 20.7074 17.3604 20.9211 17.6252C21.1349 17.89 21.251 18.2202 21.25 18.5605V19.0002Z" fill="black"/>
</svg>
