<svg width="24" height="24" viewBox="0 0 24 24" fill="none" xmlns="http://www.w3.org/2000/svg">
<path d="M12.9995 9.125C12.9995 9.3475 12.9335 9.56501 12.8099 9.75002C12.6863 9.93502 12.5106 10.0792 12.305 10.1644C12.0995 10.2495 11.8733 10.2718 11.655 10.2284C11.4368 10.185 11.2364 10.0778 11.079 9.9205C10.9217 9.76316 10.8145 9.56271 10.7711 9.34448C10.7277 9.12625 10.75 8.90005 10.8352 8.69448C10.9203 8.48891 11.0645 8.31321 11.2495 8.1896C11.4345 8.06598 11.652 8 11.8745 8C12.1729 8 12.459 8.11853 12.67 8.3295C12.881 8.54048 12.9995 8.82663 12.9995 9.125ZM21.9995 11.8888C21.9573 14.4146 20.939 16.8261 19.1581 18.6179C17.3773 20.4096 14.972 21.4425 12.4464 21.5H12.243C9.85192 21.5168 7.53916 20.6486 5.74983 19.0625C5.60065 18.9298 5.51027 18.7434 5.49858 18.5441C5.49279 18.4454 5.50649 18.3466 5.53891 18.2532C5.57132 18.1598 5.62181 18.0737 5.68749 17.9998C5.75317 17.926 5.83276 17.8658 5.92171 17.8227C6.01066 17.7795 6.10723 17.7544 6.2059 17.7486C6.40519 17.7369 6.60096 17.8049 6.75014 17.9375C7.31521 18.4431 7.94978 18.8652 8.63452 19.1909L11.1245 15.7662C8.98889 14.8447 6.67421 15.2366 5.36827 15.4578C4.81555 15.5533 4.24713 15.4911 3.72814 15.2783C3.20915 15.0656 2.7606 14.7109 2.43389 14.255L2.40577 14.2147L1.11389 12.1522C1.06151 12.0683 1.02622 11.9749 1.01007 11.8773C0.993919 11.7798 0.997223 11.68 1.01979 11.5837C1.04236 11.4874 1.08374 11.3966 1.14157 11.3163C1.19939 11.2361 1.2725 11.1681 1.35671 11.1163L10.7495 5.33094V2.75C10.7495 2.55109 10.8285 2.36032 10.9692 2.21967C11.1098 2.07902 11.3006 2 11.4995 2H12.2495C13.5417 1.99987 14.821 2.25658 16.013 2.75522C17.2051 3.25386 18.2861 3.98447 19.1933 4.90459C20.1005 5.82471 20.8158 6.91598 21.2976 8.11496C21.7793 9.31395 22.0179 10.5967 21.9995 11.8888ZM20.4995 11.8681C20.5152 10.7748 20.3133 9.68931 19.9058 8.6747C19.4982 7.66009 18.893 6.73662 18.1253 5.95798C17.3577 5.17934 16.4429 4.56107 15.4342 4.1391C14.4255 3.71713 13.3429 3.49989 12.2495 3.5V5.75C12.2494 5.87806 12.2166 6.00396 12.154 6.11572C12.0915 6.22748 12.0014 6.32137 11.8923 6.38844L2.78639 11.9928L3.66389 13.3991C3.8294 13.6219 4.05377 13.7942 4.31179 13.8965C4.56981 13.9989 4.85126 14.0272 5.12452 13.9784C6.62452 13.7253 9.69671 13.2059 12.4436 14.7453C13.4028 14.6942 14.3061 14.2775 14.9675 13.5809C15.6289 12.8842 15.9982 11.9606 15.9995 11C15.9995 10.8011 16.0785 10.6103 16.2192 10.4697C16.3598 10.329 16.5506 10.25 16.7495 10.25C16.9484 10.25 17.1392 10.329 17.2799 10.4697C17.4205 10.6103 17.4995 10.8011 17.4995 11C17.4977 12.3236 16.9966 13.5978 16.0964 14.568C15.1961 15.5383 13.963 16.1333 12.6433 16.2341L10.1017 19.7291C10.8572 19.925 11.6361 20.0161 12.4164 20C14.5529 19.9502 16.5874 19.076 18.094 17.5603C19.6006 16.0446 20.4626 14.0049 20.4995 11.8681Z" fill="black"/>
</svg>
