<svg width="24" height="24" viewBox="0 0 24 24" fill="none" xmlns="http://www.w3.org/2000/svg">
<path d="M22.75 20.2502H21.25V13.5002L21.4694 13.7196C21.6104 13.8603 21.8015 13.9393 22.0007 13.9391C22.1999 13.939 22.3908 13.8597 22.5316 13.7187C22.6723 13.5777 22.7513 13.3866 22.7511 13.1874C22.7509 12.9882 22.6716 12.7972 22.5306 12.6565L13.3103 3.43899C13.029 3.1579 12.6477 3 12.25 3C11.8523 3 11.471 3.1579 11.1897 3.43899L1.96938 12.6565C1.82877 12.7972 1.74983 12.988 1.74991 13.187C1.75 13.3859 1.82911 13.5767 1.96984 13.7173C2.11057 13.8579 2.3014 13.9368 2.50033 13.9367C2.69927 13.9366 2.89002 13.8575 3.03062 13.7168L3.25 13.5002V20.2502H1.75C1.55109 20.2502 1.36032 20.3293 1.21967 20.4699C1.07902 20.6106 1 20.8013 1 21.0002C1 21.1992 1.07902 21.3899 1.21967 21.5306C1.36032 21.6712 1.55109 21.7502 1.75 21.7502H22.75C22.9489 21.7502 23.1397 21.6712 23.2803 21.5306C23.421 21.3899 23.5 21.1992 23.5 21.0002C23.5 20.8013 23.421 20.6106 23.2803 20.4699C23.1397 20.3293 22.9489 20.2502 22.75 20.2502ZM4.75 12.0002L12.25 4.50024L19.75 12.0002V20.2502H15.25V15.0002C15.25 14.8013 15.171 14.6106 15.0303 14.4699C14.8897 14.3293 14.6989 14.2502 14.5 14.2502H10C9.80109 14.2502 9.61032 14.3293 9.46967 14.4699C9.32902 14.6106 9.25 14.8013 9.25 15.0002V20.2502H4.75V12.0002ZM13.75 20.2502H10.75V15.7502H13.75V20.2502Z" fill="#1F1F1F"/>
</svg>
