<svg width="61" height="60" viewBox="0 0 61 60" fill="none" xmlns="http://www.w3.org/2000/svg">
<path opacity="0.3" d="M37.5 0C50.2025 0 60.5 10.2975 60.5 23V37C60.5 49.7025 50.2025 60 37.5 60H23.5C10.7975 60 0.5 49.7025 0.5 37V23C0.5 10.2975 10.7975 0 23.5 0H37.5Z" fill="#FF9066"/>
<path opacity="0.78" fill-rule="evenodd" clip-rule="evenodd" d="M29.1319 23.8089C29.1519 23.5484 29.3692 23.3472 29.6304 23.3472H30.0482C30.3051 23.3472 30.5202 23.5418 30.5458 23.7974L31.1674 30.0139L35.5821 32.5366C35.7379 32.6256 35.8341 32.7913 35.8341 32.9707V33.3592C35.8341 33.6889 35.5206 33.9284 35.2025 33.8416L28.8994 32.1226C28.668 32.0595 28.514 31.841 28.5324 31.6019L29.1319 23.8089Z" fill="#FF9066"/>
<path opacity="0.901274" d="M22.3525 15.1902C22.4479 14.7906 22.9575 14.6695 23.2217 14.9841L25.0205 17.1286C26.7036 16.412 28.5552 16.0134 30.5 16.0134C38.2319 16.0134 44.4998 22.2816 44.5 30.0134C44.5 37.7454 38.232 44.0134 30.5 44.0134C22.768 44.0134 16.5 37.7454 16.5 30.0134C16.5 28.7004 16.6805 27.4294 17.0186 26.2243L19.5859 26.945C19.3086 27.9339 19.167 28.9629 19.167 30.0134C19.167 36.2726 24.2408 41.3474 30.5 41.3474C36.7592 41.3474 41.833 36.2726 41.833 30.0134C41.8328 23.7543 36.7591 18.6804 30.5 18.6804C29.2318 18.6804 27.9968 18.8888 26.832 19.2868L28.6328 21.4333C28.8974 21.7486 28.6892 22.2303 28.2783 22.2536L21.2334 22.6531C20.8992 22.6719 20.6411 22.3634 20.7188 22.0378L22.3525 15.1902Z" fill="#FF9066"/>
</svg>
