<svg width="72" height="72" viewBox="0 0 72 72" fill="none" xmlns="http://www.w3.org/2000/svg">
<path opacity="0.21" d="M44.4004 0C59.6431 0.000210797 71.9998 12.3569 72 27.5996V44.4004C71.9998 59.6431 59.6431 71.9998 44.4004 72H27.5996C12.3569 71.9998 0.00021081 59.6431 0 44.4004V27.5996C0.00021081 12.3569 12.3569 0.000210797 27.5996 0H44.4004Z" fill="#19DDC3"/>
<path fill-rule="evenodd" clip-rule="evenodd" d="M18 29.1797L33.4806 38.1174C33.6473 38.2137 33.8221 38.2832 34 38.3273V55.6616L19.1041 46.8462C18.4197 46.4412 18 45.705 18 44.9098V29.1797ZM53.9992 28.9421V44.9098C53.9992 45.705 53.5795 46.4412 52.8951 46.8462L37.9992 55.6616V38.1755C38.0355 38.1573 38.0715 38.138 38.1071 38.1174L53.9992 28.9421Z" fill="#277F60"/>
<path opacity="0.499209" fill-rule="evenodd" clip-rule="evenodd" d="M18.4844 24.8417C18.6735 24.603 18.9121 24.4012 19.1904 24.2529L34.9404 15.8642C35.6016 15.512 36.3947 15.512 37.0558 15.8642L52.8058 24.2529C53.0203 24.3672 53.2113 24.5133 53.3742 24.6836L36.106 34.6534C35.9924 34.719 35.8877 34.794 35.7923 34.8769C35.6969 34.794 35.5922 34.719 35.4787 34.6534L18.4844 24.8417Z" fill="#277F60"/>
</svg>
