<svg width="24" height="24" viewBox="0 0 24 24" fill="none" xmlns="http://www.w3.org/2000/svg">
<path d="M23.4616 3.73901C23.4508 3.55553 23.3731 3.38237 23.2432 3.25241C23.1132 3.12244 22.94 3.04473 22.7566 3.03401C17.9041 2.75276 14.0078 4.22839 12.3334 6.99214C11.2272 8.81932 11.2291 11.0384 12.3184 13.1553C11.6984 13.8934 11.2452 14.7569 10.99 15.6865L9.46468 14.1556C10.1978 12.6246 10.1697 11.029 9.37093 9.70339C8.13343 7.66057 5.27687 6.56557 1.73031 6.7737C1.54682 6.78442 1.37366 6.86213 1.2437 6.99209C1.11374 7.12206 1.03602 7.29522 1.02531 7.4787C0.816244 11.0253 1.91218 13.8818 3.95499 15.1193C4.62912 15.5312 5.40376 15.7492 6.19374 15.7493C6.96052 15.7399 7.71538 15.5582 8.40249 15.2178L10.7462 17.5615V20.2493C10.7462 20.4482 10.8253 20.639 10.9659 20.7797C11.1066 20.9203 11.2973 20.9993 11.4962 20.9993C11.6952 20.9993 11.8859 20.9203 12.0266 20.7797C12.1672 20.639 12.2462 20.4482 12.2462 20.2493V17.4846C12.2429 16.2915 12.6489 15.1333 13.3966 14.2034C14.3612 14.7075 15.431 14.9773 16.5194 14.9909C17.5716 14.9943 18.6043 14.7068 19.5034 14.1603C22.2672 12.4878 23.7466 8.59151 23.4616 3.73901ZM4.72843 13.8368C3.29031 12.9659 2.47656 10.9043 2.49624 8.24932C5.15124 8.22682 7.21281 9.04339 8.08374 10.4815C8.53843 11.2315 8.61249 12.1062 8.31437 13.0071L6.02593 10.7187C5.88414 10.584 5.69532 10.51 5.49975 10.5125C5.30418 10.515 5.11732 10.5938 4.97902 10.7321C4.84072 10.8704 4.76192 11.0573 4.75941 11.2528C4.75691 11.4484 4.8309 11.6372 4.96562 11.779L7.25406 14.0674C6.35312 14.3656 5.47937 14.2915 4.72843 13.8368ZM18.7262 12.8787C17.47 13.639 15.9934 13.6971 14.4934 13.0662L19.5269 8.03183C19.6616 7.89003 19.7356 7.70122 19.7331 7.50564C19.7306 7.31007 19.6518 7.12322 19.5135 6.98492C19.3752 6.84661 19.1883 6.76781 18.9927 6.76531C18.7972 6.7628 18.6084 6.8368 18.4666 6.97151L13.4322 11.9993C12.7984 10.4993 12.8556 9.02182 13.6197 7.76651C14.9266 5.61026 18.0259 4.40839 21.9944 4.5012C22.0844 8.4687 20.8844 11.5718 18.7262 12.8787Z" fill="black"/>
</svg>
