<svg width="24" height="24" viewBox="0 0 24 24" fill="none" xmlns="http://www.w3.org/2000/svg">
<path d="M21.25 15.25H20.5V6.25C20.5 5.65326 20.2629 5.08097 19.841 4.65901C19.419 4.23705 18.8467 4 18.25 4H4.75C4.15326 4 3.58097 4.23705 3.15901 4.65901C2.73705 5.08097 2.5 5.65326 2.5 6.25V15.25H1.75C1.55109 15.25 1.36032 15.329 1.21967 15.4697C1.07902 15.6103 1 15.8011 1 16V17.5C1 18.0967 1.23705 18.669 1.65901 19.091C2.08097 19.5129 2.65326 19.75 3.25 19.75H19.75C20.3467 19.75 20.919 19.5129 21.341 19.091C21.7629 18.669 22 18.0967 22 17.5V16C22 15.8011 21.921 15.6103 21.7803 15.4697C21.6397 15.329 21.4489 15.25 21.25 15.25ZM4 6.25C4 6.05109 4.07902 5.86032 4.21967 5.71967C4.36032 5.57902 4.55109 5.5 4.75 5.5H18.25C18.4489 5.5 18.6397 5.57902 18.7803 5.71967C18.921 5.86032 19 6.05109 19 6.25V15.25H4V6.25ZM20.5 17.5C20.5 17.6989 20.421 17.8897 20.2803 18.0303C20.1397 18.171 19.9489 18.25 19.75 18.25H3.25C3.05109 18.25 2.86032 18.171 2.71967 18.0303C2.57902 17.8897 2.5 17.6989 2.5 17.5V16.75H20.5V17.5ZM13.75 7.75C13.75 7.94891 13.671 8.13968 13.5303 8.28033C13.3897 8.42098 13.1989 8.5 13 8.5H10C9.80109 8.5 9.61032 8.42098 9.46967 8.28033C9.32902 8.13968 9.25 7.94891 9.25 7.75C9.25 7.55109 9.32902 7.36032 9.46967 7.21967C9.61032 7.07902 9.80109 7 10 7H13C13.1989 7 13.3897 7.07902 13.5303 7.21967C13.671 7.36032 13.75 7.55109 13.75 7.75Z" fill="black"/>
</svg>
