<svg width="24" height="24" viewBox="0 0 24 24" fill="none" xmlns="http://www.w3.org/2000/svg">
<path d="M18.6772 5.87437C17.78 4.96817 16.7129 4.24783 15.5369 3.7546C14.361 3.26137 13.0993 3.00494 11.8241 3H11.75C9.16414 3 6.68419 4.02723 4.85571 5.85571C3.02723 7.68419 2 10.1641 2 12.75V18C2 18.5967 2.23705 19.169 2.65901 19.591C3.08097 20.0129 3.65326 20.25 4.25 20.25H5.75C6.34674 20.25 6.91903 20.0129 7.34099 19.591C7.76295 19.169 8 18.5967 8 18V14.25C8 13.6533 7.76295 13.081 7.34099 12.659C6.91903 12.2371 6.34674 12 5.75 12H3.53375C3.72087 9.95025 4.66742 8.04448 6.18759 6.65683C7.70776 5.26919 9.69173 4.4999 11.75 4.5H11.8128C13.8625 4.50866 15.8351 5.28253 17.3439 6.66993C18.8527 8.05733 19.7889 9.95822 19.9691 12H17.75C17.1533 12 16.581 12.2371 16.159 12.659C15.7371 13.081 15.5 13.6533 15.5 14.25V18C15.5 18.5967 15.7371 19.169 16.159 19.591C16.581 20.0129 17.1533 20.25 17.75 20.25H19.25C19.8467 20.25 20.419 20.0129 20.841 19.591C21.2629 19.169 21.5 18.5967 21.5 18V12.75C21.5049 11.4746 21.2581 10.2108 20.7737 9.03093C20.2893 7.85108 19.5768 6.77841 18.6772 5.87437ZM5.75 13.5C5.94891 13.5 6.13968 13.579 6.28033 13.7197C6.42098 13.8603 6.5 14.0511 6.5 14.25V18C6.5 18.1989 6.42098 18.3897 6.28033 18.5303C6.13968 18.671 5.94891 18.75 5.75 18.75H4.25C4.05109 18.75 3.86032 18.671 3.71967 18.5303C3.57902 18.3897 3.5 18.1989 3.5 18V13.5H5.75ZM20 18C20 18.1989 19.921 18.3897 19.7803 18.5303C19.6397 18.671 19.4489 18.75 19.25 18.75H17.75C17.5511 18.75 17.3603 18.671 17.2197 18.5303C17.079 18.3897 17 18.1989 17 18V14.25C17 14.0511 17.079 13.8603 17.2197 13.7197C17.3603 13.579 17.5511 13.5 17.75 13.5H20V18Z" fill="black"/>
</svg>
