<svg width="24" height="24" viewBox="0 0 24 24" fill="none" xmlns="http://www.w3.org/2000/svg">
<path d="M19.375 7.5C18.8558 7.5 18.3483 7.65395 17.9166 7.94239C17.485 8.23083 17.1485 8.6408 16.9498 9.12046C16.7511 9.60011 16.6992 10.1279 16.8004 10.6371C16.9017 11.1463 17.1517 11.614 17.5188 11.9812C17.886 12.3483 18.3537 12.5983 18.8629 12.6996C19.3721 12.8008 19.8999 12.7489 20.3795 12.5502C20.8592 12.3515 21.2692 12.0151 21.5576 11.5834C21.846 11.1517 22 10.6442 22 10.125C22 9.42881 21.7234 8.76113 21.2312 8.26885C20.7389 7.77656 20.0712 7.5 19.375 7.5ZM19.375 11.25C19.1525 11.25 18.935 11.184 18.75 11.0604C18.565 10.9368 18.4208 10.7611 18.3356 10.5555C18.2505 10.35 18.2282 10.1238 18.2716 9.90552C18.315 9.68729 18.4222 9.48684 18.5795 9.32951C18.7368 9.17217 18.9373 9.06503 19.1555 9.02162C19.3738 8.97821 19.6 9.00049 19.8055 9.08564C20.0111 9.17078 20.1868 9.31498 20.3104 9.49998C20.434 9.68499 20.5 9.9025 20.5 10.125C20.5 10.4234 20.3815 10.7095 20.1705 10.9205C19.9595 11.1315 19.6734 11.25 19.375 11.25ZM6.25 10.125C6.25 9.60582 6.09605 9.09831 5.80761 8.66663C5.51917 8.23495 5.1092 7.8985 4.62955 7.69982C4.14989 7.50114 3.62209 7.44915 3.11289 7.55044C2.60369 7.65173 2.13596 7.90173 1.76885 8.26885C1.40173 8.63596 1.15173 9.10369 1.05044 9.61289C0.949154 10.1221 1.00114 10.6499 1.19982 11.1295C1.3985 11.6092 1.73495 12.0192 2.16663 12.3076C2.59831 12.596 3.10583 12.75 3.625 12.75C4.32119 12.75 4.98887 12.4734 5.48116 11.9812C5.97344 11.4889 6.25 10.8212 6.25 10.125ZM3.625 11.25C3.4025 11.25 3.18499 11.184 2.99998 11.0604C2.81498 10.9368 2.67079 10.7611 2.58564 10.5555C2.50049 10.35 2.47821 10.1238 2.52162 9.90552C2.56503 9.68729 2.67217 9.48684 2.82951 9.32951C2.98684 9.17217 3.1873 9.06503 3.40552 9.02162C3.62375 8.97821 3.84995 9.00049 4.05552 9.08564C4.26109 9.17078 4.43679 9.31498 4.5604 9.49998C4.68402 9.68499 4.75 9.9025 4.75 10.125C4.75 10.4234 4.63147 10.7095 4.4205 10.9205C4.20952 11.1315 3.92337 11.25 3.625 11.25ZM8.125 8.25C8.64418 8.25 9.15169 8.09605 9.58337 7.80761C10.0151 7.51917 10.3515 7.1092 10.5502 6.62954C10.7489 6.14989 10.8008 5.62209 10.6996 5.11289C10.5983 4.60369 10.3483 4.13596 9.98116 3.76885C9.61404 3.40173 9.14631 3.15173 8.63711 3.05044C8.12791 2.94915 7.60011 3.00114 7.12046 3.19982C6.6408 3.3985 6.23083 3.73495 5.94239 4.16663C5.65395 4.59831 5.5 5.10583 5.5 5.625C5.5 6.32119 5.77656 6.98887 6.26885 7.48116C6.76113 7.97344 7.42881 8.25 8.125 8.25ZM8.125 4.5C8.34751 4.5 8.56501 4.56598 8.75002 4.6896C8.93502 4.81321 9.07922 4.98892 9.16437 5.19448C9.24951 5.40005 9.27179 5.62625 9.22838 5.84448C9.18498 6.06271 9.07783 6.26316 8.9205 6.4205C8.76316 6.57783 8.56271 6.68498 8.34448 6.72838C8.12625 6.77179 7.90005 6.74951 7.69448 6.66437C7.48892 6.57922 7.31321 6.43502 7.1896 6.25002C7.06598 6.06501 7 5.84751 7 5.625C7 5.32663 7.11853 5.04048 7.32951 4.82951C7.54048 4.61853 7.82663 4.5 8.125 4.5ZM14.875 8.25C15.3942 8.25 15.9017 8.09605 16.3334 7.80761C16.7651 7.51917 17.1015 7.1092 17.3002 6.62954C17.4989 6.14989 17.5508 5.62209 17.4496 5.11289C17.3483 4.60369 17.0983 4.13596 16.7312 3.76885C16.364 3.40173 15.8963 3.15173 15.3871 3.05044C14.8779 2.94915 14.3501 3.00114 13.8705 3.19982C13.3908 3.3985 12.9808 3.73495 12.6924 4.16663C12.404 4.59831 12.25 5.10583 12.25 5.625C12.25 6.32119 12.5266 6.98887 13.0188 7.48116C13.5111 7.97344 14.1788 8.25 14.875 8.25ZM14.875 4.5C15.0975 4.5 15.315 4.56598 15.5 4.6896C15.685 4.81321 15.8292 4.98892 15.9144 5.19448C15.9995 5.40005 16.0218 5.62625 15.9784 5.84448C15.935 6.06271 15.8278 6.26316 15.6705 6.4205C15.5132 6.57783 15.3127 6.68498 15.0945 6.72838C14.8762 6.77179 14.6501 6.74951 14.4445 6.66437C14.2389 6.57922 14.0632 6.43502 13.9396 6.25002C13.816 6.06501 13.75 5.84751 13.75 5.625C13.75 5.32663 13.8685 5.04048 14.0795 4.82951C14.2905 4.61853 14.5766 4.5 14.875 4.5ZM17.0425 13.9556C16.6615 13.7455 16.3258 13.4622 16.0544 13.1222C15.783 12.7821 15.5813 12.3918 15.4609 11.9738C15.2116 11.1162 14.6906 10.3627 13.9763 9.82654C13.2621 9.29039 12.3931 9.00053 11.5 9.00053C10.6069 9.00053 9.73792 9.29039 9.02366 9.82654C8.3094 10.3627 7.78843 11.1162 7.53906 11.9738C7.29818 12.815 6.73345 13.5264 5.96875 13.9519C5.23518 14.3488 4.65487 14.979 4.31962 15.7427C3.98437 16.5065 3.91331 17.3602 4.11768 18.1688C4.32205 18.9775 4.79018 19.6949 5.44804 20.2077C6.10589 20.7205 6.91592 20.9993 7.75 21C8.24984 21.0014 8.74479 20.9016 9.205 20.7066C10.6722 20.1015 12.3193 20.1015 13.7866 20.7066C14.6753 21.0931 15.6791 21.1205 16.5876 20.7832C17.4961 20.4458 18.2387 19.7698 18.6598 18.8969C19.0808 18.0241 19.1476 17.0221 18.8461 16.1011C18.5446 15.18 17.8982 14.4115 17.0425 13.9566V13.9556ZM15.25 19.5C14.9455 19.5003 14.6441 19.4387 14.3641 19.3191C12.5271 18.5603 10.4644 18.5603 8.6275 19.3191C8.09369 19.5489 7.49164 19.5633 6.94747 19.3592C6.4033 19.155 5.95923 18.7483 5.70827 18.224C5.45731 17.6998 5.41893 17.0988 5.60118 16.5469C5.78342 15.9951 6.17215 15.5351 6.68594 15.2634C7.23835 14.9584 7.72521 14.5474 8.11868 14.054C8.51216 13.5607 8.80452 12.9946 8.97906 12.3881C9.13756 11.8421 9.46904 11.3623 9.92366 11.0209C10.3783 10.6795 10.9315 10.4949 11.5 10.4949C12.0685 10.4949 12.6217 10.6795 13.0763 11.0209C13.531 11.3623 13.8624 11.8421 14.0209 12.3881C14.196 12.9957 14.4893 13.5627 14.8839 14.0568C15.2786 14.5508 15.7668 14.9621 16.3206 15.2672C16.763 15.5044 17.1133 15.8828 17.3158 16.342C17.5184 16.8013 17.5616 17.3151 17.4385 17.8017C17.3154 18.2884 17.0331 18.7199 16.6366 19.0276C16.24 19.3353 15.7519 19.5016 15.25 19.5Z" fill="#1F1F1F"/>
</svg>
