<svg width="118" height="87" viewBox="0 0 118 87" fill="none" xmlns="http://www.w3.org/2000/svg">
<path d="M117.186 0H0.401489V86.4565H117.186V0Z" fill="#F2FAF4"/>
<path d="M117 33.1209C111.54 26.4895 106.45 24.6882 99.6309 30.5061C89.1773 39.4036 81.6748 60.8449 75.3062 59.276C68.9375 57.7071 68.9375 48.8168 63.1478 42.5704C57.3581 36.324 47.5157 48.8241 29.5274 62.9367C20.9983 69.6503 10.9068 74.5454 0 77.2599V87H117V33.1209Z" fill="#277F60"/>
<path d="M117 87H0V76.9109L0.295578 76.8404C11.0743 74.2278 21.0466 69.501 29.4697 63.012C34.151 59.4138 38.2571 55.9144 41.9158 52.8312C49.8245 46.1287 55.4963 41.2817 59.8181 41.5004C60.5223 41.5443 61.2074 41.7221 61.8265 42.0216C62.4456 42.3212 62.9841 42.7355 63.405 43.236C65.8574 45.8253 67.2874 48.8802 68.5576 51.6036C70.2911 55.3217 71.7929 58.5389 75.2839 59.3644C78.4793 60.1264 82.4736 53.953 86.6676 47.4127C90.2864 41.7685 94.3925 35.4187 99.0737 31.503C102.125 28.9561 104.921 27.8131 107.637 28.0248C110.689 28.2576 113.637 30.1837 116.92 34.0853L117 34.177V87ZM0.798853 86.2945H116.201V34.431C113.094 30.7622 110.354 28.9561 107.574 28.7374C105.105 28.5539 102.501 29.6263 99.585 32.0322C94.9916 35.8632 90.9254 42.1918 87.3306 47.7796C82.5854 55.1524 78.8468 60.973 75.0442 60.0558C71.2417 59.1386 69.6041 55.7662 67.7827 51.8717C66.5365 49.2118 65.1305 46.1922 62.7659 43.6875C62.4111 43.2632 61.9571 42.9112 61.4347 42.6556C60.9123 42.3999 60.3337 42.2466 59.7382 42.2059C55.8079 42.0225 50.1999 46.7637 42.4351 53.3392C38.7923 56.4294 34.6542 59.9288 29.965 63.5411C21.5273 70.0418 11.5516 74.7953 0.766898 77.4542L0.798853 86.2945Z" fill="#277F60"/>
<path d="M27.2813 35.7879C35.4222 35.7879 42.0218 29.502 42.0218 21.7481C42.0218 13.9941 35.4222 7.70825 27.2813 7.70825C19.1403 7.70825 12.5408 13.9941 12.5408 21.7481C12.5408 29.502 19.1403 35.7879 27.2813 35.7879Z" fill="#277F60"/>
<path d="M27.2813 36.1778C24.2849 36.1778 21.3559 35.3316 18.8645 33.746C16.3731 32.1604 14.4312 29.9068 13.2846 27.2701C12.1379 24.6334 11.8379 21.732 12.4225 18.9329C13.007 16.1338 14.4499 13.5627 16.5687 11.5446C18.6874 9.52659 21.3869 8.15229 24.3257 7.59551C27.2645 7.03873 30.3107 7.32449 33.079 8.41664C35.8473 9.5088 38.2134 11.3583 39.8781 13.7313C41.5428 16.1042 42.4313 18.8941 42.4313 21.748C42.427 25.5738 40.8295 29.2417 37.9893 31.947C35.149 34.6522 31.298 36.1738 27.2813 36.1778ZM27.2813 8.09058C24.4434 8.09059 21.6692 8.89222 19.3097 10.3941C16.9501 11.896 15.1112 14.0306 14.0256 16.528C12.9399 19.0255 12.6562 21.7735 13.2105 24.4244C13.7647 27.0754 15.1319 29.5103 17.1392 31.4211C19.1465 33.3319 21.7037 34.6327 24.4873 35.1592C27.2709 35.6856 30.1558 35.4139 32.7773 34.3784C35.3987 33.343 37.6389 31.5903 39.2144 29.3421C40.7899 27.0938 41.63 24.4511 41.6284 21.748C41.6242 18.1258 40.111 14.6531 37.4211 12.0925C34.7312 9.53192 31.0844 8.09261 27.2813 8.09058Z" fill="#277F60"/>
</svg>
