<svg width="24" height="24" viewBox="0 0 24 24" fill="none" xmlns="http://www.w3.org/2000/svg">
<path d="M21.9017 15.363C21.7948 15.2956 21.6725 15.2562 21.5463 15.2487C21.4201 15.2412 21.294 15.2657 21.1798 15.3199C20.894 15.4551 20.5787 15.5158 20.2632 15.4964C19.9476 15.477 19.6421 15.3781 19.375 15.209C19.108 15.0399 18.888 14.8059 18.7355 14.529C18.5831 14.252 18.5032 13.941 18.5032 13.6249C18.5032 13.3088 18.5831 12.9978 18.7355 12.7208C18.888 12.4439 19.108 12.2099 19.375 12.0408C19.6421 11.8717 19.9476 11.7728 20.2632 11.7534C20.5787 11.734 20.894 11.7947 21.1798 11.9299C21.2941 11.9842 21.4204 12.0086 21.5467 12.001C21.673 11.9933 21.7953 11.9538 21.9023 11.8862C22.0093 11.8185 22.0974 11.7249 22.1584 11.614C22.2194 11.5032 22.2514 11.3786 22.2514 11.2521V7.2499C22.2514 6.85207 22.0933 6.47054 21.812 6.18923C21.5307 5.90793 21.1492 5.74989 20.7514 5.74989H17.3557C17.3697 5.62539 17.3766 5.50018 17.3764 5.37489C17.3757 4.91395 17.2809 4.458 17.0977 4.03499C16.9146 3.61198 16.647 3.23083 16.3114 2.9149C15.8466 2.47841 15.2677 2.18249 14.6418 2.06141C14.0158 1.94034 13.3683 1.99905 12.7743 2.23076C12.1803 2.46247 11.6641 2.8577 11.2855 3.37067C10.9068 3.88364 10.6812 4.49338 10.6348 5.12927C10.6204 5.33612 10.6248 5.54384 10.6479 5.74989H7.25137C6.85355 5.74989 6.47202 5.90793 6.19071 6.18923C5.90941 6.47054 5.75137 6.85207 5.75137 7.2499V10.2705C5.62686 10.2566 5.50166 10.2497 5.37637 10.2499C4.91543 10.2506 4.4595 10.3455 4.0365 10.5286C3.6135 10.7117 3.23234 10.9793 2.91637 11.3149C2.59814 11.6511 2.35309 12.0496 2.19673 12.4853C2.04036 12.921 1.97608 13.3843 2.00794 13.8461C2.06168 14.6593 2.40719 15.4257 2.98094 16.0045C3.55468 16.5832 4.31808 16.9354 5.13075 16.9961C5.33758 17.011 5.54535 17.0066 5.75137 16.983V19.9999C5.75137 20.3977 5.90941 20.7793 6.19071 21.0606C6.47202 21.3419 6.85355 21.4999 7.25137 21.4999H20.7514C21.1492 21.4999 21.5307 21.3419 21.812 21.0606C22.0933 20.7793 22.2514 20.3977 22.2514 19.9999V15.9977C22.2514 15.871 22.2194 15.7463 22.1583 15.6353C22.0971 15.5243 22.0088 15.4307 21.9017 15.363ZM20.7514 19.9999H7.25137V15.9977C7.25141 15.8711 7.21943 15.7466 7.15839 15.6358C7.09736 15.5249 7.00926 15.4313 6.90231 15.3636C6.79535 15.296 6.67301 15.2565 6.54668 15.2488C6.42035 15.2412 6.29415 15.2656 6.17981 15.3199C5.89403 15.4551 5.57871 15.5158 5.26318 15.4964C4.94764 15.477 4.64213 15.3781 4.37505 15.209C4.10796 15.0399 3.88798 14.8059 3.73555 14.529C3.58312 14.252 3.50319 13.941 3.50319 13.6249C3.50319 13.3088 3.58312 12.9978 3.73555 12.7208C3.88798 12.4439 4.10796 12.2099 4.37505 12.0408C4.64213 11.8717 4.94764 11.7728 5.26318 11.7534C5.57871 11.734 5.89403 11.7947 6.17981 11.9299C6.29415 11.9842 6.42035 12.0086 6.54668 12.001C6.67301 11.9933 6.79535 11.9538 6.90231 11.8862C7.00926 11.8185 7.09736 11.7249 7.15839 11.614C7.21943 11.5032 7.25141 11.3786 7.25137 11.2521V7.2499H11.6286C11.7551 7.24994 11.8796 7.21795 11.9905 7.15692C12.1014 7.09588 12.195 7.00779 12.2626 6.90083C12.3303 6.79387 12.3698 6.67153 12.3774 6.5452C12.3851 6.41888 12.3606 6.29267 12.3064 6.17833C12.1712 5.89255 12.1105 5.57723 12.1299 5.2617C12.1493 4.94616 12.2482 4.64065 12.4173 4.37357C12.5864 4.10649 12.8203 3.8865 13.0973 3.73407C13.3742 3.58164 13.6852 3.50171 14.0014 3.50171C14.3175 3.50171 14.6285 3.58164 14.9055 3.73407C15.1824 3.8865 15.4163 4.10649 15.5855 4.37357C15.7546 4.64065 15.8535 4.94616 15.8728 5.2617C15.8922 5.57723 15.8315 5.89255 15.6964 6.17833C15.6421 6.29267 15.6177 6.41888 15.6253 6.5452C15.633 6.67153 15.6724 6.79387 15.7401 6.90083C15.8078 7.00779 15.9014 7.09588 16.0122 7.15692C16.1231 7.21795 16.2476 7.24994 16.3742 7.2499H20.7514V10.2715C20.5454 10.2479 20.3376 10.2435 20.1307 10.2583C19.2579 10.3201 18.4431 10.7186 17.8583 11.3696C17.2736 12.0206 16.9645 12.8733 16.9964 13.7478C17.0282 14.6223 17.3985 15.4502 18.0291 16.057C18.6597 16.6637 19.5013 17.0018 20.3764 16.9999C20.5017 17.0001 20.6269 16.9932 20.7514 16.9793V19.9999Z" fill="black"/>
</svg>
