<svg width="24" height="24" viewBox="0 0 24 24" fill="none" xmlns="http://www.w3.org/2000/svg">
<path d="M19.25 3H4.25C3.65326 3 3.08097 3.23705 2.65901 3.65901C2.23705 4.08097 2 4.65326 2 5.25V15.75C2 16.3467 2.23705 16.919 2.65901 17.341C3.08097 17.7629 3.65326 18 4.25 18H19.25C19.8467 18 20.419 17.7629 20.841 17.341C21.2629 16.919 21.5 16.3467 21.5 15.75V5.25C21.5 4.65326 21.2629 4.08097 20.841 3.65901C20.419 3.23705 19.8467 3 19.25 3ZM20 15.75C20 15.9489 19.921 16.1397 19.7803 16.2803C19.6397 16.421 19.4489 16.5 19.25 16.5H4.25C4.05109 16.5 3.86032 16.421 3.71967 16.2803C3.57902 16.1397 3.5 15.9489 3.5 15.75V5.25C3.5 5.05109 3.57902 4.86032 3.71967 4.71967C3.86032 4.57902 4.05109 4.5 4.25 4.5H19.25C19.4489 4.5 19.6397 4.57902 19.7803 4.71967C19.921 4.86032 20 5.05109 20 5.25V15.75ZM15.5 20.25C15.5 20.4489 15.421 20.6397 15.2803 20.7803C15.1397 20.921 14.9489 21 14.75 21H8.75C8.55109 21 8.36032 20.921 8.21967 20.7803C8.07902 20.6397 8 20.4489 8 20.25C8 20.0511 8.07902 19.8603 8.21967 19.7197C8.36032 19.579 8.55109 19.5 8.75 19.5H14.75C14.9489 19.5 15.1397 19.579 15.2803 19.7197C15.421 19.8603 15.5 20.0511 15.5 20.25ZM15.1663 9.87562L10.6663 6.87562C10.5533 6.80025 10.4219 6.75696 10.2863 6.75039C10.1506 6.74382 10.0157 6.77421 9.89601 6.83831C9.77628 6.90241 9.6762 6.99782 9.60645 7.11436C9.5367 7.2309 9.49991 7.36419 9.5 7.5V13.5C9.49991 13.6358 9.5367 13.7691 9.60645 13.8856C9.6762 14.0022 9.77628 14.0976 9.89601 14.1617C10.0157 14.2258 10.1506 14.2562 10.2863 14.2496C10.4219 14.243 10.5533 14.1998 10.6663 14.1244L15.1663 11.1244C15.2691 11.0559 15.3535 10.9631 15.4118 10.8542C15.4702 10.7452 15.5007 10.6236 15.5007 10.5C15.5007 10.3764 15.4702 10.2548 15.4118 10.1458C15.3535 10.0369 15.2691 9.94409 15.1663 9.87562ZM11 12.0984V8.90625L13.3981 10.5L11 12.0984Z" fill="black"/>
</svg>
