<svg width="591" height="580" viewBox="0 0 591 580" fill="none" xmlns="http://www.w3.org/2000/svg">
<path d="M590.33 390.099H363.989V259.12H590.33V390.099ZM365.37 388.718H588.949V260.501H365.37V388.718Z" fill="#E0E0E0"/>
<path d="M543.636 328.96H394.303V333.338H543.636V328.96Z" fill="#F0F0F0"/>
<path d="M553.925 345.284H394.303V350.062H553.925V345.284Z" fill="#F0F0F0"/>
<path d="M553.925 361.801H394.303V366.58H553.925V361.801Z" fill="#F0F0F0"/>
<path d="M446.493 305.247H394.303V316.613H446.493V305.247Z" fill="#F0F0F0"/>
<path d="M589.64 259.81H364.722V280.664H589.64V259.81Z" fill="#E0E0E0"/>
<path d="M572.334 277.543C572.044 277.267 574.945 273.773 578.798 269.74C582.651 265.708 586.035 262.655 586.311 262.918C586.587 263.18 583.701 266.688 579.847 270.735C575.994 274.781 572.611 277.819 572.334 277.543Z" fill="white"/>
<path d="M586.339 277.543C586.063 277.819 582.693 274.781 578.826 270.735C574.959 266.688 572.073 263.194 572.363 262.918C572.653 262.642 576.009 265.68 579.876 269.74C583.743 273.8 586.601 277.267 586.339 277.543Z" fill="white"/>
<path d="M311.813 0.434784H86.8945V130.047H311.813V0.434784Z" fill="#E6E6E6"/>
<path d="M265.823 69.5977H116.49V73.9757H265.823V69.5977Z" fill="#F0F0F0"/>
<path d="M276.112 85.9218H116.49V90.7003H276.112V85.9218Z" fill="#F0F0F0"/>
<path d="M276.112 102.44H116.49V107.218H276.112V102.44Z" fill="#F0F0F0"/>
<path d="M168.68 45.8853H116.49V57.2514H168.68V45.8853Z" fill="#F0F0F0"/>
<path d="M311.813 0.434784H86.8945V21.2887H311.813V0.434784Z" fill="#E0E0E0"/>
<path d="M293.749 18.071C293.458 17.8086 296.359 14.3007 300.212 10.2681C304.065 6.23538 307.449 3.18326 307.725 3.45947C308.001 3.73568 305.115 7.22974 301.261 11.2624C297.408 15.2951 294.025 18.3196 293.749 18.071Z" fill="white"/>
<path d="M307.725 18.0711C307.449 18.3473 304.079 15.309 300.212 11.2625C296.345 7.216 293.459 3.73575 293.749 3.45954C294.039 3.18333 297.395 6.22164 301.262 10.2681C305.128 14.3146 308.015 17.8087 307.725 18.0711Z" fill="white"/>
<path d="M226.629 241.208H0.330078V110.215H226.629V241.208ZM1.71113 239.827H225.248V111.596H1.71113V239.827Z" fill="#E0E0E0"/>
<path d="M179.95 180.068H30.6172V184.446H179.95V180.068Z" fill="#F0F0F0"/>
<path d="M190.239 196.392H30.6172V201.17H190.239V196.392Z" fill="#F0F0F0"/>
<path d="M190.239 212.91H30.6172V217.688H190.239V212.91Z" fill="#F0F0F0"/>
<path d="M82.8072 156.356H30.6172V167.722H82.8072V156.356Z" fill="#F0F0F0"/>
<path d="M225.939 110.905H1.02051V131.759H225.939V110.905Z" fill="#E0E0E0"/>
<path d="M487.801 271.218H222.225V508.98H487.801V271.218Z" fill="#E6E6E6"/>
<path d="M235.579 196.323H27.5371V412.472H235.579V196.323Z" fill="#F0F0F0"/>
<path d="M235.579 196.323H27.5371V219.87H235.579V196.323Z" fill="#E0E0E0"/>
<path d="M44.7181 207.855C44.6802 208.709 44.3925 209.533 43.8905 210.225C43.3885 210.917 42.6945 211.446 41.8944 211.747C41.0944 212.048 40.2237 212.107 39.3902 211.917C38.5568 211.728 37.7974 211.298 37.2062 210.68C36.6151 210.063 36.2182 209.286 36.0649 208.445C35.9116 207.604 36.0086 206.736 36.3438 205.95C36.6791 205.164 37.2378 204.494 37.9507 204.022C38.6636 203.55 39.4993 203.299 40.354 203.298C41.536 203.327 42.6584 203.822 43.4761 204.676C44.2939 205.53 44.7404 206.673 44.7181 207.855Z" fill="white"/>
<path d="M62.4368 207.855C62.4016 208.713 62.1148 209.542 61.6123 210.238C61.1097 210.934 60.4135 211.467 59.6103 211.771C58.8071 212.075 57.9323 212.135 57.0949 211.945C56.2575 211.756 55.4944 211.324 54.9005 210.704C54.3066 210.083 53.9082 209.302 53.7549 208.457C53.6016 207.613 53.7001 206.741 54.0382 205.952C54.3763 205.163 54.939 204.49 55.6564 204.018C56.3737 203.546 57.214 203.296 58.0726 203.298C59.2546 203.327 60.3771 203.822 61.1948 204.676C62.0125 205.53 62.459 206.673 62.4368 207.855Z" fill="white"/>
<path d="M80.1555 207.855C80.1203 208.713 79.8336 209.542 79.331 210.238C78.8284 210.934 78.1322 211.467 77.329 211.771C76.5258 212.075 75.6511 212.135 74.8137 211.945C73.9762 211.756 73.2131 211.324 72.6192 210.704C72.0254 210.083 71.627 209.302 71.4737 208.457C71.3204 207.613 71.4189 206.741 71.757 205.952C72.095 205.163 72.6578 204.49 73.3751 204.018C74.0924 203.546 74.9327 203.296 75.7914 203.298C76.9734 203.327 78.0958 203.822 78.9135 204.676C79.7313 205.53 80.1778 206.673 80.1555 207.855Z" fill="white"/>
<path d="M560.623 47.708H295.047V312.401H560.623V47.708Z" fill="#F0F0F0"/>
<path d="M560.623 47.708H295.047V78.7127H560.623V47.708Z" fill="#E0E0E0"/>
<path d="M317.669 62.8998C317.62 64.0269 317.241 65.1149 316.58 66.0287C315.918 66.9425 315.003 67.6419 313.947 68.0399C312.891 68.4379 311.742 68.5171 310.642 68.2676C309.541 68.0181 308.539 67.4509 307.758 66.6365C306.977 65.822 306.453 64.7962 306.25 63.6864C306.047 62.5766 306.175 61.4316 306.617 60.3937C307.059 59.3558 307.797 58.4706 308.738 57.8481C309.679 57.2256 310.782 56.8932 311.91 56.8922C313.469 56.9284 314.951 57.5809 316.03 58.7068C317.109 59.8327 317.699 61.3404 317.669 62.8998Z" fill="white"/>
<path d="M339.31 58.8393C340.076 59.6708 340.58 60.7091 340.759 61.825C340.939 62.9409 340.786 64.085 340.32 65.1148C339.854 66.1445 339.096 67.0143 338.139 67.6159C337.182 68.2175 336.069 68.5242 334.939 68.4978C333.809 68.4715 332.712 68.1132 331.784 67.4676C330.856 66.8221 330.139 65.9178 329.722 64.8674C329.304 63.8171 329.205 62.6671 329.437 61.5608C329.668 60.4545 330.22 59.4408 331.024 58.646C332.149 57.5749 333.653 56.9938 335.207 57.03C336.76 57.0663 338.236 57.7169 339.31 58.8393Z" fill="white"/>
<path d="M364.321 62.8998C364.273 64.0269 363.894 65.1149 363.232 66.0287C362.57 66.9425 361.655 67.6419 360.599 68.0399C359.544 68.4379 358.394 68.5171 357.294 68.2676C356.194 68.0181 355.191 67.4509 354.41 66.6365C353.63 65.822 353.105 64.7962 352.902 63.6864C352.7 62.5766 352.827 61.4316 353.269 60.3937C353.712 59.3558 354.449 58.4706 355.39 57.8481C356.331 57.2256 357.434 56.8932 358.562 56.8922C360.122 56.9284 361.603 57.5809 362.682 58.7068C363.762 59.8327 364.351 61.3404 364.321 62.8998Z" fill="white"/>
<path d="M503.255 579.206C503.255 579.4 407.354 579.565 289.095 579.565C170.835 579.565 74.8936 579.4 74.8936 579.206C74.8936 579.013 170.78 578.847 289.095 578.847C407.41 578.847 503.255 579.027 503.255 579.206Z" fill="#1F1F1F"/>
<path d="M409.813 410.138C388.476 395.236 383.642 367.574 384.484 342.701C384.622 338.558 384.167 334.166 386.142 330.534C388.116 326.902 392.729 324.402 396.444 326.142C399.524 327.593 400.864 331.183 402.59 334.153C404.893 338.107 408.269 341.33 412.326 343.447C414.964 344.828 418.237 345.657 420.847 344.22C424.438 342.246 424.852 337.315 424.825 333.172C424.825 325.466 424.779 317.769 424.687 310.081C424.439 305.953 424.858 301.811 425.93 297.817C427.214 293.895 430.073 290.263 433.981 289.158C437.89 288.053 442.765 290.332 443.649 294.364C443.801 296.072 443.842 297.789 443.773 299.502C443.883 301.228 444.684 303.12 446.3 303.645C447.916 304.17 449.601 302.968 450.844 301.753C455.098 297.61 457.998 292.21 460.691 286.879C463.384 281.548 466.022 276.065 469.889 271.522C473.756 266.978 479.1 263.374 485.08 263.028C491.06 262.683 497.289 266.357 498.78 272.157C500.272 277.957 496.888 283.882 493.256 288.592C487.775 295.582 481.314 301.745 474.073 306.891C472.66 307.662 471.532 308.868 470.855 310.329C469.958 313.091 472.568 315.854 475.289 316.724C478.368 317.746 481.71 317.428 484.956 317.815C488.201 318.201 491.654 319.61 492.883 322.648C494.568 326.874 491.033 331.294 487.566 334.194C480.606 339.994 472.702 344.558 464.199 347.687C461.16 348.792 457.97 349.772 455.512 351.899C453.054 354.026 451.59 357.741 453.067 360.655C454.545 363.569 458.343 364.494 461.533 363.9C464.723 363.307 467.555 361.594 470.593 360.448C476.269 358.307 483.589 358.694 487.166 363.597C488.274 365.285 488.975 367.208 489.215 369.214C489.454 371.22 489.226 373.254 488.547 375.156C487.164 378.942 485.037 382.412 482.29 385.362C473.245 396.169 461.492 404.381 448.234 409.158C435.072 413.715 422.878 414.958 409.799 410.166" fill="#F3935D"/>
<path d="M492.704 266.439C492.704 266.439 492.58 266.578 492.303 266.826L491.074 267.917C489.997 268.884 488.409 270.293 486.406 272.157C480.729 277.429 475.457 283.121 470.635 289.185C467.555 293.011 464.365 297.347 460.967 302.057C457.57 306.766 454.062 311.849 450.582 317.248C446.871 322.943 443.474 328.835 440.403 334.898C438.801 338.061 437.393 341.362 435.943 344.731L431.661 355.02C426.018 367.98 421.103 381.245 416.939 394.753C413.586 405.805 411.274 417.147 410.034 428.63C409.231 436.38 409.102 444.184 409.647 451.956C409.868 454.718 410.076 456.831 410.269 458.268C410.352 458.958 410.407 459.511 410.462 459.911V460.477C410.403 460.298 410.361 460.113 410.338 459.925C410.269 459.525 410.186 458.986 410.076 458.295C409.827 456.914 409.565 454.732 409.316 451.97C408.65 444.184 408.696 436.353 409.454 428.575C410.617 417.043 412.878 405.648 416.207 394.546C420.336 381 425.238 367.702 430.888 354.716L435.28 344.469C436.73 341.113 438.152 337.785 439.768 334.608C442.86 328.526 446.285 322.62 450.029 316.917C453.565 311.393 457.128 306.393 460.484 301.725C463.84 297.057 467.085 292.693 470.151 288.882C475.022 282.833 480.365 277.181 486.13 271.977C488.174 270.141 489.804 268.76 490.909 267.834L492.193 266.799C492.35 266.661 492.522 266.541 492.704 266.439Z" fill="#1F1F1F"/>
<path d="M439.947 334.581C439.752 334.012 439.618 333.424 439.547 332.827C439.326 331.68 439.077 330.065 438.787 327.965C438.193 323.822 437.586 318.146 436.936 311.862C436.287 305.579 435.555 299.889 434.948 295.787C434.63 293.743 434.354 292.099 434.161 290.953C434.01 290.367 433.931 289.764 433.926 289.158C434.164 289.711 434.335 290.291 434.437 290.884C434.741 292.017 435.086 293.646 435.473 295.704C436.26 299.847 437.033 305.482 437.682 311.779C438.331 318.077 438.884 323.601 439.312 327.896C439.519 329.83 439.699 331.473 439.837 332.785C439.944 333.377 439.981 333.98 439.947 334.581Z" fill="#1F1F1F"/>
<path d="M493.09 324.665C492.418 324.811 491.734 324.894 491.046 324.913C489.665 325.038 487.704 325.203 485.273 325.48C480.412 326.004 473.728 326.971 466.394 328.352C459.061 329.733 452.473 331.294 447.736 332.495C445.375 333.103 443.469 333.655 442.212 334.028C441.541 334.267 440.847 334.433 440.141 334.525C440.779 334.205 441.444 333.941 442.129 333.738C443.427 333.283 445.306 332.647 447.654 331.971C452.363 330.589 458.951 328.946 466.312 327.537C472.547 326.345 478.839 325.469 485.163 324.913C487.607 324.706 489.582 324.623 490.963 324.596C491.673 324.547 492.385 324.571 493.09 324.665Z" fill="#1F1F1F"/>
<path d="M416.883 393.579C416.736 393.379 416.616 393.161 416.524 392.93L415.613 391.01C414.826 389.339 413.762 386.867 412.492 383.843C409.923 377.766 406.65 369.259 403.17 359.812C399.689 350.366 396.485 341.859 394.055 335.713C392.867 332.73 391.886 330.286 391.155 328.463L390.381 326.488C390.274 326.26 390.2 326.018 390.16 325.77C390.307 325.969 390.428 326.188 390.519 326.419L391.431 328.338C392.204 330.009 393.281 332.481 394.552 335.506C397.121 341.583 400.394 350.09 403.874 359.536C407.354 368.983 410.558 377.49 412.989 383.636C414.177 386.619 415.157 389.063 415.875 390.886C416.193 391.673 416.455 392.267 416.663 392.861C416.77 393.089 416.844 393.331 416.883 393.579Z" fill="#1F1F1F"/>
<path d="M487.428 370.833C487.207 370.96 486.97 371.058 486.724 371.123L484.68 371.814L477.125 374.258C470.745 376.33 461.934 379.285 452.267 382.545C442.599 385.804 433.747 388.704 427.325 390.638C424.121 391.618 421.51 392.364 419.701 392.861L417.616 393.4C417.373 393.477 417.123 393.528 416.87 393.552C417.091 393.425 417.328 393.327 417.574 393.262L419.618 392.571L427.173 390.127C433.553 388.055 442.364 385.1 452.032 381.84C461.699 378.581 470.538 375.681 476.96 373.747C480.178 372.767 482.774 372.021 484.597 371.524L486.682 370.985C486.925 370.908 487.175 370.857 487.428 370.833Z" fill="#1F1F1F"/>
<path d="M458.647 35.8313L451.535 38.3724L448.483 29.0779C442.876 11.9391 425.005 2.83791 408.584 8.62452C392.163 14.4111 383.421 33.2073 389.028 50.3461L392.08 59.6406L384.94 62.1956C382.218 63.2516 380.007 65.3162 378.767 67.9603C377.527 70.6043 377.354 73.6244 378.284 76.3928L398.074 136.869C398.485 138.24 399.167 139.513 400.08 140.615C400.993 141.717 402.118 142.624 403.388 143.282C404.658 143.94 406.048 144.337 407.474 144.447C408.901 144.558 410.335 144.381 411.691 143.926L485.398 117.562C488.157 116.508 490.399 114.425 491.653 111.751C492.908 109.078 493.076 106.022 492.124 103.227L472.32 42.7504C471.898 41.3837 471.206 40.116 470.284 39.0229C469.361 37.9297 468.229 37.0335 466.953 36.3878C465.676 35.742 464.283 35.3599 462.856 35.2643C461.43 35.1687 459.998 35.3615 458.647 35.8313ZM402.466 45.4986C400.954 41.0423 401.225 36.1737 403.223 31.913C405.221 27.6523 408.79 24.33 413.183 22.6422C415.352 21.9001 417.648 21.6025 419.935 21.7672C422.222 21.9318 424.452 22.5555 426.492 23.6008C428.532 24.6461 430.341 26.0917 431.811 27.8513C433.28 29.6109 434.38 31.6485 435.045 33.8426L438.083 43.137L405.504 54.7931L402.466 45.4986ZM443.898 99.1664L448.952 114.607C449.045 114.916 449.015 115.25 448.868 115.538C448.722 115.826 448.47 116.046 448.165 116.153L441.08 118.681C440.798 118.759 440.497 118.725 440.24 118.586C439.982 118.447 439.788 118.214 439.699 117.935L434.603 102.564C431.793 102.411 429.097 101.403 426.876 99.6751C424.654 97.9473 423.014 95.5822 422.174 92.8964C420.972 89.3456 421.192 85.4678 422.785 82.0749C424.378 78.6821 427.223 76.0372 430.722 74.6941C432.45 74.1038 434.279 73.8673 436.1 73.9988C437.922 74.1304 439.698 74.6272 441.323 75.4598C442.948 76.2923 444.389 77.4435 445.56 78.8447C446.73 80.2459 447.607 81.8685 448.137 83.6157C449.026 86.344 449.099 89.2723 448.349 92.0418C447.598 94.8112 446.056 97.3016 443.911 99.2078L443.898 99.1664Z" fill="#F3935D"/>
<path d="M451.218 38.2068C451.218 38.4002 438.029 43.3582 421.622 49.2553C405.215 55.1524 391.833 59.8894 391.764 59.7513C391.695 59.6132 404.953 54.6138 421.374 48.7028C437.794 42.7919 451.149 38.0273 451.218 38.2068Z" fill="#1F1F1F"/>
<path d="M466.879 40.748C466.94 40.8678 466.991 40.9926 467.031 41.1209C467.141 41.3971 467.266 41.7562 467.431 42.1981C467.79 43.2063 468.288 44.6011 468.909 46.3413L474.212 61.7814C476.422 68.3276 479.06 76.0891 481.988 84.7069C483.369 89.0296 484.998 93.5318 486.517 98.2689C487.331 100.71 487.682 103.281 487.553 105.851C487.436 107.187 487.056 108.487 486.435 109.676C485.771 110.861 484.885 111.907 483.824 112.756C481.691 114.314 479.322 115.521 476.809 116.333L469.696 118.888L456.231 123.708L433.43 131.828L418.031 137.242L413.888 138.623L412.783 138.982C412.665 139.035 412.539 139.068 412.41 139.079C412.41 139.079 412.521 139.079 412.755 138.913L413.833 138.485L417.976 136.925L433.292 131.29L456.051 123.004L469.489 118.142L476.602 115.573C479.044 114.794 481.343 113.624 483.41 112.107C484.397 111.319 485.222 110.349 485.841 109.248C486.426 108.149 486.778 106.94 486.877 105.699C487.004 103.223 486.666 100.745 485.882 98.3932C484.391 93.6976 482.816 89.1539 481.394 84.8312C478.521 76.1996 475.87 68.4105 473.77 61.8643C471.671 55.3181 469.903 50.0563 468.688 46.3551C468.108 44.5459 467.666 43.1372 467.307 42.1152L466.976 41.0104C466.934 40.9267 466.901 40.8387 466.879 40.748Z" fill="#1F1F1F"/>
<path d="M427.988 21.7031C427.988 21.7031 427.256 21.344 425.902 20.7916C423.973 20.0504 421.933 19.6395 419.867 19.5763C416.805 19.4713 413.758 20.0467 410.945 21.2612C407.525 22.7734 404.6 25.2193 402.507 28.3183C400.4 31.4085 399.269 35.0603 399.262 38.8005C399.29 41.8661 399.755 44.9119 400.643 47.8464C401.361 50.36 402.107 52.3625 402.604 53.7574C402.897 54.4658 403.137 55.1952 403.322 55.9394C402.93 55.277 402.601 54.5787 402.341 53.854C401.775 52.473 400.96 50.5119 400.159 47.9845C399.176 45.0192 398.641 41.9238 398.571 38.8005C398.534 34.919 399.691 31.1199 401.886 27.9178C404.052 24.7057 407.096 22.184 410.655 20.6535C413.556 19.4324 416.698 18.8938 419.839 19.0791C421.95 19.1867 424.023 19.6781 425.957 20.5292C426.475 20.7678 426.973 21.0448 427.449 21.3578C427.645 21.4441 427.827 21.5606 427.988 21.7031Z" fill="#1F1F1F"/>
<path d="M428.623 75.7437C428.843 75.6101 429.074 75.4946 429.313 75.3984C430.005 75.0864 430.721 74.8324 431.454 74.6388C432.618 74.2953 433.819 74.0913 435.031 74.0311C436.68 73.9425 438.329 74.1916 439.879 74.7631C443.414 76.0061 446.659 79.6106 448.261 84.4305C449.03 87.0171 449.03 89.7712 448.261 92.3577C447.41 95.1651 445.883 97.7209 443.815 99.8016L443.897 99.4287C445.734 104.47 447.737 109.939 449.808 115.642L449.933 115.988L449.587 116.112L446.425 117.161L439.519 119.468L439.174 119.578L439.064 119.233C437.172 113.515 435.1 108.185 433.539 102.95L433.843 103.185C431.143 102.961 428.569 101.948 426.441 100.271C424.515 98.7881 422.936 96.9029 421.814 94.7469C420.802 92.835 420.298 90.695 420.35 88.5322C420.414 86.3218 420.966 84.1528 421.967 82.1806C422.967 80.2085 424.391 78.482 426.137 77.1247C426.856 76.5413 427.662 76.0752 428.526 75.7437C427.746 76.2065 426.99 76.7089 426.261 77.249C424.344 78.8715 422.874 80.9591 421.994 83.3118C421.238 85.086 420.885 87.0054 420.959 88.9324C421.033 90.8593 421.533 92.7459 422.422 94.4569C423.525 96.531 425.066 98.3405 426.938 99.7602C428.968 101.354 431.423 102.314 433.995 102.522H434.23L434.299 102.729C435.818 107.867 437.904 113.239 439.823 118.984L439.368 118.763L446.273 116.457L449.422 115.394L449.201 115.863C447.143 110.159 445.154 104.677 443.331 99.6359V99.4287L443.497 99.263C445.505 97.2686 447.002 94.8193 447.861 92.1229C448.594 89.6487 448.594 87.0152 447.861 84.541C446.356 79.9006 443.248 76.3789 439.879 75.136C438.387 74.5608 436.794 74.2931 435.197 74.3488C434.004 74.3761 432.818 74.5383 431.661 74.8322C429.603 75.3431 428.637 75.8127 428.623 75.7437Z" fill="#1F1F1F"/>
<path d="M385.935 474.509L247.981 473.874C240.014 473.83 232.391 470.626 226.785 464.965C221.179 459.305 218.048 451.651 218.081 443.684L219.545 97.8543C219.562 93.9073 220.356 90.0022 221.882 86.3623C223.408 82.7223 225.637 79.4189 228.441 76.6408C231.244 73.8627 234.568 71.6644 238.222 70.1716C241.876 68.6787 245.788 67.9207 249.735 67.9407L387.675 68.5759C395.641 68.6161 403.266 71.8167 408.875 77.4746C414.484 83.1325 417.618 90.7852 417.588 98.752L416.124 444.568C416.108 448.516 415.314 452.422 413.788 456.064C412.262 459.705 410.034 463.011 407.23 465.791C404.427 468.571 401.104 470.772 397.45 472.268C393.796 473.764 389.883 474.525 385.935 474.509Z" fill="#666666"/>
<path d="M387.468 80.4668H360.731C359.858 80.483 358.998 80.6709 358.198 81.0197C357.398 81.3686 356.675 81.8716 356.07 82.5C355.464 83.1284 354.989 83.87 354.67 84.6822C354.351 85.4945 354.196 86.3616 354.212 87.234V92.0815C354.229 92.9532 354.073 93.8196 353.754 94.6311C353.435 95.4426 352.959 96.1832 352.354 96.8105C351.748 97.4378 351.025 97.9395 350.225 98.2869C349.426 98.6342 348.565 98.8204 347.694 98.8348L295.573 98.6C293.81 98.553 292.137 97.8081 290.923 96.529C289.708 95.2498 289.051 93.5409 289.096 91.7776V86.9301C289.14 85.1692 288.485 83.4624 287.273 82.1836C286.062 80.9048 284.393 80.1583 282.632 80.1077H273.227L249.818 79.9973C244.251 79.9641 238.896 82.1386 234.928 86.0445C230.96 89.9505 228.702 95.2697 228.647 100.837L227.266 438.394C227.253 441.157 227.785 443.894 228.83 446.451C229.875 449.008 231.414 451.334 233.358 453.296C235.302 455.258 237.614 456.818 240.161 457.886C242.708 458.955 245.44 459.512 248.203 459.525L385.866 460.16C388.63 460.172 391.369 459.641 393.928 458.595C396.486 457.549 398.814 456.009 400.777 454.064C402.74 452.118 404.301 449.805 405.371 447.256C406.44 444.708 406.997 441.973 407.01 439.209L408.391 101.652C408.424 96.0688 406.239 90.7007 402.315 86.7281C398.392 82.7554 393.051 80.5033 387.468 80.4668Z" fill="white"/>
<path d="M368.947 415.124L266.584 414.682C265.52 414.682 264.664 413.522 264.678 412.113L264.788 385.334C264.788 383.953 265.658 382.766 266.722 382.766L369.086 383.235C369.675 383.337 370.202 383.663 370.557 384.144C370.912 384.625 371.068 385.225 370.991 385.818L370.895 412.569C370.895 413.991 370.011 415.138 368.947 415.124Z" fill="#277F60"/>
<path d="M287.002 179.696L251.481 179.534L251.452 186.053L286.972 186.214L287.002 179.696Z" fill="#1F1F1F"/>
<path opacity="0.1" d="M287.002 179.696L251.481 179.534L251.452 186.053L286.972 186.214L287.002 179.696Z" fill="#1F1F1F"/>
<path d="M391.128 219.719C391.407 219.69 391.681 219.625 391.942 219.525C392.325 219.376 392.657 219.122 392.901 218.792C393.146 218.462 393.292 218.07 393.323 217.661C393.323 215.465 393.323 212.261 393.323 208.145C393.323 206.088 393.323 203.781 393.323 201.24C393.323 200.619 393.323 199.969 393.323 199.32C393.413 198.691 393.276 198.049 392.937 197.511C392.747 197.253 392.499 197.043 392.214 196.897C391.929 196.751 391.614 196.673 391.293 196.669H389.139H369.183L253.671 196.241C253.376 196.236 253.083 196.302 252.819 196.434C252.554 196.567 252.326 196.761 252.152 197C251.819 197.54 251.691 198.183 251.793 198.809C251.793 200.19 251.793 201.572 251.793 202.953C251.793 205.715 251.793 208.477 251.793 211.239C251.793 212.62 251.793 214.001 251.793 215.382C251.736 216.025 251.736 216.672 251.793 217.316C251.866 217.591 252.001 217.847 252.187 218.062C252.374 218.278 252.608 218.447 252.87 218.558C253.142 218.667 253.434 218.718 253.727 218.71H260.756L291.429 218.876L343.357 219.194L378.367 219.47L387.882 219.58H390.354C390.92 219.58 391.197 219.58 391.197 219.58H390.354H387.882H378.367H343.357L291.429 219.415L260.756 219.29H253.727C253.34 219.306 252.954 219.24 252.594 219.097C252.231 218.942 251.907 218.706 251.649 218.407C251.39 218.107 251.203 217.753 251.103 217.371C251.023 217.008 250.995 216.636 251.02 216.266V215.244C251.02 213.863 251.02 212.482 251.02 211.101C251.02 208.339 251.02 205.577 251.02 202.814C251.02 201.433 251.02 200.052 251.02 198.671C250.993 198.303 250.993 197.934 251.02 197.566C251.072 197.16 251.229 196.775 251.476 196.448C251.714 196.114 252.029 195.844 252.395 195.658C252.76 195.473 253.165 195.379 253.575 195.384L369.086 196.02L389.042 196.158H391.197C391.576 196.158 391.95 196.25 392.287 196.425C392.623 196.601 392.913 196.855 393.13 197.166C393.519 197.766 393.677 198.488 393.572 199.196C393.572 199.845 393.572 200.494 393.572 201.116C393.572 203.629 393.572 205.936 393.572 208.021C393.572 212.164 393.475 215.341 393.448 217.55C393.414 217.975 393.26 218.382 393.003 218.722C392.746 219.062 392.397 219.321 391.998 219.47C391.736 219.632 391.435 219.718 391.128 219.719Z" fill="#E0E0E0"/>
<path d="M327.115 203.173H262.15V209.264H327.115V203.173Z" fill="#1F1F1F"/>
<path opacity="0.2" d="M327.115 203.173H262.15V209.264H327.115V203.173Z" fill="white"/>
<path d="M286.76 239.162L251.239 239.001L251.21 245.519L286.73 245.68L286.76 239.162Z" fill="#1F1F1F"/>
<path opacity="0.1" d="M286.76 239.162L251.239 239.001L251.21 245.519L286.73 245.68L286.76 239.162Z" fill="#1F1F1F"/>
<path d="M390.229 279.187C390.508 279.152 390.785 279.102 391.058 279.035C391.444 278.912 391.799 278.708 392.099 278.436C392.399 278.165 392.637 277.832 392.798 277.46C393.015 276.903 393.101 276.302 393.047 275.706C393.047 275.043 393.047 274.325 393.047 273.524C393.047 271.922 393.047 270.099 393.047 268V259.23C393.113 258.596 392.972 257.956 392.646 257.407C392.305 256.845 391.77 256.427 391.141 256.234C390.453 256.111 389.752 256.074 389.055 256.123H369.182L254.071 255.695C253.452 255.696 252.855 255.923 252.39 256.332C251.925 256.741 251.624 257.305 251.544 257.918C251.544 259.23 251.544 260.681 251.544 262.062C251.544 264.824 251.544 267.586 251.544 270.348C251.544 271.729 251.544 273.11 251.544 274.491C251.492 275.137 251.52 275.786 251.627 276.425C251.799 276.985 252.154 277.471 252.635 277.806C253.145 278.129 253.744 278.284 254.347 278.248H256.267H260.258L290.821 278.399L342.569 278.717L377.455 278.993L386.942 279.104H377.455H342.569L290.793 279.049L260.231 278.938H254.223C253.476 278.982 252.735 278.784 252.11 278.372C251.482 277.937 251.023 277.297 250.812 276.563C250.688 275.861 250.651 275.147 250.701 274.436C250.701 273.055 250.701 271.674 250.701 270.293C250.701 267.531 250.701 264.768 250.701 262.006C250.701 260.625 250.701 259.244 250.701 257.863C250.802 257.073 251.187 256.348 251.785 255.821C252.382 255.295 253.151 255.005 253.947 255.004L369.058 255.64L388.931 255.792C389.671 255.746 390.414 255.797 391.141 255.944C391.858 256.178 392.464 256.67 392.839 257.325C393.197 257.933 393.351 258.639 393.281 259.341C393.281 259.99 393.281 260.625 393.281 261.261C393.281 263.76 393.281 266.053 393.281 268.166C393.281 270.279 393.281 272.06 393.281 273.69C393.281 274.477 393.281 275.209 393.281 275.886C393.332 276.504 393.232 277.124 392.991 277.695C392.812 278.076 392.553 278.414 392.231 278.686C391.909 278.958 391.533 279.157 391.127 279.27C390.825 279.294 390.521 279.266 390.229 279.187Z" fill="#E0E0E0"/>
<path d="M286.491 301.211L250.971 301.05L250.941 307.568L286.461 307.73L286.491 301.211Z" fill="#1F1F1F"/>
<path opacity="0.1" d="M286.491 301.211L250.971 301.05L250.941 307.568L286.461 307.73L286.491 301.211Z" fill="#1F1F1F"/>
<path d="M389.954 341.21C390.233 341.177 390.51 341.126 390.782 341.058C391.166 340.936 391.52 340.734 391.82 340.465C392.12 340.196 392.359 339.866 392.522 339.497C392.739 338.94 392.824 338.34 392.771 337.744C392.771 337.067 392.771 336.362 392.771 335.548C392.771 333.959 392.771 332.123 392.771 330.023V321.254C392.837 320.619 392.696 319.98 392.37 319.431C392.022 318.878 391.488 318.467 390.865 318.271C390.178 318.143 389.477 318.101 388.78 318.146H368.906L253.796 317.718C253.176 317.72 252.579 317.946 252.114 318.355C251.649 318.764 251.349 319.328 251.268 319.942C251.268 321.323 251.268 322.704 251.268 324.085C251.268 326.847 251.268 329.609 251.268 332.371C251.268 333.752 251.268 335.133 251.268 336.514C251.217 337.155 251.245 337.8 251.351 338.434C251.517 338.998 251.873 339.486 252.359 339.815C252.866 340.146 253.468 340.301 254.072 340.257H260.079L290.642 340.423L342.39 340.74L377.276 341.017L386.763 341.127H377.276H342.39L290.642 340.975L260.079 340.851H254.072C253.324 340.901 252.581 340.702 251.959 340.285C251.33 339.849 250.872 339.21 250.661 338.475C250.537 337.774 250.5 337.059 250.55 336.349C250.55 334.968 250.55 333.587 250.55 332.205C250.55 329.443 250.55 326.681 250.55 323.919C250.55 322.538 250.55 321.157 250.55 319.707C250.648 318.918 251.03 318.193 251.625 317.666C252.22 317.14 252.987 316.849 253.782 316.848L368.893 317.483L388.766 317.635C389.506 317.59 390.249 317.641 390.976 317.787C391.693 318.022 392.298 318.514 392.674 319.168C393.032 319.777 393.186 320.483 393.116 321.185C393.116 321.834 393.116 322.483 393.116 323.104C393.116 325.604 393.116 327.897 393.116 330.01C393.116 332.123 393.116 333.904 393.116 335.534C393.116 336.321 393.116 337.053 393.116 337.73C393.169 338.347 393.07 338.969 392.826 339.539C392.647 339.92 392.388 340.258 392.066 340.53C391.744 340.801 391.367 341 390.962 341.113C390.638 341.224 390.293 341.257 389.954 341.21Z" fill="#E0E0E0"/>
<path d="M325.729 264.364L260.765 264.069L260.737 270.159L325.701 270.454L325.729 264.364Z" fill="#1F1F1F"/>
<path opacity="0.2" d="M325.729 264.364L260.765 264.069L260.737 270.159L325.701 270.454L325.729 264.364Z" fill="white"/>
<path d="M266.639 329.941C266.599 330.496 266.396 331.027 266.056 331.469C265.716 331.91 265.254 332.242 264.727 332.423C264.2 332.604 263.632 332.626 263.093 332.487C262.553 332.349 262.066 332.054 261.693 331.641C261.319 331.228 261.075 330.715 260.99 330.164C260.905 329.614 260.984 329.05 261.217 328.544C261.45 328.038 261.826 327.611 262.299 327.317C262.772 327.023 263.32 326.874 263.877 326.888C264.647 326.931 265.368 327.276 265.885 327.847C266.402 328.418 266.673 329.171 266.639 329.941Z" fill="#1F1F1F"/>
<path d="M275.437 329.982C275.464 330.371 275.411 330.762 275.281 331.13C275.15 331.498 274.946 331.835 274.679 332.12C274.413 332.406 274.091 332.633 273.733 332.789C273.375 332.944 272.989 333.025 272.599 333.025C272.209 333.025 271.822 332.944 271.465 332.789C271.107 332.633 270.785 332.406 270.518 332.12C270.252 331.835 270.047 331.498 269.917 331.13C269.787 330.762 269.734 330.371 269.761 329.982C269.734 329.592 269.787 329.202 269.917 328.834C270.047 328.466 270.252 328.129 270.518 327.843C270.785 327.558 271.107 327.33 271.465 327.175C271.822 327.019 272.209 326.939 272.599 326.939C272.989 326.939 273.375 327.019 273.733 327.175C274.091 327.33 274.413 327.558 274.679 327.843C274.946 328.129 275.15 328.466 275.281 328.834C275.411 329.202 275.464 329.592 275.437 329.982Z" fill="#1F1F1F"/>
<path d="M284.248 330.023C284.207 330.579 284.004 331.11 283.664 331.551C283.324 331.993 282.862 332.324 282.335 332.505C281.809 332.687 281.24 332.709 280.701 332.57C280.162 332.431 279.675 332.137 279.301 331.724C278.927 331.311 278.683 330.797 278.598 330.247C278.514 329.696 278.593 329.133 278.825 328.627C279.058 328.121 279.434 327.694 279.907 327.4C280.38 327.105 280.929 326.956 281.486 326.971C282.254 327.017 282.973 327.363 283.489 327.934C284.006 328.504 284.278 329.254 284.248 330.023Z" fill="#1F1F1F"/>
<path d="M293.046 330.064C293.005 330.62 292.802 331.151 292.462 331.593C292.122 332.034 291.66 332.366 291.133 332.547C290.607 332.728 290.038 332.75 289.499 332.611C288.959 332.472 288.473 332.178 288.099 331.765C287.725 331.352 287.481 330.839 287.396 330.288C287.312 329.738 287.391 329.174 287.623 328.668C287.856 328.162 288.232 327.735 288.705 327.441C289.178 327.147 289.727 326.998 290.283 327.012C291.052 327.059 291.771 327.404 292.287 327.975C292.804 328.545 293.076 329.296 293.046 330.064Z" fill="#1F1F1F"/>
<path d="M301.842 330.092C301.804 330.649 301.604 331.181 301.265 331.625C300.927 332.068 300.465 332.402 299.939 332.585C299.412 332.768 298.843 332.792 298.303 332.655C297.762 332.517 297.274 332.224 296.899 331.812C296.524 331.399 296.278 330.885 296.193 330.334C296.107 329.783 296.186 329.219 296.418 328.712C296.65 328.205 297.027 327.778 297.5 327.483C297.973 327.188 298.523 327.039 299.08 327.054C299.846 327.1 300.563 327.444 301.079 328.011C301.595 328.579 301.869 329.326 301.842 330.092Z" fill="#1F1F1F"/>
<path d="M310.653 330.134C310.615 330.687 310.417 331.218 310.081 331.66C309.746 332.102 309.289 332.436 308.766 332.622C308.243 332.807 307.678 332.836 307.139 332.704C306.6 332.572 306.112 332.286 305.733 331.88C305.355 331.474 305.104 330.967 305.01 330.42C304.917 329.873 304.985 329.311 305.207 328.802C305.429 328.294 305.795 327.861 306.26 327.558C306.724 327.255 307.267 327.094 307.822 327.096C308.6 327.124 309.335 327.46 309.865 328.03C310.396 328.599 310.679 329.356 310.653 330.134Z" fill="#1F1F1F"/>
<path d="M319.451 330.175C319.478 330.565 319.425 330.955 319.294 331.323C319.164 331.691 318.959 332.028 318.693 332.314C318.427 332.599 318.105 332.827 317.747 332.982C317.389 333.138 317.003 333.218 316.613 333.218C316.222 333.218 315.836 333.138 315.478 332.982C315.12 332.827 314.798 332.599 314.532 332.314C314.266 332.028 314.061 331.691 313.931 331.323C313.801 330.955 313.747 330.565 313.774 330.175C313.747 329.786 313.801 329.395 313.931 329.027C314.061 328.659 314.266 328.322 314.532 328.037C314.798 327.751 315.12 327.524 315.478 327.368C315.836 327.213 316.222 327.132 316.613 327.132C317.003 327.132 317.389 327.213 317.747 327.368C318.105 327.524 318.427 327.751 318.693 328.037C318.959 328.322 319.164 328.659 319.294 329.027C319.425 329.395 319.478 329.786 319.451 330.175Z" fill="#1F1F1F"/>
<path d="M328.248 330.216C328.21 330.77 328.011 331.3 327.676 331.742C327.341 332.184 326.884 332.519 326.361 332.704C325.838 332.89 325.273 332.918 324.734 332.787C324.195 332.655 323.706 332.368 323.328 331.962C322.95 331.557 322.699 331.049 322.605 330.502C322.512 329.955 322.58 329.393 322.802 328.885C323.024 328.376 323.39 327.944 323.854 327.641C324.319 327.337 324.862 327.177 325.417 327.178C326.195 327.207 326.929 327.543 327.46 328.112C327.991 328.682 328.274 329.438 328.248 330.216Z" fill="#1F1F1F"/>
<path d="M337.046 330.258C337.007 330.814 336.807 331.347 336.468 331.79C336.13 332.234 335.669 332.568 335.142 332.751C334.615 332.934 334.046 332.958 333.506 332.821C332.965 332.683 332.477 332.39 332.102 331.977C331.727 331.565 331.481 331.051 331.396 330.5C331.31 329.949 331.389 329.385 331.621 328.878C331.854 328.371 332.23 327.944 332.703 327.649C333.177 327.354 333.726 327.205 334.283 327.22C335.049 327.266 335.766 327.61 336.282 328.177C336.798 328.745 337.072 329.492 337.046 330.258Z" fill="#1F1F1F"/>
<g opacity="0.2">
<path d="M266.639 329.941C266.599 330.496 266.396 331.027 266.056 331.469C265.716 331.91 265.254 332.242 264.727 332.423C264.2 332.604 263.632 332.626 263.093 332.487C262.553 332.349 262.066 332.054 261.693 331.641C261.319 331.228 261.075 330.715 260.99 330.164C260.905 329.614 260.984 329.05 261.217 328.544C261.45 328.038 261.826 327.611 262.299 327.317C262.772 327.023 263.32 326.874 263.877 326.888C264.647 326.931 265.368 327.276 265.885 327.847C266.402 328.418 266.673 329.171 266.639 329.941Z" fill="white"/>
<path d="M275.436 329.982C275.463 330.372 275.41 330.762 275.28 331.13C275.149 331.498 274.945 331.835 274.678 332.121C274.412 332.406 274.09 332.634 273.732 332.789C273.374 332.945 272.988 333.025 272.598 333.025C272.208 333.025 271.821 332.945 271.464 332.789C271.106 332.634 270.784 332.406 270.517 332.121C270.251 331.835 270.047 331.498 269.916 331.13C269.786 330.762 269.733 330.372 269.76 329.982C269.733 329.593 269.786 329.202 269.916 328.834C270.047 328.466 270.251 328.129 270.517 327.844C270.784 327.558 271.106 327.331 271.464 327.175C271.821 327.019 272.208 326.939 272.598 326.939C272.988 326.939 273.374 327.019 273.732 327.175C274.09 327.331 274.412 327.558 274.678 327.844C274.945 328.129 275.149 328.466 275.28 328.834C275.41 329.202 275.463 329.593 275.436 329.982Z" fill="white"/>
<path d="M284.248 330.023C284.207 330.579 284.004 331.11 283.664 331.551C283.324 331.993 282.862 332.324 282.335 332.506C281.809 332.687 281.24 332.709 280.701 332.57C280.162 332.431 279.675 332.137 279.301 331.724C278.927 331.311 278.683 330.797 278.598 330.247C278.514 329.696 278.593 329.133 278.825 328.627C279.058 328.121 279.434 327.694 279.907 327.4C280.38 327.105 280.929 326.956 281.486 326.971C282.254 327.018 282.973 327.363 283.489 327.934C284.006 328.504 284.278 329.254 284.248 330.023Z" fill="white"/>
<path d="M293.045 330.065C293.004 330.621 292.801 331.152 292.461 331.593C292.121 332.034 291.659 332.366 291.132 332.547C290.606 332.728 290.037 332.751 289.498 332.612C288.958 332.473 288.472 332.179 288.098 331.766C287.724 331.353 287.48 330.839 287.395 330.289C287.311 329.738 287.39 329.175 287.622 328.669C287.855 328.163 288.231 327.736 288.704 327.442C289.177 327.147 289.726 326.998 290.283 327.013C291.051 327.059 291.77 327.405 292.286 327.975C292.803 328.546 293.075 329.296 293.045 330.065Z" fill="white"/>
<path d="M301.841 330.092C301.803 330.649 301.603 331.182 301.264 331.625C300.926 332.068 300.464 332.402 299.938 332.585C299.411 332.768 298.842 332.793 298.302 332.655C297.761 332.518 297.273 332.224 296.898 331.812C296.523 331.399 296.277 330.885 296.192 330.334C296.106 329.783 296.185 329.219 296.417 328.712C296.649 328.206 297.026 327.778 297.499 327.483C297.972 327.188 298.522 327.039 299.079 327.054C299.845 327.101 300.562 327.444 301.078 328.012C301.594 328.579 301.868 329.326 301.841 330.092Z" fill="white"/>
<path d="M310.653 330.134C310.615 330.687 310.417 331.218 310.081 331.66C309.746 332.102 309.289 332.436 308.766 332.622C308.243 332.807 307.678 332.836 307.139 332.704C306.6 332.572 306.112 332.286 305.733 331.88C305.355 331.474 305.104 330.967 305.01 330.42C304.917 329.873 304.985 329.311 305.207 328.802C305.429 328.294 305.795 327.862 306.26 327.558C306.724 327.255 307.267 327.094 307.822 327.096C308.6 327.124 309.335 327.46 309.865 328.03C310.396 328.599 310.679 329.356 310.653 330.134Z" fill="white"/>
<path d="M319.451 330.175C319.478 330.565 319.425 330.955 319.294 331.323C319.164 331.691 318.959 332.028 318.693 332.314C318.427 332.599 318.105 332.827 317.747 332.982C317.389 333.138 317.003 333.218 316.613 333.218C316.222 333.218 315.836 333.138 315.478 332.982C315.12 332.827 314.798 332.599 314.532 332.314C314.266 332.028 314.061 331.691 313.931 331.323C313.801 330.955 313.747 330.565 313.774 330.175C313.747 329.786 313.801 329.395 313.931 329.027C314.061 328.659 314.266 328.322 314.532 328.037C314.798 327.751 315.12 327.524 315.478 327.368C315.836 327.213 316.222 327.132 316.613 327.132C317.003 327.132 317.389 327.213 317.747 327.368C318.105 327.524 318.427 327.751 318.693 328.037C318.959 328.322 319.164 328.659 319.294 329.027C319.425 329.395 319.478 329.786 319.451 330.175Z" fill="white"/>
<path d="M328.248 330.217C328.21 330.77 328.011 331.301 327.676 331.743C327.341 332.185 326.884 332.519 326.361 332.704C325.838 332.89 325.273 332.919 324.734 332.787C324.195 332.655 323.706 332.369 323.328 331.963C322.95 331.557 322.699 331.049 322.605 330.503C322.512 329.956 322.58 329.394 322.802 328.885C323.024 328.377 323.39 327.944 323.854 327.641C324.319 327.338 324.862 327.177 325.417 327.178C326.195 327.207 326.929 327.543 327.46 328.113C327.991 328.682 328.274 329.439 328.248 330.217Z" fill="white"/>
<path d="M337.045 330.258C337.007 330.815 336.806 331.347 336.467 331.791C336.129 332.234 335.668 332.568 335.141 332.751C334.614 332.934 334.045 332.958 333.505 332.821C332.964 332.683 332.476 332.39 332.101 331.978C331.726 331.565 331.48 331.051 331.395 330.5C331.309 329.949 331.388 329.385 331.62 328.878C331.853 328.371 332.229 327.944 332.702 327.649C333.176 327.354 333.725 327.205 334.283 327.22C335.048 327.266 335.765 327.61 336.281 328.177C336.797 328.745 337.071 329.492 337.045 330.258Z" fill="white"/>
</g>
<path d="M324.547 130.889C325.506 130.467 326.32 129.772 326.887 128.89C327.454 128.008 327.75 126.98 327.737 125.931C327.773 125.25 327.669 124.568 327.433 123.928C327.197 123.288 326.833 122.703 326.363 122.208C325.894 121.713 325.328 121.319 324.701 121.049C324.074 120.78 323.399 120.641 322.717 120.641C322.034 120.641 321.359 120.78 320.732 121.049C320.105 121.319 319.54 121.713 319.07 122.208C318.601 122.703 318.237 123.288 318 123.928C317.764 124.568 317.661 125.25 317.697 125.931C317.676 126.99 317.969 128.031 318.539 128.924C319.109 129.816 319.931 130.519 320.901 130.945C313.167 132.105 313.512 140.502 313.512 140.502L331.797 140.584C331.797 140.584 332.225 132.036 324.547 130.889Z" fill="#1F1F1F"/>
<path opacity="0.1" d="M324.547 130.889C325.506 130.467 326.32 129.772 326.887 128.89C327.454 128.008 327.75 126.98 327.737 125.931C327.773 125.25 327.669 124.568 327.433 123.928C327.197 123.288 326.833 122.703 326.363 122.208C325.894 121.713 325.328 121.319 324.701 121.049C324.074 120.78 323.399 120.641 322.717 120.641C322.034 120.641 321.359 120.78 320.732 121.049C320.105 121.319 319.54 121.713 319.07 122.208C318.601 122.703 318.237 123.288 318 123.928C317.764 124.568 317.661 125.25 317.697 125.931C317.676 126.99 317.969 128.031 318.539 128.924C319.109 129.816 319.931 130.519 320.901 130.945C313.167 132.105 313.512 140.502 313.512 140.502L331.797 140.584C331.797 140.584 332.225 132.036 324.547 130.889Z" fill="#1F1F1F"/>
<path d="M354.26 146L289.089 145.704L289.054 153.493L354.225 153.789L354.26 146Z" fill="#1F1F1F"/>
<path opacity="0.2" d="M354.26 146L289.089 145.704L289.054 153.493L354.225 153.789L354.26 146Z" fill="white"/>
<path d="M114.667 186.366H114.018L112.14 186.504C111.124 186.565 110.113 186.699 109.116 186.905C108.47 186.996 107.829 187.12 107.196 187.278L105.055 187.872C101.412 188.989 97.9742 190.692 94.8769 192.912C90.7847 195.883 87.3676 199.686 84.8505 204.071C83.371 206.599 82.1936 209.293 81.3426 212.095C80.4483 215.142 79.9335 218.286 79.8096 221.459C79.7273 223.125 79.755 224.795 79.8925 226.458C79.8925 227.301 80.1273 228.143 80.2377 228.999C80.3307 229.863 80.4923 230.717 80.7211 231.554C81.963 237.096 84.4828 242.271 88.0795 246.666C91.6762 251.061 96.2503 254.555 101.437 256.869C105.191 258.489 109.214 259.393 113.3 259.534C117.52 259.767 121.745 259.161 125.73 257.753L126.945 257.297H127.111L127.249 257.38L144.664 266.219L144.153 266.661C142.288 260.888 140.493 255.295 138.753 249.922V249.715L138.905 249.563C143.13 245.308 146.266 240.097 148.047 234.372C149.661 229.137 150.132 223.618 149.429 218.186C148.803 213.358 147.25 208.697 144.857 204.458C142.794 200.817 140.133 197.549 136.985 194.791C134.388 192.608 131.514 190.778 128.437 189.349C126.108 188.345 123.683 187.582 121.2 187.071L118.438 186.615L116.435 186.463L115.22 186.38H114.806C114.943 186.365 115.082 186.365 115.22 186.38H116.449L118.451 186.463L121.214 186.863C123.728 187.337 126.186 188.073 128.547 189.059C131.677 190.471 134.603 192.297 137.248 194.487C140.453 197.232 143.171 200.501 145.285 204.154C147.746 208.439 149.346 213.163 149.995 218.061C150.757 223.577 150.319 229.193 148.71 234.524C146.917 240.368 143.732 245.69 139.43 250.033L139.513 249.674C141.253 255.046 143.062 260.639 144.94 266.398L145.202 267.241L144.415 266.84L127 258.015H127.304L126.061 258.471C121.999 259.9 117.697 260.52 113.397 260.294C109.223 260.135 105.115 259.198 101.285 257.532C93.9788 254.403 87.9001 248.965 83.9804 242.05C82.1766 238.857 80.8593 235.413 80.072 231.831C79.8564 230.971 79.695 230.1 79.5886 229.22C79.4782 228.35 79.2986 227.494 79.2572 226.638C78.8834 221.724 79.4028 216.783 80.7902 212.054C81.6624 209.213 82.8726 206.486 84.3947 203.933C86.9719 199.508 90.4602 195.681 94.6283 192.705C97.7766 190.479 101.272 188.79 104.972 187.706L107.141 187.153C107.779 187.005 108.424 186.89 109.074 186.808C110.082 186.622 111.102 186.511 112.126 186.477L114.018 186.408C114.233 186.379 114.45 186.365 114.667 186.366Z" fill="#F3935D"/>
<path d="M122.54 218.572H119.985L114.46 210.811V205.715C114.46 205.715 110.511 205.466 110.98 212.137C111.45 218.807 110.98 217.108 110.98 217.108C110.98 217.108 102.597 217.108 101.907 217.868C101.216 218.627 101.175 226.72 101.078 231.236C101.025 232.325 101.337 233.4 101.966 234.291C102.594 235.182 103.501 235.837 104.544 236.153C104.837 236.234 105.139 236.276 105.442 236.277C107.541 236.277 118.217 234.579 118.217 234.579H122.622L122.54 218.572Z" fill="#F3935D"/>
<path d="M129.845 217.205L128.27 234.661H123.906V217.564L129.845 217.205Z" fill="#F3935D"/>
<path d="M181.898 572.591V560.783L160.726 560.631L160.547 578.488L161.859 578.585C167.701 578.958 191.579 579.51 195.501 578.295C199.865 576.942 181.898 572.591 181.898 572.591Z" fill="#F3935D"/>
<path d="M195.999 577.19C195.999 577.383 188.072 577.549 178.307 577.549C168.543 577.549 160.616 577.383 160.616 577.19C160.616 576.997 168.543 576.831 178.307 576.831C188.072 576.831 195.999 576.997 195.999 577.19Z" fill="#1F1F1F"/>
<path d="M182.27 575.008C182.091 574.912 182.27 574.29 182.698 573.627C183.127 572.964 183.707 572.688 183.845 572.826C183.983 572.964 183.693 573.489 183.278 574.055C182.864 574.622 182.45 575.105 182.27 575.008Z" fill="#1F1F1F"/>
<path d="M183.624 575.782C183.431 575.782 183.527 575.008 183.942 574.276C184.356 573.544 184.908 573.102 185.06 573.213C185.212 573.323 184.964 573.945 184.577 574.594C184.19 575.243 183.804 575.851 183.624 575.782Z" fill="#1F1F1F"/>
<path d="M166.996 577.135C166.913 577.135 166.595 576.886 166.14 576.361C165.583 575.687 164.964 575.067 164.289 574.511C163.626 573.981 162.835 573.633 161.996 573.503C161.347 573.42 160.933 573.503 160.892 573.42C160.85 573.337 161.251 573.047 162.01 572.992C163.013 572.97 163.991 573.303 164.772 573.931C165.505 574.528 166.123 575.253 166.595 576.071C166.913 576.679 167.079 577.08 166.996 577.135Z" fill="#1F1F1F"/>
<path d="M182.339 572.785C182.436 572.95 182.077 573.365 181.469 573.586C180.861 573.807 180.323 573.724 180.295 573.586C180.268 573.448 180.696 573.157 181.221 572.964C181.745 572.771 182.229 572.619 182.339 572.785Z" fill="#1F1F1F"/>
<path d="M182.008 571.638C182.008 571.845 181.456 572.011 180.738 572.025C180.019 572.039 179.453 571.873 179.467 571.68C179.481 571.486 180.047 571.307 180.738 571.293C181.428 571.279 181.981 571.445 182.008 571.638Z" fill="#1F1F1F"/>
<path d="M234.033 572.591V560.783L212.861 560.631L212.682 578.309L213.994 578.406C219.835 578.778 243.728 579.51 247.636 578.295C252 576.942 234.033 572.591 234.033 572.591Z" fill="#F3935D"/>
<path d="M248.133 577.217C248.133 577.411 240.22 577.577 230.442 577.577C220.664 577.577 212.765 577.411 212.765 577.217C212.765 577.024 220.678 576.858 230.442 576.858C240.206 576.858 248.133 577.024 248.133 577.217Z" fill="#1F1F1F"/>
<path d="M234.406 575.008C234.24 574.912 234.406 574.29 234.834 573.627C235.262 572.964 235.842 572.688 235.98 572.826C236.119 572.964 235.829 573.489 235.414 574.055C235 574.622 234.586 575.105 234.406 575.008Z" fill="#1F1F1F"/>
<path d="M235.759 575.782C235.579 575.782 235.662 575.008 236.09 574.276C236.519 573.544 237.057 573.102 237.209 573.213C237.361 573.323 237.099 573.945 236.712 574.594C236.325 575.243 235.952 575.851 235.759 575.782Z" fill="#1F1F1F"/>
<path d="M219.131 577.135C219.048 577.135 218.744 576.886 218.274 576.361C217.718 575.687 217.098 575.067 216.424 574.511C215.76 573.981 214.97 573.633 214.131 573.503C213.496 573.42 213.068 573.503 213.026 573.42C212.985 573.337 213.385 573.047 214.145 572.992C215.147 572.97 216.125 573.303 216.907 573.931C217.643 574.524 218.262 575.25 218.73 576.071C219.048 576.679 219.213 577.08 219.131 577.135Z" fill="#1F1F1F"/>
<path d="M234.474 572.785C234.571 572.95 234.212 573.365 233.604 573.586C232.996 573.807 232.458 573.724 232.43 573.586C232.402 573.448 232.83 573.157 233.355 572.964C233.88 572.771 234.363 572.619 234.474 572.785Z" fill="#1F1F1F"/>
<path d="M234.17 571.638C234.17 571.845 233.618 572.011 232.9 572.025C232.181 572.039 231.629 571.873 231.643 571.68C231.657 571.486 232.209 571.307 232.9 571.293C233.59 571.279 234.17 571.445 234.17 571.638Z" fill="#1F1F1F"/>
<path d="M312.034 221.942C311.482 221.376 310.115 221.652 310.115 221.652C310.252 220.857 310.252 220.044 310.115 219.249C309.866 218.475 308.126 218.627 308.126 218.627C308.046 217.976 308.046 217.317 308.126 216.666C308.14 216.522 308.109 216.377 308.037 216.251C307.966 216.125 307.857 216.024 307.726 215.962C306.902 215.626 306.018 215.466 305.129 215.492C304.066 214.733 308.375 208.698 309.977 206.764C311.579 204.831 311.289 203.325 309.866 203.325C308.886 203.325 303.859 209.126 302.312 211.073C300.765 213.02 296.663 218.434 296.525 214.111C296.387 209.789 294.647 206.529 293.556 205.977C292.465 205.424 291.305 206.723 291.899 207.924C292.42 209.289 292.746 210.721 292.865 212.178C293.015 213.338 292.964 214.515 292.713 215.658C292.256 217.784 291.632 219.871 290.849 221.9H290.739C290.739 221.9 260.604 250.806 258.422 252.864C256.475 254.714 217.308 250.668 209.45 249.839C206.779 249.448 204.083 249.264 201.384 249.287C197.973 249.439 197.366 249.922 193.968 249.963C185.388 250.059 176.828 250.811 168.363 252.215C164.531 252.866 160.95 254.558 158.013 257.105C155.076 259.653 152.895 262.958 151.708 266.66C143.794 291.381 125.868 349.896 122.706 382.766C120.316 387.099 118.158 391.557 116.242 396.12C114.019 402.169 114.558 402.376 115.303 402.515C117.32 402.887 119.612 392.032 120.469 394.656C121.325 397.28 116.118 407.597 118.231 407.901C120.993 408.287 123.189 396.852 123.452 395.941C123.714 395.029 125.081 395.319 124.833 396.176C124.432 397.391 120.551 410.276 123.258 410.69C124.75 410.911 124.916 408.191 124.916 408.191C124.916 408.191 127.678 395.858 128.934 396.106C130.191 396.355 128.852 403.633 128.216 406.064C127.581 408.495 128.465 409.724 129.763 409.13C130.647 408.716 132.76 401.327 133.34 398.924C133.92 396.521 135.37 389.864 137.317 393.717C139.265 397.57 142.22 399.808 143.435 399.863C143.709 399.831 143.967 399.719 144.177 399.539C144.386 399.36 144.537 399.122 144.609 398.856C144.682 398.59 144.674 398.308 144.585 398.047C144.496 397.786 144.332 397.558 144.112 397.391C143.067 396.37 142.17 395.208 141.447 393.938C140.802 392.949 140.335 391.856 140.066 390.707C139.509 388.416 139.185 386.074 139.099 383.718L138.878 382.337C141.972 367.021 150.879 322.068 163.737 293.356L169.013 304.211L171.305 312.249L157.246 346.955L217.211 346.168L208.262 311.724L219.131 275.817C230.884 276.079 261.06 276.521 266.087 274.242C272.412 271.48 305.129 230.159 305.129 230.159C307.262 228.502 309.304 226.732 311.247 224.856C311.247 224.856 313.236 223.185 312.034 221.942Z" fill="#FFBE9D"/>
<path d="M154.608 321.309C156.348 315.37 165.284 286.009 165.284 286.009C165.284 286.009 169.676 309.942 168.516 312.829C167.448 315.3 166.188 317.683 164.745 319.955C154.608 335.381 155.934 343.102 155.934 343.102L217.184 341.237C217.322 332.675 212.254 312.76 211.204 309.583C210.154 306.407 213.648 296.008 213.648 296.008C213.648 296.008 220.554 288.978 220.305 285.36C220.174 282.109 219.772 278.876 219.104 275.692L256.392 277.073L255.218 251.8L201.661 246.442C199.796 251.703 182.934 249.121 182.934 249.121C164.731 249.729 163.599 253.071 156.031 258.954C148.463 264.837 135.937 315.329 135.937 315.329L154.608 321.309Z" fill="#F3935D"/>
<path d="M190.819 315.329C189.757 315.518 188.676 315.574 187.601 315.494C185.598 315.494 182.85 315.356 179.826 315.052C176.801 314.749 174.067 314.321 172.119 313.934C171.046 313.796 169.993 313.527 168.984 313.133C170.064 313.133 171.141 313.235 172.202 313.437C174.163 313.685 176.884 314.031 179.895 314.334C182.905 314.638 185.64 314.845 187.615 314.983C188.691 314.997 189.764 315.113 190.819 315.329Z" fill="#1F1F1F"/>
<path d="M195.018 310.122C193.956 310.642 192.833 311.027 191.675 311.268C186.166 312.716 180.481 313.39 174.785 313.271C173.607 313.309 172.428 313.198 171.277 312.939C172.441 312.793 173.613 312.733 174.785 312.76C176.953 312.691 179.937 312.539 183.223 312.152C186.51 311.766 189.438 311.213 191.51 310.771C192.66 310.464 193.833 310.247 195.018 310.122Z" fill="#1F1F1F"/>
<path d="M215.623 286.893C215.595 287.946 215.451 288.992 215.194 290.014C214.835 291.934 214.283 294.558 213.579 297.43C212.874 300.303 212.198 302.954 211.59 304.75C211.346 305.778 210.984 306.774 210.513 307.719C210.59 306.669 210.784 305.632 211.093 304.626C211.618 302.471 212.211 299.985 212.874 297.265C213.537 294.544 214.172 292.058 214.697 289.904C214.884 288.867 215.195 287.856 215.623 286.893Z" fill="#1F1F1F"/>
<path d="M155.257 317.787C152.062 317.293 148.909 316.559 145.824 315.591C142.673 314.854 139.58 313.885 136.571 312.691C139.765 313.192 142.917 313.926 146.004 314.887C149.156 315.621 152.249 316.59 155.257 317.787Z" fill="#1F1F1F"/>
<path d="M219.766 275.389C219.245 275.478 218.712 275.478 218.191 275.389C216.749 275.241 215.332 274.902 213.979 274.381C211.72 273.532 209.663 272.219 207.941 270.528C206.219 268.837 204.87 266.805 203.98 264.561C202.997 262.093 202.577 259.437 202.751 256.786C202.813 254.599 203.467 252.471 204.643 250.626C205.471 249.384 206.707 248.47 208.137 248.044C208.52 247.938 208.915 247.887 209.311 247.892C209.588 247.892 209.726 247.892 209.726 247.892C209.726 247.892 209.146 247.892 208.22 248.265C206.908 248.75 205.795 249.658 205.058 250.847C203.179 253.803 202.655 259.203 204.657 264.244C205.589 266.62 207.048 268.755 208.925 270.486C210.462 271.903 212.233 273.043 214.159 273.856C215.966 274.57 217.846 275.084 219.766 275.389Z" fill="#1F1F1F"/>
<path d="M251.959 276.576C251.614 272.341 251.503 268.09 251.628 263.843C251.52 259.599 251.649 255.353 252.014 251.124C252.36 255.354 252.471 259.6 252.346 263.843C252.462 268.091 252.333 272.343 251.959 276.576Z" fill="#1F1F1F"/>
<path d="M201.301 247.989C201.453 244.909 201.771 241.429 201.771 241.429C201.771 241.429 209.394 240.586 209.85 232.714C210.306 224.842 209.85 206.681 209.85 206.681L196.04 199.61L180.71 211.667L183.072 251.027L197.131 251.925C198.205 251.954 199.248 251.557 200.03 250.819C200.812 250.081 201.269 249.063 201.301 247.989Z" fill="#FFBE9D"/>
<path d="M202.669 226.486C202.669 226.486 202.669 226.637 202.545 226.817C202.442 226.947 202.309 227.051 202.158 227.118C202.006 227.185 201.84 227.215 201.675 227.204C200.791 227.204 199.935 226.182 199.631 224.994C199.486 224.418 199.486 223.816 199.631 223.24C199.659 222.989 199.75 222.749 199.894 222.541C200.039 222.334 200.233 222.166 200.459 222.052C200.645 221.976 200.854 221.976 201.039 222.052C201.177 222.121 201.289 222.232 201.357 222.37C201.454 222.605 201.357 222.757 201.357 222.743C201.357 222.729 201.357 222.605 201.219 222.467C201.147 222.368 201.041 222.299 200.921 222.274C200.801 222.248 200.676 222.268 200.57 222.329C200.4 222.431 200.26 222.575 200.161 222.746C200.062 222.918 200.008 223.111 200.004 223.309C199.887 223.823 199.887 224.356 200.004 224.87C200.28 225.947 201.026 226.817 201.689 226.9C201.818 226.917 201.95 226.908 202.076 226.873C202.202 226.837 202.319 226.776 202.42 226.693C202.586 226.582 202.641 226.472 202.669 226.486Z" fill="#EB996E"/>
<path d="M214.587 202.428C213.524 198.809 209.671 197.014 206.163 196.02C200.818 194.5 195.045 193.838 189.825 195.757C184.605 197.677 178.335 201.047 178.335 206.806C175.255 206.557 173.487 209.25 172.272 212.592C171.495 214.628 171.029 216.77 170.891 218.945C170.504 226.486 168.391 236.899 163.502 242.423C160.74 245.503 156.915 247.63 155.34 251.469C153.959 254.797 154.677 258.747 153.393 262.117C152.247 265.086 149.719 267.199 147.869 269.782C145.983 272.711 144.874 276.072 144.644 279.549C144.415 283.025 145.073 286.503 146.557 289.655C148.051 292.726 150.155 295.461 152.741 297.693C155.327 299.925 158.34 301.607 161.596 302.637C168.047 304.6 174.926 304.667 181.414 302.83C186.284 301.666 190.826 299.414 194.7 296.243C198.664 293.006 201.387 288.497 202.407 283.482C203.387 277.847 201.813 272.116 200.639 266.509C196.965 248.79 198.015 247.864 202.655 231.416C202.766 231.126 202.821 230.822 202.904 230.532C202.987 230.242 203.028 230.104 203.083 229.883C203.215 229.233 203.284 228.572 203.29 227.908C202.613 228.16 201.877 228.214 201.17 228.062C200.463 227.91 199.814 227.56 199.299 227.052C198.783 226.51 198.423 225.839 198.258 225.11C198.093 224.38 198.128 223.62 198.36 222.909C198.686 222.131 199.171 221.431 199.785 220.852C200.399 220.274 201.127 219.832 201.923 219.553C203.456 218.918 205.1 218.586 206.605 217.882C209.795 216.363 212.005 213.214 213.51 209.913C214.748 207.625 215.13 204.972 214.587 202.428Z" fill="#1F1F1F"/>
<path d="M203.221 226.858C203.513 227.29 203.754 227.753 203.939 228.239C204.354 229.11 204.906 230.339 205.514 231.761L205.624 232.024H205.334L203.953 232.148C203 232.148 202.199 232.327 201.26 232.314C201.178 232.295 201.102 232.256 201.04 232.201C200.977 232.145 200.929 232.075 200.901 231.996C200.86 231.87 200.86 231.735 200.901 231.609C200.933 231.423 200.974 231.239 201.025 231.057L201.274 230.076C201.399 229.422 201.593 228.783 201.854 228.17C201.828 228.837 201.731 229.499 201.564 230.145L201.371 231.126C201.301 231.457 201.177 231.968 201.371 231.927C202.061 231.927 203.042 231.775 203.953 231.72L205.334 231.595L205.155 231.899C204.561 230.518 204.064 229.22 203.774 228.322C203.519 227.864 203.333 227.371 203.221 226.858Z" fill="#F3935D"/>
<path d="M155.935 343.102L217.184 341.237L243.839 445.286L238.936 564.636H206.55L210.514 447.827L186.829 375.391L190.475 569.263L157.744 569.746L154.305 387.516C154.153 382.448 152.496 371.027 153.117 366L155.935 343.102Z" fill="#1F1F1F"/>
<path d="M194.976 376.869C193.973 376.932 192.967 376.871 191.979 376.689C190.128 376.468 187.601 376.081 184.825 375.529C182.049 374.977 179.563 374.341 177.768 373.83C176.808 373.619 175.88 373.285 175.006 372.836C175.006 372.629 179.508 373.706 185.032 374.825C190.557 375.943 195.003 376.661 194.976 376.869Z" fill="#666666"/>
<path d="M238.604 558.09C238.604 558.284 231.271 558.45 222.225 558.45C213.179 558.45 205.832 558.284 205.832 558.09C205.832 557.897 213.165 557.731 222.225 557.731C231.285 557.731 238.604 557.883 238.604 558.09Z" fill="#666666"/>
<path d="M190.185 564.222C190.185 564.429 183.058 564.581 174.275 564.581C165.491 564.581 158.379 564.429 158.379 564.222C158.379 564.015 165.505 563.863 174.275 563.863C183.045 563.863 190.185 564.029 190.185 564.222Z" fill="#666666"/>
<path d="M185.958 563.725C185.764 563.725 184.908 521.368 184.038 469.123C183.168 416.877 182.657 374.493 182.837 374.493C183.016 374.493 183.9 416.836 184.756 469.109C185.612 521.382 186.165 563.725 185.958 563.725Z" fill="#666666"/>
<path d="M234.254 558.09C234.239 557.902 234.239 557.712 234.254 557.524V555.867C234.254 554.375 234.364 552.235 234.447 549.514C234.641 543.99 234.917 535.966 235.262 526.133C236.008 506.356 237.057 479.094 238.204 449.001C238.204 448.711 238.204 448.435 238.204 448.186V448.283C230.953 419.281 224.393 392.958 219.629 373.913L214.104 351.388C213.469 348.75 212.986 346.692 212.64 345.256C212.475 344.579 212.364 344.055 212.268 343.654C212.214 343.474 212.181 343.289 212.171 343.102C212.243 343.276 212.298 343.456 212.337 343.64C212.447 344.027 212.585 344.552 212.779 345.215C213.151 346.596 213.69 348.695 214.381 351.319C215.762 356.65 217.709 364.329 220.14 373.789C224.946 392.82 231.575 419.073 238.922 448.117V448.214C238.922 448.462 238.922 448.752 238.922 449.029C237.693 479.122 236.574 506.37 235.759 526.147C235.331 535.993 234.972 543.962 234.723 549.514C234.585 552.276 234.475 554.375 234.406 555.867C234.406 556.571 234.323 557.124 234.309 557.524C234.311 557.714 234.293 557.904 234.254 558.09Z" fill="#666666"/>
<path d="M223.689 445.755C221.363 446.52 218.966 447.052 216.535 447.344C213.552 447.855 211.011 448.214 209.864 448.269V447.993C210.237 448.103 210.431 448.172 210.431 448.227C210.431 448.283 210.196 448.227 209.809 448.227H208.98L209.809 447.979C210.886 447.661 213.427 447.136 216.411 446.598C218.803 446.079 221.241 445.797 223.689 445.755Z" fill="#666666"/>
<path d="M223.122 449.719C220.968 449.818 218.81 449.721 216.673 449.429C214.516 449.385 212.367 449.149 210.251 448.725C214.567 448.373 218.912 448.708 223.122 449.719Z" fill="#666666"/>
<path opacity="0.2" d="M155.671 345.298C156.396 346.229 157.31 346.997 158.352 347.552C159.395 348.106 160.542 348.434 161.72 348.515C164.187 348.808 166.682 348.761 169.136 348.377C184.949 346.623 201.701 345.008 217.183 341.237C197.144 342.356 175.972 341.983 155.933 343.102L155.726 344.814" fill="#1F1F1F"/>
<g opacity="0.2">
<path d="M176.318 373.54L187.615 417.375L186.828 375.391L176.318 373.54Z" fill="#1F1F1F"/>
</g>
</svg>
