<svg width="73" height="72" viewBox="0 0 73 72" fill="none" xmlns="http://www.w3.org/2000/svg">
<path opacity="0.21" d="M45.3242 0C60.567 0.000210797 72.9236 12.3569 72.9238 27.5996V44.4004C72.9236 59.6431 60.567 71.9998 45.3242 72H28.5234C13.2807 71.9998 0.924039 59.6431 0.923828 44.4004V27.5996C0.924039 12.3569 13.2807 0.000210797 28.5234 0H45.3242Z" fill="#FEC53D"/>
<path d="M55.4174 31.8764L47.4161 38.7807L49.8538 49.1059C49.9883 49.6664 49.9537 50.2542 49.7543 50.795C49.5549 51.3358 49.1997 51.8054 48.7335 52.1445C48.2673 52.4836 47.7112 52.6768 47.1352 52.7C46.5592 52.7231 45.9894 52.575 45.4975 52.2744L36.5183 46.7482L27.5338 52.2744C27.042 52.5733 26.4728 52.7199 25.8978 52.696C25.3229 52.672 24.7679 52.4785 24.3027 52.1397C23.8375 51.8009 23.4829 51.3321 23.2837 50.7922C23.0844 50.2524 23.0493 49.6656 23.1828 49.1059L25.6295 38.7807L17.6282 31.8764C17.1931 31.5004 16.8784 31.0045 16.7235 30.4507C16.5685 29.8969 16.5802 29.3097 16.757 28.7625C16.9337 28.2152 17.2678 27.7322 17.7175 27.3737C18.1672 27.0152 18.7125 26.7971 19.2853 26.7467L29.7759 25.9004L33.8228 16.1068C34.0418 15.5731 34.4146 15.1165 34.8938 14.7952C35.373 14.4739 35.9369 14.3023 36.5139 14.3023C37.0908 14.3023 37.6547 14.4739 38.1339 14.7952C38.6131 15.1165 38.9859 15.5731 39.205 16.1068L43.2501 25.9004L53.7406 26.7467C54.3146 26.7953 54.8615 27.0121 55.3128 27.3701C55.7641 27.7281 56.0998 28.2113 56.2776 28.7592C56.4555 29.3071 56.4678 29.8953 56.3128 30.4502C56.1579 31.005 55.8427 31.5017 55.4067 31.8782L55.4174 31.8764Z" fill="#FEC53D"/>
</svg>
