<svg width="24" height="24" viewBox="0 0 24 24" fill="none" xmlns="http://www.w3.org/2000/svg">
<path d="M21.5 9C21.5004 8.93027 21.4909 8.86083 21.4719 8.79375L20.1266 4.0875C20.0361 3.77523 19.8471 3.50059 19.5878 3.30459C19.3284 3.10858 19.0126 3.00174 18.6875 3H4.8125C4.48741 3.00174 4.1716 3.10858 3.91223 3.30459C3.65287 3.50059 3.46386 3.77523 3.37344 4.0875L2.02906 8.79375C2.0097 8.86079 1.99991 8.93022 2 9V10.5C2 11.0822 2.13554 11.6563 2.3959 12.1771C2.65625 12.6978 3.03427 13.1507 3.5 13.5V20.25C3.5 20.4489 3.57902 20.6397 3.71967 20.7803C3.86032 20.921 4.05109 21 4.25 21H19.25C19.4489 21 19.6397 20.921 19.7803 20.7803C19.921 20.6397 20 20.4489 20 20.25V13.5C20.4657 13.1507 20.8437 12.6978 21.1041 12.1771C21.3645 11.6563 21.5 11.0822 21.5 10.5V9ZM4.8125 4.5H18.6875L19.7581 8.25H3.74469L4.8125 4.5ZM9.5 9.75H14V10.5C14 11.0967 13.7629 11.669 13.341 12.091C12.919 12.5129 12.3467 12.75 11.75 12.75C11.1533 12.75 10.581 12.5129 10.159 12.091C9.73705 11.669 9.5 11.0967 9.5 10.5V9.75ZM8 9.75V10.5C7.99987 10.8869 7.89996 11.2673 7.70993 11.6043C7.5199 11.9413 7.24617 12.2236 6.91518 12.424C6.58419 12.6244 6.20713 12.736 5.82041 12.7481C5.43369 12.7602 5.05038 12.6724 4.7075 12.4931C4.65533 12.4525 4.59794 12.4191 4.53688 12.3937C4.21913 12.1903 3.95764 11.9103 3.77646 11.5794C3.59527 11.2484 3.5002 10.8773 3.5 10.5V9.75H8ZM18.5 19.5H5V14.175C5.2469 14.2248 5.49813 14.2499 5.75 14.25C6.33217 14.25 6.90634 14.1145 7.42705 13.8541C7.94776 13.5937 8.4007 13.2157 8.75 12.75C9.0993 13.2157 9.55224 13.5937 10.073 13.8541C10.5937 14.1145 11.1678 14.25 11.75 14.25C12.3322 14.25 12.9063 14.1145 13.4271 13.8541C13.9478 13.5937 14.4007 13.2157 14.75 12.75C15.0993 13.2157 15.5522 13.5937 16.0729 13.8541C16.5937 14.1145 17.1678 14.25 17.75 14.25C18.0019 14.2499 18.2531 14.2248 18.5 14.175V19.5ZM18.9622 12.3937C18.9019 12.4191 18.8452 12.4522 18.7934 12.4922C18.4506 12.6716 18.0673 12.7596 17.6805 12.7477C17.2937 12.7357 16.9166 12.6242 16.5855 12.424C16.2544 12.2237 15.9805 11.9414 15.7904 11.6044C15.6002 11.2673 15.5002 10.887 15.5 10.5V9.75H20V10.5C19.9997 10.8774 19.9045 11.2486 19.7231 11.5795C19.5418 11.9104 19.2801 12.1904 18.9622 12.3937Z" fill="black"/>
</svg>
