<svg width="24" height="24" viewBox="0 0 24 24" fill="none" xmlns="http://www.w3.org/2000/svg">
<path d="M19 4.5H17.0603L15.7806 3.21938C15.7109 3.14975 15.6282 3.09454 15.5371 3.0569C15.4461 3.01926 15.3485 2.99992 15.25 3H9.25C9.15148 2.99992 9.05391 3.01926 8.96286 3.0569C8.87182 3.09454 8.78908 3.14975 8.71937 3.21938L7.43969 4.5H5.5C5.10218 4.5 4.72064 4.65804 4.43934 4.93934C4.15804 5.22064 4 5.60218 4 6V20.25C4 20.6478 4.15804 21.0294 4.43934 21.3107C4.72064 21.592 5.10218 21.75 5.5 21.75H19C19.3978 21.75 19.7794 21.592 20.0607 21.3107C20.342 21.0294 20.5 20.6478 20.5 20.25V6C20.5 5.60218 20.342 5.22064 20.0607 4.93934C19.7794 4.65804 19.3978 4.5 19 4.5ZM12.25 6.89813L10.6562 4.5H13.8531L12.25 6.89813ZM15.3663 4.92938L16 5.56031V10.5L13.2409 8.115L15.3663 4.92938ZM8.5 5.56031L9.13375 4.9275L11.2591 8.115L8.5 10.5V5.56031ZM5.5 6H7V10.5C6.99824 10.7854 7.07873 11.0654 7.23185 11.3063C7.38497 11.5472 7.60424 11.7389 7.86344 11.8584C8.06277 11.9514 8.28003 11.9998 8.5 12C8.84993 11.9994 9.18846 11.8756 9.45625 11.6503C9.46012 11.6477 9.46359 11.6445 9.46656 11.6409L11.5 9.88875V20.25H5.5V6ZM19 20.25H13V9.88875L15.0297 11.6419C15.0327 11.6455 15.0361 11.6486 15.04 11.6512C15.3089 11.877 15.6489 12.0005 16 12C16.2214 11.9994 16.4401 11.9501 16.6403 11.8556C16.8984 11.7357 17.1166 11.5442 17.269 11.3039C17.4214 11.0636 17.5015 10.7846 17.5 10.5V6H19V20.25Z" fill="black"/>
</svg>
