<svg width="24" height="24" viewBox="0 0 24 24" fill="none" xmlns="http://www.w3.org/2000/svg">
<path d="M19.2322 5.40935L19.2163 5.39341L15.0069 1.42966C14.7251 1.15299 14.3456 0.998605 13.9507 1.00001C13.5558 1.00141 13.1773 1.15849 12.8975 1.43716L8.72189 5.58466L8.57752 5.43841C8.13235 5.03282 7.54814 4.81415 6.94606 4.82776C6.34398 4.84137 5.77025 5.08622 5.34386 5.51152C4.91748 5.93682 4.67117 6.50993 4.65602 7.11197C4.64088 7.71401 4.85806 8.29878 5.26252 8.74498L5.39939 8.88373L3.52064 10.7531C3.38132 10.8924 3.2708 11.0578 3.1954 11.2398C3.11999 11.4218 3.08118 11.6169 3.08118 11.8139C3.08118 12.0109 3.11999 12.206 3.1954 12.388C3.2708 12.57 3.38132 12.7354 3.52064 12.8747L4.70939 14.0634C4.99055 14.3436 5.37133 14.501 5.7683 14.501C6.16527 14.501 6.54604 14.3436 6.82721 14.0634L8.69564 12.2212L9.83096 13.3781L3.76627 19.5065C3.53166 19.72 3.34284 19.9789 3.21123 20.2676C3.07963 20.5562 3.00798 20.8685 3.00063 21.1856C2.99328 21.5028 3.05038 21.8181 3.16847 22.1125C3.28656 22.4069 3.46318 22.6743 3.68764 22.8984C3.9121 23.1225 4.17972 23.2988 4.4743 23.4165C4.76887 23.5341 5.08427 23.5908 5.40138 23.583C5.7185 23.5752 6.03073 23.5031 6.31916 23.3711C6.60759 23.2391 6.86623 23.0499 7.07939 22.815L15.3922 14.4384C15.6727 14.1572 15.8303 13.7762 15.8303 13.379C15.8303 12.9818 15.6727 12.6009 15.3922 12.3197L12.0463 8.93998L13.2585 7.7531L13.2678 7.76154L16.7685 11.0719C17.0505 11.3493 17.4307 11.504 17.8263 11.5024C18.2219 11.5008 18.6008 11.3431 18.8806 11.0634L19.2285 10.7156C19.5767 10.3674 19.8529 9.95397 20.0414 9.49899C20.2299 9.04401 20.3269 8.55636 20.3269 8.06388C20.3269 7.57141 20.2299 7.08376 20.0414 6.62878C19.8529 6.17379 19.5767 5.76039 19.2285 5.41216L19.2322 5.40935ZM5.77064 13.0031L4.58096 11.8153L6.45596 9.95154L7.64564 11.1572L5.77064 13.0031ZM6.01627 21.7565C5.94083 21.8459 5.84763 21.9186 5.74258 21.9701C5.63754 22.0215 5.52294 22.0506 5.40607 22.0554C5.2892 22.0602 5.17262 22.0406 5.06371 21.998C4.9548 21.9553 4.85595 21.8905 4.77344 21.8075C4.69093 21.7246 4.62655 21.6255 4.58441 21.5164C4.54226 21.4073 4.52326 21.2906 4.5286 21.1738C4.53395 21.0569 4.56354 20.9425 4.61548 20.8377C4.66742 20.7329 4.74059 20.64 4.83033 20.565L10.8931 14.4365C11.1728 14.1555 11.3298 13.7751 11.3298 13.3786C11.3298 12.9821 11.1728 12.6017 10.8931 12.3206L6.32752 7.68841C6.19023 7.52714 6.11861 7.32014 6.12689 7.1085C6.13517 6.89687 6.22273 6.69609 6.3722 6.54603C6.52166 6.39598 6.7221 6.30762 6.9337 6.29851C7.14529 6.2894 7.35258 6.3602 7.51439 6.49685L14.331 13.3781L6.01627 21.7565ZM18.1747 9.65435L17.8231 10.0031C17.8186 9.99764 17.8136 9.99262 17.8081 9.9881L14.3019 6.67498C14.0195 6.40302 13.6421 6.25203 13.2501 6.25413C12.858 6.25623 12.4823 6.41126 12.2028 6.68623L10.9906 7.87404L9.77752 6.64966L13.956 2.5031L13.9719 2.5181L18.1794 6.47998C18.598 6.90261 18.8323 7.47384 18.8309 8.06871C18.8295 8.66359 18.5925 9.2337 18.1719 9.65435H18.1747Z" fill="#1F1F1F"/>
</svg>
