<svg width="24" height="24" viewBox="0 0 24 24" fill="none" xmlns="http://www.w3.org/2000/svg">
<path d="M21 9.325V9.25C20.9985 7.85807 20.4449 6.52358 19.4607 5.53933C18.4764 4.55509 17.1419 4.00149 15.75 4H15C14.6022 4 14.2206 4.15804 13.9393 4.43934C13.658 4.72064 13.5 5.10218 13.5 5.5V16.75H12V7C12 6.80109 11.921 6.61032 11.7803 6.46967C11.6397 6.32902 11.4489 6.25 11.25 6.25H1.5C1.10218 6.25 0.720644 6.40804 0.43934 6.68934C0.158035 6.97064 0 7.35217 0 7.75L0 17.5C0.000684974 18.1091 0.186745 18.7035 0.533445 19.2043C0.880144 19.7051 1.37106 20.0884 1.94092 20.3035C2.51078 20.5185 3.13259 20.555 3.72368 20.408C4.31477 20.2611 4.84713 19.9377 5.25 19.4809C5.6101 19.89 6.07485 20.1933 6.59431 20.3582C7.11378 20.523 7.66834 20.5433 8.19845 20.4167C8.72856 20.2902 9.21417 20.0216 9.60315 19.6399C9.99213 19.2581 10.2698 18.7776 10.4062 18.25H18.0938C18.2751 18.9584 18.7089 19.5761 19.3137 19.9871C19.9185 20.3981 20.6525 20.5741 21.3779 20.482C22.1033 20.3899 22.7701 20.036 23.2529 19.4869C23.7358 18.9378 24.0014 18.2312 24 17.5V13C23.9989 12.1358 23.7 11.2985 23.1535 10.629C22.607 9.95959 21.8465 9.49904 21 9.325ZM15 5.5H15.75C16.7446 5.5 17.6984 5.89509 18.4016 6.59835C19.1049 7.30161 19.5 8.25544 19.5 9.25V10C19.5 10.1989 19.579 10.3897 19.7197 10.5303C19.8603 10.671 20.0511 10.75 20.25 10.75C20.8467 10.75 21.419 10.9871 21.841 11.409C22.2629 11.831 22.5 12.4033 22.5 13V14.9041C22.0447 14.6388 21.527 14.4994 21 14.5C20.3349 14.5006 19.6888 14.7218 19.1629 15.129C18.637 15.5362 18.261 16.1063 18.0938 16.75H15V5.5ZM10.5 7.75V16.75H10.4062C10.2698 16.2224 9.99213 15.7419 9.60315 15.3601C9.21417 14.9784 8.72856 14.7098 8.19845 14.5833C7.66834 14.4567 7.11378 14.477 6.59431 14.6418C6.07485 14.8067 5.6101 15.11 5.25 15.5191C4.79305 14.9979 4.16925 14.6516 3.48524 14.5394C2.80123 14.4272 2.09949 14.5561 1.5 14.9041V7.75H10.5ZM3 19C2.70333 19 2.41332 18.912 2.16664 18.7472C1.91997 18.5824 1.72771 18.3481 1.61418 18.074C1.50065 17.7999 1.47094 17.4983 1.52882 17.2074C1.5867 16.9164 1.72956 16.6491 1.93934 16.4393C2.14912 16.2296 2.41639 16.0867 2.70736 16.0288C2.99834 15.9709 3.29994 16.0006 3.57403 16.1142C3.84811 16.2277 4.08238 16.42 4.2472 16.6666C4.41203 16.9133 4.5 17.2033 4.5 17.5C4.5 17.8978 4.34196 18.2794 4.06066 18.5607C3.77936 18.842 3.39782 19 3 19ZM7.5 19C7.20333 19 6.91332 18.912 6.66665 18.7472C6.41997 18.5824 6.22771 18.3481 6.11418 18.074C6.00065 17.7999 5.97094 17.4983 6.02882 17.2074C6.0867 16.9164 6.22956 16.6491 6.43934 16.4393C6.64912 16.2296 6.91639 16.0867 7.20736 16.0288C7.49834 15.9709 7.79994 16.0006 8.07403 16.1142C8.34811 16.2277 8.58238 16.42 8.7472 16.6666C8.91203 16.9133 9 17.2033 9 17.5C9 17.8978 8.84196 18.2794 8.56066 18.5607C8.27936 18.842 7.89782 19 7.5 19ZM21 19C20.7033 19 20.4133 18.912 20.1666 18.7472C19.92 18.5824 19.7277 18.3481 19.6142 18.074C19.5006 17.7999 19.4709 17.4983 19.5288 17.2074C19.5867 16.9164 19.7296 16.6491 19.9393 16.4393C20.1491 16.2296 20.4164 16.0867 20.7074 16.0288C20.9983 15.9709 21.2999 16.0006 21.574 16.1142C21.8481 16.2277 22.0824 16.42 22.2472 16.6666C22.412 16.9133 22.5 17.2033 22.5 17.5C22.5 17.8978 22.342 18.2794 22.0607 18.5607C21.7794 18.842 21.3978 19 21 19Z" fill="#1F1F1F"/>
</svg>
