<svg width="65" height="64" viewBox="0 0 65 64" fill="none" xmlns="http://www.w3.org/2000/svg">
<path opacity="0.21" d="M39.9668 0C53.5161 7.21562e-05 64.4999 10.9839 64.5 24.5332V39.4668C64.4999 53.0161 53.5161 63.9999 39.9668 64H25.0332C11.4839 63.9999 0.500072 53.0161 0.5 39.4668V24.5332C0.500072 10.9839 11.4839 7.21562e-05 25.0332 0H39.9668Z" fill="#FEC53D"/>
<path d="M51.4284 30.3437H47.3667C47.0507 26.9306 45.5509 23.7354 43.1272 21.3116C40.7034 18.8879 37.5082 17.3881 34.0951 17.0721V13.0104C34.0951 12.6568 33.9546 12.3177 33.7045 12.0676C33.4545 11.8176 33.1153 11.6771 32.7617 11.6771C32.4081 11.6771 32.069 11.8176 31.8189 12.0676C31.5689 12.3177 31.4284 12.6568 31.4284 13.0104V17.0721C28.0152 17.3881 24.8201 18.8879 22.3963 21.3116C19.9725 23.7354 18.4727 26.9306 18.1567 30.3437H14.0951C13.7414 30.3437 13.4023 30.4842 13.1522 30.7343C12.9022 30.9843 12.7617 31.3235 12.7617 31.6771C12.7617 32.0307 12.9022 32.3698 13.1522 32.6199C13.4023 32.8699 13.7414 33.0104 14.0951 33.0104H18.1567C18.4727 36.4236 19.9725 39.6187 22.3963 42.0425C24.8201 44.4663 28.0152 45.9661 31.4284 46.2821V50.3438C31.4284 50.6974 31.5689 51.0365 31.8189 51.2866C32.069 51.5366 32.4081 51.6771 32.7617 51.6771C33.1153 51.6771 33.4545 51.5366 33.7045 51.2866C33.9546 51.0365 34.0951 50.6974 34.0951 50.3438V46.2821C37.5082 45.9661 40.7034 44.4663 43.1272 42.0425C45.5509 39.6187 47.0507 36.4236 47.3667 33.0104H51.4284C51.782 33.0104 52.1211 32.8699 52.3712 32.6199C52.6212 32.3698 52.7617 32.0307 52.7617 31.6771C52.7617 31.3235 52.6212 30.9843 52.3712 30.7343C52.1211 30.4842 51.782 30.3437 51.4284 30.3437ZM32.7617 43.6771C30.3883 43.6771 28.0683 42.9733 26.0949 41.6547C24.1215 40.3361 22.5834 38.462 21.6752 36.2693C20.7669 34.0766 20.5293 31.6638 20.9923 29.336C21.4553 27.0082 22.5982 24.87 24.2764 23.1918C25.9547 21.5136 28.0929 20.3707 30.4206 19.9077C32.7484 19.4446 35.1612 19.6823 37.3539 20.5905C39.5466 21.4988 41.4208 23.0368 42.7394 25.0102C44.0579 26.9836 44.7617 29.3037 44.7617 31.6771C44.7582 34.8586 43.4928 37.9088 41.2431 40.1585C38.9934 42.4081 35.9432 43.6736 32.7617 43.6771Z" fill="#FEC53D"/>
<path d="M38.3075 35.3809C39.04 34.2846 39.431 32.9956 39.431 31.6771C39.431 29.909 38.7286 28.2133 37.4784 26.963C36.2281 25.7128 34.5324 25.0104 32.7643 25.0104C31.4458 25.0104 30.1569 25.4014 29.0605 26.134C27.9642 26.8665 27.1097 27.9077 26.6051 29.1259C26.1005 30.344 25.9685 31.6845 26.2258 32.9777C26.483 34.2709 27.1179 35.4588 28.0503 36.3911C28.9826 37.3235 30.1705 37.9584 31.4637 38.2157C32.7569 38.4729 34.0974 38.3409 35.3155 37.8363C36.5337 37.3317 37.5749 36.4772 38.3075 35.3809Z" fill="#FEC53D"/>
</svg>
