<svg width="24" height="24" viewBox="0 0 24 24" fill="none" xmlns="http://www.w3.org/2000/svg">
<path d="M22.7742 19.4991H22.0242V13.74L22.1639 13.935C22.2191 14.02 22.2909 14.0929 22.3751 14.1493C22.4592 14.2057 22.5539 14.2445 22.6535 14.2633C22.753 14.2821 22.8553 14.2805 22.9543 14.2587C23.0532 14.2369 23.1467 14.1953 23.2291 14.1363C23.3115 14.0774 23.3811 14.0023 23.4337 13.9158C23.4863 13.8292 23.5208 13.7328 23.5351 13.6325C23.5495 13.5323 23.5434 13.4301 23.5172 13.3322C23.4909 13.2344 23.4452 13.1428 23.3826 13.0632L19.6326 7.81316C19.5812 7.74204 19.5178 7.68048 19.4451 7.63129L13.1179 3.25879L13.1085 3.25222C12.862 3.08777 12.5724 3 12.276 3C11.9797 3 11.69 3.08777 11.4435 3.25222L11.4342 3.25879L5.0976 7.63222C5.02494 7.68142 4.96148 7.74297 4.9101 7.8141L1.1601 13.0641C1.09754 13.1438 1.05177 13.2353 1.02555 13.3332C0.999331 13.431 0.993212 13.5332 1.00756 13.6335C1.02191 13.7338 1.05642 13.8301 1.10903 13.9167C1.16163 14.0033 1.23123 14.0783 1.31363 14.1372C1.39602 14.1962 1.48951 14.2378 1.58844 14.2597C1.68737 14.2815 1.7897 14.283 1.88925 14.2642C1.9888 14.2454 2.0835 14.2066 2.16765 14.1502C2.2518 14.0938 2.32364 14.0209 2.37885 13.936L2.52416 13.74V19.4991H1.77416C1.57525 19.4991 1.38449 19.5781 1.24383 19.7188C1.10318 19.8594 1.02416 20.0502 1.02416 20.2491C1.02416 20.448 1.10318 20.6388 1.24383 20.7794C1.38449 20.9201 1.57525 20.9991 1.77416 20.9991H22.7742C22.9731 20.9991 23.1638 20.9201 23.3045 20.7794C23.4451 20.6388 23.5242 20.448 23.5242 20.2491C23.5242 20.0502 23.4451 19.8594 23.3045 19.7188C23.1638 19.5781 22.9731 19.4991 22.7742 19.4991ZM4.02416 11.64L6.05854 8.79191L12.2742 4.4991L18.4898 8.79097L20.5242 11.64V19.4991H18.2742V12.7491C18.2742 12.5502 18.1951 12.3594 18.0545 12.2188C17.9138 12.0781 17.7231 11.9991 17.5242 11.9991H7.02416C6.82525 11.9991 6.63449 12.0781 6.49383 12.2188C6.35318 12.3594 6.27416 12.5502 6.27416 12.7491V19.4991H4.02416V11.64ZM12.2742 15.5775L9.36791 13.4991H15.1804L12.2742 15.5775ZM16.7742 14.2069V18.7922L13.5642 16.4991L16.7742 14.2069ZM10.9842 16.4991L7.77416 18.7922V14.2069L10.9842 16.4991ZM12.2742 17.4207L15.1804 19.4991H9.36791L12.2742 17.4207ZM10.0242 9.7491C10.0242 9.55019 10.1032 9.35942 10.2438 9.21877C10.3845 9.07812 10.5753 8.9991 10.7742 8.9991H13.7742C13.9731 8.9991 14.1638 9.07812 14.3045 9.21877C14.4451 9.35942 14.5242 9.55019 14.5242 9.7491C14.5242 9.94801 14.4451 10.1388 14.3045 10.2794C14.1638 10.4201 13.9731 10.4991 13.7742 10.4991H10.7742C10.5753 10.4991 10.3845 10.4201 10.2438 10.2794C10.1032 10.1388 10.0242 9.94801 10.0242 9.7491Z" fill="black"/>
</svg>
