<svg width="24" height="24" viewBox="0 0 24 24" fill="none" xmlns="http://www.w3.org/2000/svg">
<path d="M22.75 19.5H22V6.75C22 6.55109 21.921 6.36032 21.7803 6.21967C21.6397 6.07902 21.4489 6 21.25 6H17.5V3.75C17.5 3.55109 17.421 3.36032 17.2803 3.21967C17.1397 3.07902 16.9489 3 16.75 3H7.75C7.55109 3 7.36032 3.07902 7.21967 3.21967C7.07902 3.36032 7 3.55109 7 3.75V9H3.25C3.05109 9 2.86032 9.07902 2.71967 9.21967C2.57902 9.36032 2.5 9.55109 2.5 9.75V19.5H1.75C1.55109 19.5 1.36032 19.579 1.21967 19.7197C1.07902 19.8603 1 20.0511 1 20.25C1 20.4489 1.07902 20.6397 1.21967 20.7803C1.36032 20.921 1.55109 21 1.75 21H22.75C22.9489 21 23.1397 20.921 23.2803 20.7803C23.421 20.6397 23.5 20.4489 23.5 20.25C23.5 20.0511 23.421 19.8603 23.2803 19.7197C23.1397 19.579 22.9489 19.5 22.75 19.5ZM4 10.5H7.75C7.94891 10.5 8.13968 10.421 8.28033 10.2803C8.42098 10.1397 8.5 9.94891 8.5 9.75V4.5H16V6.75C16 6.94891 16.079 7.13968 16.2197 7.28033C16.3603 7.42098 16.5511 7.5 16.75 7.5H20.5V19.5H14.5V15.75C14.5 15.5511 14.421 15.3603 14.2803 15.2197C14.1397 15.079 13.9489 15 13.75 15H10.75C10.5511 15 10.3603 15.079 10.2197 15.2197C10.079 15.3603 10 15.5511 10 15.75V19.5H4V10.5ZM13 19.5H11.5V16.5H13V19.5ZM10.75 6.75C10.75 6.55109 10.829 6.36032 10.9697 6.21967C11.1103 6.07902 11.3011 6 11.5 6H13C13.1989 6 13.3897 6.07902 13.5303 6.21967C13.671 6.36032 13.75 6.55109 13.75 6.75C13.75 6.94891 13.671 7.13968 13.5303 7.28033C13.3897 7.42098 13.1989 7.5 13 7.5H11.5C11.3011 7.5 11.1103 7.42098 10.9697 7.28033C10.829 7.13968 10.75 6.94891 10.75 6.75ZM10.75 9.75C10.75 9.55109 10.829 9.36032 10.9697 9.21967C11.1103 9.07902 11.3011 9 11.5 9H13C13.1989 9 13.3897 9.07902 13.5303 9.21967C13.671 9.36032 13.75 9.55109 13.75 9.75C13.75 9.94891 13.671 10.1397 13.5303 10.2803C13.3897 10.421 13.1989 10.5 13 10.5H11.5C11.3011 10.5 11.1103 10.421 10.9697 10.2803C10.829 10.1397 10.75 9.94891 10.75 9.75ZM16 9.75C16 9.55109 16.079 9.36032 16.2197 9.21967C16.3603 9.07902 16.5511 9 16.75 9H18.25C18.4489 9 18.6397 9.07902 18.7803 9.21967C18.921 9.36032 19 9.55109 19 9.75C19 9.94891 18.921 10.1397 18.7803 10.2803C18.6397 10.421 18.4489 10.5 18.25 10.5H16.75C16.5511 10.5 16.3603 10.421 16.2197 10.2803C16.079 10.1397 16 9.94891 16 9.75ZM8.5 12.75C8.5 12.9489 8.42098 13.1397 8.28033 13.2803C8.13968 13.421 7.94891 13.5 7.75 13.5H6.25C6.05109 13.5 5.86032 13.421 5.71967 13.2803C5.57902 13.1397 5.5 12.9489 5.5 12.75C5.5 12.5511 5.57902 12.3603 5.71967 12.2197C5.86032 12.079 6.05109 12 6.25 12H7.75C7.94891 12 8.13968 12.079 8.28033 12.2197C8.42098 12.3603 8.5 12.5511 8.5 12.75ZM8.5 15.75C8.5 15.9489 8.42098 16.1397 8.28033 16.2803C8.13968 16.421 7.94891 16.5 7.75 16.5H6.25C6.05109 16.5 5.86032 16.421 5.71967 16.2803C5.57902 16.1397 5.5 15.9489 5.5 15.75C5.5 15.5511 5.57902 15.3603 5.71967 15.2197C5.86032 15.079 6.05109 15 6.25 15H7.75C7.94891 15 8.13968 15.079 8.28033 15.2197C8.42098 15.3603 8.5 15.5511 8.5 15.75ZM10.75 12.75C10.75 12.5511 10.829 12.3603 10.9697 12.2197C11.1103 12.079 11.3011 12 11.5 12H13C13.1989 12 13.3897 12.079 13.5303 12.2197C13.671 12.3603 13.75 12.5511 13.75 12.75C13.75 12.9489 13.671 13.1397 13.5303 13.2803C13.3897 13.421 13.1989 13.5 13 13.5H11.5C11.3011 13.5 11.1103 13.421 10.9697 13.2803C10.829 13.1397 10.75 12.9489 10.75 12.75ZM16 12.75C16 12.5511 16.079 12.3603 16.2197 12.2197C16.3603 12.079 16.5511 12 16.75 12H18.25C18.4489 12 18.6397 12.079 18.7803 12.2197C18.921 12.3603 19 12.5511 19 12.75C19 12.9489 18.921 13.1397 18.7803 13.2803C18.6397 13.421 18.4489 13.5 18.25 13.5H16.75C16.5511 13.5 16.3603 13.421 16.2197 13.2803C16.079 13.1397 16 12.9489 16 12.75ZM16 15.75C16 15.5511 16.079 15.3603 16.2197 15.2197C16.3603 15.079 16.5511 15 16.75 15H18.25C18.4489 15 18.6397 15.079 18.7803 15.2197C18.921 15.3603 19 15.5511 19 15.75C19 15.9489 18.921 16.1397 18.7803 16.2803C18.6397 16.421 18.4489 16.5 18.25 16.5H16.75C16.5511 16.5 16.3603 16.421 16.2197 16.2803C16.079 16.1397 16 15.9489 16 15.75Z" fill="#277F60"/>
</svg>
