<svg width="24" height="24" viewBox="0 0 24 24" fill="none" xmlns="http://www.w3.org/2000/svg">
<path d="M23.3191 9.51156L19.0497 4.53719C18.9089 4.36899 18.7329 4.23371 18.5342 4.1409C18.3354 4.04808 18.1187 3.99999 17.8994 4H2.5C2.10218 4 1.72064 4.15804 1.43934 4.43934C1.15804 4.72064 1 5.10218 1 5.5V16C1 16.3978 1.15804 16.7794 1.43934 17.0607C1.72064 17.342 2.10218 17.5 2.5 17.5H4.09375C4.25898 18.1453 4.63428 18.7173 5.16048 19.1257C5.68669 19.5342 6.33387 19.7559 7 19.7559C7.66613 19.7559 8.31331 19.5342 8.83952 19.1257C9.36572 18.7173 9.74102 18.1453 9.90625 17.5H14.5938C14.759 18.1453 15.1343 18.7173 15.6605 19.1257C16.1867 19.5342 16.8339 19.7559 17.5 19.7559C18.1661 19.7559 18.8133 19.5342 19.3395 19.1257C19.8657 18.7173 20.241 18.1453 20.4062 17.5H22C22.3978 17.5 22.7794 17.342 23.0607 17.0607C23.342 16.7794 23.5 16.3978 23.5 16V10C23.5 9.8208 23.4358 9.64753 23.3191 9.51156ZM21.1178 9.25H16V5.5H17.8994L21.1178 9.25ZM9.25 9.25V5.5H14.5V9.25H9.25ZM7.75 5.5V9.25H2.5V5.5H7.75ZM7 18.25C6.70333 18.25 6.41332 18.162 6.16665 17.9972C5.91997 17.8324 5.72771 17.5981 5.61418 17.324C5.50065 17.0499 5.47094 16.7483 5.52882 16.4574C5.5867 16.1664 5.72956 15.8991 5.93934 15.6893C6.14912 15.4796 6.41639 15.3367 6.70736 15.2788C6.99834 15.2209 7.29994 15.2506 7.57403 15.3642C7.84811 15.4777 8.08238 15.67 8.2472 15.9166C8.41203 16.1633 8.5 16.4533 8.5 16.75C8.5 17.1478 8.34196 17.5294 8.06066 17.8107C7.77936 18.092 7.39782 18.25 7 18.25ZM17.5 18.25C17.2033 18.25 16.9133 18.162 16.6666 17.9972C16.42 17.8324 16.2277 17.5981 16.1142 17.324C16.0006 17.0499 15.9709 16.7483 16.0288 16.4574C16.0867 16.1664 16.2296 15.8991 16.4393 15.6893C16.6491 15.4796 16.9164 15.3367 17.2074 15.2788C17.4983 15.2209 17.7999 15.2506 18.074 15.3642C18.3481 15.4777 18.5824 15.67 18.7472 15.9166C18.912 16.1633 19 16.4533 19 16.75C19 17.1478 18.842 17.5294 18.5607 17.8107C18.2794 18.092 17.8978 18.25 17.5 18.25ZM20.4062 16C20.241 15.3547 19.8657 14.7827 19.3395 14.3743C18.8133 13.9658 18.1661 13.7441 17.5 13.7441C16.8339 13.7441 16.1867 13.9658 15.6605 14.3743C15.1343 14.7827 14.759 15.3547 14.5938 16H9.90625C9.74102 15.3547 9.36572 14.7827 8.83952 14.3743C8.31331 13.9658 7.66613 13.7441 7 13.7441C6.33387 13.7441 5.68669 13.9658 5.16048 14.3743C4.63428 14.7827 4.25898 15.3547 4.09375 16H2.5V10.75H22V16H20.4062Z" fill="#1F1F1F"/>
</svg>
