<svg width="80" height="80" viewBox="0 0 80 80" fill="none" xmlns="http://www.w3.org/2000/svg">
<rect width="80" height="80" rx="40" fill="#C473FF" fill-opacity="0.2"/>
<path d="M51.461 35.7373C51.4622 33.7604 50.9637 31.8153 50.012 30.0826C49.0602 28.35 47.686 26.886 46.017 25.8265C44.348 24.7671 42.4383 24.1467 40.4654 24.0228C38.4924 23.899 36.5201 24.2758 34.7318 25.1182C32.9434 25.9606 31.3969 27.2413 30.2359 28.8413C29.075 30.4414 28.3372 32.3089 28.0912 34.2703C27.8452 36.2318 28.0988 38.2237 28.8286 40.0609C29.5584 41.8981 30.7407 43.5211 32.2656 44.7791V54.9326C32.2655 55.1145 32.3119 55.2934 32.4004 55.4523C32.4889 55.6111 32.6165 55.7448 32.7712 55.8404C32.9259 55.9361 33.1025 55.9905 33.2842 55.9987C33.4659 56.0069 33.6466 55.9684 33.8093 55.8871L39.7305 52.9331L45.6531 55.8937C45.8016 55.9648 45.9644 56.0008 46.129 55.999C46.4118 55.999 46.683 55.8867 46.883 55.6867C47.083 55.4867 47.1954 55.2154 47.1954 54.9326V44.7791C48.5296 43.6802 49.6041 42.2995 50.3416 40.7362C51.0791 39.1729 51.4614 37.4658 51.461 35.7373ZM30.1328 35.7373C30.1328 33.839 30.6957 31.9834 31.7503 30.4051C32.8049 28.8267 34.3039 27.5966 36.0576 26.8702C37.8114 26.1437 39.7411 25.9537 41.6029 26.324C43.4647 26.6943 45.1748 27.6084 46.5171 28.9507C47.8593 30.2929 48.7734 32.0031 49.1438 33.8648C49.5141 35.7266 49.324 37.6564 48.5976 39.4101C47.8712 41.1639 46.641 42.6628 45.0627 43.7174C43.4844 44.772 41.6287 45.3349 39.7305 45.3349C37.1859 45.3321 34.7463 44.32 32.947 42.5207C31.1477 40.7214 30.1356 38.2818 30.1328 35.7373ZM32.2656 35.7373C32.2656 34.2608 32.7034 32.8176 33.5237 31.59C34.3439 30.3624 35.5098 29.4056 36.8738 28.8406C38.2378 28.2756 39.7388 28.1278 41.1868 28.4158C42.6349 28.7039 43.965 29.4148 45.009 30.4588C46.0529 31.5028 46.7639 32.8329 47.0519 34.2809C47.34 35.729 47.1921 37.2299 46.6271 38.5939C46.0621 39.958 45.1053 41.1238 43.8778 41.9441C42.6502 42.7643 41.2069 43.2021 39.7305 43.2021C37.7513 43.2 35.8539 42.4128 34.4544 41.0134C33.0549 39.6139 32.2678 37.7164 32.2656 35.7373Z" fill="#9810FA"/>
</svg>
