<svg width="81" height="80" viewBox="0 0 81 80" fill="none" xmlns="http://www.w3.org/2000/svg">
<rect x="0.5" width="80" height="80" rx="40" fill="#8280FF" fill-opacity="0.2"/>
<path d="M55.1927 32.8576C56.8989 36.4262 57.2228 40.5003 56.1019 44.2936C54.9809 48.0869 52.4946 51.3306 49.1227 53.3986C45.7509 55.4665 41.7325 56.2122 37.8432 55.4916C33.9539 54.7711 30.4693 52.6354 28.062 49.4968C25.6548 46.3581 24.4954 42.4391 24.8078 38.4959C25.1202 34.5528 26.8821 30.8651 29.7535 28.1446C32.6248 25.4241 36.4022 23.8637 40.3564 23.7644C44.3107 23.6652 48.1615 25.0342 51.1658 27.6073L54.6501 24.1214C54.8808 23.8907 55.1937 23.7611 55.52 23.7611C55.8463 23.7611 56.1592 23.8907 56.39 24.1214C56.6207 24.3521 56.7503 24.665 56.7503 24.9913C56.7503 25.3176 56.6207 25.6305 56.39 25.8613L46.8515 35.4013L41.0555 41.1973L37.3744 44.8783C38.3261 45.5078 39.4342 45.86 40.5746 45.8955C41.7151 45.931 42.8429 45.6485 43.8319 45.0795C44.8209 44.5105 45.632 43.6775 46.1745 42.6737C46.7171 41.67 46.9695 40.535 46.9037 39.3959C46.8854 39.0698 46.9973 38.7498 47.2149 38.5062C47.4326 38.2626 47.738 38.1155 48.0641 38.0972C48.3902 38.0788 48.7103 38.1908 48.9538 38.4084C49.1974 38.626 49.3445 38.9315 49.3629 39.2576C49.4621 40.9987 49.03 42.7288 48.124 44.2189C47.2179 45.709 45.8806 46.8887 44.2891 47.6017C42.6976 48.3148 40.9271 48.5276 39.212 48.212C37.4969 47.8964 35.9181 47.0672 34.6847 45.8343C33.1508 44.2946 32.2561 42.2317 32.1803 40.0596C32.1046 37.8875 32.8534 35.7672 34.2763 34.1244C35.6992 32.4816 37.691 31.4379 39.8516 31.2029C42.0123 30.968 44.1818 31.5591 45.9247 32.8576L49.4182 29.3579C46.8558 27.2304 43.5976 26.1246 40.2696 26.253C36.9415 26.3814 33.7782 27.7348 31.3873 30.0533C28.9963 32.3719 27.5462 35.492 27.3156 38.8146C27.0849 42.1371 28.09 45.4277 30.1376 48.0544C32.1853 50.681 35.1313 52.4586 38.4097 53.0455C41.6881 53.6325 45.0677 52.9875 47.8996 51.2345C50.7314 49.4815 52.8157 46.744 53.7522 43.5478C54.6887 40.3517 54.4113 36.9222 52.9733 33.9181C52.8326 33.6238 52.8147 33.2857 52.9233 32.9781C53.032 32.6706 53.2584 32.4188 53.5527 32.2782C53.847 32.1375 54.1851 32.1196 54.4927 32.2282C54.8002 32.3369 55.052 32.5633 55.1927 32.8576Z" fill="#8280FF"/>
</svg>
