<svg width="24" height="24" viewBox="0 0 24 24" fill="none" xmlns="http://www.w3.org/2000/svg">
<path d="M8.25 5.75V2.75C8.25 2.55109 8.32902 2.36032 8.46967 2.21967C8.61032 2.07902 8.80109 2 9 2C9.19892 2 9.38968 2.07902 9.53033 2.21967C9.67099 2.36032 9.75 2.55109 9.75 2.75V5.75C9.75 5.94891 9.67099 6.13968 9.53033 6.28033C9.38968 6.42098 9.19892 6.5 9 6.5C8.80109 6.5 8.61032 6.42098 8.46967 6.28033C8.32902 6.13968 8.25 5.94891 8.25 5.75ZM12 6.5C12.1989 6.5 12.3897 6.42098 12.5303 6.28033C12.671 6.13968 12.75 5.94891 12.75 5.75V2.75C12.75 2.55109 12.671 2.36032 12.5303 2.21967C12.3897 2.07902 12.1989 2 12 2C11.8011 2 11.6103 2.07902 11.4697 2.21967C11.329 2.36032 11.25 2.55109 11.25 2.75V5.75C11.25 5.94891 11.329 6.13968 11.4697 6.28033C11.6103 6.42098 11.8011 6.5 12 6.5ZM15 6.5C15.1989 6.5 15.3897 6.42098 15.5303 6.28033C15.671 6.13968 15.75 5.94891 15.75 5.75V2.75C15.75 2.55109 15.671 2.36032 15.5303 2.21967C15.3897 2.07902 15.1989 2 15 2C14.8011 2 14.6103 2.07902 14.4697 2.21967C14.329 2.36032 14.25 2.55109 14.25 2.75V5.75C14.25 5.94891 14.329 6.13968 14.4697 6.28033C14.6103 6.42098 14.8011 6.5 15 6.5ZM23.7 10.85L21 12.875V18.5C21 19.2956 20.6839 20.0587 20.1213 20.6213C19.5587 21.1839 18.7957 21.5 18 21.5H6C5.20435 21.5 4.44129 21.1839 3.87868 20.6213C3.31607 20.0587 3 19.2956 3 18.5V12.875L0.300003 10.85C0.140873 10.7307 0.0356714 10.553 0.00754094 10.3561C-0.0205895 10.1592 0.0306556 9.95913 0.150003 9.8C0.26935 9.64087 0.447024 9.53567 0.643937 9.50754C0.84085 9.47941 1.04087 9.53065 1.2 9.65L3 11V8.75C3 8.55109 3.07902 8.36032 3.21967 8.21967C3.36033 8.07902 3.55109 8 3.75 8H20.25C20.4489 8 20.6397 8.07902 20.7803 8.21967C20.921 8.36032 21 8.55109 21 8.75V11L22.8 9.65C22.9591 9.53065 23.1592 9.47941 23.3561 9.50754C23.553 9.53567 23.7307 9.64087 23.85 9.8C23.9693 9.95913 24.0206 10.1592 23.9925 10.3561C23.9643 10.553 23.8591 10.7307 23.7 10.85ZM19.5 9.5H4.5V18.5C4.5 18.8978 4.65804 19.2794 4.93934 19.5607C5.22065 19.842 5.60218 20 6 20H18C18.3978 20 18.7794 19.842 19.0607 19.5607C19.342 19.2794 19.5 18.8978 19.5 18.5V9.5Z" fill="#277F60"/>
</svg>
