<svg width="717" height="455" viewBox="0 0 717 455" fill="none" xmlns="http://www.w3.org/2000/svg">
<path d="M290.338 269.866C290.338 269.866 272.473 251.164 262.719 251.164C252.965 251.164 239.165 265.791 235.1 267.415C231.035 269.039 219.667 258.477 209.923 260.918C200.178 263.359 190.424 277.159 187.993 277.976C185.562 278.793 170.925 273.055 164.429 276.352C157.933 279.649 148.297 283.527 148.297 283.527H321.215L316.294 273.104C316.294 273.104 314.669 261.726 303.301 259.324C291.933 256.922 290.338 269.866 290.338 269.866Z" fill="white" stroke="#263238" stroke-linecap="round" stroke-linejoin="round"/>
<path d="M160.375 19.7013C160.375 19.7013 142.501 1 132.756 1C123.012 1 109.193 15.6362 105.128 17.2701C101.063 18.904 89.6943 8.33288 79.9499 10.764C70.2055 13.1952 60.471 27.0145 58.0202 27.8216C55.5693 28.6287 40.9626 22.9002 34.4565 26.1975C27.9505 29.4949 18.3242 33.3828 18.3242 33.3828H191.242L186.321 22.9494C186.321 22.9494 184.687 11.581 173.319 9.16951C161.95 6.75803 160.375 19.7013 160.375 19.7013Z" fill="white" stroke="#263238" stroke-linecap="round" stroke-linejoin="round"/>
<path d="M685.135 86.3173C685.135 86.3173 667.27 67.616 657.516 67.616C647.762 67.616 633.962 82.2522 629.897 83.8369C625.832 85.4216 614.464 74.8996 604.719 77.3406C594.975 79.7817 585.221 93.5812 582.79 94.3982C580.358 95.2151 565.722 89.4768 559.226 92.7741C552.73 96.0715 543.094 99.9495 543.094 99.9495H716.002L711.081 89.526C711.081 89.526 709.456 78.1477 698.088 75.7461C686.72 73.3445 685.135 86.3173 685.135 86.3173Z" fill="white" stroke="#263238" stroke-linecap="round" stroke-linejoin="round"/>
<path d="M221.667 97.981C221.265 97.9823 220.867 97.9043 220.496 97.7515C220.125 97.5988 219.787 97.3742 219.503 97.0908C219.218 96.8073 218.993 96.4705 218.839 96.0996C218.685 95.7288 218.605 95.3312 218.605 94.9297V75.067C218.604 74.6654 218.682 74.2676 218.835 73.8963C218.988 73.5249 219.212 73.1874 219.496 72.903C219.779 72.6186 220.116 72.393 220.487 72.2391C220.858 72.0851 221.255 72.0059 221.657 72.0059C222.469 72.0059 223.247 72.3284 223.821 72.9024C224.395 73.4765 224.718 74.2551 224.718 75.067V94.9297C224.718 95.7389 224.396 96.515 223.824 97.0873C223.252 97.6595 222.476 97.981 221.667 97.981Z" fill="#263238" stroke="#263238" stroke-linecap="round" stroke-linejoin="round"/>
<path d="M221.657 129.045C220.847 129.045 220.071 128.723 219.499 128.151C218.927 127.579 218.605 126.803 218.605 125.993V106.131C218.605 105.729 218.685 105.331 218.838 104.959C218.992 104.588 219.218 104.25 219.502 103.966C219.786 103.682 220.124 103.456 220.495 103.303C220.867 103.149 221.265 103.07 221.667 103.07C222.068 103.07 222.466 103.149 222.837 103.303C223.207 103.457 223.544 103.682 223.828 103.967C224.111 104.251 224.336 104.589 224.488 104.96C224.641 105.331 224.719 105.729 224.718 106.131V125.993C224.718 126.395 224.639 126.793 224.485 127.163C224.331 127.534 224.105 127.871 223.821 128.155C223.536 128.438 223.199 128.663 222.827 128.815C222.456 128.968 222.058 129.046 221.657 129.045Z" fill="#263238" stroke="#263238" stroke-linecap="round" stroke-linejoin="round"/>
<path d="M221.659 171.822C221.257 171.823 220.859 171.745 220.488 171.592C220.117 171.439 219.779 171.215 219.495 170.931C219.21 170.648 218.985 170.311 218.831 169.94C218.677 169.569 218.598 169.172 218.598 168.77V148.908C218.598 148.098 218.919 147.322 219.491 146.75C220.064 146.178 220.84 145.856 221.649 145.856C222.458 145.856 223.234 146.178 223.806 146.75C224.379 147.322 224.7 148.098 224.7 148.908V168.77C224.7 169.578 224.38 170.352 223.81 170.924C223.24 171.496 222.466 171.819 221.659 171.822Z" fill="#263238" stroke="#263238" stroke-linecap="round" stroke-linejoin="round"/>
<path d="M208.842 401.257H62.9028C61.1604 401.256 59.4353 400.911 57.826 400.243C56.2168 399.575 54.7548 398.597 53.5237 397.364C52.2926 396.131 51.3163 394.667 50.6507 393.057C49.9852 391.447 49.6432 389.721 49.6445 387.979V56.9956C49.6445 55.2503 49.9891 53.5223 50.6584 51.9105C51.3278 50.2987 52.3088 48.8349 53.5452 47.6031C54.7815 46.3714 56.2489 45.3958 57.8632 44.7324C59.4774 44.069 61.2067 43.7309 62.952 43.7373H208.891C212.408 43.7399 215.78 45.139 218.267 47.6269C220.753 50.1149 222.149 53.4882 222.149 57.0054V387.979C222.15 389.725 221.807 391.455 221.138 393.069C220.47 394.682 219.489 396.148 218.253 397.381C217.016 398.615 215.549 399.592 213.934 400.257C212.319 400.922 210.588 401.262 208.842 401.257Z" fill="#263238" stroke="#263238" stroke-linecap="round" stroke-linejoin="round"/>
<path d="M209.216 67.3108H62.5781V377.683H209.216V67.3108Z" fill="white" stroke="#263238" stroke-linecap="round" stroke-linejoin="round"/>
<path d="M209.196 86.8389L62.5586 86.8094L62.598 67.301L209.236 67.3207L209.196 86.8389Z" fill="#92E3A9" stroke="#263238" stroke-linecap="round" stroke-linejoin="round"/>
<path d="M194.974 80.4116H161.263C160.166 80.4116 159.115 79.976 158.34 79.2007C157.564 78.4255 157.129 77.374 157.129 76.2776C157.129 75.7352 157.236 75.1981 157.444 74.6971C157.652 74.1961 157.956 73.741 158.34 73.3579C158.724 72.9748 159.18 72.6712 159.682 72.4646C160.183 72.2579 160.72 72.1522 161.263 72.1535H194.974C195.516 72.1522 196.053 72.2579 196.554 72.4647C197.055 72.6715 197.51 72.9753 197.894 73.3585C198.277 73.7417 198.58 74.1969 198.787 74.6978C198.994 75.1988 199.1 75.7356 199.099 76.2776C199.1 76.82 198.994 77.3573 198.787 77.8588C198.581 78.3603 198.277 78.8161 197.894 79.2001C197.511 79.5842 197.056 79.8888 196.555 80.0967C196.054 80.3046 195.517 80.4116 194.974 80.4116Z" fill="white" stroke="#263238" stroke-linecap="round" stroke-linejoin="round"/>
<path d="M145.777 80.4116H73.9249C73.3825 80.4116 72.8454 80.3046 72.3444 80.0967C71.8434 79.8888 71.3883 79.5842 71.0052 79.2001C70.6221 78.8161 70.3186 78.3603 70.1119 77.8588C69.9052 77.3573 69.7995 76.82 69.8008 76.2776C69.7995 75.7356 69.9053 75.1988 70.1121 74.6978C70.3189 74.1969 70.6226 73.7417 71.0058 73.3585C71.389 72.9753 71.8442 72.6715 72.3451 72.4647C72.8461 72.2579 73.383 72.1522 73.9249 72.1535H145.777C146.319 72.1522 146.856 72.2579 147.357 72.4647C147.858 72.6715 148.313 72.9753 148.696 73.3585C149.08 73.7417 149.383 74.1969 149.59 74.6978C149.797 75.1988 149.903 75.7356 149.901 76.2776C149.903 76.82 149.797 77.3573 149.59 77.8588C149.384 78.3603 149.08 78.8161 148.697 79.2001C148.314 79.5842 147.859 79.8888 147.358 80.0967C146.857 80.3046 146.32 80.4116 145.777 80.4116Z" fill="white" stroke="#263238" stroke-linecap="round" stroke-linejoin="round"/>
<path d="M201.096 118.552H135.523V240.908H201.096V118.552Z" fill="white" stroke="#263238" stroke-linecap="round" stroke-linejoin="round"/>
<path d="M135.523 240.908L155.288 162.579L170.77 178.406L187.936 140.364L200.397 155.177L201.086 240.908H135.523Z" fill="white" stroke="#263238" stroke-linecap="round" stroke-linejoin="round"/>
<path d="M159.858 136.657C160.69 132.179 157.733 127.874 153.254 127.042C148.776 126.21 144.47 129.167 143.639 133.645C142.807 138.124 145.764 142.429 150.242 143.261C154.721 144.093 159.026 141.136 159.858 136.657Z" fill="white" stroke="#263238" stroke-linecap="round" stroke-linejoin="round"/>
<path d="M69.7148 108.021H200.693" stroke="#263238" stroke-linecap="round" stroke-linejoin="round"/>
<path d="M85.4419 108.08V102.902C85.4261 102.001 85.7685 101.13 86.394 100.48C87.0195 99.8308 87.8771 99.4558 88.7786 99.4377H108.759C109.205 99.4467 109.645 99.5434 110.054 99.7224C110.462 99.9014 110.832 100.159 111.141 100.481C111.45 100.803 111.692 101.182 111.854 101.598C112.017 102.013 112.095 102.456 112.086 102.902V107.824" stroke="#263238" stroke-linecap="round" stroke-linejoin="round"/>
<path d="M114.333 108.08V102.902C114.324 102.456 114.402 102.013 114.565 101.598C114.727 101.182 114.969 100.803 115.278 100.481C115.587 100.159 115.957 99.9014 116.365 99.7224C116.774 99.5434 117.214 99.4467 117.66 99.4377H137.64C138.542 99.4558 139.4 99.8308 140.025 100.48C140.651 101.13 140.993 102.001 140.977 102.902V107.824" stroke="#263238" stroke-linecap="round" stroke-linejoin="round"/>
<path d="M143.211 108.08V102.902C143.196 102.002 143.537 101.133 144.16 100.484C144.783 99.8345 145.639 99.4584 146.538 99.4377H166.529C166.975 99.4467 167.415 99.5434 167.823 99.7224C168.232 99.9014 168.601 100.159 168.91 100.481C169.219 100.803 169.462 101.182 169.624 101.598C169.786 102.013 169.865 102.456 169.856 102.902V107.824" stroke="#263238" stroke-linecap="round" stroke-linejoin="round"/>
<path d="M172.098 108.08V102.902C172.089 102.456 172.168 102.013 172.33 101.598C172.493 101.182 172.735 100.803 173.044 100.481C173.353 100.159 173.722 99.9014 174.131 99.7224C174.539 99.5434 174.979 99.4467 175.425 99.4377H195.406C196.308 99.4558 197.165 99.8308 197.791 100.48C198.416 101.13 198.759 102.001 198.743 102.902V107.824" stroke="#263238" stroke-linecap="round" stroke-linejoin="round"/>
<path d="M71.8594 120.6H128.514" stroke="#263238" stroke-linecap="round" stroke-linejoin="round"/>
<path d="M71.8594 130.147H128.514" stroke="#263238" stroke-linecap="round" stroke-linejoin="round"/>
<path d="M71.8594 139.695H128.514" stroke="#263238" stroke-linecap="round" stroke-linejoin="round"/>
<path d="M71.8594 149.242H128.514" stroke="#263238" stroke-linecap="round" stroke-linejoin="round"/>
<path d="M71.8594 158.79H128.514" stroke="#263238" stroke-linecap="round" stroke-linejoin="round"/>
<path d="M71.8594 168.337H128.514" stroke="#263238" stroke-linecap="round" stroke-linejoin="round"/>
<path d="M142.551 255.849H199.206" stroke="#263238" stroke-linecap="round" stroke-linejoin="round"/>
<path d="M142.551 265.397H199.206" stroke="#263238" stroke-linecap="round" stroke-linejoin="round"/>
<path d="M142.551 274.944H199.206" stroke="#263238" stroke-linecap="round" stroke-linejoin="round"/>
<path d="M142.551 284.492H199.206" stroke="#263238" stroke-linecap="round" stroke-linejoin="round"/>
<path d="M142.551 294.039H199.206" stroke="#263238" stroke-linecap="round" stroke-linejoin="round"/>
<path d="M142.551 303.587H199.206" stroke="#263238" stroke-linecap="round" stroke-linejoin="round"/>
<path d="M68.5234 255.849H125.179" stroke="#263238" stroke-linecap="round" stroke-linejoin="round"/>
<path d="M68.5234 265.397H125.179" stroke="#263238" stroke-linecap="round" stroke-linejoin="round"/>
<path d="M68.5234 274.944H125.179" stroke="#263238" stroke-linecap="round" stroke-linejoin="round"/>
<path d="M68.5234 284.492H125.179" stroke="#263238" stroke-linecap="round" stroke-linejoin="round"/>
<path d="M68.5234 294.039H125.179" stroke="#263238" stroke-linecap="round" stroke-linejoin="round"/>
<path d="M68.5234 303.587H125.179" stroke="#263238" stroke-linecap="round" stroke-linejoin="round"/>
<path d="M1 400.942H709.031" stroke="#263238" stroke-linecap="round" stroke-linejoin="round"/>
<path d="M532.946 83.3278C542.633 60.6939 532.137 34.4927 509.503 24.8058C486.869 15.1189 460.668 25.6145 450.981 48.2484C441.294 70.8824 451.79 97.0836 474.424 106.771C497.058 116.457 523.259 105.962 532.946 83.3278Z" fill="#263238" stroke="#263238" stroke-linecap="round" stroke-linejoin="round"/>
<path d="M517.219 91.035C531.161 77.0934 531.161 54.4896 517.219 40.548C503.277 26.6063 480.673 26.6063 466.732 40.5479C452.79 54.4896 452.79 77.0934 466.732 91.0351C480.673 104.977 503.277 104.977 517.219 91.035Z" fill="white" stroke="#263238" stroke-linecap="round" stroke-linejoin="round"/>
<path d="M508.135 81.9523C517.06 73.0269 517.06 58.556 508.135 49.6306C499.21 40.7052 484.739 40.7051 475.813 49.6306C466.888 58.556 466.888 73.0269 475.813 81.9523C484.739 90.8777 499.21 90.8777 508.135 81.9523Z" fill="#263238" stroke="#263238" stroke-linecap="round" stroke-linejoin="round"/>
<path d="M501.105 74.9229C506.148 69.8797 506.148 61.7032 501.105 56.6601C496.062 51.617 487.885 51.617 482.842 56.6601C477.799 61.7032 477.799 69.8798 482.842 74.9229C487.885 79.966 496.062 79.966 501.105 74.9229Z" fill="white" stroke="#1A004F" stroke-miterlimit="10"/>
<path d="M490.886 66.8778H430.934V64.7124H490.886C491.173 64.7124 491.449 64.8265 491.652 65.0295C491.855 65.2326 491.969 65.508 491.969 65.7951C491.969 66.0823 491.855 66.3576 491.652 66.5607C491.449 66.7637 491.173 66.8778 490.886 66.8778Z" fill="#263238"/>
<path d="M425.599 58.108L425.934 58.4918L432.203 64.7026H413.453L406.75 58.108H425.599Z" fill="#263238" stroke="#263238" stroke-linecap="round" stroke-linejoin="round"/>
<path d="M406.75 73.2264L413.453 66.8582H432.203C429.749 68.7194 427.517 70.8562 425.55 73.2264H406.75Z" fill="#263238" stroke="#263238" stroke-linecap="round" stroke-linejoin="round"/>
<path d="M3.76639 368.894C5.11708 369.141 6.49677 369.187 7.86099 369.032C7.86099 369.032 7.1031 367.191 7.0342 367.063C6.30583 365.793 4.14042 363.766 2.53605 364.11C2.27201 364.177 2.02473 364.298 1.80983 364.465C1.59493 364.633 1.4171 364.843 1.28759 365.082C1.15807 365.322 1.07968 365.586 1.05739 365.857C1.03509 366.129 1.06937 366.402 1.15806 366.659C1.40342 367.2 1.76407 367.68 2.21467 368.066C2.66528 368.452 3.19491 368.734 3.76639 368.894Z" fill="#263238"/>
<path d="M40.786 356.246C39.1423 356.197 37.3706 358.579 36.8489 359.957C36.8489 360.075 36.3469 362.024 36.3765 362.024C36.091 362.398 35.7957 362.801 35.4808 363.254C34.9001 364.081 34.2504 365.026 33.6205 366.108C32.9225 367.257 32.2947 368.447 31.7405 369.671C31.106 371.039 30.5986 372.463 30.2247 373.923C30.221 373.94 30.221 373.956 30.2247 373.973C30.2247 373.49 30.0672 372.152 30.0476 372.053C29.7523 370.616 28.3349 368.008 26.6912 367.831C26.4221 367.813 26.1523 367.851 25.8985 367.942C25.6447 368.033 25.4123 368.175 25.2157 368.36C25.0191 368.545 24.8626 368.768 24.7558 369.015C24.6489 369.263 24.5941 369.53 24.5947 369.799C24.6555 370.394 24.8478 370.967 25.1576 371.478C25.4674 371.988 25.8871 372.424 26.386 372.752C27.5738 373.411 28.8549 373.886 30.1854 374.16C29.8359 375.654 29.5892 377.17 29.4472 378.697C29.3487 379.583 29.2897 380.479 29.2405 381.384C29.2405 380.971 29.1617 380.597 29.1519 380.548C28.8566 379.111 27.4294 376.502 25.7955 376.325C25.5264 376.308 25.2566 376.346 25.0028 376.437C24.749 376.528 24.5166 376.67 24.32 376.854C24.1235 377.039 23.9669 377.262 23.8601 377.51C23.7532 377.757 23.6984 378.024 23.699 378.294C23.7618 378.887 23.9549 379.46 24.2646 379.97C24.5743 380.481 24.9928 380.917 25.4904 381.246C26.6409 381.887 27.8822 382.348 29.1716 382.615C29.1716 382.959 29.1716 383.313 29.1223 383.658C29.0534 385.312 28.9845 386.975 28.8763 388.579C28.8763 389.15 28.7778 389.711 28.7188 390.272C28.7188 389.908 28.6499 389.593 28.64 389.544C28.3448 388.107 26.9176 385.508 25.2837 385.331C25.0146 385.314 24.7448 385.352 24.491 385.443C24.2372 385.534 24.0048 385.676 23.8082 385.861C23.6116 386.045 23.4551 386.268 23.3482 386.516C23.2414 386.763 23.1866 387.03 23.1871 387.3C23.2501 387.892 23.4423 388.464 23.7501 388.974C24.058 389.484 24.4739 389.921 24.9687 390.253C26.0884 390.887 27.3007 391.342 28.5613 391.601C28.4826 392.182 28.4038 392.753 28.3054 393.304C28.2266 393.678 28.1774 394.052 28.079 394.426L27.8133 395.528C27.6164 396.227 27.4195 396.946 27.2128 397.615C27.075 398.087 26.9274 398.53 26.7896 398.983C26.8388 398.412 26.8979 397.29 26.8979 397.202C26.7803 395.914 26.3366 394.678 25.6085 393.609C25.5984 393.467 25.5787 393.325 25.5494 393.186C25.4927 392.921 25.3819 392.67 25.2239 392.45C25.0659 392.23 24.8642 392.045 24.6314 391.906C24.3985 391.768 24.1396 391.679 23.8708 391.645C23.6019 391.611 23.329 391.633 23.069 391.709C21.5237 392.251 20.7264 395.105 20.756 396.572C20.756 396.66 20.8938 397.556 20.9824 398.186C20.8741 397.851 20.7757 397.517 20.6575 397.202C20.441 396.513 20.2048 395.833 19.9489 395.095L19.5355 394.042C19.4075 393.688 19.2303 393.324 19.0729 392.959C18.6988 392.123 18.2756 391.306 17.8228 390.479C19.0839 390.115 20.2821 389.561 21.3761 388.835C21.842 388.47 22.2232 388.008 22.4934 387.481C22.7636 386.955 22.9163 386.375 22.9411 385.784C22.9248 385.512 22.8523 385.247 22.7283 385.005C22.6042 384.762 22.4313 384.549 22.2204 384.377C22.0095 384.204 21.7653 384.078 21.503 384.005C21.2408 383.932 20.9663 383.915 20.6969 383.953C19.0729 384.258 17.8524 386.965 17.6653 388.422C17.6653 388.51 17.6653 389.573 17.6653 390.154C17.3897 389.662 17.124 389.17 16.8287 388.678C15.9921 387.26 15.0964 385.863 14.2105 384.455L13.4133 383.166C14.7174 382.787 15.958 382.216 17.0945 381.473C17.5598 381.11 17.9402 380.65 18.2088 380.124C18.4775 379.599 18.6279 379.021 18.6496 378.431C18.6333 378.16 18.5609 377.894 18.4368 377.652C18.3128 377.41 18.1399 377.196 17.929 377.024C17.7181 376.852 17.4738 376.726 17.2116 376.653C16.9494 376.58 16.6749 376.562 16.4055 376.601C14.7912 376.906 13.5707 379.554 13.3837 381.059C13.3837 381.168 13.3837 382.693 13.3837 383.087C12.7932 382.103 12.2124 381.187 11.6809 380.223C10.9427 378.914 10.2885 377.56 9.72221 376.168C11.037 375.792 12.2879 375.222 13.4329 374.475C13.8983 374.112 14.2786 373.652 14.5473 373.126C14.8159 372.601 14.9664 372.023 14.9881 371.433C14.9718 371.162 14.8993 370.896 14.7753 370.654C14.6513 370.412 14.4783 370.198 14.2675 370.026C14.0566 369.854 13.8123 369.727 13.5501 369.654C13.2878 369.582 13.0134 369.564 12.7439 369.602C11.1297 369.898 9.90923 372.604 9.72221 374.061C9.72221 374.179 9.72221 375.813 9.72221 376.118C9.68202 376.038 9.64589 375.956 9.61394 375.872C9.09945 374.476 8.71076 373.036 8.45249 371.571C8.30485 370.764 8.20642 369.986 8.11784 369.228C9.43304 368.998 10.7068 368.573 11.8975 367.969C12.4005 367.656 12.8299 367.238 13.1561 366.743C13.4823 366.249 13.6976 365.69 13.7873 365.104C13.7997 364.833 13.7557 364.561 13.6579 364.307C13.5602 364.053 13.4109 363.822 13.2194 363.629C13.028 363.436 12.7986 363.284 12.5456 363.184C12.2927 363.084 12.0217 363.037 11.7498 363.047C10.1159 363.165 8.60014 365.715 8.25564 367.142C8.25564 367.22 8.13752 368.037 8.06862 368.628C8.06862 368.284 7.99973 367.929 7.9702 367.595C7.88161 366.354 7.87177 365.213 7.87177 364.199C7.87177 363.628 7.87177 363.106 7.92098 362.624C8.97779 361.82 9.90695 360.861 10.677 359.779C10.9771 359.27 11.1641 358.703 11.2252 358.115C11.2864 357.528 11.2202 356.934 11.0313 356.374C10.9158 356.132 10.752 355.916 10.5501 355.739C10.3482 355.563 10.1123 355.43 9.85701 355.348C9.60171 355.266 9.33235 355.237 9.06544 355.262C8.79854 355.288 8.53971 355.368 8.30485 355.498C6.90718 356.364 6.73985 359.327 7.09419 360.744C7.09419 360.872 7.82256 362.712 7.84224 362.712C7.84224 363.185 7.78318 363.697 7.77334 364.228C7.77334 365.213 7.72413 366.384 7.77334 367.634C7.82965 368.979 7.9611 370.32 8.16705 371.65C8.40072 373.138 8.76297 374.604 9.24976 376.03C9.24976 376.03 9.24976 376.03 9.24976 376.079C8.96432 375.695 8.11784 374.642 8.04894 374.573C7.0056 373.53 4.38742 372.142 2.92085 372.9C2.68403 373.035 2.47777 373.217 2.3151 373.436C2.15244 373.654 2.03692 373.904 1.97586 374.17C1.91479 374.435 1.90952 374.71 1.96036 374.978C2.0112 375.246 2.11706 375.5 2.27122 375.725C2.65151 376.171 3.12372 376.529 3.65548 376.775C4.18724 377.022 4.76597 377.15 5.35202 377.152C6.70293 377.04 8.02975 376.728 9.28913 376.227C9.84998 377.667 10.5077 379.068 11.2577 380.42C11.6711 381.207 12.114 381.995 12.5766 382.772L12.0353 382.122C11.0018 381.089 8.37375 379.701 6.91702 380.449C6.6802 380.584 6.47394 380.766 6.31127 380.985C6.14861 381.204 6.03309 381.454 5.97203 381.719C5.91096 381.985 5.90569 382.26 5.95653 382.528C6.00737 382.795 6.11323 383.049 6.2674 383.274C6.63764 383.718 7.09917 384.077 7.6206 384.327C8.14202 384.576 8.7111 384.711 9.28913 384.721C10.6065 384.624 11.9011 384.325 13.1278 383.835L13.6495 384.731C14.5058 386.158 15.372 387.575 16.1692 388.993C16.4547 389.485 16.7106 389.977 16.9763 390.489L16.5137 389.928C15.4704 388.894 12.8522 387.506 11.3856 388.264C11.1502 388.399 10.9452 388.581 10.7835 388.799C10.6218 389.017 10.5068 389.266 10.4458 389.53C10.3848 389.794 10.3791 390.068 10.4291 390.335C10.479 390.602 10.5835 390.855 10.736 391.079C11.1161 391.533 11.5903 391.898 12.1257 392.149C12.6612 392.401 13.2449 392.533 13.8365 392.536C15.1168 392.446 16.3753 392.157 17.5669 391.68C17.8228 392.202 18.0787 392.723 18.2953 393.245C18.4429 393.599 18.6004 393.934 18.7284 394.298L19.1319 395.361C19.3583 396.05 19.5847 396.759 19.7815 397.438C19.9292 397.91 20.0571 398.353 20.1851 398.806C19.9095 398.314 19.3485 397.339 19.2894 397.261C18.4232 396.089 16.0413 394.308 14.4763 394.839C14.2233 394.937 13.9933 395.087 13.8008 395.278C13.6082 395.469 13.4573 395.698 13.3575 395.951C13.2577 396.203 13.2111 396.473 13.2207 396.744C13.2303 397.016 13.2959 397.282 13.4133 397.526C13.7193 398.033 14.1326 398.466 14.624 398.796C15.1154 399.126 15.6731 399.345 16.2578 399.436C17.6047 399.531 18.9581 399.425 20.2737 399.121C20.4804 399.869 20.6772 400.597 20.8544 401.296L20.9331 401.601H21.9174C21.8682 401.414 21.819 401.237 21.7698 401.04C21.5532 400.282 21.317 399.465 21.0611 398.639C21.8066 398.275 22.5297 397.868 23.2265 397.418C24.2784 398.191 25.4307 398.817 26.6518 399.278C26.4156 400.017 26.1793 400.735 25.9431 401.414C25.9143 401.474 25.8912 401.537 25.8742 401.601H26.8585C27.0947 400.883 27.331 400.115 27.5573 399.328C28.8949 399.53 30.2553 399.53 31.5929 399.328C32.1684 399.19 32.7074 398.93 33.1729 398.565C33.6384 398.199 34.0194 397.738 34.2898 397.211C34.388 396.958 34.4325 396.686 34.4205 396.414C34.4084 396.142 34.3401 395.876 34.2199 395.632C34.0996 395.387 33.93 395.171 33.7218 394.995C33.5136 394.82 33.2713 394.69 33.0102 394.613C31.4157 394.209 29.1814 396.158 28.394 397.398C28.394 397.467 27.9412 398.324 27.6951 398.865C27.7936 398.521 27.892 398.196 27.9904 397.881C28.1873 397.182 28.3644 396.483 28.5515 395.735C28.6302 395.371 28.7089 394.997 28.7975 394.623C28.8861 394.249 28.9353 393.855 29.0042 393.471C29.142 392.566 29.2503 391.64 29.329 390.715C30.5819 391.102 31.886 391.298 33.1973 391.296C33.7824 391.248 34.3499 391.072 34.86 390.781C35.3701 390.491 35.8104 390.092 36.1501 389.613C36.285 389.378 36.3701 389.118 36.3998 388.849C36.4296 388.579 36.4035 388.307 36.3231 388.048C36.2427 387.789 36.1098 387.55 35.9327 387.345C35.7556 387.14 35.5381 386.974 35.2938 386.857C33.778 386.207 31.2681 387.792 30.3035 388.904C30.2444 388.973 29.644 389.888 29.3192 390.331C29.3717 389.78 29.4111 389.219 29.4373 388.648C29.5161 387.004 29.5456 385.341 29.585 383.727C29.585 383.215 29.585 382.743 29.585 382.201C30.8817 382.608 32.2318 382.821 33.591 382.831C34.1745 382.777 34.7397 382.598 35.2488 382.308C35.758 382.018 36.1995 381.622 36.5438 381.148C36.6801 380.912 36.7659 380.651 36.7959 380.38C36.8258 380.109 36.7992 379.835 36.7178 379.575C36.6364 379.315 36.5019 379.075 36.3229 378.869C36.1438 378.664 35.9241 378.498 35.6776 378.382C34.1618 377.742 31.6519 379.366 30.6972 380.43C30.6184 380.518 29.7129 381.778 29.5554 382.113C29.5554 380.991 29.6342 379.878 29.7227 378.786C29.8356 377.307 30.0427 375.838 30.3428 374.386C31.6455 374.797 33.0026 375.009 34.3685 375.016C34.9532 374.966 35.52 374.789 36.0298 374.499C36.5396 374.208 36.9803 373.81 37.3214 373.333C37.4577 373.097 37.5435 372.835 37.5734 372.565C37.6034 372.294 37.5768 372.02 37.4954 371.76C37.414 371.5 37.2795 371.26 37.1005 371.054C36.9214 370.849 36.7017 370.683 36.4552 370.567C34.9394 369.927 32.4295 371.551 31.4748 372.624C31.396 372.713 30.4905 374.061 30.3232 374.327C30.3232 374.238 30.3232 374.15 30.3232 374.071C30.6629 372.62 31.134 371.204 31.7307 369.839C32.0456 369.081 32.3901 368.372 32.715 367.693C34.0313 368.237 35.4276 368.563 36.8489 368.658C37.4421 368.677 38.0323 368.566 38.5781 368.333C39.124 368.101 39.6122 367.751 40.0085 367.309C40.1701 367.09 40.2846 366.84 40.3446 366.574C40.4046 366.308 40.4088 366.033 40.357 365.766C40.3052 365.499 40.1985 365.245 40.0436 365.021C39.8888 364.797 39.6891 364.607 39.4573 364.465C38.0202 363.657 35.3528 364.957 34.28 365.961C34.2209 366.01 33.6894 366.63 33.2957 367.083C33.463 366.778 33.6205 366.463 33.7878 366.177C34.3882 365.094 35.0182 364.14 35.5792 363.293C35.8942 362.821 36.1993 362.398 36.4847 361.994C37.8099 361.912 39.1146 361.626 40.353 361.147C40.8857 360.89 41.3561 360.52 41.7317 360.063C42.1072 359.606 42.379 359.072 42.5282 358.5C42.5683 358.236 42.5545 357.968 42.4877 357.71C42.4209 357.452 42.3025 357.211 42.1396 357C41.9767 356.789 41.7728 356.614 41.5401 356.484C41.3075 356.354 41.0509 356.273 40.786 356.246Z" fill="#263238"/>
<path d="M32.91 367.309C32.91 367.309 33.284 365.341 33.2938 365.222C33.3923 363.766 32.7033 360.872 31.1776 360.301C30.9202 360.211 30.6467 360.175 30.3747 360.196C30.1026 360.216 29.8378 360.294 29.5972 360.422C29.3566 360.551 29.1453 360.728 28.9768 360.943C28.8083 361.158 28.6863 361.405 28.6185 361.669C28.5356 362.256 28.5807 362.853 28.7506 363.421C28.9205 363.988 29.2112 364.512 29.6028 364.957C30.5853 365.897 31.6993 366.689 32.91 367.309Z" fill="#263238"/>
<path d="M252.807 337.171C254.952 338.106 260.189 337.987 260.199 337.987C260.209 337.987 259.067 334.552 258.968 334.346C257.817 331.934 254.175 327.958 251.222 328.361C250.732 328.44 250.263 328.622 249.848 328.894C249.432 329.166 249.079 329.522 248.81 329.94C248.542 330.358 248.365 330.828 248.29 331.319C248.215 331.81 248.245 332.312 248.377 332.79C248.87 334.828 250.976 336.373 252.807 337.171Z" fill="#263238"/>
<path d="M254.619 352.358C256.843 352.683 261.509 351.324 261.893 351.216C262.664 353.9 263.611 356.53 264.727 359.09C265.384 360.573 266.069 362.056 266.785 363.539C266.361 362.909 265.968 362.358 265.909 362.279C264.166 360.262 259.599 357.358 256.853 358.559C256.402 358.766 255.999 359.067 255.672 359.44C255.344 359.813 255.098 360.251 254.951 360.725C254.803 361.199 254.757 361.699 254.815 362.193C254.873 362.686 255.034 363.162 255.288 363.589C256.272 365.429 258.733 366.344 260.702 366.63C262.67 366.915 266.726 365.852 267.779 365.547C268.064 366.118 268.33 366.679 268.615 367.24C269.974 369.937 271.332 372.624 272.552 375.301C272.995 376.286 273.399 377.191 273.802 378.136C273.428 377.585 273.104 377.152 273.045 377.053C271.302 375.036 266.735 372.132 263.989 373.333C263.538 373.539 263.136 373.839 262.808 374.211C262.481 374.583 262.235 375.02 262.087 375.494C261.94 375.967 261.893 376.467 261.951 376.959C262.009 377.452 262.171 377.926 262.424 378.353C263.409 380.203 265.869 381.119 267.838 381.404C269.806 381.689 273.468 380.715 274.728 380.37C275.112 381.355 275.495 382.339 275.83 383.323C276.037 383.993 276.293 384.613 276.46 385.292C276.627 385.971 276.834 386.63 277.021 387.26C277.326 388.54 277.651 389.859 277.917 391.109C278.104 391.975 278.271 392.812 278.448 393.648C278.015 392.664 277.139 390.873 277.041 390.696C275.623 388.432 271.549 384.908 268.655 385.636C268.178 385.774 267.735 386.01 267.355 386.329C266.975 386.649 266.667 387.045 266.45 387.491C266.233 387.937 266.112 388.424 266.095 388.92C266.078 389.417 266.165 389.911 266.352 390.371C267.07 392.339 269.304 393.619 271.273 394.2C273.369 394.849 278.015 394.259 278.596 394.2C278.872 395.587 279.127 396.946 279.354 398.225C279.521 399.21 279.679 400.086 279.816 400.952H281.677C281.5 399.967 281.303 398.983 281.096 397.9C280.82 396.483 280.496 394.948 280.112 393.452C281.512 392.873 282.88 392.216 284.206 391.483C285.732 393.146 289.649 395.076 290.112 395.332C289.571 396.641 289.039 397.91 288.527 399.101C288.252 399.731 287.986 400.322 287.72 400.912H289.689C289.836 400.538 289.994 400.174 290.151 399.79C290.703 398.462 291.264 397.024 291.815 395.548C292.376 395.666 296.982 396.601 299.118 396.119C301.087 395.676 303.419 394.583 304.286 392.654C304.513 392.207 304.643 391.716 304.665 391.215C304.688 390.714 304.603 390.213 304.417 389.747C304.231 389.281 303.947 388.861 303.585 388.513C303.222 388.166 302.79 387.9 302.317 387.733C299.482 386.749 295.161 389.997 293.577 392.142C293.488 392.27 292.592 393.757 292.1 394.711C292.327 394.101 292.553 393.52 292.77 392.89C293.222 391.66 293.646 390.42 294.088 389.081C294.285 388.425 294.482 387.769 294.679 387.113C294.896 386.463 295.033 385.745 295.211 385.046C295.604 383.432 295.909 381.768 296.195 380.124C297.278 380.518 301.116 381.857 303.134 381.719C305.152 381.581 307.612 380.853 308.764 379.081C309.05 378.675 309.246 378.212 309.341 377.725C309.436 377.237 309.427 376.735 309.314 376.251C309.202 375.767 308.989 375.312 308.689 374.916C308.389 374.52 308.009 374.192 307.573 373.953C304.916 372.585 300.161 375.114 298.272 376.994C298.154 377.113 296.943 378.609 296.303 379.445C296.461 378.461 296.618 377.477 296.746 376.404C297.11 373.451 297.396 370.439 297.73 367.437C297.819 366.512 297.917 365.596 298.016 364.681C298.4 364.829 302.937 366.522 305.181 366.364C307.15 366.226 309.66 365.488 310.811 363.726C311.097 363.32 311.293 362.858 311.388 362.37C311.483 361.882 311.474 361.38 311.362 360.896C311.249 360.412 311.036 359.957 310.736 359.562C310.436 359.166 310.056 358.837 309.62 358.598C306.973 357.23 302.209 359.75 300.319 361.64C300.171 361.777 298.439 363.943 298.026 364.514C298.242 362.496 298.478 360.488 298.783 358.519C299.186 355.86 299.761 353.23 300.506 350.645C300.683 350.714 305.427 352.506 307.711 352.338C309.679 352.2 312.189 351.472 313.341 349.7C313.627 349.295 313.824 348.834 313.919 348.348C314.015 347.861 314.006 347.36 313.895 346.877C313.783 346.394 313.571 345.94 313.272 345.544C312.973 345.149 312.594 344.821 312.16 344.582C309.502 343.204 304.738 345.734 302.849 347.614C302.701 347.761 300.88 350.094 300.535 350.567C300.535 350.419 300.604 350.261 300.654 350.114C301.469 347.535 302.513 345.035 303.774 342.643C304.453 341.314 305.181 340.084 305.91 338.893C306.756 339.316 310.664 341.216 312.741 341.295C314.817 341.373 317.288 340.921 318.646 339.326C318.973 338.953 319.218 338.515 319.365 338.041C319.511 337.567 319.557 337.068 319.499 336.575C319.44 336.082 319.279 335.607 319.025 335.181C318.772 334.754 318.431 334.386 318.026 334.1C315.536 332.446 310.526 334.434 308.439 336.068C308.331 336.157 307.278 337.2 306.471 337.978C306.815 337.446 307.15 336.895 307.455 336.393C308.705 334.513 309.965 332.869 311.097 331.412C311.737 330.596 312.347 329.867 312.918 329.198C313.961 329.198 318.193 329.05 320.044 328.214C321.894 327.377 323.902 325.782 324.345 323.715C324.464 323.234 324.481 322.733 324.394 322.245C324.306 321.756 324.117 321.292 323.839 320.882C323.56 320.471 323.199 320.124 322.777 319.863C322.356 319.602 321.884 319.432 321.392 319.365C318.44 319.04 314.896 323.115 313.813 325.556C313.715 325.763 312.622 329.227 312.681 329.227H312.741C312.18 329.867 311.589 330.556 310.949 331.324C309.788 332.751 308.488 334.375 307.199 336.245C305.765 338.236 304.45 340.31 303.262 342.456C301.929 344.847 300.815 347.354 299.935 349.946V350.045C299.935 349.169 299.935 346.718 299.886 346.531C299.541 343.883 297.327 338.972 294.384 338.43C293.893 338.354 293.392 338.381 292.914 338.511C292.435 338.641 291.988 338.871 291.604 339.184C291.219 339.498 290.905 339.89 290.682 340.333C290.459 340.776 290.332 341.261 290.309 341.757C290.142 343.854 291.657 345.96 293.144 347.289C294.827 348.785 299.472 350.242 299.847 350.35C299.013 353.011 298.355 355.723 297.878 358.47C297.593 360.065 297.356 361.679 297.14 363.313C297.14 362.555 297.14 361.876 297.14 361.777C296.795 359.13 294.581 354.228 291.638 353.677C291.148 353.602 290.647 353.631 290.169 353.761C289.691 353.892 289.245 354.121 288.861 354.435C288.477 354.748 288.163 355.139 287.939 355.581C287.716 356.024 287.587 356.508 287.563 357.004C287.395 359.11 288.921 361.216 290.397 362.535C291.874 363.854 295.85 365.203 296.904 365.537C296.825 366.157 296.736 366.787 296.667 367.408C296.303 370.36 295.959 373.402 295.535 376.325C295.388 377.309 295.201 378.372 295.014 379.376C295.014 378.707 295.014 378.146 295.014 378.057C294.679 375.41 292.455 370.498 289.521 369.957C289.039 369.887 288.547 369.917 288.077 370.045C287.607 370.174 287.168 370.398 286.788 370.703C286.408 371.009 286.096 371.39 285.87 371.822C285.644 372.254 285.51 372.728 285.476 373.215C285.309 375.311 286.834 377.418 288.321 378.746C289.807 380.075 293.39 381.276 294.63 381.699C294.413 382.733 294.197 383.766 293.941 384.751C293.744 385.42 293.606 386.079 293.38 386.719C293.153 387.359 292.957 388.028 292.74 388.688C292.297 389.928 291.844 391.198 291.372 392.389C291.057 393.225 290.732 394.013 290.388 394.8C290.545 393.816 290.821 391.768 290.821 391.591C290.785 389.246 290.151 386.949 288.98 384.918C288.988 384.654 288.972 384.391 288.931 384.13C288.865 383.642 288.697 383.172 288.438 382.752C288.179 382.332 287.834 381.971 287.427 381.693C287.02 381.415 286.558 381.225 286.073 381.136C285.588 381.047 285.089 381.062 284.61 381.178C281.726 381.945 279.895 387.014 279.757 389.672C279.757 389.829 279.846 391.552 279.935 392.625C279.787 392.005 279.649 391.385 279.492 390.745C279.196 389.465 278.852 388.205 278.507 386.808C278.31 386.158 278.104 385.499 277.907 384.839C277.71 384.18 277.435 383.5 277.208 382.821C276.637 381.266 275.978 379.711 275.24 378.156C276.352 377.89 280.309 376.886 281.903 375.666C283.498 374.445 285.161 372.467 285.141 370.36C285.154 369.864 285.062 369.371 284.872 368.913C284.682 368.455 284.398 368.041 284.038 367.7C283.678 367.358 283.25 367.096 282.782 366.931C282.314 366.765 281.817 366.699 281.322 366.738C278.37 367.053 275.771 371.788 275.24 374.406C275.24 374.563 275.023 376.483 274.944 377.536C274.521 376.611 274.108 375.685 273.645 374.75C272.316 372.083 270.889 369.415 269.482 366.748C269.048 365.931 268.625 365.114 268.202 364.297C268.596 364.209 273.33 363.116 275.092 361.748C276.677 360.537 278.35 358.549 278.34 356.443C278.353 355.947 278.261 355.453 278.071 354.995C277.881 354.537 277.596 354.124 277.236 353.782C276.876 353.441 276.448 353.179 275.981 353.013C275.513 352.847 275.016 352.782 274.521 352.821C271.568 353.145 268.97 357.87 268.428 360.488C268.428 360.685 268.143 363.441 268.113 364.15C267.129 362.348 266.263 360.547 265.426 358.726C264.283 356.282 263.296 353.767 262.473 351.196C262.66 351.196 267.602 350.035 269.422 348.637C270.997 347.427 272.68 345.438 272.661 343.332C272.675 342.836 272.584 342.342 272.394 341.883C272.205 341.424 271.921 341.01 271.56 340.668C271.2 340.326 270.772 340.064 270.303 339.899C269.835 339.734 269.337 339.67 268.842 339.71C265.889 340.035 263.3 344.769 262.759 347.377C262.759 347.584 262.444 350.557 262.434 351.098C262.434 350.95 262.326 350.793 262.286 350.645C261.547 348.044 261.04 345.383 260.771 342.692C260.603 341.216 260.534 339.739 260.485 338.391C261.469 338.283 265.722 337.702 267.503 336.629C269.285 335.556 271.096 333.804 271.312 331.708C271.379 331.216 271.341 330.715 271.202 330.239C271.062 329.762 270.824 329.321 270.503 328.942C270.182 328.563 269.785 328.256 269.338 328.041C268.89 327.826 268.403 327.707 267.907 327.692C264.954 327.692 261.844 332.111 261.017 334.641C261.017 334.789 260.672 336.235 260.475 337.298C260.475 336.669 260.475 336.019 260.475 335.418C260.475 333.164 260.613 331.097 260.761 329.267C260.849 328.223 260.948 327.298 261.056 326.402C261.922 325.812 265.377 323.371 266.44 321.629C267.503 319.887 268.32 317.465 267.542 315.507C267.373 315.042 267.108 314.618 266.765 314.263C266.421 313.907 266.007 313.627 265.549 313.442C265.091 313.256 264.598 313.169 264.104 313.185C263.61 313.202 263.125 313.322 262.68 313.538C260.023 314.906 259.324 320.251 259.727 322.889C259.727 323.115 260.771 326.599 260.81 326.57H260.869C260.751 327.416 260.633 328.322 260.525 329.316C260.347 331.147 260.16 333.253 260.101 335.487C260.017 337.93 260.076 340.375 260.279 342.81C260.489 345.539 260.944 348.244 261.637 350.891V350.99C261.164 350.252 259.786 348.234 259.668 348.086C257.926 346.068 253.369 343.165 250.613 344.366C250.162 344.572 249.76 344.871 249.432 345.244C249.104 345.616 248.859 346.053 248.711 346.526C248.563 347 248.517 347.499 248.575 347.992C248.633 348.484 248.794 348.959 249.048 349.385C250.209 351.157 252.641 352.072 254.619 352.358Z" fill="#263238"/>
<path d="M305.851 338.322C305.9 338.322 306.835 334.838 306.835 334.611C307.2 331.964 306.363 326.639 303.676 325.339C303.222 325.137 302.732 325.032 302.235 325.032C301.739 325.031 301.248 325.135 300.794 325.336C300.34 325.538 299.934 325.832 299.601 326.201C299.268 326.569 299.017 327.003 298.863 327.475C298.134 329.444 299.05 331.885 300.132 333.558C301.412 335.527 305.851 338.322 305.851 338.322Z" fill="#263238"/>
<path d="M602.318 142.234L601.904 143.356L596.914 153.711L647.132 145.049" fill="white"/>
<path d="M602.318 142.234L601.904 143.356L596.914 153.711L647.132 145.049" stroke="#263238" stroke-linecap="round" stroke-linejoin="round"/>
<path d="M607.08 153.278L602.316 142.234L647.131 145.049L607.08 153.278Z" fill="white" stroke="#263238" stroke-linecap="round" stroke-linejoin="round"/>
<path d="M647.13 145.049L613.576 122.962L606.086 138.386L647.13 145.049Z" fill="white" stroke="#263238" stroke-linecap="round" stroke-linejoin="round"/>
<path d="M647.13 145.049L607.08 153.278L606.086 138.386L647.13 145.049Z" fill="white" stroke="#263238" stroke-linecap="round" stroke-linejoin="round"/>
<path d="M253.488 177.461C253.488 177.461 253.833 177.845 254.473 178.524" stroke="#263238" stroke-linecap="round" stroke-linejoin="round"/>
<path d="M256.629 180.562C269.493 192.432 320.843 231.646 389.251 176.812C468.613 113.188 374.821 40.3908 324.288 50.2238C273.755 60.0567 282.319 139.419 361.691 154.557C440.197 169.479 503.299 128.562 593.547 139.114" stroke="#263238" stroke-linecap="round" stroke-linejoin="round" stroke-dasharray="2.99 2.99"/>
<path d="M595.043 139.242L596.5 139.419" stroke="#263238" stroke-linecap="round" stroke-linejoin="round"/>
<path d="M481.712 291.047L468.434 274.403L496.761 251.43L481.712 291.047Z" fill="white" stroke="#263238" stroke-linecap="round" stroke-linejoin="round"/>
<path d="M468.436 274.403L466.379 268.182L496.764 251.43L468.436 274.403Z" fill="white" stroke="#263238" stroke-linecap="round" stroke-linejoin="round"/>
<path d="M496.761 251.43L465.569 270.003L452.754 253.113L496.761 251.43Z" fill="white" stroke="#263238" stroke-linecap="round" stroke-linejoin="round"/>
<path d="M246.332 154.971C246.332 154.971 289.768 171.566 309.326 231.105C328.883 290.644 378.964 325.743 467.116 271.273" stroke="#263238" stroke-linecap="round" stroke-linejoin="round" stroke-dasharray="3 3"/>
<path d="M119.375 227.542C119.375 227.542 123.804 242.069 123.804 243.556C123.804 244.816 120.91 256.046 120.851 260.288" fill="white"/>
<path d="M119.375 227.542C119.375 227.542 123.804 242.069 123.804 243.556C123.804 244.816 120.91 256.046 120.851 260.288" stroke="#263238" stroke-linecap="round" stroke-linejoin="round"/>
<path d="M74.2483 185.277L77.5752 216.291C77.7321 217.746 78.191 219.152 78.9225 220.419C79.6539 221.687 80.6419 222.787 81.8232 223.651C83.0045 224.514 84.353 225.122 85.7825 225.434C87.212 225.746 88.691 225.757 90.1248 225.465C112.182 220.937 161.436 211.685 191.574 212.138C231.32 212.777 267.256 232.857 267.256 232.857L266.891 214.746C266.319 186.793 262.04 159.041 254.165 132.214L248.958 114.497C248.958 114.497 221.122 145.344 180.55 158.229C150.038 167.934 104.544 172.176 83.9435 173.682C82.536 173.781 81.1629 174.163 79.9064 174.805C78.6499 175.447 77.5357 176.335 76.6306 177.418C75.7255 178.5 75.048 179.754 74.6387 181.105C74.2294 182.455 74.0966 183.874 74.2483 185.277Z" fill="#92E3A9" stroke="#263238" stroke-linecap="round" stroke-linejoin="round"/>
<path d="M249.222 118.72L248.957 117.804C248.957 117.804 221.121 148.661 180.549 161.595C178.364 162.294 176.091 162.953 173.758 163.563" stroke="white" stroke-width="5" stroke-linecap="round" stroke-linejoin="round"/>
<path d="M164.556 165.877C157.666 167.481 150.432 168.888 143.188 170.109" stroke="white" stroke-width="5" stroke-linecap="round" stroke-linejoin="round"/>
<path d="M267.907 238.871C267.733 238.881 267.559 238.881 267.385 238.871C265.784 238.905 264.234 238.302 263.077 237.195C261.92 236.088 261.25 234.566 261.214 232.965L260.84 214.884C260.283 187.468 256.09 160.248 248.369 133.937L243.152 116.22C242.908 115.451 242.819 114.641 242.892 113.838C242.965 113.035 243.197 112.254 243.576 111.542C243.955 110.83 244.472 110.201 245.097 109.692C245.723 109.182 246.443 108.803 247.217 108.576C247.991 108.349 248.803 108.279 249.604 108.37C250.405 108.461 251.181 108.711 251.884 109.106C252.587 109.501 253.204 110.032 253.699 110.669C254.194 111.306 254.557 112.035 254.767 112.814L259.973 130.531C267.996 157.873 272.355 186.159 272.936 214.647L273.3 232.729C273.334 234.242 272.798 235.713 271.799 236.85C270.801 237.987 269.411 238.708 267.907 238.871Z" fill="#263238" stroke="#263238" stroke-linecap="round" stroke-linejoin="round"/>
<path d="M145.982 166.3C122.094 170.483 97.5657 172.688 83.9728 173.682C82.5627 173.777 81.1864 174.156 79.9265 174.796C78.6665 175.437 77.5489 176.325 76.6407 177.408C75.7325 178.491 75.0524 179.746 74.6413 181.098C74.2302 182.45 74.0964 183.872 74.2481 185.277L77.575 216.291C77.7319 217.746 78.1907 219.152 78.9222 220.419C79.6537 221.687 80.6417 222.787 81.823 223.651C83.0043 224.514 84.3528 225.122 85.7823 225.434C87.2118 225.746 88.6907 225.757 90.1245 225.465C103.757 222.669 127.763 218.053 151.229 215.051L145.982 166.3Z" fill="#263238" stroke="#263238" stroke-linecap="round" stroke-linejoin="round"/>
<path d="M105.539 217.118C105.539 217.118 115.195 236.745 116.701 238.546C117.453 239.284 118.392 239.805 119.417 240.052C122.082 240.895 124.374 242.634 125.904 244.973C132.794 255.416 150.422 282.1 151.318 283.055C152.43 284.246 155.166 285.27 156.682 284.118C158.198 282.966 169.478 271.923 168.621 267.1C167.765 262.277 166.299 263.743 163.779 261.716C161.761 260.082 153.936 246.115 150.983 240.731C150.627 240.097 150.453 239.378 150.481 238.652C150.509 237.925 150.737 237.221 151.141 236.617L153.769 232.62C153.769 232.62 142.282 223.368 142.105 221.793C141.928 220.219 146.721 218.998 146.879 217.344C147.036 215.691 142.794 209.913 142.794 209.913L105.539 217.118Z" fill="#92E3A9" stroke="#263238" stroke-linecap="round" stroke-linejoin="round"/>
<path d="M146.613 226.557L155.039 229.658C155.115 229.686 155.184 229.732 155.24 229.792C155.296 229.851 155.337 229.923 155.361 230.001C155.385 230.079 155.39 230.161 155.377 230.242C155.364 230.322 155.332 230.399 155.285 230.465L153.769 232.591L146.613 226.557Z" fill="#263238" stroke="#263238" stroke-linecap="round" stroke-linejoin="round"/>
<path d="M125.658 234.441L123.227 236.321" stroke="#263238" stroke-linecap="round" stroke-linejoin="round"/>
<path d="M142.105 221.715L127.754 232.817" stroke="#263238" stroke-linecap="round" stroke-linejoin="round"/>
<path d="M124.223 188.361L114.887 189.363L115.525 195.304L124.861 194.301L124.223 188.361Z" fill="#92E3A9" stroke="#263238" stroke-linecap="round" stroke-linejoin="round"/>
<path d="M120.865 260.259C120.809 260.76 120.89 261.267 121.101 261.726C122.332 263.448 125.284 275.505 125.531 276.756C125.694 280.136 125.446 283.524 124.792 286.844C124.054 290.781 121.101 300.89 121.101 300.89L151.151 310.497C151.151 310.497 158.287 296.205 160.01 293.252C161.732 290.299 166.9 282.661 168.14 277.504C168.935 273.856 169.429 270.149 169.616 266.421C169.616 266.421 173.553 263.212 173.071 260.997C172.497 259.268 171.573 257.676 170.355 256.322C170.355 256.322 170.847 252.129 169.37 249.914C167.894 247.7 165.679 245.485 165.187 244.747C164.695 244.009 165.925 237.109 162.972 235.632C161.43 234.81 159.77 234.229 158.051 233.91C158.051 233.91 158.543 229.717 155.344 227.502C152.145 225.288 148.198 225.042 145.246 227.748C142.293 230.455 129.241 244.747 129.241 244.747" fill="white"/>
<path d="M120.865 260.259C120.809 260.76 120.89 261.267 121.101 261.726C122.332 263.448 125.284 275.505 125.531 276.756C125.694 280.136 125.446 283.524 124.792 286.844C124.054 290.781 121.101 300.89 121.101 300.89L151.151 310.497C151.151 310.497 158.287 296.205 160.01 293.252C161.732 290.299 166.9 282.661 168.14 277.504C168.935 273.856 169.429 270.149 169.616 266.421C169.616 266.421 173.553 263.212 173.071 260.997C172.497 259.268 171.573 257.676 170.355 256.322C170.355 256.322 170.847 252.129 169.37 249.914C167.894 247.7 165.679 245.485 165.187 244.747C164.695 244.009 165.925 237.109 162.972 235.632C161.43 234.81 159.77 234.229 158.051 233.91C158.051 233.91 158.543 229.717 155.344 227.502C152.145 225.288 148.198 225.042 145.246 227.748C142.293 230.455 129.241 244.747 129.241 244.747" stroke="#263238" stroke-linecap="round" stroke-linejoin="round"/>
<path d="M129.723 248.428C129.723 248.428 130.461 252.119 131.199 252.857C131.937 253.595 129.723 263.94 129.723 263.94" fill="white"/>
<path d="M129.723 248.428C129.723 248.428 130.461 252.119 131.199 252.857C131.937 253.595 129.723 263.94 129.723 263.94" stroke="#263238" stroke-linecap="round" stroke-linejoin="round"/>
<path d="M158.04 233.9L152.626 237.099L146.957 243.999" fill="white"/>
<path d="M158.04 233.9L152.626 237.099L146.957 243.999" stroke="#263238" stroke-linecap="round" stroke-linejoin="round"/>
<path d="M165.185 244.737L158.531 250.15" stroke="#263238" stroke-linecap="round" stroke-linejoin="round"/>
<path d="M170.355 256.312L164.695 259.757" stroke="#263238" stroke-linecap="round" stroke-linejoin="round"/>
<path d="M141.296 251.381C140.693 252.884 140.693 254.562 141.296 256.066L142.28 258.773" fill="white"/>
<path d="M141.296 251.381C140.693 252.884 140.693 254.562 141.296 256.066L142.28 258.773" stroke="#263238" stroke-linecap="round" stroke-linejoin="round"/>
<path d="M154.348 256.804C154.348 256.804 151.641 258.773 152.626 260.987L154.348 256.804Z" fill="white"/>
<path d="M154.348 256.804C154.348 256.804 151.641 258.773 152.626 260.987" stroke="#263238" stroke-linecap="round" stroke-linejoin="round"/>
<path d="M119.74 291.165L159.909 305.615L153.915 324.286L113.746 305.969L119.74 291.165Z" fill="white" stroke="#263238" stroke-linecap="round" stroke-linejoin="round"/>
<path d="M114.458 302.12L159.843 319.828L147.628 374.74H87.9805L114.458 302.12Z" fill="#263238" stroke="#263238" stroke-linecap="round" stroke-linejoin="round"/>
<path d="M596.322 171.349C583.34 171.349 572.808 179.519 572.808 189.607C572.832 192.798 573.865 195.899 575.761 198.466L567.887 211.606L580.446 203.072C585.125 206.287 590.686 207.972 596.362 207.895C609.354 207.895 619.886 199.716 619.886 189.637C619.886 179.558 609.315 171.349 596.322 171.349Z" fill="white" stroke="#263238" stroke-linecap="round" stroke-linejoin="round"/>
<path d="M591.55 189.243C591.552 189.728 591.41 190.203 591.142 190.608C590.874 191.012 590.492 191.328 590.044 191.515C589.596 191.702 589.103 191.752 588.627 191.658C588.151 191.565 587.714 191.332 587.37 190.99C587.026 190.647 586.792 190.211 586.696 189.735C586.601 189.259 586.649 188.766 586.834 188.318C587.019 187.869 587.333 187.486 587.737 187.216C588.14 186.946 588.614 186.802 589.099 186.802C589.421 186.801 589.739 186.863 590.036 186.985C590.334 187.107 590.604 187.287 590.832 187.514C591.059 187.741 591.24 188.01 591.363 188.307C591.487 188.604 591.55 188.922 591.55 189.243Z" fill="#263238"/>
<path d="M598.152 189.243C598.154 189.728 598.012 190.203 597.743 190.608C597.475 191.012 597.093 191.328 596.646 191.515C596.198 191.702 595.705 191.752 595.229 191.658C594.753 191.565 594.315 191.332 593.971 190.99C593.628 190.647 593.393 190.211 593.298 189.735C593.202 189.259 593.25 188.766 593.436 188.318C593.621 187.869 593.935 187.486 594.338 187.216C594.741 186.946 595.216 186.802 595.701 186.802C596.022 186.801 596.341 186.863 596.638 186.985C596.935 187.107 597.206 187.287 597.433 187.514C597.661 187.741 597.842 188.01 597.965 188.307C598.088 188.604 598.152 188.922 598.152 189.243Z" fill="#263238"/>
<path d="M604.777 189.243C604.779 189.728 604.637 190.203 604.368 190.608C604.1 191.012 603.718 191.328 603.271 191.515C602.823 191.702 602.33 191.752 601.854 191.658C601.378 191.565 600.94 191.332 600.596 190.99C600.253 190.647 600.018 190.211 599.923 189.735C599.827 189.259 599.875 188.766 600.061 188.318C600.246 187.869 600.56 187.486 600.963 187.216C601.366 186.946 601.841 186.802 602.326 186.802C602.647 186.801 602.966 186.863 603.263 186.985C603.56 187.107 603.831 187.287 604.058 187.514C604.286 187.741 604.467 188.01 604.59 188.307C604.713 188.604 604.777 188.922 604.777 189.243Z" fill="#263238"/>
<path d="M668.756 216.842C668.756 206.754 658.224 198.584 645.231 198.584C632.239 198.584 621.707 206.754 621.707 216.842C621.707 225.563 629.581 232.847 640.103 234.668L641.511 243.152L647.869 234.983C659.612 233.969 668.756 226.232 668.756 216.842Z" fill="white" stroke="#263238" stroke-linecap="round" stroke-linejoin="round"/>
<path d="M640.96 216.774C640.96 217.258 640.817 217.732 640.547 218.135C640.278 218.538 639.895 218.852 639.447 219.038C639 219.223 638.507 219.272 638.031 219.177C637.556 219.083 637.119 218.849 636.776 218.507C636.434 218.164 636.2 217.727 636.106 217.252C636.011 216.776 636.06 216.283 636.245 215.836C636.431 215.388 636.745 215.005 637.148 214.736C637.551 214.466 638.025 214.323 638.509 214.323C638.832 214.321 639.151 214.384 639.449 214.507C639.747 214.629 640.018 214.81 640.245 215.038C640.473 215.265 640.654 215.536 640.776 215.834C640.899 216.132 640.962 216.451 640.96 216.774Z" fill="#263238"/>
<path d="M645.113 219.215C646.461 219.215 647.554 218.122 647.554 216.774C647.554 215.425 646.461 214.333 645.113 214.333C643.765 214.333 642.672 215.425 642.672 216.774C642.672 218.122 643.765 219.215 645.113 219.215Z" fill="#263238"/>
<path d="M654.167 216.774C654.167 217.258 654.024 217.732 653.754 218.135C653.485 218.538 653.102 218.852 652.654 219.038C652.207 219.223 651.714 219.272 651.238 219.177C650.763 219.083 650.326 218.849 649.983 218.507C649.641 218.164 649.407 217.727 649.313 217.252C649.218 216.776 649.267 216.283 649.452 215.836C649.638 215.388 649.952 215.005 650.355 214.736C650.758 214.466 651.232 214.323 651.716 214.323C652.039 214.321 652.358 214.384 652.656 214.507C652.954 214.629 653.225 214.81 653.452 215.038C653.68 215.265 653.861 215.536 653.983 215.834C654.106 216.132 654.169 216.451 654.167 216.774Z" fill="#263238"/>
<path d="M471.385 180.08C467.55 180.074 463.802 181.226 460.632 183.384C457.461 185.541 455.015 188.605 453.613 192.175C452.211 195.744 451.918 199.654 452.772 203.393C453.627 207.131 455.589 210.526 458.402 213.132L454.711 221.114L461.847 215.691C464.382 217.155 467.221 218.017 470.142 218.209C473.064 218.401 475.991 217.918 478.696 216.798C481.401 215.677 483.812 213.95 485.743 211.748C487.673 209.547 489.071 206.931 489.829 204.102C490.586 201.274 490.683 198.309 490.111 195.438C489.539 192.566 488.315 189.865 486.531 187.542C484.748 185.22 482.455 183.339 479.828 182.045C477.202 180.751 474.313 180.078 471.385 180.08Z" fill="white" stroke="#263238" stroke-linecap="round" stroke-linejoin="round"/>
<path d="M480.891 191.921C480.391 191.42 479.797 191.023 479.144 190.752C478.49 190.481 477.79 190.341 477.082 190.341C476.375 190.341 475.674 190.481 475.02 190.752C474.367 191.023 473.773 191.42 473.273 191.921L471.216 193.978L469.159 191.921C468.137 190.975 466.789 190.462 465.397 190.488C464.006 190.515 462.678 191.08 461.694 192.064C460.71 193.049 460.145 194.376 460.118 195.768C460.091 197.159 460.605 198.507 461.55 199.529L471.186 209.165L480.822 199.529C481.84 198.529 482.418 197.166 482.431 195.739C482.444 194.312 481.89 192.939 480.891 191.921Z" fill="#92E3A9" stroke="#263238" stroke-linecap="round" stroke-linejoin="round"/>
<path d="M667.643 316.835H662.652V400.942H667.643V316.835Z" fill="#263238" stroke="#263238" stroke-linecap="round" stroke-linejoin="round"/>
<path d="M498.455 316.835H493.465V400.942H498.455V316.835Z" fill="#263238" stroke="#263238" stroke-linecap="round" stroke-linejoin="round"/>
<path d="M577.736 316.835H572.746V343.332H577.736V316.835Z" fill="#263238" stroke="#263238" stroke-linecap="round" stroke-linejoin="round"/>
<path d="M681.52 336.787H479.586V344.297H681.52V336.787Z" fill="#92E3A9" stroke="#263238" stroke-linecap="round" stroke-linejoin="round"/>
<path d="M681.52 298.321H479.586V323.263H681.52V298.321Z" fill="#92E3A9" stroke="#263238" stroke-linecap="round" stroke-linejoin="round"/>
<path d="M678.162 344.435H673.172V400.942H678.162V344.435Z" fill="#263238" stroke="#263238" stroke-linecap="round" stroke-linejoin="round"/>
<path d="M489.861 344.435H484.871V400.942H489.861V344.435Z" fill="#263238" stroke="#263238" stroke-linecap="round" stroke-linejoin="round"/>
<path d="M613.091 278.862C613.091 278.862 609.567 279.226 608.356 283.557C607.146 287.888 604.025 314.64 606.191 316.038C608.356 317.436 613.78 313.745 614.144 310.979C614.508 308.213 616.427 292.543 616.427 292.543C616.427 292.543 615.295 277.74 613.091 278.862Z" fill="white" stroke="#263238" stroke-linecap="round" stroke-linejoin="round"/>
<path d="M634.955 264.058C634.955 264.058 634.748 271.411 635.053 271.933C635.358 272.454 637.238 274.216 642.002 275.112C646.766 276.007 648.764 276.401 649.552 281.165C650.339 285.929 650.054 302.327 650.536 303.026C651.018 303.725 656.442 314.247 656.501 321.796C656.56 329.345 652.623 334.513 649.945 335.704C647.661 336.589 645.239 337.062 642.79 337.102H617.966C617.966 337.102 616.273 329.227 617.563 322.79C618.852 316.353 620.25 310.28 619.944 309.384C619.639 308.489 618.96 302.229 617.976 299.542C616.992 296.854 614.039 290.998 613.301 287.13C612.895 284.399 612.829 281.629 613.104 278.882C613.104 278.882 621.45 278.084 622.74 276.401C624.029 274.718 622.248 268.35 622.248 268.35L634.955 264.058Z" fill="#92E3A9" stroke="#263238" stroke-linecap="round" stroke-linejoin="round"/>
<path d="M620.742 277.454C622.992 279.876 626.085 281.341 629.384 281.549C634.158 281.972 637.8 277.198 639.483 274.462C636.53 273.527 635.29 272.307 635.054 271.913C634.817 271.519 634.955 264.039 634.955 264.039L622.238 268.31C622.238 268.31 624.02 274.669 622.73 276.362C622.177 276.897 621.49 277.274 620.742 277.454Z" fill="white" stroke="#263238" stroke-linecap="round" stroke-linejoin="round"/>
<path d="M613.387 266.145C613.383 267.712 613.518 269.277 613.791 270.82C614.184 272.503 614.578 274.885 613.485 275.978C612.393 277.071 609.913 278.665 611.901 279.915C613.889 281.165 616.074 280.811 615.572 281.884C615.07 282.957 610.808 282.582 612.993 286.254C615.178 289.925 620.74 290.033 620.444 290.919C620.149 291.805 617.659 291.126 619.253 292.809C620.848 294.492 623.525 292.809 622.925 291.913C622.324 291.018 621.94 290.427 623.122 289.236C624.303 288.045 625.809 286.451 625.415 284.768C625.021 283.084 623.446 283.468 624.519 282.376C625.592 281.283 627.393 279.423 627.797 277.011C628.2 274.6 627.994 272.543 626.006 270.86C624.017 269.177 620.838 265.594 620.74 262.513C620.206 260.167 620.073 257.748 620.346 255.357C620.346 255.357 614.184 261.174 613.387 266.145Z" fill="#263238" stroke="#263238" stroke-linecap="round" stroke-linejoin="round"/>
<path d="M622.868 247.168C622.868 247.168 618.026 251.519 618.36 255.534C618.695 259.55 619.03 266.736 620.329 268.566C621.628 270.397 625.546 274.029 627.514 274.127C629.158 274.206 631.107 272.838 632.436 271.499C633.764 270.161 635.388 266.401 635.693 265.594C635.999 264.787 636.028 255.564 635.693 253.723C635.359 251.883 630.014 247.7 628.006 247.198C626.306 246.919 624.572 246.909 622.868 247.168Z" fill="white" stroke="#263238" stroke-linecap="round" stroke-linejoin="round"/>
<path d="M625.504 265.348C625.504 265.348 626.902 266.411 627.719 266.086C628.305 265.803 628.832 265.413 629.274 264.934" stroke="#263238" stroke-linecap="round" stroke-linejoin="round"/>
<path d="M624.195 267.316C624.195 267.316 628.625 269.61 631.331 266.243" stroke="#263238" stroke-linecap="round" stroke-linejoin="round"/>
<path d="M621.074 258.202C622.551 257.218 624.765 258.536 624.765 258.536" stroke="#263238" stroke-linecap="round" stroke-linejoin="round"/>
<path d="M629.031 258.202C629.031 258.202 631.334 256.647 633.136 257.71" stroke="#263238" stroke-linecap="round" stroke-linejoin="round"/>
<path d="M623.213 262.06C623.637 262.06 623.981 261.62 623.981 261.076C623.981 260.532 623.637 260.092 623.213 260.092C622.789 260.092 622.445 260.532 622.445 261.076C622.445 261.62 622.789 262.06 623.213 262.06Z" fill="#263238"/>
<path d="M631.283 260.663C631.248 260.808 631.172 260.941 631.065 261.046C630.958 261.151 630.823 261.223 630.677 261.255C630.53 261.286 630.378 261.276 630.237 261.225C630.096 261.174 629.972 261.084 629.88 260.966C629.787 260.848 629.73 260.706 629.715 260.557C629.7 260.407 629.727 260.257 629.793 260.122C629.86 259.988 629.963 259.875 630.09 259.796C630.218 259.718 630.366 259.677 630.516 259.678C630.745 259.712 630.953 259.834 631.096 260.017C631.239 260.2 631.306 260.431 631.283 260.663Z" fill="#263238"/>
<path d="M629.483 250.052C629.483 250.052 625.615 250.751 624.119 253.428C622.623 256.105 622.337 259.885 619.257 262.474C617.479 263.981 615.489 265.218 613.351 266.145C613.351 266.145 612.367 259.393 613.853 256.706C615.339 254.019 618.321 246.676 621.402 244.894C624.483 243.113 628.154 243.999 628.755 243.999C629.355 243.999 632.426 243.802 634.316 246.184C636.206 248.566 637.2 253.339 637.889 255.229C638.775 258.029 639.278 260.936 639.385 263.871C639.385 266.352 638.194 268.537 637.416 269.039C636.562 269.428 635.658 269.696 634.729 269.836C634.729 269.836 636.324 260.79 635.625 259.698C634.926 258.605 633.145 255.229 631.688 253.241C630.231 251.253 629.483 250.052 629.483 250.052Z" fill="#263238" stroke="#263238" stroke-linecap="round" stroke-linejoin="round"/>
<path d="M622.583 290.87L624.463 301.362L629.198 304.63H633.844L632.623 290.092C632.616 289.979 632.586 289.868 632.535 289.766C632.484 289.665 632.414 289.574 632.328 289.5C632.241 289.426 632.141 289.369 632.033 289.334C631.925 289.299 631.811 289.286 631.698 289.295L623.371 289.856C623.25 289.865 623.133 289.9 623.026 289.957C622.92 290.014 622.827 290.093 622.752 290.189C622.678 290.284 622.625 290.394 622.596 290.511C622.567 290.629 622.562 290.751 622.583 290.87Z" fill="white" stroke="#263238" stroke-linecap="round" stroke-linejoin="round"/>
<path d="M606.361 309.965C606.361 309.965 613.438 302.445 614.934 300.486C616.26 298.932 617.901 297.678 619.748 296.805C620.348 296.579 625.545 296.205 626.441 296.047C627.336 295.89 628.478 296.205 628.173 296.884C627.868 297.563 627.346 297.868 625.998 298.006C625.371 298.139 624.718 298.077 624.128 297.829C624.128 297.829 625.388 301.845 625.161 302.298C624.935 302.75 621.224 304.404 619.826 304.926C619.133 305.225 618.394 305.405 617.641 305.457C616.875 308.322 615.922 311.133 614.787 313.873C613.655 316.058 611.932 318.991 610.279 319.365C608.625 319.739 606.588 319.217 606.135 318.164C605.52 315.782 605.218 313.33 605.239 310.871" fill="white"/>
<path d="M606.361 309.965C606.361 309.965 613.438 302.445 614.934 300.486C616.26 298.932 617.901 297.678 619.748 296.805C620.348 296.579 625.545 296.205 626.441 296.047C627.336 295.89 628.478 296.205 628.173 296.884C627.868 297.563 627.346 297.868 625.998 298.006C625.371 298.139 624.718 298.077 624.128 297.829C624.128 297.829 625.388 301.845 625.161 302.298C624.935 302.75 621.224 304.404 619.826 304.926C619.133 305.225 618.394 305.405 617.641 305.457C616.875 308.322 615.922 311.133 614.787 313.873C613.655 316.058 611.932 318.991 610.279 319.365C608.625 319.739 606.588 319.217 606.135 318.164C605.52 315.782 605.218 313.33 605.239 310.871" stroke="#263238" stroke-linecap="round" stroke-linejoin="round"/>
<path d="M617.64 305.457C615.671 305.231 615.012 302.819 615.012 302.819" stroke="#263238" stroke-linecap="round" stroke-linejoin="round"/>
<path d="M638.152 303.331C638.152 303.331 637.296 299.63 637.03 298.941C636.765 298.252 633.851 295.595 633.507 295.073L633.162 294.561L633.329 297.74C633.772 298.429 634.104 299.183 634.314 299.975C634.267 300.316 634.132 300.64 633.921 300.913C633.71 301.186 633.432 301.399 633.113 301.53C632.513 301.786 630.534 299.63 628.379 298.341C626.223 297.051 623.91 295.388 623.457 296.018C623.004 296.648 623.024 297.051 624.058 297.829C625.417 298.924 626.709 300.101 627.926 301.353C628.149 301.652 628.325 301.984 628.447 302.337C627.203 301.691 625.997 300.975 624.835 300.191C622.768 298.813 622.335 297.78 621.882 297.78C621.43 297.78 620.898 298.036 621.538 299.246C622.178 300.457 622.739 301.737 622.739 301.737C622.858 302.662 623.196 303.546 623.723 304.315C625.505 306.163 627.601 307.68 629.914 308.794C632.325 309.778 641.361 313.184 644.885 313.617C646.258 313.72 647.637 313.544 648.94 313.099C650.242 312.654 651.441 311.95 652.464 311.028C653.206 309.646 653.838 308.208 654.354 306.727C654.354 306.727 656.854 292.622 656.421 285.565C655.988 278.508 653.468 277.041 651.775 276.618C650.034 276.387 648.27 276.387 646.529 276.618C646.529 276.618 646.863 283.409 646.785 289.266C646.706 295.122 645.918 303.548 645.918 303.548C645.918 303.548 645.229 304.748 642.739 305.182C640.249 305.615 639.009 304.62 638.152 303.331Z" fill="white" stroke="#263238" stroke-linecap="round" stroke-linejoin="round"/>
<path d="M646.117 303.508C646.117 303.508 649.729 301.353 652.397 303.764" stroke="#263238" stroke-linecap="round" stroke-linejoin="round"/>
<path d="M622.836 301.697C624.035 303.035 625.394 304.222 626.881 305.231" stroke="#263238" stroke-linecap="round" stroke-linejoin="round"/>
<path d="M617.57 322.77C616.281 329.227 617.974 337.082 617.974 337.082H642.807C645.256 337.042 647.679 336.569 649.963 335.684C652.64 334.493 656.617 329.326 656.518 321.776C656.483 320.478 656.342 319.184 656.095 317.908H618.555C618.24 319.453 617.895 321.097 617.57 322.77Z" fill="#8A8A8A" stroke="#263238" stroke-linecap="round" stroke-linejoin="round"/>
<path d="M652.181 322.2C652.181 322.2 647.761 315.182 641.659 311.028C635.556 306.874 623.489 304.138 621.658 304.532C617.642 305.457 615.172 309.729 613.095 313.499C611.018 317.268 603.252 336.354 601.667 341.679C600.083 347.004 595.171 351.807 593.478 353.106C591.785 354.405 586.076 356.344 582.317 356.866C578.557 357.388 574.521 357.644 573.222 358.943C571.923 360.242 573.999 364.14 578.025 366.61C582.051 369.081 595.555 369.849 597.248 369.465C598.941 369.081 600.624 366.345 600.624 366.345C600.624 366.345 602.051 362.063 603.351 359.071C604.65 356.079 606.077 353.362 610.359 348.559C614.64 343.755 620.753 332.584 622.574 329.601C624.394 326.619 625.812 324.011 625.812 324.011C625.812 324.011 633.686 337.003 636.334 337.259C638.981 337.515 646.944 338.017 649.956 335.684" fill="#8A8A8A"/>
<path d="M652.181 322.2C652.181 322.2 647.761 315.182 641.659 311.028C635.556 306.874 623.489 304.138 621.658 304.532C617.642 305.457 615.172 309.729 613.095 313.499C611.018 317.268 603.252 336.354 601.667 341.679C600.083 347.004 595.171 351.807 593.478 353.106C591.785 354.405 586.076 356.344 582.317 356.866C578.557 357.388 574.521 357.644 573.222 358.943C571.923 360.242 573.999 364.14 578.025 366.61C582.051 369.081 595.555 369.849 597.248 369.465C598.941 369.081 600.624 366.345 600.624 366.345C600.624 366.345 602.051 362.063 603.351 359.071C604.65 356.079 606.077 353.362 610.359 348.559C614.64 343.755 620.753 332.584 622.574 329.601C624.394 326.619 625.812 324.011 625.812 324.011C625.812 324.011 633.686 337.003 636.334 337.259C638.981 337.515 646.944 338.017 649.956 335.684" stroke="#263238" stroke-linecap="round" stroke-linejoin="round"/>
<path d="M625.809 324.001C627.215 321.856 628.44 319.597 629.47 317.249" stroke="#263238" stroke-linecap="round" stroke-linejoin="round"/>
<path d="M599.659 346.029C597.987 348.7 595.9 351.089 593.478 353.106C591.795 354.405 586.076 356.344 582.317 356.866C578.557 357.388 574.521 357.644 573.222 358.943C571.923 360.242 573.999 364.14 578.025 366.61C582.051 369.081 595.555 369.849 597.248 369.465C598.941 369.081 600.624 366.345 600.624 366.345C600.624 366.345 602.051 362.063 603.351 359.071C604.479 356.376 605.984 353.854 607.819 351.58C605.309 348.017 601.018 346.452 599.659 346.029Z" fill="white" stroke="#263238" stroke-linecap="round" stroke-linejoin="round"/>
<path d="M598.518 360.35C598.253 358.601 597.665 356.915 596.785 355.38C595.926 354.318 594.777 353.528 593.478 353.106C591.775 354.405 586.076 356.344 582.317 356.866C578.557 357.388 574.521 357.644 573.222 358.943C571.923 360.242 573.999 364.14 578.025 366.61C582.051 369.081 595.555 369.849 597.248 369.465C598.941 369.081 600.624 366.345 600.624 366.345C600.624 366.345 601.323 364.258 602.189 361.974L598.518 360.35Z" fill="white" stroke="#263238" stroke-linecap="round" stroke-linejoin="round"/>
<path d="M625.81 324.001C625.81 324.001 632.857 327.279 634.363 329.907C634.89 330.87 635.212 331.932 635.31 333.026C635.409 334.12 635.281 335.223 634.934 336.265C634.59 337.19 632.395 339.848 632.05 340.891C631.706 341.934 634.363 353.264 634.708 362.279C635.052 371.295 635.052 379.741 635.741 382.398C636.43 385.056 637.828 388.412 638.172 390.833C638.517 393.255 639.098 396.621 638.409 397.654C637.72 398.688 636.667 398.698 636.558 399.279C636.45 399.859 636.44 401.011 634.472 401.473C632.503 401.936 623.645 401.7 623.143 401.011C622.641 400.322 624.412 397.31 625.111 395.922C626.402 392.652 627.445 389.289 628.231 385.863C628.694 383.432 627.188 379.741 626.962 379.386C626.735 379.032 619.904 360.429 618.29 352.102C616.676 343.775 614.934 341.61 617.247 338.578C620.022 334.985 623.211 327.406 625.81 324.001Z" fill="#8A8A8A" stroke="#263238" stroke-linecap="round" stroke-linejoin="round"/>
<path d="M635.742 382.437C635.536 381.485 635.404 380.517 635.349 379.544L627.474 380.528C628.159 382.225 628.432 384.06 628.272 385.882C627.485 389.309 626.442 392.672 625.151 395.942C624.453 397.33 622.72 400.332 623.183 401.031C623.646 401.729 632.553 401.956 634.512 401.493C636.471 401.031 636.481 399.869 636.599 399.298C636.717 398.727 637.75 398.717 638.449 397.674C639.148 396.631 638.557 393.284 638.213 390.853C637.868 388.422 636.441 385.095 635.742 382.437Z" fill="white" stroke="#263238" stroke-linecap="round" stroke-linejoin="round"/>
<path d="M636.894 386.119L635.634 386.946C635.246 386.388 634.748 385.916 634.171 385.557C633.594 385.199 632.95 384.961 632.278 384.859C629.945 384.337 628.341 386.414 628.046 386.768C627.27 389.896 626.283 392.967 625.093 395.962C624.394 397.349 622.662 400.351 623.124 401.05C623.587 401.749 632.495 401.975 634.453 401.513C636.412 401.05 636.422 399.889 636.54 399.318C636.658 398.747 637.692 398.737 638.39 397.694C639.089 396.651 638.499 393.304 638.154 390.873C637.861 389.257 637.44 387.668 636.894 386.119Z" fill="white" stroke="#263238" stroke-linecap="round" stroke-linejoin="round"/>
<path d="M516.782 299.217H553.033C553.033 299.217 557.708 298.921 559.027 295.703C560.346 292.484 562.679 287.829 561.655 282.848C560.631 277.868 556.537 273.143 556.537 273.143L516.752 271.106C516.752 271.106 512.549 273.635 511.673 281.234C510.797 288.833 511.811 295.851 516.782 299.217Z" fill="#263238" stroke="#263238" stroke-linecap="round" stroke-linejoin="round"/>
<path d="M564.924 232C566.77 235.786 567.614 239.981 567.375 244.186C567.099 251.627 567.109 253.044 567.109 253.044C567.109 253.044 568.595 258.29 567.916 261.676C567.237 265.062 563.31 272.1 563.31 272.1L556.676 260.023L557.217 251.223C557.217 251.223 559.412 237.06 564.924 232Z" fill="#B5B5B5" stroke="#263238" stroke-linecap="round" stroke-linejoin="round"/>
<path d="M557.217 251.213L557 254.688C560.293 253.525 563.66 252.584 567.079 251.873C567.148 250.072 567.246 247.532 567.364 244.186C567.607 239.982 566.766 235.786 564.923 232C559.411 237.059 557.217 251.213 557.217 251.213Z" fill="#92E3A9" stroke="#263238" stroke-linecap="round" stroke-linejoin="round"/>
<path d="M534.343 222.797C534.343 222.797 522.532 225.918 518.919 227.945C515.307 229.973 518.378 243.369 518.782 246.076C519.185 248.782 516.754 271.106 516.754 271.106C516.754 271.106 525.012 276.519 538.27 276.382C551.528 276.244 556.548 273.143 556.548 273.143C556.548 273.143 556.548 267.454 556.686 265.426C556.824 263.399 557.227 251.213 557.227 251.213C557.227 251.213 560.741 236.065 563.989 233.083L564.974 232C564.974 232 562.513 227.433 553.33 225.524C544.146 223.614 540.298 222.128 534.343 222.797Z" fill="#92E3A9" stroke="#263238" stroke-linecap="round" stroke-linejoin="round"/>
<path d="M545.167 239.166C550.173 239.166 554.232 234.468 554.232 228.673C554.232 222.879 550.173 218.181 545.167 218.181C540.16 218.181 536.102 222.879 536.102 228.673C536.102 234.468 540.16 239.166 545.167 239.166Z" fill="#B5B5B5" stroke="#263238" stroke-linecap="round" stroke-linejoin="round"/>
<path d="M521.761 227C521.761 227 524.064 235.111 522.302 240.121C520.541 245.131 518.779 250.269 518.779 250.269L515.403 264.482C515.403 264.482 525.551 272.602 531.909 274.492C538.267 276.382 538.13 278.281 538.947 279.088C539.764 279.895 545.305 288.291 545.581 289.374C546.005 292.522 546.209 295.696 546.191 298.872C545.984 299.67 545.492 299.374 545.098 299.177C544.705 298.981 544.301 297.091 544.399 296.599C543.93 297.409 543.503 298.244 543.12 299.099C542.825 299.601 541.831 299.502 541.535 299.305C541.24 299.108 541.24 297.918 541.338 297.12C541.437 296.323 541.634 294.837 541.634 294.837C541.334 295.832 540.935 296.795 540.443 297.711C539.951 298.41 539.557 299 538.956 299.207C538.356 299.414 537.273 299.305 537.569 298.508C537.864 297.711 536.378 298.705 536.378 297.524C536.378 296.343 535.787 291.776 535.59 290.683C535.382 289.845 535.05 289.042 534.606 288.301L533.12 284.433L532.519 282.051C532.519 282.051 509.881 276.204 507.725 275.21C507.058 274.959 506.482 274.511 506.074 273.926C505.666 273.341 505.446 272.646 505.442 271.933C505.343 271.244 505.442 261.617 505.835 256.962C506.229 252.306 508.847 245.15 509.438 242.955C510.028 240.76 512.135 234.461 513.218 232.876C514.3 231.292 516.85 226.843 521.761 227Z" fill="#B5B5B5" stroke="#263238" stroke-linecap="round" stroke-linejoin="round"/>
<path d="M515.404 264.482C515.404 264.482 510.876 262.838 509.941 262.287" stroke="#263238" stroke-linecap="round" stroke-linejoin="round"/>
<path d="M537.57 298.508L538.761 294.64V290.575" fill="white"/>
<path d="M537.57 298.508L538.761 294.64V290.575" stroke="#263238" stroke-linecap="round" stroke-linejoin="round"/>
<path d="M541.637 294.837C541.637 294.837 541.735 292.75 541.735 291.165L541.637 294.837Z" fill="white"/>
<path d="M541.637 294.837C541.637 294.837 541.735 292.75 541.735 291.165" stroke="#263238" stroke-linecap="round" stroke-linejoin="round"/>
<path d="M544.402 296.599C544.506 295.618 544.546 294.632 544.52 293.646C544.312 292.834 544.046 292.037 543.723 291.264" fill="white"/>
<path d="M544.402 296.599C544.506 295.618 544.546 294.632 544.52 293.646C544.312 292.834 544.046 292.037 543.723 291.264" stroke="#263238" stroke-linecap="round" stroke-linejoin="round"/>
<path d="M522.49 279.63C522.49 279.63 511.82 272.179 507.883 270.86C503.946 269.541 500.009 275.21 498.326 278.094C496.554 281.155 500.609 290.89 504.694 302.12C508.631 313.006 511.889 322.219 511.889 322.219L522.273 323.204C522.273 323.204 518.336 313.164 518.336 308.164C518.336 304.689 516.141 296.864 517.184 296.874C517.184 296.874 522.667 293.331 523.543 289.088C524.419 284.846 522.49 279.63 522.49 279.63Z" fill="#B5B5B5" stroke="#263238" stroke-linecap="round" stroke-linejoin="round"/>
<path d="M516.93 295.703L517.914 283.577C517.728 281.821 517.045 280.155 515.945 278.773" stroke="#263238" stroke-linecap="round" stroke-linejoin="round"/>
<path d="M579.234 252.355C577.525 253.904 575.73 255.356 573.86 256.706C572.974 257.099 569.854 265.112 568.427 266.48C565.218 269.56 559.568 269.177 558.801 268.448C556.832 266.578 556.931 262.838 557.068 262.031C557.206 261.224 561.478 258.044 562.541 257.375C563.604 256.706 568.614 253.33 568.614 253.33L570.002 250.042L576.173 248.143L579.234 252.355Z" fill="#B5B5B5" stroke="#263238" stroke-linecap="round" stroke-linejoin="round"/>
<path d="M576.901 251.873L568.16 251.007L573.131 232.374L581.871 233.25L576.901 251.873Z" fill="#263238" stroke="#263238" stroke-linecap="round" stroke-linejoin="round"/>
<path d="M570.681 253.133C570.424 253.756 570.303 254.427 570.327 255.101C570.6 255.715 571.019 256.252 571.548 256.666" fill="#B5B5B5"/>
<path d="M570.681 253.133C570.424 253.756 570.303 254.427 570.327 255.101C570.6 255.715 571.019 256.252 571.548 256.666" stroke="#263238" stroke-linecap="round" stroke-linejoin="round"/>
<path d="M581.526 240.819C581.436 239.369 581.236 237.928 580.926 236.508C580.621 235.918 577.077 234.481 576.546 234.382C576.014 234.284 574.695 234.874 574.695 235.691C574.695 236.508 577.166 237.069 577.166 237.069L578.839 238.319L578.672 240.052L580.453 242.257L581.526 240.819Z" fill="#B5B5B5" stroke="#263238" stroke-linecap="round" stroke-linejoin="round"/>
<path d="M581.87 241.961C581.87 241.961 579.547 238.172 578.839 238.32C578.13 238.467 573.839 239.747 573.356 240.199C572.874 240.652 573.169 242.07 573.169 242.07L575.02 242.129C575.02 242.129 572.776 243.497 572.746 244.442V245.426C573.375 245.397 574.005 245.46 574.616 245.613C575.118 245.839 573.15 246.981 573.691 247.759C573.917 248.084 576.102 248.566 577.195 249.462C578.136 250.243 578.85 251.263 579.262 252.414C579.262 252.414 581.506 245.564 581.87 241.961Z" fill="#B5B5B5" stroke="#263238" stroke-linecap="round" stroke-linejoin="round"/>
<path d="M575.023 242.129C575.988 241.887 576.99 241.827 577.976 241.951C578.872 242.247 580.722 244.904 580.722 244.904" fill="#B5B5B5"/>
<path d="M575.023 242.129C575.988 241.887 576.99 241.827 577.976 241.951C578.872 242.247 580.722 244.904 580.722 244.904" stroke="#263238" stroke-linecap="round" stroke-linejoin="round"/>
<path d="M574.59 245.574L577.159 245.613L579.767 248.517" fill="#B5B5B5"/>
<path d="M574.59 245.574L577.159 245.613L579.767 248.517" stroke="#263238" stroke-linecap="round" stroke-linejoin="round"/>
<path d="M561.182 266.982C561.182 266.982 554.863 274.295 553.839 280.437C552.815 286.579 553.553 289.197 555.01 290.811C556.467 292.425 559.686 293.144 559.686 293.144C561.171 295.147 562.226 297.436 562.786 299.866C563.482 302.746 564.356 305.58 565.404 308.351L565.109 323.253L565.257 325.595L574.026 323.401L575.247 310.536C575.247 310.536 578.751 289.492 576.851 283.203C574.952 276.913 573.2 268.586 571.586 266.982C569.971 265.377 563.229 265.377 561.182 266.982Z" fill="#B5B5B5" stroke="#263238" stroke-linecap="round" stroke-linejoin="round"/>
<path d="M533.801 263.399C534.49 263.724 535.208 264.058 535.966 264.383" stroke="#263238" stroke-linecap="round" stroke-linejoin="round"/>
<path d="M522.176 255.584C522.176 255.584 524.725 258.536 531.103 262.031" stroke="#263238" stroke-linecap="round" stroke-linejoin="round"/>
<path d="M528.082 264.649C528.082 264.649 529.795 268.586 540.041 268.586" stroke="#263238" stroke-linecap="round" stroke-linejoin="round"/>
<path d="M552.747 259.747C550.8 260.819 548.741 261.67 546.605 262.287" stroke="#263238" stroke-linecap="round" stroke-linejoin="round"/>
<path d="M550.935 270.427C550.935 270.427 542.667 272.523 535.57 272.129" stroke="#263238" stroke-linecap="round" stroke-linejoin="round"/>
<path d="M559.689 293.144C558.439 291.677 557.218 279.039 559.689 279.285" stroke="#263238" stroke-linecap="round" stroke-linejoin="round"/>
<path d="M519.401 248.487C520.06 246.518 521.182 243.31 522.353 240.121C524.115 235.111 521.812 227 521.812 227C516.891 226.843 514.351 231.272 513.259 232.906C512.166 234.54 510.079 240.78 509.479 242.985C509.331 243.556 509.036 244.471 508.672 245.583L519.401 248.487Z" fill="#92E3A9" stroke="#263238" stroke-linecap="round" stroke-linejoin="round"/>
<path d="M522.275 323.243C520.613 321.81 518.854 320.494 517.009 319.306C515.552 318.568 514.824 319.05 513.367 320.074C511.911 321.097 509.43 324.857 508.387 326.757C507.558 328.371 506.631 329.932 505.611 331.432C504.145 333.627 504.292 335.674 505.168 336.984C506.044 338.293 512.915 338.598 515.7 338.302C518.148 337.899 520.402 336.719 522.127 334.936C523.003 333.952 523.112 329.533 523.112 328.657C523.112 327.781 522.275 323.243 522.275 323.243Z" fill="white" stroke="#263238" stroke-linecap="round" stroke-linejoin="round"/>
<path d="M522.098 334.936C522.655 333.833 522.955 332.618 522.974 331.383C520.919 333.241 518.531 334.693 515.937 335.665C512.265 336.983 506.743 336.098 504.598 335.665C504.696 336.133 504.88 336.58 505.139 336.983C506.015 338.302 512.885 338.598 515.671 338.302C518.119 337.899 520.372 336.719 522.098 334.936Z" fill="white" stroke="#263238" stroke-linecap="round" stroke-linejoin="round"/>
<path d="M520.787 328.233C520.787 328.233 520.413 334.73 519.113 336.59" stroke="#263238" stroke-linecap="round" stroke-linejoin="round"/>
<path d="M575.946 325.3C575.946 325.3 575.651 321.944 573.17 321.363C570.69 320.782 567.619 322.091 567.028 322.83C566.438 323.568 565.129 323.263 565.129 323.263C565.129 323.263 564.4 323.41 563.524 326.334C562.648 329.257 562.058 332.328 562.54 333.647C563.022 334.966 562.245 335.104 563.524 335.684C564.906 336.212 566.32 336.652 567.757 337.003C568.083 337.528 568.513 337.981 569.021 338.333C569.529 338.685 570.104 338.929 570.71 339.051C572.471 339.198 579.922 339.484 580.946 338.903C581.7 338.283 582.245 337.446 582.505 336.505C582.766 335.564 582.73 334.566 582.403 333.647C581.497 331.442 575.946 326.954 575.946 325.3Z" fill="white" stroke="#263238" stroke-linecap="round" stroke-linejoin="round"/>
<path d="M577.992 337.17C572.795 337.535 569.459 336.245 568.337 335.31C567.569 334.67 564.4 334.031 562.52 333.696C562.913 334.946 562.224 335.104 563.504 335.665C564.886 336.192 566.299 336.633 567.736 336.983C568.062 337.509 568.492 337.961 569 338.313C569.508 338.665 570.083 338.91 570.689 339.031C572.451 339.178 579.902 339.464 580.926 338.883C581.727 338.273 582.285 337.397 582.5 336.413C581.031 336.833 579.519 337.087 577.992 337.17Z" fill="white" stroke="#263238" stroke-linecap="round" stroke-linejoin="round"/>
<path d="M567.039 329.375C567.485 331.891 567.725 334.439 567.758 336.993" stroke="#263238" stroke-linecap="round" stroke-linejoin="round"/>
<path d="M528.004 239.756C526.124 242.424 523.565 245.534 521.055 246.883" stroke="#263238" stroke-linecap="round" stroke-linejoin="round"/>
<path d="M530.954 235.189C530.954 235.189 530.452 236.085 529.625 237.404" stroke="#263238" stroke-linecap="round" stroke-linejoin="round"/>
<path d="M525.345 237.788C524.616 239.866 523.552 241.811 522.195 243.546" stroke="#263238" stroke-linecap="round" stroke-linejoin="round"/>
<path d="M557.819 217.699C557.819 217.699 559.896 216.931 560.142 218.683C560.388 220.435 558.675 223.536 557.563 224.264C556.451 224.992 556.273 224.126 556.273 224.126L557.819 217.699Z" fill="#BABABA" stroke="#263238" stroke-linecap="round" stroke-linejoin="round"/>
<path d="M536.862 216.016C536.862 216.016 536.33 212.797 534.785 214.52C533.24 216.242 533.683 220.504 534.293 221.587C534.565 221.934 534.909 222.219 535.301 222.421C535.694 222.623 536.125 222.738 536.567 222.758C536.567 222.758 537.059 223.742 538.466 226.695C539.874 229.648 543.171 234.5 547.049 234.815C550.927 235.13 553.043 233.063 555.16 228.91C556.439 226.41 558.053 223.988 558.162 219.362C558.27 214.736 558.91 215.1 559.146 210.258C559.382 205.415 560.396 202.383 558.949 200.661C557.502 198.938 550.307 197.344 545.021 198.062C539.736 198.781 538.063 199.391 537.462 201.773C536.862 204.155 536.862 216.016 536.862 216.016Z" fill="#BABABA" stroke="#263238" stroke-linecap="round" stroke-linejoin="round"/>
<path d="M546.879 216.104C546.193 215.537 545.314 215.258 544.426 215.328C543.539 215.398 542.713 215.81 542.125 216.478" stroke="#263238" stroke-linecap="round" stroke-linejoin="round"/>
<path d="M551.949 216.567C552.225 216.232 554.321 215.159 555.886 217.768" stroke="#263238" stroke-linecap="round" stroke-linejoin="round"/>
<path d="M545.209 221.183C544.457 221.948 543.5 222.481 542.453 222.719" stroke="#263238" stroke-width="0.5" stroke-linecap="round" stroke-linejoin="round"/>
<path d="M551.41 222.108C551.963 223.047 552.843 223.748 553.881 224.077" stroke="#263238" stroke-width="0.5" stroke-linecap="round" stroke-linejoin="round"/>
<path d="M558.279 216.774C558.682 214.629 558.968 212.463 559.136 210.287C559.411 205.445 560.386 202.413 558.939 200.69C557.492 198.968 550.297 197.373 545.011 198.092C539.726 198.811 538.053 199.421 537.452 201.803C536.93 203.85 536.842 212.777 536.832 215.327L536.921 215.553C536.803 216.468 536.803 217.394 536.921 218.309C537.147 218.959 538.033 219.293 538.269 218.112C538.505 216.931 538.131 213.535 538.958 212.394C539.785 211.252 539.539 208.929 540.858 207.167C542.177 205.405 545.779 206.606 547.649 207.836C549.519 209.067 549.962 209.382 552.236 208.821C554.51 208.26 555.602 206.99 557.266 208.171C558.929 209.352 558.476 211.045 558.25 213.151C558.103 214.355 558.113 215.573 558.279 216.774Z" fill="#263238" stroke="#263238" stroke-linecap="round" stroke-linejoin="round"/>
<path d="M550.019 220.435L549.832 221.951C549.832 221.951 550.817 222.502 550.167 224.402C549.517 226.301 548.051 226.607 546.673 225.721C545.295 224.835 545.994 223.752 545.994 223.752" fill="#BABABA"/>
<path d="M550.019 220.435L549.832 221.951C549.832 221.951 550.817 222.502 550.167 224.402C549.517 226.301 548.051 226.607 546.673 225.721C545.295 224.835 545.994 223.752 545.994 223.752" stroke="#263238" stroke-linecap="round" stroke-linejoin="round"/>
<path d="M544.59 219.539C544.59 220.15 544.255 220.632 543.93 220.612C543.606 220.593 543.379 220.081 543.419 219.471C543.458 218.86 543.743 218.378 544.068 218.398C544.393 218.417 544.619 218.929 544.59 219.539Z" fill="#263238"/>
<path d="M553.517 220.179C553.399 220.78 553.044 221.163 552.729 221.163C552.415 221.163 552.257 220.553 552.375 219.953C552.493 219.352 552.857 218.919 553.172 218.968C553.487 219.018 553.645 219.579 553.517 220.179Z" fill="#263238"/>
<path d="M543.89 226.242C543.772 227.148 546.843 231.863 551.203 227.738" stroke="#263238" stroke-linecap="round" stroke-linejoin="round"/>
<path d="M451.33 285.388C450.828 284.492 445.858 280.269 445.858 280.269L425.641 267.897L426.851 280.437L441.064 284.049L442.767 284.915L447.255 287.425L447.728 291.067C447.728 291.067 445.759 292.051 446.025 292.691C446.291 293.331 447.728 293.547 448.289 294.039C448.85 294.532 449.657 294.256 450.139 294.167C450.191 294.18 450.244 294.18 450.295 294.168C450.347 294.156 450.394 294.132 450.435 294.098C451.155 293.526 451.83 292.897 452.452 292.218C452.452 292.218 451.822 286.273 451.33 285.388Z" fill="white" stroke="#263238" stroke-linecap="round" stroke-linejoin="round"/>
<path d="M430.581 269.6L426.624 282.012L422.539 279.344L425.59 267.877L430.581 269.6Z" fill="#92E3A9" stroke="#263238" stroke-linecap="round" stroke-linejoin="round"/>
<path d="M447.291 284.138C447.959 284.872 448.55 285.673 449.053 286.529C449.289 287.189 450.844 292.218 450.844 292.218C450.844 292.218 449.486 293.774 448.876 292.474C448.366 291.164 447.952 289.818 447.635 288.449C446.394 287.931 445.327 287.066 444.564 285.958C443.991 284.881 443.574 283.728 443.324 282.533" fill="white"/>
<path d="M447.291 284.138C447.959 284.872 448.55 285.673 449.053 286.529C449.289 287.189 450.844 292.218 450.844 292.218C450.844 292.218 449.486 293.774 448.876 292.474C448.366 291.164 447.952 289.818 447.635 288.449C446.394 287.931 445.327 287.066 444.564 285.958C443.991 284.881 443.574 283.728 443.324 282.533" stroke="#263238" stroke-linecap="round" stroke-linejoin="round"/>
<path d="M392.252 297.927C392.231 299.856 392.316 301.785 392.508 303.705C392.774 304.748 393.699 311.579 393.699 311.579C393.699 311.579 385.687 348.598 384.112 352.279C382.537 355.96 375.578 374.593 374.141 379.189C372.704 383.786 370.598 386.276 371.513 387.457L372.438 388.638C372.438 388.638 367.97 397.438 368.757 397.96C369.545 398.481 378.344 400.853 383.856 401.109C389.368 401.365 397.508 402.034 398.03 401.109C398.551 400.184 398.817 398.353 398.03 397.832C397.242 397.31 393.837 396.385 392.518 395.204C391.199 394.022 387.665 389.82 387.665 389.82C388.304 388.759 388.788 387.612 389.102 386.414C389.288 384.73 389.597 383.062 390.027 381.424C390.421 380.636 402.232 353.195 402.754 349.927C403.276 346.659 411.731 324.148 411.731 324.148C411.731 324.148 416.79 340.763 417.833 344.307C418.877 347.85 427.332 386.434 427.332 387.093C427.332 387.753 427.46 389.455 427.853 389.849L428.778 390.764C428.778 390.764 430.481 398.639 430.481 399.042C430.441 399.295 430.454 399.553 430.521 399.8C430.587 400.047 430.705 400.277 430.867 400.475C431.029 400.673 431.231 400.835 431.459 400.949C431.688 401.063 431.938 401.128 432.194 401.139C434.025 401.404 445.058 400.479 446.761 400.479C448.464 400.479 451.751 399.032 453.198 398.117C454.645 397.202 455.295 395.361 454.114 394.967C452.933 394.574 448.208 394.446 446.367 393.786C444.527 393.127 441.505 389.583 441.505 389.583C441.776 388.811 441.997 388.022 442.165 387.221C442.165 386.827 438.887 381.975 438.887 381.581C438.887 381.187 434.212 335.645 434.212 335.645C434.212 335.645 424.94 302.927 424.94 302.534C424.94 302.14 423.621 295.841 423.621 295.841C423.621 295.841 415.747 288.626 412.075 288.488C408.404 288.35 412.725 286.785 403.148 289.541C393.571 292.297 392.252 297.927 392.252 297.927Z" fill="#263238" stroke="#263238" stroke-linecap="round" stroke-linejoin="round"/>
<path d="M403 215.612C403 215.612 391.583 230.189 391.189 232.552C390.795 234.914 390.136 247.119 390.136 247.778C390.136 248.438 390.008 270.751 390.008 270.751L390.529 290.437L391.061 299.62C391.061 299.62 401.298 295.417 403.926 294.236C406.554 293.055 409.703 291.746 410.353 291.48C411.002 291.215 420.333 295.289 421.387 295.939C422.44 296.589 426.633 299.876 426.633 299.876C426.633 299.876 428.208 278.222 427.686 274.797C427.164 271.372 425.845 239.747 425.845 239.747L416.652 224.382L403 215.612Z" fill="#92E3A9" stroke="#263238" stroke-linecap="round" stroke-linejoin="round"/>
<path d="M408.789 258.015L410.236 277.444" stroke="#263238" stroke-linecap="round" stroke-linejoin="round"/>
<path d="M432.242 197.728C432.245 199.642 432.107 201.553 431.829 203.447L431.455 204.854C431.455 204.854 433.424 209.352 433.01 209.775C432.065 210.37 431.078 210.896 430.057 211.35C430.057 211.35 426.514 220.258 425.579 220.898C424.644 221.538 417.331 218.988 417.331 218.988L413.344 221.862L405.559 212.581L406.789 208.84C406.789 208.84 406.415 190.799 407.094 190.07C407.773 189.342 416.356 184.657 420.234 185.523C424.112 186.389 429.408 188.318 431.484 189.923C433.561 191.527 436.268 195.169 434.998 195.966C433.729 196.763 432.242 197.728 432.242 197.728Z" fill="white" stroke="#263238" stroke-linecap="round" stroke-linejoin="round"/>
<path d="M423.984 211.252C423.984 211.252 426.819 213.84 428.63 213.575" stroke="#263238" stroke-linecap="round" stroke-linejoin="round"/>
<path d="M435 195.946C436.269 195.149 433.553 191.497 431.486 189.903C429.419 188.308 424.114 186.359 420.235 185.503C416.357 184.647 407.784 189.322 407.095 190.05C406.406 190.779 406.79 208.821 406.79 208.821L406.711 209.057L413.139 206.389L414.359 203.063L417.627 202.157C417.627 202.157 422.302 201.173 422.548 199.893C422.795 198.614 423.287 194.43 423.287 194.43L432.283 197.728C432.283 197.728 433.73 196.734 435 195.946Z" fill="#263238" stroke="#263238" stroke-linecap="round" stroke-linejoin="round"/>
<path d="M417.833 203.417C417.833 203.417 417.676 200.464 415.373 200.622C413.07 200.779 411.721 203.939 413.138 206.389C414.556 208.84 416.032 207.521 416.032 207.521" fill="white"/>
<path d="M417.833 203.417C417.833 203.417 417.676 200.464 415.373 200.622C413.07 200.779 411.721 203.939 413.138 206.389C414.556 208.84 416.032 207.521 416.032 207.521" stroke="#263238" stroke-linecap="round" stroke-linejoin="round"/>
<path d="M428.76 205.336C428.553 205.907 428.081 206.271 427.707 206.133C427.333 205.996 427.195 205.415 427.411 204.834C427.628 204.253 428.101 203.85 428.475 204.037C428.849 204.224 428.977 204.755 428.76 205.336Z" fill="#263238"/>
<path d="M427.008 202.108C427.008 202.108 429.094 201.753 429.961 203.19" stroke="#263238" stroke-linecap="round" stroke-linejoin="round"/>
<path d="M404.587 212.462L417.579 220.602L417.786 226.479L400.758 217.453L404.587 212.462Z" fill="#92E3A9" stroke="#263238" stroke-linecap="round" stroke-linejoin="round"/>
<path d="M414.183 234.737L417.136 242.473C418.474 243.387 419.762 244.373 420.995 245.426C421.89 246.312 424.656 252.818 424.656 252.818L430.03 252.454L436.3 259.983C436.3 259.983 423.928 270.899 418.583 270.003C413.238 269.108 395.512 240.386 395.216 237.709C394.921 235.032 396.506 227.719 396.506 227.719C396.506 227.719 399.409 222.561 403.268 222.561" fill="#92E3A9"/>
<path d="M414.183 234.737L417.136 242.473C418.474 243.387 419.762 244.373 420.995 245.426C421.89 246.312 424.656 252.818 424.656 252.818L430.03 252.454L436.3 259.983C436.3 259.983 423.928 270.899 418.583 270.003C413.238 269.108 395.512 240.386 395.216 237.709C394.921 235.032 396.506 227.719 396.506 227.719C396.506 227.719 399.409 222.561 403.268 222.561" stroke="#263238" stroke-linecap="round" stroke-linejoin="round"/>
<path d="M445.137 234.569L455.511 224.992L457.194 225.868L446.21 236.311L445.137 234.569Z" fill="#263238" stroke="#263238" stroke-linecap="round" stroke-linejoin="round"/>
<path d="M432.223 250.633L441.081 242.591C441.111 240.717 441.255 238.847 441.514 236.991C441.829 235.829 443.847 233.93 444.113 233.132C444.378 232.335 444.693 229.067 445.432 229.195C446.17 229.323 446.701 230.357 446.751 231.046C446.689 232.04 446.548 233.027 446.327 233.998L446.219 236.331L452.509 230.888L453.572 232.483C453.308 233.012 453.078 233.558 452.883 234.117C452.617 234.904 452.243 239.038 452.026 240.022C451.81 241.006 445.835 246.302 445.835 246.302L438.433 257.198L432.223 250.633Z" fill="white" stroke="#263238" stroke-linecap="round" stroke-linejoin="round"/>
<path d="M426.84 252.71L435.846 262.877L439.803 257.808L431.86 248.999L426.84 252.71Z" fill="#92E3A9" stroke="#263238" stroke-linecap="round" stroke-linejoin="round"/>
</svg>
