<svg width="25" height="24" viewBox="0 0 25 24" fill="none" xmlns="http://www.w3.org/2000/svg">
<path d="M23.917 5.92566H1.41699C1.21808 5.92566 1.02731 6.00468 0.886662 6.14533C0.74601 6.28598 0.666992 6.47675 0.666992 6.67566C0.666992 6.87457 0.74601 7.06534 0.886662 7.20599C1.02731 7.34664 1.21808 7.42566 1.41699 7.42566H2.16699V17.9257C2.16699 18.1246 2.24601 18.3153 2.38666 18.456C2.52731 18.5966 2.71808 18.6757 2.91699 18.6757C3.1159 18.6757 3.30667 18.5966 3.44732 18.456C3.58797 18.3153 3.66699 18.1246 3.66699 17.9257V13.4257H21.667V17.9257C21.667 18.1246 21.746 18.3153 21.8867 18.456C22.0273 18.5966 22.2181 18.6757 22.417 18.6757C22.6159 18.6757 22.8067 18.5966 22.9473 18.456C23.088 18.3153 23.167 18.1246 23.167 17.9257V7.42566H23.917C24.1159 7.42566 24.3067 7.34664 24.4473 7.20599C24.588 7.06534 24.667 6.87457 24.667 6.67566C24.667 6.47675 24.588 6.28598 24.4473 6.14533C24.3067 6.00468 24.1159 5.92566 23.917 5.92566ZM3.66699 7.42566H11.917V11.9257H3.66699V7.42566ZM21.667 11.9257H13.417V7.42566H21.667V11.9257ZM9.66699 9.67566C9.66699 9.87457 9.58797 10.0653 9.44732 10.206C9.30667 10.3466 9.1159 10.4257 8.91699 10.4257H6.66699C6.46808 10.4257 6.27731 10.3466 6.13666 10.206C5.99601 10.0653 5.91699 9.87457 5.91699 9.67566C5.91699 9.47675 5.99601 9.28598 6.13666 9.14533C6.27731 9.00468 6.46808 8.92566 6.66699 8.92566H8.91699C9.1159 8.92566 9.30667 9.00468 9.44732 9.14533C9.58797 9.28598 9.66699 9.47675 9.66699 9.67566ZM15.667 9.67566C15.667 9.47675 15.746 9.28598 15.8867 9.14533C16.0273 9.00468 16.2181 8.92566 16.417 8.92566H18.667C18.8659 8.92566 19.0567 9.00468 19.1973 9.14533C19.338 9.28598 19.417 9.47675 19.417 9.67566C19.417 9.87457 19.338 10.0653 19.1973 10.206C19.0567 10.3466 18.8659 10.4257 18.667 10.4257H16.417C16.2181 10.4257 16.0273 10.3466 15.8867 10.206C15.746 10.0653 15.667 9.87457 15.667 9.67566Z" fill="#277F60"/>
</svg>
