<svg width="24" height="24" viewBox="0 0 24 24" fill="none" xmlns="http://www.w3.org/2000/svg">
<path d="M20.3774 20.6594C20.3746 20.6513 20.3711 20.6435 20.3671 20.6359L16.1034 11.5553L18.0252 8.53844C18.029 8.53303 18.0325 8.52739 18.0355 8.52156C18.1754 8.28848 18.2492 8.02179 18.2492 7.75C18.2492 7.47821 18.1754 7.21152 18.0355 6.97844C18.0271 6.96344 18.0168 6.94844 18.0074 6.93437L15.9993 4.06563V1.75C15.9993 1.55109 15.9203 1.36032 15.7796 1.21967C15.639 1.07902 15.4482 1 15.2493 1C15.0504 1 14.8596 1.07902 14.719 1.21967C14.5783 1.36032 14.4993 1.55109 14.4993 1.75V4.03937L14.0062 4.65625C13.7954 4.91971 13.528 5.13239 13.2239 5.27855C12.9198 5.4247 12.5867 5.50059 12.2493 5.50059C11.9119 5.50059 11.5788 5.4247 11.2747 5.27855C10.9706 5.13239 10.7032 4.91971 10.4924 4.65625L9.9993 4.03937V1.75C9.9993 1.55109 9.92028 1.36032 9.77963 1.21967C9.63898 1.07902 9.44821 1 9.2493 1C9.05039 1 8.85962 1.07902 8.71897 1.21967C8.57832 1.36032 8.4993 1.55109 8.4993 1.75V4.06563L6.49117 6.93437C6.4818 6.94844 6.47149 6.96344 6.46305 6.97844C6.32324 7.21152 6.2494 7.47821 6.2494 7.75C6.2494 8.02179 6.32324 8.28848 6.46305 8.52156C6.46614 8.52739 6.46959 8.53303 6.47336 8.53844L8.39524 11.5553L4.13149 20.6359C4.12749 20.6435 4.12404 20.6513 4.12117 20.6594C4.02347 20.8875 3.98388 21.1362 4.00594 21.3834C4.02801 21.6306 4.11105 21.8684 4.24762 22.0756C4.38419 22.2827 4.57003 22.4528 4.78847 22.5705C5.00692 22.6882 5.25116 22.7499 5.4993 22.75H18.9993C19.2475 22.75 19.4919 22.6885 19.7104 22.5708C19.929 22.4532 20.115 22.2832 20.2517 22.076C20.3883 21.8687 20.4715 21.6309 20.4936 21.3836C20.5157 21.1364 20.4761 20.8875 20.3784 20.6594H20.3774ZM7.7493 7.75L9.28961 5.55344L9.32055 5.59281C9.67186 6.03214 10.1175 6.38681 10.6245 6.63054C11.1315 6.87427 11.6868 7.00082 12.2493 7.00082C12.8118 7.00082 13.3671 6.87427 13.8741 6.63054C14.3811 6.38681 14.8267 6.03214 15.178 5.59281L15.209 5.55344L16.7493 7.75L14.8387 10.75H9.66086L7.7493 7.75ZM5.4993 21.25L9.72461 12.25H14.7721L18.9993 21.25H5.4993Z" fill="black"/>
</svg>
