<svg width="456" height="340" viewBox="0 0 456 340" fill="none" xmlns="http://www.w3.org/2000/svg">
<g clip-path="url(#clip0_1678_1942)">
<path d="M250.787 91.8209L256 190L241.257 100.675C239.962 92.8262 233.096 87.1211 225.143 87.2843L58.3159 90.7063C50.1656 90.8735 43.4441 97.1417 42.7092 105.261L24.5124 306.292C23.689 315.389 30.6355 323.328 39.7612 323.719L256 333L17.9108 339.51C8.36353 339.771 0.715404 331.664 1.53206 322.148L21.7162 86.9586C22.4381 78.5477 29.5702 72.1447 38.01 72.3306L235.162 76.6732C243.531 76.8575 250.343 83.4617 250.787 91.8209Z" fill="#277F60"/>
<path d="M212 68C213.105 68 214.003 67.104 213.971 65.9999C213.462 48.6907 206.364 32.197 194.083 19.9167C181.331 7.16427 164.035 1.36158e-06 146 0C127.965 -1.36158e-06 110.669 7.16426 97.9167 19.9167C85.6364 32.197 78.5382 48.6907 78.0294 65.9999C77.9969 67.104 78.8954 68 80 68L88.24 68C89.3446 68 90.2363 67.1038 90.2758 66C90.7801 51.9378 96.5871 38.5564 106.572 28.5717C117.029 18.1147 131.212 12.24 146 12.24C160.788 12.24 174.971 18.1147 185.428 28.5717C195.413 38.5564 201.22 51.9378 201.724 66C201.764 67.1038 202.655 68 203.76 68H212Z" fill="#277F60"/>
<circle cx="210" cy="110" r="8" fill="#277F60"/>
<circle cx="82" cy="110" r="8" fill="#277F60"/>
<path d="M83.104 250.48C80.032 250.48 77.504 250.048 75.52 249.184C73.568 248.288 72.16 247.12 71.296 245.68C70.464 244.208 70.176 242.656 70.432 241.024C70.464 240.768 70.576 240.544 70.768 240.352C70.992 240.128 71.248 240.016 71.536 240.016H76.768C77.184 240.016 77.488 240.112 77.68 240.304C77.872 240.464 78.048 240.672 78.208 240.928C78.304 241.472 78.544 242 78.928 242.512C79.344 243.024 79.936 243.456 80.704 243.808C81.472 244.128 82.448 244.288 83.632 244.288C85.744 244.288 87.408 243.952 88.624 243.28C89.84 242.608 90.576 241.696 90.832 240.544C91.024 239.712 90.896 239.04 90.448 238.528C90 238.016 89.2 237.552 88.048 237.136C86.928 236.72 85.44 236.272 83.584 235.792C81.28 235.28 79.392 234.576 77.92 233.68C76.448 232.752 75.424 231.6 74.848 230.224C74.304 228.848 74.24 227.2 74.656 225.28C75.264 222.4 76.8 220.128 79.264 218.464C81.728 216.768 84.928 215.92 88.864 215.92C90.912 215.92 92.704 216.208 94.24 216.784C95.808 217.36 97.104 218.112 98.128 219.04C99.184 219.968 99.936 220.96 100.384 222.016C100.832 223.072 100.976 224.096 100.816 225.088C100.784 225.344 100.656 225.584 100.432 225.808C100.24 226 100 226.096 99.712 226.096H94.24C93.92 226.096 93.648 226.032 93.424 225.904C93.2 225.776 93.024 225.552 92.896 225.232C92.896 224.4 92.48 223.68 91.648 223.072C90.848 222.432 89.76 222.112 88.384 222.112C86.816 222.112 85.488 222.4 84.4 222.976C83.312 223.552 82.624 224.432 82.336 225.616C82.176 226.384 82.272 227.04 82.624 227.584C83.008 228.096 83.696 228.56 84.688 228.976C85.712 229.36 87.104 229.792 88.864 230.272C91.552 230.848 93.68 231.584 95.248 232.48C96.816 233.376 97.872 234.496 98.416 235.84C98.992 237.184 99.072 238.816 98.656 240.736C97.984 243.936 96.32 246.368 93.664 248.032C91.008 249.664 87.488 250.48 83.104 250.48ZM103.042 250C102.69 250 102.418 249.888 102.226 249.664C102.034 249.44 101.97 249.152 102.034 248.8L108.658 217.6C108.722 217.248 108.898 216.96 109.186 216.736C109.474 216.512 109.794 216.4 110.146 216.4H114.61C115.09 216.4 115.426 216.528 115.618 216.784C115.81 217.04 115.938 217.232 116.002 217.36L121.426 233.632L133.762 217.36C133.858 217.232 134.05 217.04 134.338 216.784C134.626 216.528 135.01 216.4 135.49 216.4H139.954C140.306 216.4 140.562 216.512 140.722 216.736C140.914 216.96 140.978 217.248 140.914 217.6L134.29 248.8C134.226 249.152 134.05 249.44 133.762 249.664C133.506 249.888 133.202 250 132.85 250H127.954C127.634 250 127.378 249.888 127.186 249.664C126.994 249.44 126.93 249.152 126.994 248.8L131.074 229.792L122.77 240.832C122.546 241.12 122.274 241.376 121.954 241.6C121.666 241.824 121.314 241.936 120.898 241.936H118.69C118.242 241.936 117.922 241.824 117.73 241.6C117.538 241.376 117.394 241.12 117.298 240.832L113.458 229.168L109.33 248.8C109.266 249.152 109.09 249.44 108.802 249.664C108.546 249.888 108.258 250 107.938 250H103.042ZM139.249 250C138.865 250 138.609 249.84 138.481 249.52C138.321 249.2 138.337 248.88 138.529 248.56L156.481 217.696C156.673 217.344 156.929 217.04 157.249 216.784C157.569 216.528 158.001 216.4 158.545 216.4H164.977C165.489 216.4 165.857 216.528 166.081 216.784C166.305 217.04 166.433 217.344 166.465 217.696L171.361 248.56C171.425 249.008 171.345 249.36 171.121 249.616C170.897 249.872 170.609 250 170.257 250H165.361C164.881 250 164.545 249.888 164.353 249.664C164.161 249.44 164.033 249.184 163.969 248.896L163.009 243.664H149.473L146.257 249.04C146.097 249.264 145.889 249.488 145.633 249.712C145.377 249.904 145.025 250 144.577 250H139.249ZM152.593 237.472H162.529L160.465 223.648L152.593 237.472ZM176.353 250C176.033 250 175.777 249.888 175.585 249.664C175.393 249.44 175.329 249.152 175.393 248.8L182.065 217.6C182.129 217.248 182.289 216.96 182.545 216.736C182.833 216.512 183.137 216.4 183.457 216.4H188.833C189.153 216.4 189.409 216.512 189.601 216.736C189.793 216.96 189.857 217.248 189.793 217.6L184.225 243.568H199.105C199.457 243.568 199.713 243.68 199.873 243.904C200.065 244.128 200.129 244.416 200.065 244.768L199.201 248.8C199.137 249.152 198.977 249.44 198.721 249.664C198.465 249.888 198.161 250 197.809 250H176.353ZM204.337 250C204.017 250 203.761 249.888 203.569 249.664C203.377 249.44 203.313 249.152 203.377 248.8L210.049 217.6C210.113 217.248 210.273 216.96 210.529 216.736C210.817 216.512 211.121 216.4 211.441 216.4H216.817C217.137 216.4 217.393 216.512 217.585 216.736C217.777 216.96 217.841 217.248 217.777 217.6L212.209 243.568H227.089C227.441 243.568 227.697 243.68 227.857 243.904C228.049 244.128 228.113 244.416 228.049 244.768L227.185 248.8C227.121 249.152 226.961 249.44 226.705 249.664C226.449 249.888 226.145 250 225.793 250H204.337ZM231.61 238.672C231.258 238.672 231.002 238.56 230.842 238.336C230.682 238.112 230.634 237.84 230.698 237.52L231.514 233.68C231.578 233.36 231.738 233.088 231.994 232.864C232.282 232.64 232.586 232.528 232.906 232.528H247.834C248.154 232.528 248.41 232.64 248.602 232.864C248.794 233.088 248.842 233.36 248.746 233.68L247.93 237.52C247.866 237.84 247.69 238.112 247.402 238.336C247.146 238.56 246.842 238.672 246.49 238.672H231.61ZM265.572 250.48C263.588 250.48 261.748 250.208 260.052 249.664C258.388 249.12 256.98 248.304 255.828 247.216C254.708 246.128 253.908 244.768 253.428 243.136C252.98 241.504 252.948 239.584 253.332 237.376C253.556 236 253.812 234.64 254.1 233.296C254.42 231.92 254.74 230.528 255.06 229.12C256.116 224.8 258.004 221.52 260.724 219.28C263.476 217.04 267.108 215.92 271.62 215.92C273.604 215.92 275.428 216.208 277.092 216.784C278.756 217.328 280.164 218.16 281.316 219.28C282.468 220.4 283.268 221.776 283.716 223.408C284.196 225.04 284.244 226.944 283.86 229.12C283.604 230.528 283.332 231.92 283.044 233.296C282.756 234.64 282.436 236 282.084 237.376C280.996 241.792 279.092 245.088 276.372 247.264C273.652 249.408 270.052 250.48 265.572 250.48ZM266.1 244.288C268.02 244.288 269.716 243.728 271.188 242.608C272.66 241.456 273.684 239.632 274.26 237.136C274.612 235.728 274.916 234.416 275.172 233.2C275.46 231.952 275.716 230.64 275.94 229.264C276.42 226.768 276.212 224.96 275.316 223.84C274.452 222.688 273.044 222.112 271.092 222.112C269.14 222.112 267.444 222.688 266.004 223.84C264.564 224.96 263.54 226.768 262.932 229.264C262.58 230.64 262.276 231.952 262.02 233.2C261.764 234.416 261.508 235.728 261.252 237.136C260.804 239.632 260.996 241.456 261.828 242.608C262.692 243.728 264.116 244.288 266.1 244.288ZM286.65 250C286.33 250 286.074 249.888 285.882 249.664C285.69 249.44 285.626 249.152 285.69 248.8L292.314 217.6C292.378 217.248 292.554 216.96 292.842 216.736C293.13 216.512 293.434 216.4 293.754 216.4H315.21C315.562 216.4 315.818 216.512 315.978 216.736C316.17 216.96 316.234 217.248 316.17 217.6L315.258 221.68C315.194 222.032 315.034 222.32 314.778 222.544C314.522 222.768 314.218 222.88 313.866 222.88H298.746L296.97 230.992H311.13C311.482 230.992 311.738 231.104 311.898 231.328C312.09 231.552 312.154 231.84 312.09 232.192L311.226 236.272C311.162 236.592 310.986 236.864 310.698 237.088C310.442 237.312 310.138 237.424 309.786 237.424H295.626L293.178 248.8C293.114 249.152 292.954 249.44 292.698 249.664C292.442 249.888 292.138 250 291.786 250H286.65ZM315.947 250C315.627 250 315.371 249.888 315.179 249.664C314.987 249.44 314.923 249.152 314.987 248.8L321.611 217.6C321.675 217.248 321.851 216.96 322.139 216.736C322.427 216.512 322.731 216.4 323.051 216.4H344.507C344.859 216.4 345.115 216.512 345.275 216.736C345.467 216.96 345.531 217.248 345.467 217.6L344.555 221.68C344.491 222.032 344.331 222.32 344.075 222.544C343.819 222.768 343.515 222.88 343.163 222.88H328.043L326.267 230.992H340.427C340.779 230.992 341.035 231.104 341.195 231.328C341.387 231.552 341.451 231.84 341.387 232.192L340.523 236.272C340.459 236.592 340.283 236.864 339.995 237.088C339.739 237.312 339.435 237.424 339.083 237.424H324.923L322.475 248.8C322.411 249.152 322.251 249.44 321.995 249.664C321.739 249.888 321.435 250 321.083 250H315.947ZM345.244 250C344.924 250 344.668 249.888 344.476 249.664C344.284 249.44 344.22 249.152 344.284 248.8L350.908 217.6C350.972 217.248 351.148 216.96 351.436 216.736C351.724 216.512 352.028 216.4 352.348 216.4H374.092C374.444 216.4 374.7 216.512 374.86 216.736C375.052 216.96 375.116 217.248 375.052 217.6L374.236 221.44C374.172 221.76 373.996 222.032 373.708 222.256C373.452 222.48 373.148 222.592 372.796 222.592H357.244L355.612 230.128H370.108C370.46 230.128 370.716 230.24 370.876 230.464C371.068 230.688 371.132 230.976 371.068 231.328L370.3 234.88C370.236 235.2 370.06 235.472 369.772 235.696C369.516 235.92 369.212 236.032 368.86 236.032H354.412L352.732 243.808H368.668C369.02 243.808 369.276 243.92 369.436 244.144C369.628 244.368 369.692 244.656 369.628 245.008L368.812 248.8C368.748 249.152 368.572 249.44 368.284 249.664C368.028 249.888 367.724 250 367.372 250H345.244ZM376.103 250C375.751 250 375.495 249.888 375.335 249.664C375.175 249.44 375.127 249.152 375.191 248.8L381.767 217.6C381.831 217.248 382.007 216.96 382.295 216.736C382.583 216.512 382.903 216.4 383.255 216.4H395.975C399.975 216.4 402.919 217.328 404.807 219.184C406.727 221.008 407.319 223.648 406.583 227.104C406.103 229.44 405.127 231.392 403.655 232.96C402.215 234.528 400.471 235.696 398.423 236.464L402.647 248.464C402.679 248.56 402.695 248.64 402.695 248.704C402.727 248.768 402.727 248.864 402.695 248.992C402.631 249.248 402.471 249.488 402.215 249.712C401.991 249.904 401.735 250 401.447 250H396.119C395.543 250 395.143 249.856 394.919 249.568C394.727 249.248 394.583 248.96 394.487 248.704L390.983 237.712H385.175L382.775 248.8C382.711 249.152 382.535 249.44 382.247 249.664C381.991 249.888 381.687 250 381.335 250H376.103ZM386.423 231.616H392.615C394.343 231.616 395.719 231.216 396.743 230.416C397.767 229.616 398.439 228.496 398.759 227.056C399.047 225.616 398.855 224.48 398.183 223.648C397.543 222.816 396.343 222.4 394.583 222.4H388.391L386.423 231.616Z" fill="#1F1F1F"/>
<path d="M71.54 288C71.3533 288 71.204 287.944 71.092 287.832C70.9987 287.72 70.9707 287.571 71.008 287.384L74.9 269.044C74.9373 268.839 75.0307 268.68 75.18 268.568C75.3293 268.456 75.4973 268.4 75.684 268.4H76.412C76.5987 268.4 76.7293 268.447 76.804 268.54C76.8787 268.633 76.9253 268.708 76.944 268.764L80.668 281.14L89.684 268.764C89.7213 268.708 89.7867 268.633 89.88 268.54C89.992 268.447 90.1413 268.4 90.328 268.4H91.028C91.2333 268.4 91.3733 268.456 91.448 268.568C91.5413 268.68 91.5693 268.839 91.532 269.044L87.64 287.384C87.6027 287.571 87.5187 287.72 87.388 287.832C87.2573 287.944 87.0893 288 86.884 288H86.352C86.1653 288 86.0253 287.944 85.932 287.832C85.8387 287.72 85.8107 287.571 85.848 287.384L88.984 272.656L81.648 282.736C81.5173 282.904 81.3773 283.044 81.228 283.156C81.0787 283.249 80.892 283.296 80.668 283.296H80.08C79.856 283.296 79.688 283.249 79.576 283.156C79.464 283.063 79.38 282.923 79.324 282.736L76.076 271.928L72.8 287.384C72.7627 287.571 72.6787 287.72 72.548 287.832C72.4173 287.944 72.2587 288 72.072 288H71.54ZM97.7257 288.28C96.643 288.28 95.7657 288.084 95.0937 287.692C94.4217 287.3 93.9177 286.777 93.5817 286.124C93.2457 285.471 93.0404 284.743 92.9657 283.94C92.9097 283.137 92.947 282.325 93.0777 281.504C93.115 281.224 93.1617 280.963 93.2177 280.72C93.2737 280.477 93.339 280.216 93.4137 279.936C93.619 279.115 93.899 278.312 94.2537 277.528C94.6084 276.725 95.0657 275.997 95.6257 275.344C96.1857 274.672 96.8764 274.14 97.6977 273.748C98.519 273.356 99.4897 273.16 100.61 273.16C101.842 273.16 102.766 273.375 103.382 273.804C103.998 274.233 104.464 274.756 104.782 275.372L105.062 274.056C105.099 273.869 105.183 273.72 105.314 273.608C105.444 273.496 105.603 273.44 105.79 273.44H106.266C106.452 273.44 106.592 273.496 106.686 273.608C106.779 273.72 106.807 273.869 106.77 274.056L103.942 287.384C103.904 287.571 103.82 287.72 103.69 287.832C103.559 287.944 103.4 288 103.214 288H102.738C102.551 288 102.411 287.944 102.318 287.832C102.224 287.72 102.196 287.571 102.234 287.384L102.514 286.068C101.935 286.703 101.3 287.235 100.61 287.664C99.919 288.075 98.9577 288.28 97.7257 288.28ZM97.7257 286.656C98.7897 286.656 99.7137 286.404 100.498 285.9C101.282 285.396 101.916 284.771 102.402 284.024C102.906 283.259 103.251 282.493 103.438 281.728C103.512 281.448 103.596 281.084 103.69 280.636C103.783 280.188 103.858 279.824 103.914 279.544C104.063 278.797 104.072 278.06 103.942 277.332C103.811 276.604 103.484 275.997 102.962 275.512C102.439 275.027 101.655 274.784 100.61 274.784C99.6017 274.784 98.7337 275.027 98.0057 275.512C97.2964 275.997 96.7084 276.632 96.2417 277.416C95.775 278.2 95.411 279.04 95.1497 279.936C95.075 280.216 95.0097 280.477 94.9537 280.72C94.8977 280.963 94.851 281.224 94.8137 281.504C94.683 282.4 94.6457 283.24 94.7017 284.024C94.7764 284.808 95.047 285.443 95.5137 285.928C95.9804 286.413 96.7177 286.656 97.7257 286.656ZM109.019 288C108.832 288 108.692 287.944 108.599 287.832C108.506 287.72 108.478 287.571 108.515 287.384L112.491 268.736C112.528 268.549 112.612 268.4 112.743 268.288C112.874 268.176 113.032 268.12 113.219 268.12H113.695C113.882 268.12 114.022 268.176 114.115 268.288C114.208 268.4 114.236 268.549 114.199 268.736L112.127 278.452L119.099 273.916C119.416 273.711 119.64 273.58 119.771 273.524C119.902 273.468 120.107 273.44 120.387 273.44H121.143C121.404 273.44 121.554 273.571 121.591 273.832C121.628 274.093 121.47 274.336 121.115 274.56L112.883 279.936L119.323 287.048C119.51 287.235 119.547 287.44 119.435 287.664C119.342 287.888 119.174 288 118.931 288H118.483C118.184 288 117.979 287.953 117.867 287.86C117.755 287.748 117.652 287.655 117.559 287.58L111.595 281.056L110.223 287.384C110.186 287.571 110.102 287.72 109.971 287.832C109.84 287.944 109.682 288 109.495 288H109.019ZM122.609 288C122.422 288 122.282 287.944 122.189 287.832C122.096 287.72 122.068 287.571 122.105 287.384L124.933 274.056C124.97 273.869 125.054 273.72 125.185 273.608C125.334 273.496 125.502 273.44 125.689 273.44H126.165C126.352 273.44 126.482 273.496 126.557 273.608C126.65 273.72 126.678 273.869 126.641 274.056L123.813 287.384C123.776 287.571 123.692 287.72 123.561 287.832C123.43 287.944 123.272 288 123.085 288H122.609ZM126.025 270.444C125.838 270.444 125.698 270.388 125.605 270.276C125.53 270.164 125.502 270.015 125.521 269.828L125.773 268.764C125.81 268.577 125.894 268.428 126.025 268.316C126.156 268.185 126.314 268.12 126.501 268.12H127.565C127.752 268.12 127.892 268.185 127.985 268.316C128.097 268.428 128.134 268.577 128.097 268.764L127.845 269.828C127.826 270.015 127.742 270.164 127.593 270.276C127.444 270.388 127.276 270.444 127.089 270.444H126.025ZM128.871 288C128.684 288 128.544 287.944 128.451 287.832C128.357 287.72 128.329 287.571 128.367 287.384L131.195 274.056C131.232 273.869 131.316 273.72 131.447 273.608C131.596 273.496 131.764 273.44 131.951 273.44H132.427C132.613 273.44 132.744 273.496 132.819 273.608C132.912 273.72 132.94 273.869 132.903 274.056L132.623 275.372C133.201 274.719 133.901 274.187 134.723 273.776C135.544 273.365 136.487 273.16 137.551 273.16C138.969 273.16 140.052 273.44 140.799 274C141.564 274.541 142.049 275.288 142.255 276.24C142.46 277.173 142.432 278.237 142.171 279.432L140.463 287.384C140.425 287.571 140.341 287.72 140.211 287.832C140.08 287.944 139.921 288 139.735 288H139.259C139.072 288 138.932 287.944 138.839 287.832C138.745 287.72 138.717 287.571 138.755 287.384L140.407 279.572C140.743 277.985 140.733 276.791 140.379 275.988C140.024 275.185 139.081 274.784 137.551 274.784C136.076 274.784 134.816 275.213 133.771 276.072C132.725 276.912 132.044 278.079 131.727 279.572L130.075 287.384C130.037 287.571 129.953 287.72 129.823 287.832C129.692 287.944 129.533 288 129.347 288H128.871ZM148.886 294.16C147.729 294.16 146.805 294.001 146.114 293.684C145.424 293.367 144.901 292.975 144.546 292.508C144.192 292.06 143.968 291.603 143.874 291.136C143.781 290.688 143.762 290.324 143.818 290.044C143.856 289.857 143.93 289.699 144.042 289.568C144.136 289.456 144.266 289.4 144.434 289.4H144.966C145.116 289.4 145.237 289.428 145.33 289.484C145.424 289.559 145.48 289.727 145.498 289.988C145.517 290.287 145.601 290.632 145.75 291.024C145.918 291.435 146.236 291.789 146.702 292.088C147.188 292.387 147.916 292.536 148.886 292.536C149.764 292.536 150.594 292.405 151.378 292.144C152.181 291.883 152.872 291.416 153.45 290.744C154.029 290.091 154.44 289.176 154.682 288L155.074 286.068C154.496 286.703 153.824 287.235 153.058 287.664C152.293 288.075 151.332 288.28 150.174 288.28C149.054 288.28 148.14 288.084 147.43 287.692C146.74 287.3 146.217 286.777 145.862 286.124C145.526 285.471 145.321 284.743 145.246 283.94C145.19 283.137 145.228 282.325 145.358 281.504C145.396 281.224 145.442 280.963 145.498 280.72C145.554 280.477 145.62 280.216 145.694 279.936C145.918 279.115 146.217 278.312 146.59 277.528C146.964 276.725 147.44 275.997 148.018 275.344C148.597 274.672 149.297 274.14 150.118 273.748C150.94 273.356 151.91 273.16 153.03 273.16C154.188 273.16 155.112 273.375 155.802 273.804C156.512 274.233 157.025 274.756 157.342 275.372L157.622 274.084C157.66 273.897 157.744 273.748 157.874 273.636C158.024 273.505 158.192 273.44 158.378 273.44H158.826C159.013 273.44 159.153 273.505 159.246 273.636C159.34 273.748 159.368 273.897 159.33 274.084L156.446 287.72C156.26 288.616 156.008 289.447 155.69 290.212C155.392 290.996 154.962 291.687 154.402 292.284C153.861 292.881 153.142 293.339 152.246 293.656C151.35 293.992 150.23 294.16 148.886 294.16ZM150.174 286.656C151.22 286.656 152.144 286.404 152.946 285.9C153.749 285.396 154.412 284.771 154.934 284.024C155.457 283.259 155.812 282.493 155.998 281.728C156.073 281.448 156.148 281.112 156.222 280.72C156.316 280.328 156.381 279.992 156.418 279.712C156.549 278.947 156.549 278.191 156.418 277.444C156.288 276.679 155.952 276.044 155.41 275.54C154.888 275.036 154.094 274.784 153.03 274.784C152.022 274.784 151.136 275.027 150.37 275.512C149.624 275.997 148.998 276.632 148.494 277.416C148.009 278.2 147.645 279.04 147.402 279.936C147.328 280.216 147.262 280.477 147.206 280.72C147.15 280.963 147.104 281.224 147.066 281.504C146.917 282.4 146.88 283.24 146.954 284.024C147.048 284.808 147.337 285.443 147.822 285.928C148.326 286.413 149.11 286.656 150.174 286.656ZM174.08 288.28C172.885 288.28 171.896 288.009 171.112 287.468C170.347 286.927 169.815 286.171 169.516 285.2C169.217 284.229 169.152 283.109 169.32 281.84C169.357 281.56 169.423 281.187 169.516 280.72C169.628 280.253 169.721 279.88 169.796 279.6C170.169 278.331 170.711 277.211 171.42 276.24C172.129 275.269 172.979 274.513 173.968 273.972C174.976 273.431 176.087 273.16 177.3 273.16C178.607 273.16 179.652 273.449 180.436 274.028C181.22 274.607 181.743 275.437 182.004 276.52C182.265 277.603 182.247 278.891 181.948 280.384L181.864 280.804C181.827 280.991 181.733 281.14 181.584 281.252C181.435 281.364 181.267 281.42 181.08 281.42H171.112C171.112 281.42 171.103 281.457 171.084 281.532C171.084 281.607 171.075 281.663 171.056 281.7C170.925 282.54 170.953 283.343 171.14 284.108C171.327 284.855 171.691 285.471 172.232 285.956C172.792 286.423 173.52 286.656 174.416 286.656C175.219 286.656 175.909 286.535 176.488 286.292C177.085 286.049 177.571 285.788 177.944 285.508C178.317 285.209 178.569 284.985 178.7 284.836C178.924 284.593 179.083 284.453 179.176 284.416C179.288 284.36 179.447 284.332 179.652 284.332H180.1C180.268 284.332 180.399 284.388 180.492 284.5C180.585 284.593 180.613 284.724 180.576 284.892C180.501 285.153 180.287 285.48 179.932 285.872C179.596 286.245 179.129 286.619 178.532 286.992C177.953 287.365 177.281 287.673 176.516 287.916C175.769 288.159 174.957 288.28 174.08 288.28ZM171.448 279.852H180.352L180.38 279.74C180.623 278.807 180.641 277.967 180.436 277.22C180.231 276.473 179.829 275.885 179.232 275.456C178.653 275.008 177.897 274.784 176.964 274.784C176.031 274.784 175.191 275.008 174.444 275.456C173.716 275.885 173.1 276.473 172.596 277.22C172.092 277.967 171.719 278.807 171.476 279.74L171.448 279.852ZM187.924 288C187.625 288 187.42 287.935 187.308 287.804C187.196 287.673 187.121 287.505 187.084 287.3L184.704 274.112C184.666 273.869 184.704 273.701 184.816 273.608C184.946 273.496 185.086 273.44 185.236 273.44H185.768C185.936 273.44 186.076 273.487 186.188 273.58C186.3 273.655 186.374 273.813 186.412 274.056L188.54 285.956L195.848 273.86C195.885 273.785 195.96 273.701 196.072 273.608C196.202 273.496 196.361 273.44 196.548 273.44H197.22C197.388 273.44 197.518 273.524 197.612 273.692C197.724 273.841 197.696 274.047 197.528 274.308L189.632 287.3C189.501 287.505 189.352 287.673 189.184 287.804C189.034 287.935 188.81 288 188.512 288H187.924ZM203.228 288.28C202.034 288.28 201.044 288.009 200.26 287.468C199.495 286.927 198.963 286.171 198.664 285.2C198.366 284.229 198.3 283.109 198.468 281.84C198.506 281.56 198.571 281.187 198.664 280.72C198.776 280.253 198.87 279.88 198.944 279.6C199.318 278.331 199.859 277.211 200.568 276.24C201.278 275.269 202.127 274.513 203.116 273.972C204.124 273.431 205.235 273.16 206.448 273.16C207.755 273.16 208.8 273.449 209.584 274.028C210.368 274.607 210.891 275.437 211.152 276.52C211.414 277.603 211.395 278.891 211.096 280.384L211.012 280.804C210.975 280.991 210.882 281.14 210.732 281.252C210.583 281.364 210.415 281.42 210.228 281.42H200.26C200.26 281.42 200.251 281.457 200.232 281.532C200.232 281.607 200.223 281.663 200.204 281.7C200.074 282.54 200.102 283.343 200.288 284.108C200.475 284.855 200.839 285.471 201.38 285.956C201.94 286.423 202.668 286.656 203.564 286.656C204.367 286.656 205.058 286.535 205.636 286.292C206.234 286.049 206.719 285.788 207.092 285.508C207.466 285.209 207.718 284.985 207.848 284.836C208.072 284.593 208.231 284.453 208.324 284.416C208.436 284.36 208.595 284.332 208.8 284.332H209.248C209.416 284.332 209.547 284.388 209.64 284.5C209.734 284.593 209.762 284.724 209.724 284.892C209.65 285.153 209.435 285.48 209.08 285.872C208.744 286.245 208.278 286.619 207.68 286.992C207.102 287.365 206.43 287.673 205.664 287.916C204.918 288.159 204.106 288.28 203.228 288.28ZM200.596 279.852H209.5L209.528 279.74C209.771 278.807 209.79 277.967 209.584 277.22C209.379 276.473 208.978 275.885 208.38 275.456C207.802 275.008 207.046 274.784 206.112 274.784C205.179 274.784 204.339 275.008 203.592 275.456C202.864 275.885 202.248 276.473 201.744 277.22C201.24 277.967 200.867 278.807 200.624 279.74L200.596 279.852ZM213.363 288C213.176 288 213.036 287.944 212.943 287.832C212.85 287.72 212.822 287.571 212.859 287.384L215.687 274.084C215.724 273.897 215.808 273.748 215.939 273.636C216.088 273.505 216.256 273.44 216.443 273.44H216.891C217.078 273.44 217.218 273.505 217.311 273.636C217.404 273.748 217.432 273.897 217.395 274.084L217.115 275.372C217.544 274.719 218.123 274.233 218.851 273.916C219.579 273.599 220.41 273.44 221.343 273.44H222.379C222.566 273.44 222.696 273.496 222.771 273.608C222.864 273.72 222.892 273.869 222.855 274.056L222.771 274.448C222.734 274.635 222.65 274.784 222.519 274.896C222.388 275.008 222.23 275.064 222.043 275.064H220.839C219.719 275.064 218.758 275.391 217.955 276.044C217.171 276.697 216.658 277.584 216.415 278.704L214.567 287.384C214.53 287.571 214.436 287.72 214.287 287.832C214.156 287.944 213.998 288 213.811 288H213.363ZM223.768 293.32C223.563 293.32 223.423 293.227 223.348 293.04C223.273 292.853 223.32 292.639 223.488 292.396L226.932 287.02L224.188 274.168C224.151 273.981 224.169 273.813 224.244 273.664C224.337 273.515 224.515 273.44 224.776 273.44H225.28C225.467 273.44 225.607 273.477 225.7 273.552C225.793 273.627 225.849 273.729 225.868 273.86L228.248 284.976L235.444 273.86C235.519 273.748 235.612 273.655 235.724 273.58C235.836 273.487 235.985 273.44 236.172 273.44H236.844C236.993 273.44 237.133 273.515 237.264 273.664C237.395 273.795 237.376 273.991 237.208 274.252L225.14 292.9C225.065 293.012 224.972 293.105 224.86 293.18C224.748 293.273 224.599 293.32 224.412 293.32H223.768ZM249.065 288.28C248.095 288.28 247.283 288.149 246.629 287.888C245.995 287.627 245.491 287.319 245.117 286.964C244.744 286.591 244.492 286.227 244.361 285.872C244.231 285.517 244.175 285.247 244.193 285.06C244.231 284.855 244.324 284.705 244.473 284.612C244.641 284.5 244.791 284.444 244.921 284.444H245.341C245.453 284.444 245.547 284.463 245.621 284.5C245.715 284.537 245.799 284.64 245.873 284.808C246.041 285.125 246.256 285.433 246.517 285.732C246.779 286.012 247.133 286.236 247.581 286.404C248.048 286.572 248.655 286.656 249.401 286.656C250.521 286.656 251.492 286.441 252.313 286.012C253.135 285.583 253.639 284.948 253.825 284.108C253.937 283.585 253.872 283.165 253.629 282.848C253.405 282.531 252.976 282.251 252.341 282.008C251.707 281.765 250.829 281.513 249.709 281.252C248.589 280.972 247.759 280.636 247.217 280.244C246.695 279.852 246.368 279.404 246.237 278.9C246.125 278.377 246.135 277.817 246.265 277.22C246.415 276.567 246.732 275.932 247.217 275.316C247.721 274.681 248.384 274.168 249.205 273.776C250.045 273.365 251.025 273.16 252.145 273.16C253.06 273.16 253.816 273.281 254.413 273.524C255.011 273.767 255.477 274.065 255.813 274.42C256.149 274.756 256.373 275.092 256.485 275.428C256.616 275.764 256.663 276.035 256.625 276.24C256.607 276.427 256.523 276.576 256.373 276.688C256.224 276.8 256.065 276.856 255.897 276.856H255.477C255.328 276.856 255.207 276.828 255.113 276.772C255.039 276.697 254.983 276.604 254.945 276.492C254.815 276.193 254.647 275.913 254.441 275.652C254.236 275.391 253.928 275.185 253.517 275.036C253.125 274.868 252.556 274.784 251.809 274.784C250.689 274.784 249.803 275.017 249.149 275.484C248.515 275.932 248.123 276.511 247.973 277.22C247.88 277.631 247.908 277.995 248.057 278.312C248.225 278.611 248.589 278.891 249.149 279.152C249.709 279.395 250.549 279.656 251.669 279.936C252.808 280.197 253.685 280.524 254.301 280.916C254.917 281.289 255.309 281.737 255.477 282.26C255.664 282.783 255.683 283.399 255.533 284.108C255.384 284.855 255.029 285.545 254.469 286.18C253.909 286.815 253.172 287.328 252.257 287.72C251.343 288.093 250.279 288.28 249.065 288.28ZM258.535 288C258.348 288 258.208 287.944 258.115 287.832C258.021 287.72 257.993 287.571 258.031 287.384L260.859 274.056C260.896 273.869 260.98 273.72 261.111 273.608C261.26 273.496 261.428 273.44 261.615 273.44H262.091C262.277 273.44 262.408 273.496 262.483 273.608C262.576 273.72 262.604 273.869 262.567 274.056L262.371 275.036C262.763 274.625 263.155 274.289 263.547 274.028C263.939 273.748 264.368 273.533 264.835 273.384C265.32 273.235 265.871 273.16 266.487 273.16C267.532 273.16 268.428 273.384 269.175 273.832C269.94 274.28 270.444 274.933 270.687 275.792C271.284 274.989 272.003 274.355 272.843 273.888C273.683 273.403 274.644 273.16 275.727 273.16C276.716 273.16 277.575 273.393 278.303 273.86C279.049 274.308 279.581 274.98 279.899 275.876C280.216 276.772 280.235 277.892 279.955 279.236L278.219 287.384C278.181 287.571 278.097 287.72 277.967 287.832C277.836 287.944 277.677 288 277.491 288H277.015C276.828 288 276.688 287.944 276.595 287.832C276.501 287.72 276.473 287.571 276.511 287.384L278.191 279.516C278.452 278.284 278.499 277.332 278.331 276.66C278.181 275.969 277.864 275.484 277.379 275.204C276.912 274.924 276.343 274.784 275.671 274.784C275.111 274.784 274.485 274.924 273.795 275.204C273.123 275.484 272.497 275.969 271.919 276.66C271.34 277.332 270.92 278.284 270.659 279.516L268.979 287.384C268.941 287.571 268.857 287.72 268.727 287.832C268.596 287.944 268.437 288 268.251 288H267.775C267.588 288 267.448 287.944 267.355 287.832C267.261 287.72 267.233 287.571 267.271 287.384L268.951 279.516C269.212 278.284 269.249 277.332 269.063 276.66C268.895 275.969 268.568 275.484 268.083 275.204C267.616 274.924 267.065 274.784 266.431 274.784C265.871 274.784 265.245 274.924 264.555 275.204C263.883 275.484 263.257 275.969 262.679 276.66C262.1 277.332 261.68 278.275 261.419 279.488L259.739 287.384C259.701 287.571 259.617 287.72 259.487 287.832C259.356 287.944 259.197 288 259.011 288H258.535ZM287.792 288.28C286.709 288.28 285.832 288.084 285.16 287.692C284.488 287.3 283.984 286.777 283.648 286.124C283.312 285.471 283.107 284.743 283.032 283.94C282.976 283.137 283.013 282.325 283.144 281.504C283.181 281.224 283.228 280.963 283.284 280.72C283.34 280.477 283.405 280.216 283.48 279.936C283.685 279.115 283.965 278.312 284.32 277.528C284.675 276.725 285.132 275.997 285.692 275.344C286.252 274.672 286.943 274.14 287.764 273.748C288.585 273.356 289.556 273.16 290.676 273.16C291.908 273.16 292.832 273.375 293.448 273.804C294.064 274.233 294.531 274.756 294.848 275.372L295.128 274.056C295.165 273.869 295.249 273.72 295.38 273.608C295.511 273.496 295.669 273.44 295.856 273.44H296.332C296.519 273.44 296.659 273.496 296.752 273.608C296.845 273.72 296.873 273.869 296.836 274.056L294.008 287.384C293.971 287.571 293.887 287.72 293.756 287.832C293.625 287.944 293.467 288 293.28 288H292.804C292.617 288 292.477 287.944 292.384 287.832C292.291 287.72 292.263 287.571 292.3 287.384L292.58 286.068C292.001 286.703 291.367 287.235 290.676 287.664C289.985 288.075 289.024 288.28 287.792 288.28ZM287.792 286.656C288.856 286.656 289.78 286.404 290.564 285.9C291.348 285.396 291.983 284.771 292.468 284.024C292.972 283.259 293.317 282.493 293.504 281.728C293.579 281.448 293.663 281.084 293.756 280.636C293.849 280.188 293.924 279.824 293.98 279.544C294.129 278.797 294.139 278.06 294.008 277.332C293.877 276.604 293.551 275.997 293.028 275.512C292.505 275.027 291.721 274.784 290.676 274.784C289.668 274.784 288.8 275.027 288.072 275.512C287.363 275.997 286.775 276.632 286.308 277.416C285.841 278.2 285.477 279.04 285.216 279.936C285.141 280.216 285.076 280.477 285.02 280.72C284.964 280.963 284.917 281.224 284.88 281.504C284.749 282.4 284.712 283.24 284.768 284.024C284.843 284.808 285.113 285.443 285.58 285.928C286.047 286.413 286.784 286.656 287.792 286.656ZM299.086 288C298.899 288 298.759 287.944 298.666 287.832C298.572 287.72 298.544 287.571 298.582 287.384L302.558 268.736C302.595 268.549 302.679 268.4 302.81 268.288C302.94 268.176 303.099 268.12 303.286 268.12H303.762C303.948 268.12 304.088 268.176 304.182 268.288C304.275 268.4 304.303 268.549 304.266 268.736L300.29 287.384C300.252 287.571 300.168 287.72 300.038 287.832C299.907 287.944 299.748 288 299.562 288H299.086ZM305.375 288C305.188 288 305.048 287.944 304.955 287.832C304.861 287.72 304.833 287.571 304.871 287.384L308.847 268.736C308.884 268.549 308.968 268.4 309.099 268.288C309.229 268.176 309.388 268.12 309.575 268.12H310.051C310.237 268.12 310.377 268.176 310.471 268.288C310.564 268.4 310.592 268.549 310.555 268.736L306.579 287.384C306.541 287.571 306.457 287.72 306.327 287.832C306.196 287.944 306.037 288 305.851 288H305.375ZM324.002 288.28C322.714 288.28 321.66 288 320.838 287.44C320.017 286.88 319.448 286.115 319.13 285.144C318.813 284.173 318.766 283.091 318.99 281.896C319.028 281.616 319.102 281.224 319.214 280.72C319.326 280.216 319.42 279.824 319.494 279.544C319.793 278.331 320.26 277.248 320.894 276.296C321.548 275.325 322.369 274.56 323.358 274C324.366 273.44 325.542 273.16 326.886 273.16C328.23 273.16 329.304 273.44 330.106 274C330.928 274.56 331.488 275.325 331.786 276.296C332.104 277.248 332.15 278.331 331.926 279.544C331.87 279.824 331.786 280.216 331.674 280.72C331.581 281.224 331.497 281.616 331.422 281.896C331.124 283.091 330.648 284.173 329.994 285.144C329.36 286.115 328.538 286.88 327.53 287.44C326.541 288 325.365 288.28 324.002 288.28ZM324.002 286.656C325.328 286.656 326.513 286.236 327.558 285.396C328.622 284.556 329.35 283.343 329.742 281.756C329.817 281.476 329.892 281.131 329.966 280.72C330.06 280.309 330.134 279.964 330.19 279.684C330.47 278.079 330.321 276.865 329.742 276.044C329.164 275.204 328.212 274.784 326.886 274.784C325.58 274.784 324.394 275.204 323.33 276.044C322.285 276.865 321.566 278.079 321.174 279.684C321.1 279.964 321.016 280.309 320.922 280.72C320.829 281.131 320.764 281.476 320.726 281.756C320.446 283.343 320.586 284.556 321.146 285.396C321.706 286.236 322.658 286.656 324.002 286.656ZM347.688 273.44H351.384C351.57 273.44 351.701 273.496 351.776 273.608C351.869 273.72 351.897 273.869 351.86 274.056L351.776 274.448C351.757 274.635 351.673 274.784 351.524 274.896C351.393 275.008 351.234 275.064 351.048 275.064H347.352L344.72 287.384C344.682 287.571 344.598 287.72 344.468 287.832C344.337 287.944 344.178 288 343.992 288H343.516C343.329 288 343.189 287.944 343.096 287.832C343.002 287.72 342.974 287.571 343.012 287.384L345.644 275.064H339.456L336.824 287.384C336.786 287.571 336.702 287.72 336.572 287.832C336.441 287.944 336.282 288 336.096 288H335.62C335.433 288 335.293 287.944 335.2 287.832C335.106 287.72 335.078 287.571 335.116 287.384L337.748 275.064H335.256C335.069 275.064 334.929 275.008 334.836 274.896C334.761 274.784 334.733 274.635 334.752 274.448L334.836 274.056C334.873 273.869 334.957 273.72 335.088 273.608C335.237 273.496 335.405 273.44 335.592 273.44H338.084L338.42 271.844C338.606 271.004 338.905 270.239 339.316 269.548C339.745 268.857 340.296 268.307 340.968 267.896C341.658 267.485 342.489 267.28 343.46 267.28H345.084C345.27 267.28 345.401 267.336 345.476 267.448C345.569 267.56 345.597 267.709 345.56 267.896L345.476 268.288C345.438 268.475 345.345 268.624 345.196 268.736C345.065 268.848 344.906 268.904 344.72 268.904H343.46C342.489 268.904 341.733 269.175 341.192 269.716C340.669 270.239 340.305 270.995 340.1 271.984L339.792 273.44H345.98L346.316 271.844C346.502 271.004 346.801 270.239 347.212 269.548C347.641 268.857 348.192 268.307 348.864 267.896C349.554 267.485 350.385 267.28 351.356 267.28H352.98C353.166 267.28 353.297 267.336 353.372 267.448C353.465 267.56 353.493 267.709 353.456 267.896L353.372 268.288C353.334 268.475 353.241 268.624 353.092 268.736C352.961 268.848 352.802 268.904 352.616 268.904H351.356C350.385 268.904 349.629 269.175 349.088 269.716C348.565 270.239 348.201 270.995 347.996 271.984L347.688 273.44ZM357.119 288.28C355.924 288.28 354.935 288.009 354.151 287.468C353.386 286.927 352.854 286.171 352.555 285.2C352.256 284.229 352.191 283.109 352.359 281.84C352.396 281.56 352.462 281.187 352.555 280.72C352.667 280.253 352.76 279.88 352.835 279.6C353.208 278.331 353.75 277.211 354.459 276.24C355.168 275.269 356.018 274.513 357.007 273.972C358.015 273.431 359.126 273.16 360.339 273.16C361.646 273.16 362.691 273.449 363.475 274.028C364.259 274.607 364.782 275.437 365.043 276.52C365.304 277.603 365.286 278.891 364.987 280.384L364.903 280.804C364.866 280.991 364.772 281.14 364.623 281.252C364.474 281.364 364.306 281.42 364.119 281.42H354.151C354.151 281.42 354.142 281.457 354.123 281.532C354.123 281.607 354.114 281.663 354.095 281.7C353.964 282.54 353.992 283.343 354.179 284.108C354.366 284.855 354.73 285.471 355.271 285.956C355.831 286.423 356.559 286.656 357.455 286.656C358.258 286.656 358.948 286.535 359.527 286.292C360.124 286.049 360.61 285.788 360.983 285.508C361.356 285.209 361.608 284.985 361.739 284.836C361.963 284.593 362.122 284.453 362.215 284.416C362.327 284.36 362.486 284.332 362.691 284.332H363.139C363.307 284.332 363.438 284.388 363.531 284.5C363.624 284.593 363.652 284.724 363.615 284.892C363.54 285.153 363.326 285.48 362.971 285.872C362.635 286.245 362.168 286.619 361.571 286.992C360.992 287.365 360.32 287.673 359.555 287.916C358.808 288.159 357.996 288.28 357.119 288.28ZM354.487 279.852H363.391L363.419 279.74C363.662 278.807 363.68 277.967 363.475 277.22C363.27 276.473 362.868 275.885 362.271 275.456C361.692 275.008 360.936 274.784 360.003 274.784C359.07 274.784 358.23 275.008 357.483 275.456C356.755 275.885 356.139 276.473 355.635 277.22C355.131 277.967 354.758 278.807 354.515 279.74L354.487 279.852ZM367.253 288C367.067 288 366.927 287.944 366.833 287.832C366.74 287.72 366.712 287.571 366.749 287.384L369.577 274.084C369.615 273.897 369.699 273.748 369.829 273.636C369.979 273.505 370.147 273.44 370.333 273.44H370.781C370.968 273.44 371.108 273.505 371.201 273.636C371.295 273.748 371.323 273.897 371.285 274.084L371.005 275.372C371.435 274.719 372.013 274.233 372.741 273.916C373.469 273.599 374.3 273.44 375.233 273.44H376.269C376.456 273.44 376.587 273.496 376.661 273.608C376.755 273.72 376.783 273.869 376.745 274.056L376.661 274.448C376.624 274.635 376.54 274.784 376.409 274.896C376.279 275.008 376.12 275.064 375.933 275.064H374.729C373.609 275.064 372.648 275.391 371.845 276.044C371.061 276.697 370.548 277.584 370.305 278.704L368.457 287.384C368.42 287.571 368.327 287.72 368.177 287.832C368.047 287.944 367.888 288 367.701 288H367.253ZM388.725 288.28C387.512 288.28 386.485 288.028 385.645 287.524C384.824 287.001 384.236 286.255 383.881 285.284C383.545 284.313 383.498 283.165 383.741 281.84C383.797 281.56 383.872 281.187 383.965 280.72C384.058 280.253 384.142 279.88 384.217 279.6C384.702 277.603 385.561 276.035 386.793 274.896C388.025 273.739 389.63 273.16 391.609 273.16C392.636 273.16 393.485 273.3 394.157 273.58C394.829 273.86 395.352 274.233 395.725 274.7C396.117 275.167 396.378 275.671 396.509 276.212C396.64 276.735 396.677 277.248 396.621 277.752C396.602 277.939 396.537 278.088 396.425 278.2C396.332 278.312 396.201 278.368 396.033 278.368H395.501C395.314 278.368 395.165 278.331 395.053 278.256C394.96 278.163 394.922 278.004 394.941 277.78C394.978 276.716 394.689 275.951 394.073 275.484C393.476 275.017 392.654 274.784 391.609 274.784C390.34 274.784 389.173 275.176 388.109 275.96C387.064 276.725 386.326 277.985 385.897 279.74C385.822 280.02 385.748 280.347 385.673 280.72C385.598 281.093 385.533 281.42 385.477 281.7C385.178 283.455 385.328 284.724 385.925 285.508C386.522 286.273 387.456 286.656 388.725 286.656C389.714 286.656 390.638 286.451 391.497 286.04C392.374 285.611 393.084 284.864 393.625 283.8C393.756 283.557 393.868 283.399 393.961 283.324C394.054 283.249 394.194 283.212 394.381 283.212H394.885C395.053 283.212 395.174 283.268 395.249 283.38C395.342 283.492 395.361 283.641 395.305 283.828C395.156 284.332 394.913 284.845 394.577 285.368C394.241 285.891 393.802 286.376 393.261 286.824C392.738 287.253 392.094 287.608 391.329 287.888C390.582 288.149 389.714 288.28 388.725 288.28ZM403.709 288.28C402.421 288.28 401.367 288 400.545 287.44C399.724 286.88 399.155 286.115 398.837 285.144C398.52 284.173 398.473 283.091 398.697 281.896C398.735 281.616 398.809 281.224 398.921 280.72C399.033 280.216 399.127 279.824 399.201 279.544C399.5 278.331 399.967 277.248 400.601 276.296C401.255 275.325 402.076 274.56 403.065 274C404.073 273.44 405.249 273.16 406.593 273.16C407.937 273.16 409.011 273.44 409.813 274C410.635 274.56 411.195 275.325 411.493 276.296C411.811 277.248 411.857 278.331 411.633 279.544C411.577 279.824 411.493 280.216 411.381 280.72C411.288 281.224 411.204 281.616 411.129 281.896C410.831 283.091 410.355 284.173 409.701 285.144C409.067 286.115 408.245 286.88 407.237 287.44C406.248 288 405.072 288.28 403.709 288.28ZM403.709 286.656C405.035 286.656 406.22 286.236 407.265 285.396C408.329 284.556 409.057 283.343 409.449 281.756C409.524 281.476 409.599 281.131 409.673 280.72C409.767 280.309 409.841 279.964 409.897 279.684C410.177 278.079 410.028 276.865 409.449 276.044C408.871 275.204 407.919 274.784 406.593 274.784C405.287 274.784 404.101 275.204 403.037 276.044C401.992 276.865 401.273 278.079 400.881 279.684C400.807 279.964 400.723 280.309 400.629 280.72C400.536 281.131 400.471 281.476 400.433 281.756C400.153 283.343 400.293 284.556 400.853 285.396C401.413 286.236 402.365 286.656 403.709 286.656ZM419.38 288.28C417.961 288.28 416.879 288.009 416.132 287.468C415.385 286.908 414.919 286.152 414.732 285.2C414.545 284.248 414.573 283.184 414.816 282.008L416.496 274.056C416.533 273.869 416.617 273.72 416.748 273.608C416.897 273.496 417.065 273.44 417.252 273.44H417.728C417.915 273.44 418.045 273.496 418.12 273.608C418.213 273.72 418.241 273.869 418.204 274.056L416.552 281.868C416.328 282.913 416.244 283.8 416.3 284.528C416.375 285.237 416.645 285.769 417.112 286.124C417.597 286.479 418.353 286.656 419.38 286.656C420.78 286.656 422.003 286.236 423.048 285.396C424.112 284.537 424.803 283.361 425.12 281.868L426.772 274.056C426.809 273.869 426.893 273.72 427.024 273.608C427.173 273.496 427.341 273.44 427.528 273.44H428.004C428.191 273.44 428.321 273.496 428.396 273.608C428.489 273.72 428.517 273.869 428.48 274.056L425.652 287.384C425.615 287.571 425.531 287.72 425.4 287.832C425.269 287.944 425.111 288 424.924 288H424.448C424.261 288 424.121 287.944 424.028 287.832C423.935 287.72 423.907 287.571 423.944 287.384L424.224 286.068C423.795 286.497 423.365 286.88 422.936 287.216C422.525 287.552 422.04 287.813 421.48 288C420.939 288.187 420.239 288.28 419.38 288.28ZM430.718 288C430.532 288 430.392 287.944 430.298 287.832C430.205 287.72 430.177 287.571 430.214 287.384L433.042 274.056C433.08 273.869 433.164 273.72 433.294 273.608C433.444 273.496 433.612 273.44 433.798 273.44H434.274C434.461 273.44 434.592 273.496 434.666 273.608C434.76 273.72 434.788 273.869 434.75 274.056L434.47 275.372C435.049 274.719 435.749 274.187 436.57 273.776C437.392 273.365 438.334 273.16 439.398 273.16C440.817 273.16 441.9 273.44 442.646 274C443.412 274.541 443.897 275.288 444.102 276.24C444.308 277.173 444.28 278.237 444.018 279.432L442.31 287.384C442.273 287.571 442.189 287.72 442.058 287.832C441.928 287.944 441.769 288 441.582 288H441.106C440.92 288 440.78 287.944 440.686 287.832C440.593 287.72 440.565 287.571 440.602 287.384L442.254 279.572C442.59 277.985 442.581 276.791 442.226 275.988C441.872 275.185 440.929 274.784 439.398 274.784C437.924 274.784 436.664 275.213 435.618 276.072C434.573 276.912 433.892 278.079 433.574 279.572L431.922 287.384C431.885 287.571 431.801 287.72 431.67 287.832C431.54 287.944 431.381 288 431.194 288H430.718ZM451.384 288C450.171 288 449.312 287.795 448.808 287.384C448.323 286.973 448.061 286.413 448.024 285.704C448.005 284.995 448.089 284.201 448.276 283.324L450.04 275.064H447.856C447.669 275.064 447.529 275.008 447.436 274.896C447.343 274.784 447.315 274.635 447.352 274.448L447.436 274.056C447.473 273.869 447.557 273.72 447.688 273.608C447.837 273.496 448.005 273.44 448.192 273.44H450.376L451.384 268.736C451.421 268.549 451.505 268.4 451.636 268.288C451.767 268.176 451.925 268.12 452.112 268.12H452.588C452.775 268.12 452.915 268.176 453.008 268.288C453.101 268.4 453.129 268.549 453.092 268.736L452.084 273.44H455.556C455.743 273.44 455.873 273.496 455.948 273.608C456.041 273.72 456.069 273.869 456.032 274.056L455.948 274.448C455.911 274.635 455.827 274.784 455.696 274.896C455.565 275.008 455.407 275.064 455.22 275.064H451.748L450.012 283.212C449.881 283.865 449.788 284.435 449.732 284.92C449.695 285.387 449.788 285.751 450.012 286.012C450.255 286.255 450.721 286.376 451.412 286.376H453.092C453.279 286.376 453.409 286.432 453.484 286.544C453.577 286.656 453.605 286.805 453.568 286.992L453.484 287.384C453.447 287.571 453.363 287.72 453.232 287.832C453.101 287.944 452.943 288 452.756 288H451.384Z" fill="#1F1F1F"/>
</g>
<defs>
<clipPath id="clip0_1678_1942">
<rect width="456" height="340" fill="white"/>
</clipPath>
</defs>
</svg>
