<svg width="1024" height="1024" viewBox="0 0 1024 1024" fill="none" xmlns="http://www.w3.org/2000/svg">
<rect width="1024" height="1024" rx="80" fill="#FAFAFA"/>
<g clip-path="url(#clip0_1678_1941)">
<path d="M797.271 330.236L809.386 558.401L775.124 350.814C772.113 332.572 756.158 319.314 737.674 319.693L349.974 327.646C331.033 328.034 315.412 342.602 313.704 361.469L271.416 828.66C269.502 849.801 285.646 868.251 306.853 869.161L809.386 890.729L256.074 905.859C233.886 906.466 216.112 887.625 218.01 865.51L264.917 318.936C266.595 299.39 283.17 284.509 302.784 284.941L760.959 295.033C780.408 295.461 796.24 310.809 797.271 330.236Z" fill="#277F60"/>
<path d="M707.131 274.877C709.698 274.877 711.786 272.795 711.711 270.229C710.529 230.003 694.032 191.672 665.493 163.133C635.857 133.496 595.661 116.847 553.749 116.847C511.837 116.847 471.642 133.496 442.005 163.133C413.466 191.672 396.97 230.003 395.788 270.229C395.712 272.795 397.8 274.877 400.367 274.877L419.517 274.877C422.084 274.877 424.156 272.794 424.248 270.229C425.42 237.549 438.915 206.451 462.119 183.247C486.421 158.945 519.381 145.292 553.749 145.292C588.117 145.292 621.078 158.945 645.379 183.247C668.584 206.451 682.079 237.549 683.251 270.229C683.343 272.794 685.415 274.877 687.982 274.877H707.131Z" fill="#277F60"/>
<circle cx="702.483" cy="372.484" r="18.5918" fill="#277F60"/>
<circle cx="405.015" cy="372.484" r="18.5918" fill="#277F60"/>
</g>
<defs>
<clipPath id="clip0_1678_1941">
<rect width="594.937" height="790.15" fill="white" transform="translate(214.449 116.847)"/>
</clipPath>
</defs>
</svg>
