<svg width="60" height="60" viewBox="0 0 60 60" fill="none" xmlns="http://www.w3.org/2000/svg">
<path opacity="0.21" d="M37 0C49.7025 0 60 10.2975 60 23V37C60 49.7025 49.7025 60 37 60H23C10.2975 60 0 49.7025 0 37V23C0 10.2975 10.2975 0 23 0H37Z" fill="#8280FF"/>
<path opacity="0.587821" d="M37.999 24.667C40.2082 24.667 41.999 26.4579 41.999 28.667C41.9988 30.876 40.2081 32.667 37.999 32.667C35.7901 32.6668 33.9992 30.8759 33.999 28.667C33.999 26.458 35.79 24.6672 37.999 24.667ZM25.999 18C28.9444 18 31.3328 20.3876 31.333 23.333C31.333 26.2785 28.9445 28.667 25.999 28.667C23.0537 28.6668 20.666 26.2784 20.666 23.333C20.6662 20.3877 23.0538 18.0002 25.999 18Z" fill="#8280FF"/>
<path d="M25.9774 31.3333C32.3611 31.3333 37.6061 34.3908 37.997 40.933C38.0125 41.1936 37.9966 42.0003 36.995 42.0003H14.9696C14.6351 41.9999 13.9727 41.2785 14.0009 40.932C14.5178 34.5687 19.6824 31.3334 25.9774 31.3333ZM37.4686 34.0023C42.0103 34.0521 45.7187 36.3469 45.9979 41.1996C46.0092 41.395 45.9977 42.0003 45.2743 42.0003H40.1337C40.1337 38.9996 39.1416 36.2304 37.4686 34.0023Z" fill="#8280FF"/>
</svg>
