<svg width="24" height="24" viewBox="0 0 24 24" fill="none" xmlns="http://www.w3.org/2000/svg">
<path d="M8.375 12.875C8.1525 12.875 7.93499 12.809 7.74999 12.6854C7.56498 12.5618 7.42079 12.3861 7.33564 12.1805C7.25049 11.975 7.22821 11.7488 7.27162 11.5305C7.31503 11.3123 7.42217 11.1118 7.57951 10.9545C7.73684 10.7972 7.9373 10.69 8.15553 10.6466C8.37376 10.6032 8.59996 10.6255 8.80552 10.7106C9.01109 10.7958 9.18679 10.94 9.31041 11.125C9.43402 11.31 9.5 11.5275 9.5 11.75C9.5 12.0484 9.38148 12.3345 9.1705 12.5455C8.95952 12.7565 8.67337 12.875 8.375 12.875ZM15.125 10.625C14.9025 10.625 14.685 10.691 14.5 10.8146C14.315 10.9382 14.1708 11.1139 14.0856 11.3195C14.0005 11.525 13.9782 11.7512 14.0216 11.9695C14.065 12.1877 14.1722 12.3882 14.3295 12.5455C14.4868 12.7028 14.6873 12.81 14.9055 12.8534C15.1238 12.8968 15.35 12.8745 15.5555 12.7894C15.7611 12.7042 15.9368 12.56 16.0604 12.375C16.184 12.19 16.25 11.9725 16.25 11.75C16.25 11.4516 16.1315 11.1655 15.9205 10.9545C15.7095 10.7435 15.4234 10.625 15.125 10.625ZM13.9747 14.8653C13.3067 15.2799 12.5362 15.4996 11.75 15.4996C10.9638 15.4996 10.1933 15.2799 9.52532 14.8653C9.35699 14.7591 9.15338 14.7242 8.95928 14.7681C8.76518 14.8121 8.59649 14.9314 8.49032 15.0997C8.38415 15.268 8.3492 15.4716 8.39315 15.6657C8.4371 15.8598 8.55636 16.0285 8.72469 16.1347C9.63233 16.7005 10.6804 17.0004 11.75 17.0004C12.8196 17.0004 13.8677 16.7005 14.7753 16.1347C14.9436 16.0285 15.0629 15.8598 15.1069 15.6657C15.1508 15.4716 15.1159 15.268 15.0097 15.0997C14.9035 14.9314 14.7348 14.8121 14.5407 14.7681C14.3466 14.7242 14.143 14.7591 13.9747 14.8653ZM21.5 11.75C21.5 13.6784 20.9282 15.5634 19.8568 17.1668C18.7855 18.7702 17.2627 20.0199 15.4812 20.7578C13.6996 21.4958 11.7392 21.6889 9.84787 21.3127C7.95656 20.9365 6.21928 20.0079 4.85571 18.6443C3.49215 17.2807 2.56355 15.5434 2.18735 13.6521C1.81114 11.7608 2.00422 9.80042 2.74218 8.01884C3.48013 6.23726 4.72982 4.71451 6.33319 3.64317C7.93657 2.57183 9.82164 2 11.75 2C14.335 2.00273 16.8134 3.03084 18.6413 4.85872C20.4692 6.68661 21.4973 9.16498 21.5 11.75ZM20 11.75C19.9974 9.62623 19.1769 7.58506 17.7089 6.05036C16.2409 4.51565 14.2381 3.60533 12.1166 3.50844C11.03 5.03562 11 6.48875 11 6.5C11 6.69891 11.079 6.88968 11.2197 7.03033C11.3603 7.17098 11.5511 7.25 11.75 7.25C11.9489 7.25 12.1397 7.17098 12.2803 7.03033C12.421 6.88968 12.5 6.69891 12.5 6.5C12.5 6.30109 12.579 6.11032 12.7197 5.96967C12.8603 5.82902 13.0511 5.75 13.25 5.75C13.4489 5.75 13.6397 5.82902 13.7803 5.96967C13.921 6.11032 14 6.30109 14 6.5C14 7.09674 13.763 7.66903 13.341 8.09099C12.919 8.51295 12.3467 8.75 11.75 8.75C11.1533 8.75 10.581 8.51295 10.159 8.09099C9.73706 7.66903 9.5 7.09674 9.5 6.5C9.5 6.43156 9.51219 5.15937 10.2931 3.62844C8.74846 3.90557 7.31488 4.61752 6.16061 5.68074C5.00633 6.74396 4.17926 8.11435 3.77643 9.6311C3.3736 11.1478 3.41173 12.748 3.88635 14.2439C4.36097 15.7397 5.25238 17.0691 6.45599 18.0762C7.6596 19.0832 9.12546 19.7261 10.6816 19.9293C12.2377 20.1325 13.8195 19.8877 15.2414 19.2236C16.6632 18.5595 17.8662 17.5036 18.7091 16.1798C19.5519 14.856 19.9998 13.3193 20 11.75Z" fill="black"/>
</svg>
