<svg width="64" height="64" viewBox="0 0 64 64" fill="none" xmlns="http://www.w3.org/2000/svg">
<path opacity="0.21" d="M39.4668 0C53.0161 7.21562e-05 63.9999 10.9839 64 24.5332V39.4668C63.9999 53.0161 53.0161 63.9999 39.4668 64H24.5332C10.9839 63.9999 7.21609e-05 53.0161 0 39.4668V24.5332C7.21609e-05 10.9839 10.9839 7.21562e-05 24.5332 0H39.4668Z" fill="#FF0004"/>
<path d="M49.5 26.691C49.5 37.6285 33.2828 46.4816 32.5922 46.8472C32.4102 46.9451 32.2067 46.9964 32 46.9964C31.7933 46.9964 31.5898 46.9451 31.4078 46.8472C30.7172 46.4816 14.5 37.6285 14.5 26.691C14.5029 24.1226 15.5245 21.6602 17.3406 19.8441C19.1567 18.0279 21.6191 17.0064 24.1875 17.0035C27.4141 17.0035 30.2391 18.391 32 20.7363C33.7609 18.391 36.5859 17.0035 39.8125 17.0035C42.3809 17.0064 44.8433 18.0279 46.6594 19.8441C48.4755 21.6602 49.4971 24.1226 49.5 26.691Z" fill="#FF6464"/>
</svg>
