<svg width="24" height="24" viewBox="0 0 24 24" fill="none" xmlns="http://www.w3.org/2000/svg">
<path d="M15.5001 2C13.7104 2.00174 11.9945 2.71345 10.729 3.97895C9.46355 5.24444 8.75184 6.96032 8.7501 8.75C8.75078 9.04534 8.77051 9.34033 8.80916 9.63312L2.2926 18.5206C2.0793 18.8091 1.97698 19.1647 2.00435 19.5224C2.03173 19.8802 2.18696 20.2161 2.44166 20.4688L3.78135 21.8084C4.03402 22.0631 4.36993 22.2184 4.72765 22.2457C5.08537 22.2731 5.44099 22.1708 5.72947 21.9575L14.6179 15.4391C14.9104 15.4783 15.205 15.4987 15.5001 15.5C17.2903 15.5 19.0072 14.7888 20.2731 13.523C21.5389 12.2571 22.2501 10.5402 22.2501 8.75C22.2501 6.95979 21.5389 5.2429 20.2731 3.97703C19.0072 2.71116 17.2903 2 15.5001 2ZM20.7501 8.75C20.7515 9.88326 20.3842 10.9862 19.7038 11.8925L12.3585 4.54625C13.1388 3.96349 14.0658 3.60925 15.0359 3.52313C16.0059 3.43701 16.9808 3.62241 17.8515 4.05861C18.7223 4.4948 19.4545 5.16458 19.9664 5.99308C20.4783 6.82158 20.7496 7.77613 20.7501 8.75ZM4.8426 20.75L3.5001 19.4075L9.32572 11.4688C10.0084 13.0099 11.2402 14.2417 12.7813 14.9244L4.8426 20.75ZM10.2501 8.75C10.2486 7.61701 10.6158 6.5143 11.2963 5.60844L18.6407 12.9528C17.8605 13.5353 16.9337 13.8893 15.9639 13.9753C14.994 14.0613 14.0194 13.8759 13.1489 13.4399C12.2783 13.0038 11.5462 12.3343 11.0343 11.5061C10.5224 10.6779 10.2509 9.72364 10.2501 8.75ZM10.0298 14.2194C10.1703 14.36 10.2493 14.5507 10.2493 14.7495C10.2493 14.9484 10.1703 15.139 10.0298 15.2797L9.27979 16.0297C9.21083 16.1023 9.12805 16.1603 9.03632 16.2004C8.94458 16.2405 8.84575 16.2618 8.74565 16.263C8.64555 16.2643 8.54621 16.2456 8.45348 16.2078C8.36075 16.1701 8.27651 16.1142 8.20572 16.0434C8.13494 15.9727 8.07904 15.8884 8.04132 15.7957C8.0036 15.7029 7.98483 15.6036 7.98611 15.5035C7.98739 15.4034 8.0087 15.3046 8.04878 15.2128C8.08886 15.1211 8.1469 15.0383 8.21947 14.9694L8.96947 14.2194C9.03908 14.1494 9.12181 14.0939 9.21291 14.056C9.30401 14.0181 9.4017 13.9986 9.50037 13.9985C9.59905 13.9984 9.69677 14.0178 9.78793 14.0555C9.8791 14.0933 9.96193 14.1486 10.0317 14.2184L10.0298 14.2194Z" fill="black"/>
</svg>
