<svg width="24" height="24" viewBox="0 0 24 24" fill="none" xmlns="http://www.w3.org/2000/svg">
<path d="M16.25 1H7.25C6.65326 1 6.08097 1.23705 5.65901 1.65901C5.23705 2.08097 5 2.65326 5 3.25V19.75C5 20.3467 5.23705 20.919 5.65901 21.341C6.08097 21.7629 6.65326 22 7.25 22H16.25C16.8467 22 17.419 21.7629 17.841 21.341C18.2629 20.919 18.5 20.3467 18.5 19.75V3.25C18.5 2.65326 18.2629 2.08097 17.841 1.65901C17.419 1.23705 16.8467 1 16.25 1ZM17 19.75C17 19.9489 16.921 20.1397 16.7803 20.2803C16.6397 20.421 16.4489 20.5 16.25 20.5H7.25C7.05109 20.5 6.86032 20.421 6.71967 20.2803C6.57902 20.1397 6.5 19.9489 6.5 19.75V3.25C6.5 3.05109 6.57902 2.86032 6.71967 2.71967C6.86032 2.57902 7.05109 2.5 7.25 2.5H16.25C16.4489 2.5 16.6397 2.57902 16.7803 2.71967C16.921 2.86032 17 3.05109 17 3.25V19.75ZM12.875 5.125C12.875 5.3475 12.809 5.56501 12.6854 5.75002C12.5618 5.93502 12.3861 6.07922 12.1805 6.16436C11.975 6.24951 11.7488 6.27179 11.5305 6.22838C11.3123 6.18498 11.1118 6.07783 10.9545 5.9205C10.7972 5.76316 10.69 5.56271 10.6466 5.34448C10.6032 5.12625 10.6255 4.90005 10.7106 4.69448C10.7958 4.48891 10.94 4.31321 11.125 4.1896C11.31 4.06598 11.5275 4 11.75 4C12.0484 4 12.3345 4.11853 12.5455 4.3295C12.7565 4.54048 12.875 4.82663 12.875 5.125Z" fill="#1F1F1F"/>
</svg>
