<svg width="24" height="24" viewBox="0 0 24 24" fill="none" xmlns="http://www.w3.org/2000/svg">
<path d="M11.75 2C9.82164 2 7.93657 2.57183 6.33319 3.64317C4.72982 4.71451 3.48013 6.23726 2.74218 8.01884C2.00422 9.80042 1.81114 11.7608 2.18735 13.6521C2.56355 15.5434 3.49215 17.2807 4.85571 18.6443C6.21928 20.0079 7.95656 20.9365 9.84787 21.3127C11.7392 21.6889 13.6996 21.4958 15.4812 20.7578C17.2627 20.0199 18.7855 18.7702 19.8568 17.1668C20.9282 15.5634 21.5 13.6784 21.5 11.75C21.4973 9.16498 20.4692 6.68661 18.6413 4.85872C16.8134 3.03084 14.335 2.00273 11.75 2ZM11.75 20C10.1183 20 8.52326 19.5161 7.16655 18.6096C5.80984 17.7031 4.75242 16.4146 4.128 14.9071C3.50358 13.3996 3.3402 11.7408 3.65853 10.1405C3.97685 8.54016 4.76259 7.07015 5.91637 5.91637C7.07016 4.76259 8.54017 3.97685 10.1405 3.65852C11.7409 3.34019 13.3997 3.50357 14.9071 4.12799C16.4146 4.75242 17.7031 5.80984 18.6096 7.16655C19.5161 8.52325 20 10.1183 20 11.75C19.9975 13.9373 19.1275 16.0343 17.5809 17.5809C16.0343 19.1275 13.9373 19.9975 11.75 20ZM12.875 11.75C12.875 11.9725 12.809 12.19 12.6854 12.375C12.5618 12.56 12.3861 12.7042 12.1805 12.7894C11.975 12.8745 11.7488 12.8968 11.5305 12.8534C11.3123 12.81 11.1118 12.7028 10.9545 12.5455C10.7972 12.3882 10.69 12.1877 10.6466 11.9695C10.6032 11.7512 10.6255 11.525 10.7106 11.3195C10.7958 11.1139 10.94 10.9382 11.125 10.8146C11.31 10.691 11.5275 10.625 11.75 10.625C12.0484 10.625 12.3345 10.7435 12.5455 10.9545C12.7565 11.1655 12.875 11.4516 12.875 11.75ZM17 11.75C17 11.9725 16.934 12.19 16.8104 12.375C16.6868 12.56 16.5111 12.7042 16.3055 12.7894C16.1 12.8745 15.8738 12.8968 15.6555 12.8534C15.4373 12.81 15.2368 12.7028 15.0795 12.5455C14.9222 12.3882 14.815 12.1877 14.7716 11.9695C14.7282 11.7512 14.7505 11.525 14.8356 11.3195C14.9208 11.1139 15.065 10.9382 15.25 10.8146C15.435 10.691 15.6525 10.625 15.875 10.625C16.1734 10.625 16.4595 10.7435 16.6705 10.9545C16.8815 11.1655 17 11.4516 17 11.75ZM8.75 11.75C8.75 11.9725 8.68402 12.19 8.56041 12.375C8.43679 12.56 8.26109 12.7042 8.05552 12.7894C7.84996 12.8745 7.62376 12.8968 7.40553 12.8534C7.1873 12.81 6.98684 12.7028 6.82951 12.5455C6.67217 12.3882 6.56503 12.1877 6.52162 11.9695C6.47821 11.7512 6.50049 11.525 6.58564 11.3195C6.67079 11.1139 6.81498 10.9382 6.99999 10.8146C7.18499 10.691 7.4025 10.625 7.625 10.625C7.92337 10.625 8.20952 10.7435 8.4205 10.9545C8.63148 11.1655 8.75 11.4516 8.75 11.75Z" fill="#277F60"/>
</svg>
