<svg width="24" height="24" viewBox="0 0 24 24" fill="none" xmlns="http://www.w3.org/2000/svg">
<path d="M20.0157 3.90112L7.80475 1.74487C7.41303 1.67594 7.00996 1.76541 6.68419 1.99361C6.35842 2.2218 6.13662 2.57004 6.06757 2.96175L3.2785 18.8055C3.24439 18.9996 3.24886 19.1985 3.29165 19.3909C3.33445 19.5833 3.41473 19.7653 3.52791 19.9266C3.6411 20.088 3.78496 20.2254 3.95129 20.3311C4.11761 20.4368 4.30313 20.5087 4.49725 20.5427L16.7082 22.6989C16.9024 22.7332 17.1014 22.7288 17.2938 22.6861C17.4863 22.6434 17.6685 22.5631 17.8299 22.4499C17.9914 22.3367 18.1289 22.1928 18.2347 22.0264C18.3404 21.86 18.4123 21.6744 18.4463 21.4802L21.2354 5.63644C21.3037 5.24458 21.2136 4.84164 20.9849 4.51622C20.7561 4.19079 20.4075 3.96954 20.0157 3.90112ZM16.9669 21.2214L4.75507 19.0652L7.54413 3.22144L19.7551 5.37769L16.9669 21.2214ZM8.63069 5.69831C8.66543 5.50254 8.77649 5.32857 8.93946 5.21465C9.10242 5.10073 9.30396 5.05619 9.49975 5.09081L17.281 6.46425C17.4659 6.49664 17.632 6.59722 17.7464 6.74611C17.8607 6.895 17.9151 7.08137 17.8987 7.2684C17.8824 7.45543 17.7964 7.62952 17.6579 7.75627C17.5194 7.88303 17.3384 7.95322 17.1507 7.953C17.1067 7.95294 17.0628 7.94918 17.0194 7.94175L9.23819 6.56737C9.04241 6.53263 8.86845 6.42157 8.75453 6.25861C8.64061 6.09564 8.59607 5.89411 8.63069 5.69831ZM8.11132 8.65331C8.12841 8.55629 8.16445 8.46358 8.21738 8.38049C8.27031 8.2974 8.33909 8.22555 8.4198 8.16905C8.5005 8.11255 8.59155 8.0725 8.68773 8.05119C8.78392 8.02989 8.88336 8.02774 8.98038 8.04487L16.7616 9.41925C16.9479 9.4504 17.1155 9.55064 17.231 9.69997C17.3466 9.84929 17.4016 10.0367 17.385 10.2248C17.3684 10.4129 17.2815 10.5878 17.1416 10.7146C17.0018 10.8414 16.8192 10.9108 16.6304 10.9089C16.586 10.909 16.5418 10.9049 16.4982 10.8967L8.71694 9.52331C8.52132 9.48814 8.34765 9.37676 8.23409 9.21364C8.12054 9.05051 8.07638 8.84898 8.11132 8.65331ZM7.591 11.6074C7.6264 11.4121 7.73773 11.2388 7.90062 11.1255C8.06351 11.0122 8.26468 10.968 8.46006 11.0027L12.3488 11.6861C12.5337 11.7185 12.6997 11.819 12.814 11.9678C12.9284 12.1166 12.9828 12.3028 12.9666 12.4898C12.9503 12.6768 12.8646 12.8508 12.7263 12.9777C12.5879 13.1045 12.4071 13.1749 12.2194 13.1749C12.1755 13.1749 12.1315 13.1711 12.0882 13.1636L8.19757 12.4764C8.00196 12.4415 7.82822 12.3303 7.7145 12.1674C7.60078 12.0044 7.55636 11.803 7.591 11.6074Z" fill="#277F60"/>
</svg>
