<svg width="24" height="24" viewBox="0 0 24 24" fill="none" xmlns="http://www.w3.org/2000/svg">
<path d="M22.75 8.25H21.8566L20.9856 4.18594C20.9125 3.85084 20.7272 3.55071 20.4605 3.3351C20.1937 3.11948 19.8614 3.00128 19.5184 3H4.98156C4.63857 3.00128 4.30627 3.11948 4.03953 3.3351C3.77278 3.55071 3.58754 3.85084 3.51437 4.18594L2.64344 8.25H1.75C1.55109 8.25 1.36032 8.32902 1.21967 8.46967C1.07902 8.61032 1 8.80109 1 9C1 9.19891 1.07902 9.38968 1.21967 9.53033C1.36032 9.67098 1.55109 9.75 1.75 9.75H2.5V18.75C2.5 19.1478 2.65804 19.5294 2.93934 19.8107C3.22064 20.092 3.60218 20.25 4 20.25H6.25C6.64782 20.25 7.02936 20.092 7.31066 19.8107C7.59196 19.5294 7.75 19.1478 7.75 18.75V16.5H16.75V18.75C16.75 19.1478 16.908 19.5294 17.1893 19.8107C17.4706 20.092 17.8522 20.25 18.25 20.25H20.5C20.8978 20.25 21.2794 20.092 21.5607 19.8107C21.842 19.5294 22 19.1478 22 18.75V9.75H22.75C22.9489 9.75 23.1397 9.67098 23.2803 9.53033C23.421 9.38968 23.5 9.19891 23.5 9C23.5 8.80109 23.421 8.61032 23.2803 8.46967C23.1397 8.32902 22.9489 8.25 22.75 8.25ZM4.98156 4.5H19.5184L20.3219 8.25H4.17813L4.98156 4.5ZM6.25 18.75H4V16.5H6.25V18.75ZM18.25 18.75V16.5H20.5V18.75H18.25ZM20.5 15H14.5V12C14.5 11.8011 14.421 11.6103 14.2803 11.4697C14.1397 11.329 13.9489 11.25 13.75 11.25C13.5511 11.25 13.3603 11.329 13.2197 11.4697C13.079 11.6103 13 11.8011 13 12V15H11.5V12C11.5 11.8011 11.421 11.6103 11.2803 11.4697C11.1397 11.329 10.9489 11.25 10.75 11.25C10.5511 11.25 10.3603 11.329 10.2197 11.4697C10.079 11.6103 10 11.8011 10 12V15H4V9.75H20.5V15ZM5.5 12.375C5.5 12.1525 5.56598 11.935 5.6896 11.75C5.81321 11.565 5.98891 11.4208 6.19448 11.3356C6.40005 11.2505 6.62625 11.2282 6.84448 11.2716C7.06271 11.315 7.26316 11.4222 7.4205 11.5795C7.57783 11.7368 7.68498 11.9373 7.72838 12.1555C7.77179 12.3738 7.74951 12.6 7.66436 12.8055C7.57922 13.0111 7.43502 13.1868 7.25002 13.3104C7.06501 13.434 6.8475 13.5 6.625 13.5C6.32663 13.5 6.04048 13.3815 5.8295 13.1705C5.61853 12.9595 5.5 12.6734 5.5 12.375ZM16.75 12.375C16.75 12.1525 16.816 11.935 16.9396 11.75C17.0632 11.565 17.2389 11.4208 17.4445 11.3356C17.65 11.2505 17.8762 11.2282 18.0945 11.2716C18.3127 11.315 18.5132 11.4222 18.6705 11.5795C18.8278 11.7368 18.935 11.9373 18.9784 12.1555C19.0218 12.3738 18.9995 12.6 18.9144 12.8055C18.8292 13.0111 18.685 13.1868 18.5 13.3104C18.315 13.434 18.0975 13.5 17.875 13.5C17.5766 13.5 17.2905 13.3815 17.0795 13.1705C16.8685 12.9595 16.75 12.6734 16.75 12.375Z" fill="#1F1F1F"/>
</svg>
