<svg width="64" height="64" viewBox="0 0 64 64" fill="none" xmlns="http://www.w3.org/2000/svg">
<path opacity="0.21" d="M39.4668 0C53.0161 7.21562e-05 63.9999 10.9839 64 24.5332V39.4668C63.9999 53.0161 53.0161 63.9999 39.4668 64H24.5332C10.9839 63.9999 7.21609e-05 53.0161 0 39.4668V24.5332C7.21609e-05 10.9839 10.9839 7.21562e-05 24.5332 0H39.4668Z" fill="#19DDC3"/>
<path fill-rule="evenodd" clip-rule="evenodd" d="M16 25.9375L29.7605 33.8821C29.9087 33.9677 30.0641 34.0295 30.2222 34.0687V49.477L16.9814 41.641C16.3731 41.281 16 40.6267 16 39.9198V25.9375ZM47.9996 25.7266V39.9201C47.9996 40.6269 47.6265 41.2813 47.0182 41.6413L33.7773 49.4772V33.934C33.8096 33.9179 33.8416 33.9007 33.8732 33.8824L47.9996 25.7266Z" fill="#277F60"/>
<path opacity="0.499209" fill-rule="evenodd" clip-rule="evenodd" d="M16.4297 22.082C16.5978 21.8698 16.8099 21.6904 17.0573 21.5587L31.0573 14.102C31.645 13.7889 32.3499 13.7889 32.9377 14.102L46.9377 21.5587C47.1283 21.6602 47.2981 21.7901 47.4428 21.9415L32.0933 30.8035C31.9924 30.8618 31.8993 30.9285 31.8145 31.0022C31.7297 30.9285 31.6367 30.8618 31.5358 30.8035L16.4297 22.082Z" fill="#277F60"/>
</svg>
