<svg width="24" height="24" viewBox="0 0 24 24" fill="none" xmlns="http://www.w3.org/2000/svg">
<path d="M19.25 3H4.25C3.65326 3 3.08097 3.23705 2.65901 3.65901C2.23705 4.08097 2 4.65326 2 5.25V15.75C2 16.3467 2.23705 16.919 2.65901 17.341C3.08097 17.7629 3.65326 18 4.25 18H19.25C19.8467 18 20.419 17.7629 20.841 17.341C21.2629 16.919 21.5 16.3467 21.5 15.75V5.25C21.5 4.65326 21.2629 4.08097 20.841 3.65901C20.419 3.23705 19.8467 3 19.25 3ZM20 15.75C20 15.9489 19.921 16.1397 19.7803 16.2803C19.6397 16.421 19.4489 16.5 19.25 16.5H4.25C4.05109 16.5 3.86032 16.421 3.71967 16.2803C3.57902 16.1397 3.5 15.9489 3.5 15.75V5.25C3.5 5.05109 3.57902 4.86032 3.71967 4.71967C3.86032 4.57902 4.05109 4.5 4.25 4.5H19.25C19.4489 4.5 19.6397 4.57902 19.7803 4.71967C19.921 4.86032 20 5.05109 20 5.25V15.75ZM15.5 20.25C15.5 20.4489 15.421 20.6397 15.2803 20.7803C15.1397 20.921 14.9489 21 14.75 21H8.75C8.55109 21 8.36032 20.921 8.21967 20.7803C8.07902 20.6397 8 20.4489 8 20.25C8 20.0511 8.07902 19.8603 8.21967 19.7197C8.36032 19.579 8.55109 19.5 8.75 19.5H14.75C14.9489 19.5 15.1397 19.579 15.2803 19.7197C15.421 19.8603 15.5 20.0511 15.5 20.25Z" fill="black"/>
</svg>
