<svg width="24" height="24" viewBox="0 0 24 24" fill="none" xmlns="http://www.w3.org/2000/svg">
<path d="M20.1859 13.1026L14.4925 11.2051C14.1964 11.1062 13.9242 10.9468 13.693 10.737C13.4619 10.5272 13.277 10.2715 13.15 9.98639L10.9741 4.89857C10.9741 4.89857 10.9741 4.89201 10.9741 4.8892C10.8191 4.54166 10.5379 4.266 10.1873 4.11804C9.83673 3.97008 9.44303 3.96089 9.08594 4.09232L1.98719 6.66951C1.69819 6.77536 1.44859 6.96729 1.27207 7.21942C1.09555 7.47154 1.00059 7.77173 1 8.07951V18.9986C1 19.3964 1.15804 19.7779 1.43934 20.0592C1.72064 20.3405 2.10218 20.4986 2.5 20.4986H21.25C21.6478 20.4986 22.0294 20.3405 22.3107 20.0592C22.592 19.7779 22.75 19.3964 22.75 18.9986V16.6604C22.7501 15.8734 22.5025 15.1062 22.0423 14.4677C21.5821 13.8291 20.9326 13.3516 20.1859 13.1026ZM9.59875 5.49857L10.2653 7.05764L8.24406 7.79357C8.07826 7.85375 7.93897 7.97045 7.85067 8.12315C7.76237 8.27585 7.73073 8.45478 7.76128 8.6285C7.79184 8.80223 7.88265 8.95962 8.01776 9.07302C8.15286 9.18643 8.32361 9.24859 8.5 9.24857C8.58735 9.24845 8.674 9.2329 8.75594 9.20264L10.8559 8.43951L11.3003 9.47732L9.74406 10.0398C9.57555 10.0981 9.4333 10.2145 9.34284 10.3681C9.25237 10.5218 9.21961 10.7026 9.25042 10.8783C9.28123 11.0539 9.37361 11.2128 9.51097 11.3265C9.64834 11.4401 9.82171 11.5012 10 11.4986C10.0874 11.4985 10.174 11.4829 10.2559 11.4526L11.9059 10.8526C12.0952 11.201 12.3382 11.5174 12.6259 11.7901L11.2441 12.2926C11.0776 12.3524 10.9376 12.469 10.8488 12.6219C10.76 12.7748 10.728 12.9542 10.7587 13.1284C10.7893 13.3026 10.8805 13.4604 11.0161 13.5738C11.1518 13.6873 11.3231 13.7492 11.5 13.7486C11.5873 13.7483 11.6738 13.7331 11.7559 13.7036L14.3809 12.7492L19.7125 14.5258C20.0519 14.6393 20.3594 14.8321 20.6093 15.0882C20.8593 15.3444 21.0445 15.6565 21.1497 15.9986H2.5V8.07951L9.59875 5.49857ZM2.5 18.9986V17.4986H21.25V18.9986H2.5Z" fill="black"/>
</svg>
