<svg width="24" height="24" viewBox="0 0 24 24" fill="none" xmlns="http://www.w3.org/2000/svg">
<path d="M18.24 2.25293H6.23999C5.64325 2.25293 5.07096 2.48998 4.649 2.91194C4.22704 3.3339 3.98999 3.90619 3.98999 4.50293V19.5029C3.98999 20.0997 4.22704 20.672 4.649 21.0939C5.07096 21.5159 5.64325 21.7529 6.23999 21.7529H18.24C18.8367 21.7529 19.409 21.5159 19.831 21.0939C20.2529 20.672 20.49 20.0997 20.49 19.5029V4.50293C20.49 3.90619 20.2529 3.3339 19.831 2.91194C19.409 2.48998 18.8367 2.25293 18.24 2.25293ZM18.99 19.5029C18.99 19.7018 18.911 19.8926 18.7703 20.0333C18.6297 20.1739 18.4389 20.2529 18.24 20.2529H6.23999C6.04108 20.2529 5.85031 20.1739 5.70966 20.0333C5.56901 19.8926 5.48999 19.7018 5.48999 19.5029V4.50293C5.48999 4.30402 5.56901 4.11325 5.70966 3.9726C5.85031 3.83195 6.04108 3.75293 6.23999 3.75293H18.24C18.4389 3.75293 18.6297 3.83195 18.7703 3.9726C18.911 4.11325 18.99 4.30402 18.99 4.50293V19.5029ZM13.365 6.37793C13.365 6.60043 13.299 6.81794 13.1754 7.00295C13.0518 7.18795 12.8761 7.33215 12.6705 7.41729C12.4649 7.50244 12.2387 7.52472 12.0205 7.48131C11.8023 7.4379 11.6018 7.33076 11.4445 7.17342C11.2872 7.01609 11.18 6.81564 11.1366 6.59741C11.0932 6.37918 11.1155 6.15298 11.2006 5.94741C11.2858 5.74184 11.43 5.56614 11.615 5.44253C11.8 5.31891 12.0175 5.25293 12.24 5.25293C12.5384 5.25293 12.8245 5.37146 13.0355 5.58243C13.2465 5.79341 13.365 6.07956 13.365 6.37793Z" fill="black"/>
</svg>
