<svg width="24" height="24" viewBox="0 0 24 24" fill="none" xmlns="http://www.w3.org/2000/svg">
<path d="M22 14.7572V11.8125C22.0016 11.4896 21.8982 11.175 21.7054 10.9159C21.5127 10.6569 21.241 10.4675 20.9313 10.3763L20.9116 10.3706L17.5 9.44156V6C17.5 5.80109 17.421 5.61032 17.2803 5.46967C17.1397 5.32902 16.9489 5.25 16.75 5.25C16.5511 5.25 16.3603 5.32902 16.2197 5.46967C16.079 5.61032 16 5.80109 16 6V9.03562L13.75 8.42625V4.5H14.5C14.6989 4.5 14.8897 4.42098 15.0303 4.28033C15.171 4.13968 15.25 3.94891 15.25 3.75C15.25 3.55109 15.171 3.36032 15.0303 3.21967C14.8897 3.07902 14.6989 3 14.5 3H3.25C3.05109 3 2.86032 3.07902 2.71967 3.21967C2.57902 3.36032 2.5 3.55109 2.5 3.75C2.5 3.94891 2.57902 4.13968 2.71967 4.28033C2.86032 4.42098 3.05109 4.5 3.25 4.5H4V7.5H3.25C3.05109 7.5 2.86032 7.57902 2.71967 7.71967C2.57902 7.86032 2.5 8.05109 2.5 8.25C2.5 8.44891 2.57902 8.63968 2.71967 8.78033C2.86032 8.92098 3.05109 9 3.25 9H5.875C7.56522 9.00174 9.18572 9.67394 10.3809 10.8691C11.5761 12.0643 12.2483 13.6848 12.25 15.375V16.5C12.25 16.6989 12.329 16.8897 12.4697 17.0303C12.6103 17.171 12.8011 17.25 13 17.25H16.0216C16.079 17.7712 16.2572 18.2718 16.5418 18.7122C16.8265 19.1525 17.2098 19.5205 17.6615 19.7869C18.1131 20.0534 18.6206 20.2109 19.1437 20.247C19.6668 20.2831 20.1911 20.1969 20.6751 19.9951C21.1591 19.7933 21.5894 19.4815 21.9318 19.0844C22.2743 18.6874 22.5196 18.216 22.6482 17.7076C22.7768 17.1993 22.7851 16.668 22.6726 16.1559C22.5601 15.6437 22.3298 15.1648 22 14.7572ZM5.875 7.5H5.5V4.5H12.25V10.7597C11.521 9.7508 10.563 8.92927 9.45481 8.36261C8.34658 7.79594 7.11971 7.50031 5.875 7.5ZM13.75 9.97969L20.5 11.8125V13.6969C19.6566 13.3984 18.7292 13.4469 17.9216 13.8319C17.114 14.2169 16.4923 14.9068 16.1931 15.75H13.75V9.97969ZM19.375 18.75C19.0042 18.75 18.6417 18.64 18.3333 18.434C18.025 18.228 17.7846 17.9351 17.6427 17.5925C17.5008 17.2499 17.4637 16.8729 17.536 16.5092C17.6084 16.1455 17.787 15.8114 18.0492 15.5492C18.3114 15.287 18.6455 15.1084 19.0092 15.036C19.3729 14.9637 19.7499 15.0008 20.0925 15.1427C20.4351 15.2846 20.728 15.525 20.934 15.8333C21.14 16.1416 21.25 16.5042 21.25 16.875C21.25 17.3723 21.0525 17.8492 20.7008 18.2008C20.3492 18.5525 19.8723 18.75 19.375 18.75ZM5.875 10.5C4.91082 10.5 3.96829 10.7859 3.1666 11.3216C2.36491 11.8573 1.74007 12.6186 1.37109 13.5094C1.00211 14.4002 0.905571 15.3804 1.09367 16.3261C1.28178 17.2717 1.74608 18.1404 2.42786 18.8221C3.10964 19.5039 3.97828 19.9682 4.92394 20.1563C5.86959 20.3444 6.84979 20.2479 7.74058 19.8789C8.63137 19.5099 9.39275 18.8851 9.92842 18.0834C10.4641 17.2817 10.75 16.3392 10.75 15.375C10.7485 14.0825 10.2344 12.8434 9.3205 11.9295C8.40659 11.0156 7.16748 10.5015 5.875 10.5ZM5.875 18.75C5.20749 18.75 4.55497 18.5521 3.99995 18.1812C3.44494 17.8104 3.01235 17.2833 2.75691 16.6666C2.50146 16.0499 2.43463 15.3713 2.56485 14.7166C2.69508 14.0619 3.01651 13.4605 3.48852 12.9885C3.96052 12.5165 4.56189 12.1951 5.21657 12.0648C5.87126 11.9346 6.54986 12.0015 7.16656 12.2569C7.78326 12.5124 8.31036 12.9449 8.68121 13.5C9.05206 14.055 9.25 14.7075 9.25 15.375C9.25 16.2701 8.89442 17.1285 8.26149 17.7615C7.62855 18.3944 6.77011 18.75 5.875 18.75ZM7 15.375C7 15.5975 6.93402 15.815 6.81041 16C6.68679 16.185 6.51109 16.3292 6.30552 16.4144C6.09995 16.4995 5.87375 16.5218 5.65553 16.4784C5.4373 16.435 5.23684 16.3278 5.07951 16.1705C4.92217 16.0132 4.81503 15.8127 4.77162 15.5945C4.72821 15.3762 4.75049 15.15 4.83564 14.9445C4.92079 14.7389 5.06498 14.5632 5.24999 14.4396C5.43499 14.316 5.6525 14.25 5.875 14.25C6.17337 14.25 6.45952 14.3685 6.6705 14.5795C6.88148 14.7905 7 15.0766 7 15.375Z" fill="#1F1F1F"/>
</svg>
