<svg width="24" height="24" viewBox="0 0 24 24" fill="none" xmlns="http://www.w3.org/2000/svg">
<path d="M23.3954 5.193C23.3394 5.05464 23.2507 4.93191 23.1369 4.83535C23.023 4.73879 22.8875 4.67129 22.7418 4.63862C22.5961 4.60595 22.4447 4.6091 22.3005 4.64779C22.1563 4.68648 22.0237 4.75956 21.914 4.86076L17.2643 9.15113L15.2763 8.72428L14.8494 6.73657L19.1403 2.08742C19.2415 1.9777 19.3146 1.84507 19.3533 1.7009C19.392 1.55674 19.3951 1.40534 19.3625 1.25969C19.3298 1.11405 19.2623 0.978498 19.1657 0.864669C19.0691 0.750841 18.9464 0.662131 18.808 0.606147C17.5469 0.096048 16.1797 -0.0965516 14.8267 0.045271C13.4737 0.187094 12.1763 0.658997 11.0483 1.41952C9.9204 2.18004 8.99654 3.20591 8.35791 4.40697C7.71928 5.60804 7.38543 6.94756 7.3857 8.30782C7.38421 9.45647 7.61988 10.5931 8.07796 11.6464L1.13112 17.6523C1.11381 17.6661 1.09766 17.6823 1.0815 17.6973C0.389029 18.3897 0 19.3288 0 20.3079C0 20.7928 0.0955089 21.2729 0.281074 21.7208C0.466638 22.1688 0.738625 22.5758 1.0815 22.9186C1.42438 23.2615 1.83144 23.5334 2.27943 23.719C2.72743 23.9045 3.20758 24 3.69249 24C4.67179 24 5.61099 23.611 6.30347 22.9186C6.31847 22.9036 6.33462 22.8863 6.34846 22.8702L12.3538 15.9218C13.6189 16.4771 15.0024 16.7081 16.3792 16.5939C17.7561 16.4798 19.0827 16.0241 20.239 15.2681C21.3953 14.5122 22.3448 13.4798 23.0015 12.2645C23.6582 11.0491 24.0014 9.6892 24 8.30782C24.0018 7.24023 23.7965 6.18242 23.3954 5.193ZM15.6928 14.7682C14.6003 14.7667 13.5259 14.4889 12.5696 13.9606C12.3843 13.8583 12.1695 13.8227 11.9611 13.8599C11.7528 13.8971 11.5635 14.0047 11.4251 14.1648L4.97548 21.6335C4.62646 21.965 4.16172 22.1471 3.68035 22.141C3.19898 22.1348 2.73905 21.9409 2.39864 21.6005C2.05823 21.2601 1.86427 20.8002 1.8581 20.3189C1.85194 19.8376 2.03407 19.3729 2.36565 19.0239L9.82939 12.5763C9.98977 12.4378 10.0976 12.2483 10.1348 12.0397C10.172 11.8311 10.1363 11.6161 10.0336 11.4307C9.44522 10.3666 9.16909 9.15816 9.23696 7.94417C9.30484 6.73019 9.71396 5.56 10.4173 4.56814C11.1206 3.57628 12.0896 2.80301 13.2129 2.33723C14.3362 1.87146 15.5681 1.73208 16.767 1.93514L13.1672 5.83558C13.0671 5.94422 12.9945 6.07532 12.9555 6.21785C12.9166 6.36039 12.9124 6.51019 12.9434 6.65466L13.5964 9.69219C13.6338 9.86591 13.7205 10.0252 13.8462 10.1508C13.9718 10.2765 14.1311 10.3632 14.3049 10.4005L17.345 11.0535C17.4895 11.0845 17.6394 11.0803 17.7819 11.0414C17.9245 11.0024 18.0556 10.9298 18.1642 10.8297L22.0651 7.23033C22.2206 8.1567 22.1725 9.10584 21.9239 10.0117C21.6754 10.9176 21.2325 11.7585 20.6261 12.4759C20.0196 13.1932 19.2641 13.7699 18.4122 14.1658C17.5603 14.5617 16.6323 14.7672 15.6928 14.7682Z" fill="#1F1F1F"/>
</svg>
