<svg width="24" height="24" viewBox="0 0 24 24" fill="none" xmlns="http://www.w3.org/2000/svg">
<path d="M18.6445 4.85574C16.816 3.02724 14.336 2 11.7501 2C9.16423 2 6.68425 3.02724 4.85574 4.85574C3.02724 6.68425 2 9.16423 2 11.7501C2 14.336 3.02724 16.816 4.85574 18.6445C6.68425 20.473 9.16423 21.5002 11.7501 21.5002C14.336 21.5002 16.816 20.473 18.6445 18.6445C20.473 16.816 21.5002 14.336 21.5002 11.7501C21.5002 9.16423 20.473 6.68425 18.6445 4.85574ZM17.5842 5.91699C17.9687 6.30322 18.3142 6.72653 18.6154 7.18074L15.4579 10.9064L12.8404 3.57324C14.6375 3.80799 16.3059 4.63229 17.5842 5.91699ZM14.3367 12.2189L12.6342 14.2223L10.0476 13.7536L9.16356 11.2814L10.8661 9.27793L13.4526 9.74668L14.3367 12.2189ZM5.91606 5.91699C7.33249 4.49286 9.22299 3.63903 11.2279 3.51793L12.8695 8.11168L5.21574 6.71762C5.43172 6.43596 5.66564 6.16853 5.91606 5.91699ZM4.12356 14.8945C3.6785 13.8077 3.46949 12.6387 3.51038 11.4649C3.55127 10.2912 3.84113 9.13959 4.36074 8.08637L9.16168 8.96293L4.12356 14.8945ZM5.91606 17.5832C5.53149 17.197 5.18606 16.7737 4.88481 16.3195L8.04231 12.5939L10.6598 19.9232C8.86322 19.6895 7.19488 18.8666 5.91606 17.5832ZM17.5842 17.5832C16.1677 19.0074 14.2773 19.8612 12.2723 19.9823L10.6307 15.3886L18.2845 16.7864C18.0684 17.0667 17.8345 17.3329 17.5842 17.5832ZM14.3386 14.5373L19.3767 8.60574C19.8217 9.69258 20.0307 10.8616 19.9899 12.0353C19.949 13.209 19.6591 14.3606 19.1395 15.4139L14.3386 14.5373Z" fill="#277F60"/>
</svg>
